<svg width="1728" height="751" viewBox="0 0 1728 751" fill="none" xmlns="http://www.w3.org/2000/svg">
<g opacity="0.28">
<path d="M66.6732 596.158C66.6732 596.775 66.1339 597.276 65.4688 597.276C64.8164 597.286 64.2785 596.786 64.2661 596.158C64.2661 595.54 64.8054 595.038 65.4688 595.038C66.1339 595.038 66.6732 595.54 66.6732 596.158Z" fill="#4ECDC4"/>
<path d="M99.7465 588.417C99.7347 589.045 99.1968 589.546 98.5436 589.537C97.89 589.547 97.3509 589.046 97.3394 588.417C97.3394 587.8 97.8787 587.298 98.5436 587.298C99.2072 587.298 99.7465 587.8 99.7465 588.417Z" fill="#4ECDC4"/>
<path d="M282.915 684.302C282.915 684.92 282.375 685.42 281.71 685.42C281.057 685.431 280.518 684.93 280.508 684.302C280.518 683.673 281.057 683.172 281.71 683.183C282.375 683.183 282.915 683.683 282.915 684.302Z" fill="#4ECDC4"/>
<path d="M402.57 616.932C402.559 617.561 402.021 618.062 401.367 618.051C400.702 618.051 400.163 617.551 400.163 616.932C400.163 616.314 400.702 615.814 401.367 615.814C402.021 615.803 402.559 616.304 402.57 616.932Z" fill="#4ECDC4"/>
<path d="M360.798 664.103C360.787 664.732 360.248 665.233 359.594 665.223C358.941 665.233 358.402 664.732 358.391 664.103C358.402 663.474 358.941 662.973 359.594 662.985C360.259 662.985 360.798 663.486 360.798 664.103Z" fill="#4ECDC4"/>
<path d="M276.542 560.041C276.531 560.67 275.992 561.171 275.339 561.16C274.686 561.171 274.147 560.67 274.136 560.041C274.147 559.413 274.686 558.912 275.339 558.923C275.992 558.912 276.531 559.413 276.542 560.041Z" fill="#4ECDC4"/>
<path d="M148.326 337.07C148.315 337.699 147.776 338.2 147.123 338.188C146.47 338.2 145.931 337.699 145.92 337.07C145.931 336.441 146.47 335.94 147.123 335.952C147.776 335.94 148.315 336.441 148.326 337.07Z" fill="#4ECDC4"/>
<path d="M221.212 424.524C221.201 425.153 220.663 425.654 220.01 425.643C219.356 425.654 218.817 425.153 218.807 424.524C218.817 423.896 219.356 423.395 220.01 423.406C220.663 423.395 221.201 423.896 221.212 424.524Z" fill="#4ECDC4"/>
<path d="M258.171 371.148C258.16 371.777 257.622 372.279 256.969 372.268C256.315 372.279 255.776 371.777 255.766 371.148C255.776 370.52 256.315 370.019 256.969 370.03C257.622 370.019 258.16 370.52 258.171 371.148Z" fill="#4ECDC4"/>
<path d="M28.1661 459.362C28.1553 459.991 27.6164 460.492 26.9632 460.48C26.31 460.492 25.7713 459.991 25.7605 459.362C25.7713 458.733 26.31 458.232 26.9632 458.244C27.6164 458.232 28.1553 458.733 28.1661 459.362Z" fill="#4ECDC4"/>
<path d="M80.7685 508.582C80.7569 509.211 80.2189 509.712 79.5658 509.702C78.9122 509.713 78.3732 509.211 78.3616 508.582C78.3616 507.965 78.9007 507.464 79.5658 507.464C80.2294 507.464 80.7685 507.965 80.7685 508.582Z" fill="#4ECDC4"/>
<path d="M5.13141 557.803C5.11982 558.432 4.58173 558.933 3.92854 558.923C3.27551 558.933 2.73742 558.432 2.72583 557.803C2.73664 557.174 3.27536 556.673 3.92854 556.685C4.58173 556.673 5.1206 557.174 5.13141 557.803Z" fill="#4ECDC4"/>
<path d="M389.848 538.068C389.838 538.696 389.299 539.197 388.646 539.186C387.993 539.197 387.454 538.696 387.443 538.068C387.443 537.449 387.981 536.948 388.646 536.948C389.311 536.948 389.848 537.449 389.848 538.068Z" fill="#4ECDC4"/>
<path d="M543.014 521.447C543.003 522.076 542.464 522.577 541.811 522.565C541.158 522.577 540.619 522.076 540.608 521.447C540.619 520.818 541.158 520.317 541.811 520.329C542.464 520.317 543.003 520.818 543.014 521.447Z" fill="#4ECDC4"/>
<path d="M370.596 529.678C370.596 530.295 370.057 530.796 369.392 530.796C368.74 530.806 368.202 530.306 368.189 529.678C368.189 529.06 368.729 528.558 369.392 528.558C370.057 528.558 370.596 529.06 370.596 529.678Z" fill="#4ECDC4"/>
<path d="M231.7 208.785C231.7 209.402 231.16 209.903 230.495 209.903C229.843 209.913 229.305 209.413 229.292 208.785C229.303 208.156 229.842 207.655 230.495 207.667C231.16 207.667 231.7 208.167 231.7 208.785Z" fill="#4ECDC4"/>
<path d="M359.594 262.48C359.583 263.109 359.045 263.61 358.391 263.599C357.726 263.599 357.187 263.097 357.187 262.48C357.187 261.862 357.726 261.362 358.391 261.362C359.045 261.351 359.583 261.852 359.594 262.48Z" fill="#4ECDC4"/>
<path d="M387.443 315.177C387.443 315.794 386.904 316.295 386.239 316.295C385.586 316.305 385.048 315.805 385.036 315.177C385.036 314.559 385.575 314.057 386.239 314.057C386.904 314.057 387.443 314.559 387.443 315.177Z" fill="#4ECDC4"/>
<path d="M7.53832 113.819C7.52766 114.448 6.98911 114.95 6.33561 114.939C5.68165 114.95 5.14216 114.449 5.13135 113.819C5.13135 113.202 5.67052 112.701 6.33561 112.701C6.99915 112.701 7.53832 113.202 7.53832 113.819Z" fill="#4ECDC4"/>
<path d="M94.1764 150.004C94.1658 150.633 93.6269 151.134 92.9737 151.123C92.3205 151.134 91.7817 150.633 91.771 150.004C91.7817 149.375 92.3205 148.874 92.9737 148.886C93.6269 148.874 94.1658 149.375 94.1764 150.004Z" fill="#4ECDC4"/>
<path d="M118.93 398.369C118.92 398.998 118.381 399.499 117.728 399.487C117.074 399.499 116.536 398.998 116.525 398.369C116.536 397.74 117.074 397.239 117.728 397.251C118.381 397.239 118.92 397.74 118.93 398.369Z" fill="#4ECDC4"/>
<path d="M260.579 481.096C260.568 481.725 260.029 482.226 259.376 482.214C258.711 482.214 258.171 481.714 258.171 481.096C258.171 480.478 258.711 479.978 259.376 479.978C260.029 479.966 260.568 480.467 260.579 481.096Z" fill="#4ECDC4"/>
<path d="M102.154 219.174C102.142 219.803 101.603 220.304 100.949 220.294C100.296 220.304 99.7582 219.803 99.7466 219.174C99.7466 218.557 100.286 218.056 100.949 218.056C101.614 218.056 102.154 218.557 102.154 219.174Z" fill="#4ECDC4"/>
<path d="M9.94545 281.401C9.93463 282.03 9.395 282.531 8.7412 282.519C8.08801 282.531 7.54914 282.03 7.53833 281.401C7.54914 280.772 8.08801 280.271 8.7412 280.282C9.395 280.27 9.93463 280.771 9.94545 281.401Z" fill="#4ECDC4"/>
<path d="M47.4196 359.284C47.4078 359.912 46.8696 360.413 46.2167 360.402C45.5634 360.414 45.024 359.913 45.0125 359.284C45.0125 358.666 45.5518 358.164 46.2167 358.164C46.8818 358.164 47.4196 358.666 47.4196 359.284Z" fill="#4ECDC4"/>
<path d="M205.226 226.683C205.215 227.312 204.677 227.813 204.023 227.801C203.358 227.801 202.819 227.301 202.819 226.683C202.819 226.065 203.358 225.565 204.023 225.565C204.677 225.553 205.215 226.054 205.226 226.683Z" fill="#4ECDC4"/>
<path d="M404.977 196.001C404.977 196.617 404.438 197.119 403.773 197.119C403.12 197.129 402.583 196.629 402.57 196.001C402.57 195.382 403.11 194.881 403.773 194.881C404.438 194.881 404.977 195.382 404.977 196.001Z" fill="#4ECDC4"/>
<path d="M319.369 348.096C319.357 348.724 318.819 349.225 318.166 349.216C317.513 349.226 316.974 348.725 316.962 348.096C316.962 347.479 317.501 346.978 318.166 346.978C318.83 346.978 319.369 347.479 319.369 348.096Z" fill="#4ECDC4"/>
<path d="M502.961 399.488C502.95 400.117 502.411 400.618 501.757 400.607C501.104 400.617 500.566 400.116 500.554 399.488C500.554 398.871 501.094 398.369 501.757 398.369C502.422 398.369 502.961 398.871 502.961 399.488Z" fill="#4ECDC4"/>
<path d="M368.189 221.412C368.177 222.04 367.639 222.54 366.986 222.53C366.322 222.53 365.782 222.029 365.782 221.412C365.782 220.794 366.322 220.294 366.986 220.294C367.64 220.282 368.179 220.783 368.189 221.412Z" fill="#4ECDC4"/>
<path d="M350.311 126.318C350.301 126.947 349.762 127.449 349.109 127.438C348.455 127.449 347.916 126.947 347.906 126.318C347.917 125.689 348.455 125.188 349.109 125.199C349.762 125.188 350.301 125.689 350.311 126.318Z" fill="#4ECDC4"/>
<path d="M309.571 89.2431C309.56 89.8721 309.021 90.3728 308.367 90.3615C307.714 90.372 307.176 89.8715 307.164 89.2431C307.175 88.6144 307.714 88.1134 308.367 88.1247C309.032 88.1247 309.571 88.6248 309.571 89.2431Z" fill="#4ECDC4"/>
<path d="M484.955 175.147C484.955 175.765 484.415 176.265 483.75 176.265C483.097 176.277 482.558 175.776 482.548 175.147C482.548 174.53 483.087 174.029 483.75 174.029C484.415 174.029 484.955 174.53 484.955 175.147Z" fill="#4ECDC4"/>
<path d="M463.08 126.317C463.069 126.947 462.53 127.448 461.876 127.437C461.223 127.448 460.684 126.946 460.673 126.317C460.673 125.701 461.213 125.199 461.876 125.199C462.541 125.199 463.08 125.701 463.08 126.317Z" fill="#4ECDC4"/>
<path d="M592.35 189.567C592.34 190.196 591.801 190.697 591.148 190.686C590.483 190.686 589.943 190.186 589.943 189.567C589.943 188.951 590.483 188.449 591.148 188.449C591.811 188.449 592.35 188.951 592.35 189.567Z" fill="#4ECDC4"/>
<path d="M525.684 317.414C525.673 318.042 525.134 318.543 524.481 318.532C523.828 318.543 523.289 318.042 523.279 317.414C523.289 316.785 523.828 316.284 524.481 316.295C525.134 316.284 525.673 316.785 525.684 317.414Z" fill="#4ECDC4"/>
<path d="M378.536 429.638C378.524 430.266 377.986 430.767 377.333 430.758C376.679 430.768 376.14 430.267 376.129 429.638C376.129 429.021 376.668 428.52 377.333 428.52C377.996 428.52 378.536 429.021 378.536 429.638Z" fill="#4ECDC4"/>
<path d="M558.689 196.839C558.679 197.468 558.14 197.969 557.487 197.958C556.833 197.969 556.294 197.468 556.284 196.839C556.294 196.211 556.833 195.71 557.487 195.721C558.14 195.71 558.679 196.211 558.689 196.839Z" fill="#4ECDC4"/>
<path d="M546.624 348.096C546.613 348.725 546.074 349.226 545.421 349.216C544.767 349.226 544.229 348.725 544.218 348.096C544.229 347.467 544.768 346.966 545.421 346.978C546.074 346.966 546.613 347.467 546.624 348.096Z" fill="#4ECDC4"/>
<path d="M423.113 472.706C423.113 473.325 422.573 473.825 421.909 473.825C421.255 473.836 420.717 473.335 420.706 472.706C420.717 472.078 421.255 471.577 421.909 471.588C422.573 471.588 423.113 472.088 423.113 472.706Z" fill="#4ECDC4"/>
<path d="M544.218 101.355C544.205 101.984 543.667 102.484 543.014 102.474C542.361 102.484 541.823 101.984 541.811 101.355C541.811 100.737 542.35 100.235 543.014 100.235C543.679 100.235 544.218 100.737 544.218 101.355Z" fill="#4ECDC4"/>
<path d="M438.755 286.451C438.744 287.08 438.205 287.581 437.552 287.57C436.899 287.581 436.36 287.08 436.349 286.451C436.36 285.823 436.899 285.322 437.552 285.333C438.205 285.322 438.744 285.823 438.755 286.451Z" fill="#4ECDC4"/>
<path d="M579.027 434.753C579.017 435.381 578.478 435.882 577.825 435.871C577.172 435.882 576.633 435.381 576.622 434.753C576.622 434.134 577.16 433.633 577.825 433.633C578.49 433.633 579.027 434.134 579.027 434.753Z" fill="#4ECDC4"/>
<path d="M34.7842 194.881C34.7842 196.581 33.3028 197.958 31.4758 197.958C29.6474 197.958 28.166 196.581 28.166 194.881C28.166 193.183 29.6474 191.806 31.4758 191.806C33.3028 191.806 34.7842 193.183 34.7842 194.881Z" fill="#4ECDC4"/>
<path d="M267.197 298.437C267.197 300.135 265.715 301.513 263.888 301.513C262.06 301.513 260.578 300.135 260.578 298.437C260.578 296.738 262.06 295.36 263.888 295.36C265.715 295.36 267.197 296.738 267.197 298.437Z" fill="#4ECDC4"/>
<path d="M200.414 533.873C200.414 535.572 198.93 536.948 197.104 536.948C195.277 536.948 193.795 535.572 193.795 533.873C193.795 532.173 195.277 530.796 197.104 530.796C198.93 530.796 200.414 532.173 200.414 533.873Z" fill="#4ECDC4"/>
<path d="M12.0513 631.274C12.0513 632.975 10.5697 634.351 8.74129 634.351C6.91444 634.351 5.43286 632.975 5.43286 631.274C5.43286 629.576 6.91444 628.199 8.74129 628.199C10.5697 628.199 12.0513 629.576 12.0513 631.274Z" fill="#4ECDC4"/>
<path d="M429.731 393.056C429.731 394.755 428.25 396.133 426.421 396.133C424.594 396.133 423.113 394.755 423.113 393.056C423.113 391.357 424.594 389.979 426.421 389.979C428.25 389.979 429.731 391.357 429.731 393.056Z" fill="#4ECDC4"/>
<path d="M482.548 623.364C482.548 625.063 481.066 626.441 479.239 626.441C477.411 626.441 475.929 625.063 475.929 623.364C475.929 621.666 477.411 620.288 479.239 620.288C481.066 620.288 482.548 621.665 482.548 623.364Z" fill="#4ECDC4"/>
<path d="M513.618 476.901C513.618 478.6 512.137 479.978 510.31 479.978C508.483 479.978 507 478.6 507 476.901C507 475.203 508.483 473.825 510.31 473.825C512.137 473.825 513.618 475.203 513.618 476.901Z" fill="#4ECDC4"/>
<path d="M316.19 633.593C316.19 635.291 314.708 636.669 312.88 636.669C311.053 636.669 309.571 635.291 309.571 633.593C309.571 631.893 311.053 630.516 312.88 630.516C314.708 630.516 316.19 631.893 316.19 633.593Z" fill="#4ECDC4"/>
<path fill-rule="evenodd" clip-rule="evenodd" d="M317.448 423.858L306.448 434.085L305.475 433.181L316.476 422.954L317.448 423.858Z" fill="#4ECDC4"/>
<path fill-rule="evenodd" clip-rule="evenodd" d="M99.1164 282.965L88.2534 272.611L89.2381 271.719L100.101 282.073L99.1164 282.965Z" fill="#4ECDC4"/>
<path fill-rule="evenodd" clip-rule="evenodd" d="M493.468 586.047L480.724 577.75L481.513 576.703L494.256 585.001L493.468 586.047Z" fill="#4ECDC4"/>
<path fill-rule="evenodd" clip-rule="evenodd" d="M287.689 132.109L274.945 123.813L275.734 122.765L288.477 131.061L287.689 132.109Z" fill="#4ECDC4"/>
<path fill-rule="evenodd" clip-rule="evenodd" d="M520.402 144.191L517.106 158.327L515.762 158.056L519.057 143.919L520.402 144.191Z" fill="#4ECDC4"/>
<path d="M147.123 461.919C147.112 462.548 146.574 463.049 145.92 463.038C145.255 463.038 144.716 462.538 144.716 461.919C144.716 461.301 145.255 460.801 145.92 460.801C146.574 460.79 147.112 461.291 147.123 461.919Z" fill="#4ECDC4"/>
<path d="M78.3616 619.169C78.3508 619.798 77.812 620.299 77.1588 620.288C76.5056 620.299 75.9669 619.798 75.9561 619.169C75.9669 618.541 76.5056 618.04 77.1588 618.051C77.812 618.04 78.3508 618.541 78.3616 619.169Z" fill="#4ECDC4"/>
<path d="M495.913 225.607C495.913 227.306 494.432 228.684 492.604 228.684C490.776 228.684 489.295 227.306 489.295 225.607C489.295 223.909 490.776 222.531 492.604 222.531C494.431 222.531 495.913 223.909 495.913 225.607Z" fill="#4ECDC4"/>
<path d="M84.9798 434.753C84.9798 436.452 83.4984 437.828 81.6714 437.828C79.843 437.828 78.3616 436.452 78.3616 434.753C78.3616 433.053 79.843 431.676 81.6714 431.676C83.4982 431.676 84.9798 433.053 84.9798 434.753Z" fill="#4ECDC4"/>
<path d="M171.103 173.19C171.103 174.889 169.621 176.265 167.794 176.265C165.966 176.265 164.485 174.889 164.485 173.19C164.485 171.49 165.966 170.114 167.794 170.114C169.621 170.114 171.103 171.49 171.103 173.19Z" fill="#4ECDC4"/>
<path fill-rule="evenodd" clip-rule="evenodd" d="M195.971 371.6L184.968 381.829L183.996 380.925L194.998 370.696L195.971 371.6Z" fill="#4ECDC4"/>
<path d="M663.26 351.292C663.26 352.992 661.778 354.368 659.952 354.368C658.123 354.368 656.642 352.992 656.642 351.292C656.642 349.593 658.123 348.217 659.952 348.217C661.778 348.217 663.26 349.593 663.26 351.292Z" fill="#4ECDC4"/>
<path fill-rule="evenodd" clip-rule="evenodd" d="M654.721 448.469L643.72 458.696L642.748 457.792L653.748 447.565L654.721 448.469Z" fill="#4ECDC4"/>
<path d="M622.605 637.427C622.605 639.126 621.123 640.504 619.296 640.504C617.468 640.504 615.987 639.126 615.987 637.427C615.987 635.728 617.468 634.351 619.296 634.351C621.123 634.351 622.605 635.728 622.605 637.427Z" fill="#4ECDC4"/>
<path d="M607.134 534.791C607.123 535.42 606.584 535.921 605.931 535.91C605.266 535.91 604.727 535.41 604.727 534.791C604.727 534.173 605.266 533.673 605.931 533.673C606.584 533.662 607.123 534.163 607.134 534.791Z" fill="#4ECDC4"/>
<path d="M561.096 666.341C561.084 666.969 560.546 667.469 559.894 667.459C559.229 667.459 558.689 666.958 558.689 666.341C558.689 665.723 559.229 665.222 559.894 665.222C560.547 665.211 561.086 665.712 561.096 666.341Z" fill="#4ECDC4"/>
<path d="M545.25 619.169C545.25 619.787 544.71 620.288 544.045 620.288C543.392 620.299 542.853 619.798 542.843 619.169C542.853 618.541 543.392 618.04 544.045 618.051C544.71 618.051 545.25 618.551 545.25 619.169Z" fill="#4ECDC4"/>
<path d="M625.012 124.406C625.001 125.035 624.462 125.536 623.809 125.526C623.155 125.536 622.616 125.035 622.605 124.406C622.605 123.789 623.144 123.288 623.809 123.288C624.473 123.288 625.012 123.789 625.012 124.406Z" fill="#4ECDC4"/>
<path d="M594.758 273.986C594.758 274.604 594.218 275.105 593.553 275.105C592.9 275.116 592.361 274.615 592.35 273.986C592.361 273.357 592.9 272.856 593.553 272.868C594.218 272.868 594.758 273.368 594.758 273.986Z" fill="#4ECDC4"/>
<path d="M479.239 679.257C479.239 679.875 478.7 680.375 478.035 680.375C477.382 680.386 476.843 679.885 476.832 679.257C476.843 678.628 477.382 678.127 478.035 678.138C478.7 678.138 479.239 678.638 479.239 679.257Z" fill="#4ECDC4"/>
<path d="M604.383 703.227C604.372 703.856 603.834 704.358 603.18 704.347C602.527 704.358 601.988 703.856 601.977 703.227C601.988 702.599 602.527 702.098 603.18 702.109C603.833 702.098 604.372 702.599 604.383 703.227Z" fill="#4ECDC4"/>
<path d="M403.773 706.304C403.773 708.003 402.291 709.381 400.464 709.381C398.636 709.381 397.155 708.003 397.155 706.304C397.155 704.605 398.636 703.228 400.464 703.228C402.291 703.228 403.773 704.605 403.773 706.304Z" fill="#4ECDC4"/>
<path fill-rule="evenodd" clip-rule="evenodd" d="M190.823 653.207L197.987 666.046L196.766 666.634L189.604 653.794L190.823 653.207Z" fill="#4ECDC4"/>
<path d="M165.689 741.902C165.689 742.518 165.15 743.02 164.485 743.02C163.832 743.03 163.294 742.53 163.282 741.902C163.293 741.273 163.831 740.772 164.485 740.783C165.15 740.783 165.689 741.283 165.689 741.902Z" fill="#4ECDC4"/>
<path d="M127.869 686.54C127.859 687.169 127.32 687.669 126.667 687.658C126.013 687.669 125.475 687.169 125.464 686.54C125.464 685.921 126.002 685.42 126.667 685.42C127.332 685.42 127.869 685.921 127.869 686.54Z" fill="#4ECDC4"/>
<path d="M184.482 593.919C184.471 594.548 183.933 595.049 183.279 595.038C182.614 595.038 182.075 594.538 182.075 593.919C182.075 593.303 182.614 592.801 183.279 592.801C183.943 592.801 184.482 593.303 184.482 593.919Z" fill="#4ECDC4"/>
<path d="M656.642 693.32C656.631 693.948 656.092 694.449 655.439 694.438C654.774 694.438 654.235 693.938 654.235 693.32C654.235 692.701 654.774 692.201 655.439 692.201C656.092 692.19 656.631 692.691 656.642 693.32Z" fill="#4ECDC4"/>
<path d="M66.6731 716.865C66.6731 718.564 65.1915 719.942 63.3631 719.942C61.5363 719.942 60.0547 718.564 60.0547 716.865C60.0547 715.166 61.5363 713.789 63.3631 713.789C65.1915 713.789 66.6731 715.166 66.6731 716.865Z" fill="#4ECDC4"/>
<path d="M479.239 40.0315C479.227 40.6601 478.688 41.1604 478.035 41.1499C477.382 41.1604 476.844 40.6599 476.832 40.0315C476.832 39.4132 477.371 38.9116 478.035 38.9116C478.7 38.9116 479.239 39.4132 479.239 40.0315Z" fill="#4ECDC4"/>
<path d="M604.383 64.0024C604.372 64.6311 603.833 65.1321 603.18 65.1206C602.527 65.1321 601.988 64.6311 601.977 64.0024C601.988 63.3737 602.527 62.8727 603.18 62.884C603.833 62.8727 604.372 63.3737 604.383 64.0024Z" fill="#4ECDC4"/>
<path d="M403.773 67.0789C403.773 68.7776 402.291 70.1555 400.464 70.1555C398.636 70.1555 397.155 68.7776 397.155 67.0789C397.155 65.3788 398.636 64.0024 400.464 64.0024C402.291 64.0024 403.773 65.3788 403.773 67.0789Z" fill="#4ECDC4"/>
<path fill-rule="evenodd" clip-rule="evenodd" d="M190.823 13.98L197.987 26.8199L196.766 27.4089L189.604 14.569L190.823 13.98Z" fill="#4ECDC4"/>
<path d="M165.689 102.675C165.677 103.304 165.138 103.804 164.485 103.793C163.832 103.804 163.293 103.303 163.282 102.675C163.282 102.058 163.821 101.557 164.485 101.557C165.15 101.557 165.689 102.057 165.689 102.675Z" fill="#4ECDC4"/>
<path d="M239.263 147.768C239.251 148.396 238.712 148.896 238.059 148.886C237.406 148.896 236.868 148.396 236.856 147.768C236.867 147.139 237.406 146.638 238.059 146.649C238.724 146.649 239.263 147.149 239.263 147.768Z" fill="#4ECDC4"/>
<path d="M321.776 192.924C321.776 193.542 321.237 194.042 320.572 194.042C319.919 194.054 319.38 193.553 319.369 192.924C319.38 192.295 319.919 191.794 320.572 191.806C321.237 191.806 321.776 192.306 321.776 192.924Z" fill="#4ECDC4"/>
<path d="M186.889 288.688C186.889 289.306 186.35 289.806 185.685 289.806C185.032 289.818 184.493 289.317 184.482 288.688C184.482 288.071 185.021 287.57 185.685 287.57C186.35 287.57 186.889 288.071 186.889 288.688Z" fill="#4ECDC4"/>
<path d="M656.642 54.0943C656.63 54.7228 656.092 55.2233 655.439 55.2127C654.786 55.2233 654.247 54.7231 654.235 54.0943C654.235 53.4762 654.774 52.9746 655.439 52.9746C656.102 52.9746 656.642 53.4762 656.642 54.0943Z" fill="#4ECDC4"/>
<path d="M66.6731 77.6395C66.6731 79.3381 65.1915 80.716 63.3631 80.716C61.5363 80.716 60.0547 79.3381 60.0547 77.6395C60.0547 75.9394 61.5363 74.563 63.3631 74.563C65.1915 74.563 66.6731 75.9394 66.6731 77.6395Z" fill="#4ECDC4"/>
</g>
<g opacity="0.28">
<path d="M875.673 593.158C875.673 593.775 875.134 594.276 874.469 594.276C873.816 594.286 873.278 593.786 873.266 593.158C873.266 592.54 873.805 592.038 874.469 592.038C875.134 592.038 875.673 592.54 875.673 593.158Z" fill="#4ECDC4"/>
<path d="M908.747 585.417C908.735 586.045 908.197 586.546 907.544 586.537C906.89 586.547 906.351 586.046 906.339 585.417C906.339 584.8 906.879 584.298 907.544 584.298C908.207 584.298 908.747 584.8 908.747 585.417Z" fill="#4ECDC4"/>
<path d="M1091.91 681.302C1091.91 681.92 1091.38 682.42 1090.71 682.42C1090.06 682.431 1089.52 681.93 1089.51 681.302C1089.52 680.673 1090.06 680.172 1090.71 680.183C1091.38 680.183 1091.91 680.683 1091.91 681.302Z" fill="#4ECDC4"/>
<path d="M1211.57 613.932C1211.56 614.561 1211.02 615.062 1210.37 615.051C1209.7 615.051 1209.16 614.551 1209.16 613.932C1209.16 613.314 1209.7 612.814 1210.37 612.814C1211.02 612.803 1211.56 613.304 1211.57 613.932Z" fill="#4ECDC4"/>
<path d="M1169.8 661.103C1169.79 661.732 1169.25 662.233 1168.59 662.223C1167.94 662.233 1167.4 661.732 1167.39 661.103C1167.4 660.474 1167.94 659.973 1168.59 659.985C1169.26 659.985 1169.8 660.486 1169.8 661.103Z" fill="#4ECDC4"/>
<path d="M1085.54 557.041C1085.53 557.67 1084.99 558.171 1084.34 558.16C1083.69 558.171 1083.15 557.67 1083.14 557.041C1083.15 556.413 1083.69 555.912 1084.34 555.923C1084.99 555.912 1085.53 556.413 1085.54 557.041Z" fill="#4ECDC4"/>
<path d="M957.326 334.07C957.315 334.699 956.776 335.2 956.123 335.188C955.47 335.2 954.931 334.699 954.92 334.07C954.931 333.441 955.47 332.94 956.123 332.952C956.776 332.94 957.315 333.441 957.326 334.07Z" fill="#4ECDC4"/>
<path d="M1030.21 421.524C1030.2 422.153 1029.66 422.654 1029.01 422.643C1028.36 422.654 1027.82 422.153 1027.81 421.524C1027.82 420.896 1028.36 420.395 1029.01 420.406C1029.66 420.395 1030.2 420.896 1030.21 421.524Z" fill="#4ECDC4"/>
<path d="M1067.17 368.148C1067.16 368.777 1066.62 369.279 1065.97 369.268C1065.32 369.279 1064.78 368.777 1064.77 368.148C1064.78 367.52 1065.32 367.019 1065.97 367.03C1066.62 367.019 1067.16 367.52 1067.17 368.148Z" fill="#4ECDC4"/>
<path d="M837.166 456.362C837.155 456.991 836.616 457.492 835.963 457.48C835.31 457.492 834.771 456.991 834.76 456.362C834.771 455.733 835.31 455.232 835.963 455.244C836.616 455.232 837.155 455.733 837.166 456.362Z" fill="#4ECDC4"/>
<path d="M889.769 505.582C889.757 506.211 889.219 506.712 888.566 506.702C887.912 506.713 887.373 506.211 887.362 505.582C887.362 504.965 887.901 504.464 888.566 504.464C889.229 504.464 889.769 504.965 889.769 505.582Z" fill="#4ECDC4"/>
<path d="M814.131 554.803C814.12 555.432 813.582 555.933 812.929 555.923C812.276 555.933 811.737 555.432 811.726 554.803C811.737 554.174 812.275 553.673 812.929 553.685C813.582 553.673 814.121 554.174 814.131 554.803Z" fill="#4ECDC4"/>
<path d="M775.626 577.256C775.614 577.885 775.076 578.386 774.423 578.376C773.769 578.386 773.23 577.885 773.219 577.256C773.219 576.639 773.758 576.138 774.423 576.138C775.086 576.138 775.626 576.639 775.626 577.256Z" fill="#4ECDC4"/>
<path d="M1198.85 535.068C1198.84 535.696 1198.3 536.197 1197.65 536.186C1196.99 536.197 1196.45 535.696 1196.44 535.068C1196.44 534.449 1196.98 533.948 1197.65 533.948C1198.31 533.948 1198.85 534.449 1198.85 535.068Z" fill="#4ECDC4"/>
<path d="M1352.01 518.447C1352 519.076 1351.46 519.577 1350.81 519.565C1350.16 519.577 1349.62 519.076 1349.61 518.447C1349.62 517.818 1350.16 517.317 1350.81 517.329C1351.46 517.317 1352 517.818 1352.01 518.447Z" fill="#4ECDC4"/>
<path d="M1179.6 526.678C1179.6 527.295 1179.06 527.796 1178.39 527.796C1177.74 527.806 1177.2 527.306 1177.19 526.678C1177.19 526.06 1177.73 525.558 1178.39 525.558C1179.06 525.558 1179.6 526.06 1179.6 526.678Z" fill="#4ECDC4"/>
<path d="M1040.7 205.785C1040.7 206.402 1040.16 206.903 1039.5 206.903C1038.84 206.913 1038.3 206.413 1038.29 205.785C1038.3 205.156 1038.84 204.655 1039.5 204.667C1040.16 204.667 1040.7 205.167 1040.7 205.785Z" fill="#4ECDC4"/>
<path d="M1168.59 259.48C1168.58 260.109 1168.04 260.61 1167.39 260.599C1166.73 260.599 1166.19 260.097 1166.19 259.48C1166.19 258.862 1166.73 258.362 1167.39 258.362C1168.04 258.351 1168.58 258.852 1168.59 259.48Z" fill="#4ECDC4"/>
<path d="M1196.44 312.177C1196.44 312.794 1195.9 313.295 1195.24 313.295C1194.59 313.305 1194.05 312.805 1194.04 312.177C1194.04 311.559 1194.58 311.057 1195.24 311.057C1195.9 311.057 1196.44 311.559 1196.44 312.177Z" fill="#4ECDC4"/>
<path d="M816.538 110.819C816.528 111.448 815.989 111.95 815.336 111.939C814.682 111.95 814.142 111.449 814.131 110.819C814.131 110.202 814.671 109.701 815.336 109.701C815.999 109.701 816.538 110.202 816.538 110.819Z" fill="#4ECDC4"/>
<path d="M903.176 147.004C903.166 147.633 902.627 148.134 901.974 148.123C901.321 148.134 900.782 147.633 900.771 147.004C900.782 146.375 901.321 145.874 901.974 145.886C902.627 145.874 903.166 146.375 903.176 147.004Z" fill="#4ECDC4"/>
<path d="M927.93 395.369C927.92 395.998 927.381 396.499 926.728 396.487C926.074 396.499 925.536 395.998 925.525 395.369C925.536 394.74 926.074 394.239 926.728 394.251C927.381 394.239 927.92 394.74 927.93 395.369Z" fill="#4ECDC4"/>
<path d="M1069.58 478.096C1069.57 478.725 1069.03 479.226 1068.38 479.214C1067.71 479.214 1067.17 478.714 1067.17 478.096C1067.17 477.478 1067.71 476.978 1068.38 476.978C1069.03 476.966 1069.57 477.467 1069.58 478.096Z" fill="#4ECDC4"/>
<path d="M911.154 216.174C911.142 216.803 910.603 217.304 909.949 217.294C909.296 217.304 908.758 216.803 908.747 216.174C908.747 215.557 909.286 215.056 909.949 215.056C910.614 215.056 911.154 215.557 911.154 216.174Z" fill="#4ECDC4"/>
<path d="M818.945 278.401C818.935 279.03 818.395 279.531 817.741 279.519C817.088 279.531 816.549 279.03 816.538 278.401C816.549 277.772 817.088 277.271 817.741 277.282C818.395 277.27 818.935 277.771 818.945 278.401Z" fill="#4ECDC4"/>
<path d="M797.285 184.331C797.274 184.96 796.735 185.461 796.082 185.449C795.429 185.461 794.89 184.96 794.879 184.331C794.89 183.702 795.429 183.201 796.082 183.213C796.735 183.201 797.274 183.702 797.285 184.331Z" fill="#4ECDC4"/>
<path d="M856.42 356.284C856.408 356.912 855.87 357.413 855.217 357.402C854.563 357.414 854.024 356.913 854.012 356.284C854.012 355.666 854.552 355.164 855.217 355.164C855.882 355.164 856.42 355.666 856.42 356.284Z" fill="#4ECDC4"/>
<path d="M1014.23 223.683C1014.22 224.312 1013.68 224.813 1013.02 224.801C1012.36 224.801 1011.82 224.301 1011.82 223.683C1011.82 223.065 1012.36 222.565 1013.02 222.565C1013.68 222.553 1014.22 223.054 1014.23 223.683Z" fill="#4ECDC4"/>
<path d="M1213.98 193.001C1213.98 193.617 1213.44 194.119 1212.77 194.119C1212.12 194.129 1211.58 193.629 1211.57 193.001C1211.57 192.382 1212.11 191.881 1212.77 191.881C1213.44 191.881 1213.98 192.382 1213.98 193.001Z" fill="#4ECDC4"/>
<path d="M1128.37 345.096C1128.36 345.724 1127.82 346.225 1127.17 346.216C1126.51 346.226 1125.97 345.725 1125.96 345.096C1125.96 344.479 1126.5 343.978 1127.17 343.978C1127.83 343.978 1128.37 344.479 1128.37 345.096Z" fill="#4ECDC4"/>
<path d="M1311.96 396.488C1311.95 397.117 1311.41 397.618 1310.76 397.607C1310.1 397.617 1309.57 397.116 1309.55 396.488C1309.55 395.871 1310.09 395.369 1310.76 395.369C1311.42 395.369 1311.96 395.871 1311.96 396.488Z" fill="#4ECDC4"/>
<path d="M1177.19 218.412C1177.18 219.04 1176.64 219.54 1175.99 219.53C1175.32 219.53 1174.78 219.029 1174.78 218.412C1174.78 217.794 1175.32 217.294 1175.99 217.294C1176.64 217.282 1177.18 217.783 1177.19 218.412Z" fill="#4ECDC4"/>
<path d="M1159.31 123.318C1159.3 123.947 1158.76 124.449 1158.11 124.438C1157.45 124.449 1156.92 123.947 1156.91 123.318C1156.92 122.689 1157.46 122.188 1158.11 122.199C1158.76 122.188 1159.3 122.689 1159.31 123.318Z" fill="#4ECDC4"/>
<path d="M1118.57 86.2431C1118.56 86.8721 1118.02 87.3728 1117.37 87.3615C1116.71 87.372 1116.18 86.8715 1116.16 86.2431C1116.17 85.6144 1116.71 85.1134 1117.37 85.1247C1118.03 85.1247 1118.57 85.6248 1118.57 86.2431Z" fill="#4ECDC4"/>
<path d="M1293.95 172.147C1293.95 172.765 1293.42 173.265 1292.75 173.265C1292.1 173.277 1291.56 172.776 1291.55 172.147C1291.55 171.53 1292.09 171.029 1292.75 171.029C1293.42 171.029 1293.95 171.53 1293.95 172.147Z" fill="#4ECDC4"/>
<path d="M1272.08 123.317C1272.07 123.947 1271.53 124.448 1270.88 124.437C1270.22 124.448 1269.68 123.946 1269.67 123.317C1269.67 122.701 1270.21 122.199 1270.88 122.199C1271.54 122.199 1272.08 122.701 1272.08 123.317Z" fill="#4ECDC4"/>
<path d="M1401.35 186.567C1401.34 187.196 1400.8 187.697 1400.15 187.686C1399.48 187.686 1398.94 187.186 1398.94 186.567C1398.94 185.951 1399.48 185.449 1400.15 185.449C1400.81 185.449 1401.35 185.951 1401.35 186.567Z" fill="#4ECDC4"/>
<path d="M1334.68 314.414C1334.67 315.042 1334.13 315.543 1333.48 315.532C1332.83 315.543 1332.29 315.042 1332.28 314.414C1332.29 313.785 1332.83 313.284 1333.48 313.295C1334.13 313.284 1334.67 313.785 1334.68 314.414Z" fill="#4ECDC4"/>
<path d="M1187.54 426.638C1187.52 427.266 1186.99 427.767 1186.33 427.758C1185.68 427.768 1185.14 427.267 1185.13 426.638C1185.13 426.021 1185.67 425.52 1186.33 425.52C1187 425.52 1187.54 426.021 1187.54 426.638Z" fill="#4ECDC4"/>
<path d="M1367.69 193.839C1367.68 194.468 1367.14 194.969 1366.49 194.958C1365.83 194.969 1365.29 194.468 1365.28 193.839C1365.29 193.211 1365.83 192.71 1366.49 192.721C1367.14 192.71 1367.68 193.211 1367.69 193.839Z" fill="#4ECDC4"/>
<path d="M1355.62 345.096C1355.61 345.725 1355.07 346.226 1354.42 346.216C1353.77 346.226 1353.23 345.725 1353.22 345.096C1353.23 344.467 1353.77 343.966 1354.42 343.978C1355.07 343.966 1355.61 344.467 1355.62 345.096Z" fill="#4ECDC4"/>
<path d="M1232.11 469.706C1232.11 470.325 1231.57 470.825 1230.91 470.825C1230.26 470.836 1229.72 470.335 1229.71 469.706C1229.72 469.078 1230.26 468.577 1230.91 468.588C1231.57 468.588 1232.11 469.088 1232.11 469.706Z" fill="#4ECDC4"/>
<path d="M1353.22 98.3552C1353.21 98.9838 1352.67 99.4842 1352.01 99.4736C1351.36 99.4842 1350.82 98.9837 1350.81 98.3552C1350.81 97.7369 1351.35 97.2354 1352.01 97.2354C1352.68 97.2354 1353.22 97.7369 1353.22 98.3552Z" fill="#4ECDC4"/>
<path d="M1247.75 283.451C1247.74 284.08 1247.21 284.581 1246.55 284.57C1245.9 284.581 1245.36 284.08 1245.35 283.451C1245.36 282.823 1245.9 282.322 1246.55 282.333C1247.21 282.322 1247.74 282.823 1247.75 283.451Z" fill="#4ECDC4"/>
<path d="M1388.03 431.753C1388.02 432.381 1387.48 432.882 1386.82 432.871C1386.17 432.882 1385.63 432.381 1385.62 431.753C1385.62 431.134 1386.16 430.633 1386.82 430.633C1387.49 430.633 1388.03 431.134 1388.03 431.753Z" fill="#4ECDC4"/>
<path d="M843.784 191.881C843.784 193.581 842.303 194.958 840.476 194.958C838.647 194.958 837.166 193.581 837.166 191.881C837.166 190.183 838.647 188.806 840.476 188.806C842.303 188.806 843.784 190.183 843.784 191.881Z" fill="#4ECDC4"/>
<path d="M1076.2 295.437C1076.2 297.135 1074.72 298.513 1072.89 298.513C1071.06 298.513 1069.58 297.135 1069.58 295.437C1069.58 293.738 1071.06 292.36 1072.89 292.36C1074.72 292.36 1076.2 293.738 1076.2 295.437Z" fill="#4ECDC4"/>
<path d="M1009.41 530.873C1009.41 532.572 1007.93 533.948 1006.1 533.948C1004.28 533.948 1002.8 532.572 1002.8 530.873C1002.8 529.173 1004.28 527.796 1006.1 527.796C1007.93 527.796 1009.41 529.173 1009.41 530.873Z" fill="#4ECDC4"/>
<path d="M821.051 628.274C821.051 629.975 819.57 631.351 817.741 631.351C815.914 631.351 814.433 629.975 814.433 628.274C814.433 626.576 815.914 625.199 817.741 625.199C819.57 625.199 821.051 626.576 821.051 628.274Z" fill="#4ECDC4"/>
<path d="M1238.73 390.056C1238.73 391.755 1237.25 393.133 1235.42 393.133C1233.59 393.133 1232.11 391.755 1232.11 390.056C1232.11 388.357 1233.59 386.979 1235.42 386.979C1237.25 386.979 1238.73 388.357 1238.73 390.056Z" fill="#4ECDC4"/>
<path d="M1291.55 620.364C1291.55 622.063 1290.07 623.441 1288.24 623.441C1286.41 623.441 1284.93 622.063 1284.93 620.364C1284.93 618.666 1286.41 617.288 1288.24 617.288C1290.07 617.288 1291.55 618.665 1291.55 620.364Z" fill="#4ECDC4"/>
<path d="M1322.62 473.901C1322.62 475.6 1321.14 476.978 1319.31 476.978C1317.48 476.978 1316 475.6 1316 473.901C1316 472.203 1317.48 470.825 1319.31 470.825C1321.14 470.825 1322.62 472.203 1322.62 473.901Z" fill="#4ECDC4"/>
<path d="M1125.19 630.593C1125.19 632.291 1123.71 633.669 1121.88 633.669C1120.05 633.669 1118.57 632.291 1118.57 630.593C1118.57 628.893 1120.05 627.516 1121.88 627.516C1123.71 627.516 1125.19 628.893 1125.19 630.593Z" fill="#4ECDC4"/>
<path fill-rule="evenodd" clip-rule="evenodd" d="M1126.45 420.858L1115.45 431.085L1114.47 430.181L1125.48 419.954L1126.45 420.858Z" fill="#4ECDC4"/>
<path fill-rule="evenodd" clip-rule="evenodd" d="M908.116 279.965L897.253 269.611L898.238 268.719L909.101 279.073L908.116 279.965Z" fill="#4ECDC4"/>
<path fill-rule="evenodd" clip-rule="evenodd" d="M1302.47 583.047L1289.72 574.75L1290.51 573.703L1303.26 582.001L1302.47 583.047Z" fill="#4ECDC4"/>
<path fill-rule="evenodd" clip-rule="evenodd" d="M1096.69 129.109L1083.95 120.813L1084.73 119.765L1097.48 128.061L1096.69 129.109Z" fill="#4ECDC4"/>
<path fill-rule="evenodd" clip-rule="evenodd" d="M1329.4 141.191L1326.11 155.327L1324.76 155.056L1328.06 140.919L1329.4 141.191Z" fill="#4ECDC4"/>
<path d="M956.123 458.919C956.112 459.548 955.574 460.049 954.92 460.038C954.255 460.038 953.716 459.538 953.716 458.919C953.716 458.301 954.255 457.801 954.92 457.801C955.574 457.79 956.112 458.291 956.123 458.919Z" fill="#4ECDC4"/>
<path d="M887.362 616.169C887.351 616.798 886.812 617.299 886.159 617.288C885.506 617.299 884.967 616.798 884.956 616.169C884.967 615.541 885.506 615.04 886.159 615.051C886.812 615.04 887.351 615.541 887.362 616.169Z" fill="#4ECDC4"/>
<path d="M1304.91 222.607C1304.91 224.306 1303.43 225.684 1301.6 225.684C1299.78 225.684 1298.29 224.306 1298.29 222.607C1298.29 220.909 1299.78 219.531 1301.6 219.531C1303.43 219.531 1304.91 220.909 1304.91 222.607Z" fill="#4ECDC4"/>
<path d="M893.98 431.753C893.98 433.452 892.499 434.828 890.672 434.828C888.843 434.828 887.362 433.452 887.362 431.753C887.362 430.053 888.843 428.676 890.672 428.676C892.498 428.676 893.98 430.053 893.98 431.753Z" fill="#4ECDC4"/>
<path d="M980.103 170.19C980.103 171.889 978.621 173.265 976.794 173.265C974.966 173.265 973.485 171.889 973.485 170.19C973.485 168.49 974.966 167.114 976.794 167.114C978.621 167.114 980.103 168.49 980.103 170.19Z" fill="#4ECDC4"/>
<path d="M784.651 348.292C784.651 349.992 783.168 351.368 781.341 351.368C779.514 351.368 778.033 349.992 778.033 348.292C778.033 346.593 779.514 345.217 781.341 345.217C783.168 345.217 784.651 346.593 784.651 348.292Z" fill="#4ECDC4"/>
<path fill-rule="evenodd" clip-rule="evenodd" d="M776.112 445.469L765.11 455.696L764.137 454.792L775.139 444.565L776.112 445.469Z" fill="#4ECDC4"/>
<path fill-rule="evenodd" clip-rule="evenodd" d="M1004.97 368.6L993.968 378.829L992.996 377.925L1004 367.696L1004.97 368.6Z" fill="#4ECDC4"/>
<path d="M743.996 634.427C743.996 636.126 742.514 637.504 740.686 637.504C738.859 637.504 737.378 636.126 737.378 634.427C737.378 632.728 738.859 631.351 740.686 631.351C742.514 631.351 743.996 632.728 743.996 634.427Z" fill="#4ECDC4"/>
<path d="M728.525 531.791C728.514 532.421 727.974 532.922 727.321 532.91C726.667 532.921 726.128 532.42 726.118 531.791C726.128 531.163 726.667 530.662 727.321 530.673C727.974 530.661 728.514 531.162 728.525 531.791Z" fill="#4ECDC4"/>
<path d="M746.401 121.406C746.391 122.035 745.852 122.536 745.199 122.526C744.545 122.536 744.007 122.035 743.996 121.406C744.007 120.777 744.546 120.276 745.199 120.288C745.852 120.276 746.391 120.777 746.401 121.406Z" fill="#4ECDC4"/>
<path d="M716.147 270.986C716.136 271.615 715.597 272.116 714.944 272.105C714.29 272.117 713.751 271.615 713.74 270.986C713.751 270.357 714.29 269.856 714.944 269.868C715.597 269.856 716.136 270.357 716.147 270.986Z" fill="#4ECDC4"/>
<path d="M1472.26 348.292C1472.26 349.992 1470.78 351.368 1468.95 351.368C1467.12 351.368 1465.64 349.992 1465.64 348.292C1465.64 346.593 1467.12 345.217 1468.95 345.217C1470.78 345.217 1472.26 346.593 1472.26 348.292Z" fill="#4ECDC4"/>
<path fill-rule="evenodd" clip-rule="evenodd" d="M1463.72 445.469L1452.72 455.696L1451.75 454.792L1462.75 444.565L1463.72 445.469Z" fill="#4ECDC4"/>
<path d="M1431.6 634.427C1431.6 636.126 1430.12 637.504 1428.3 637.504C1426.47 637.504 1424.99 636.126 1424.99 634.427C1424.99 632.728 1426.47 631.351 1428.3 631.351C1430.12 631.351 1431.6 632.728 1431.6 634.427Z" fill="#4ECDC4"/>
<path d="M1416.13 531.791C1416.12 532.42 1415.58 532.921 1414.93 532.91C1414.27 532.91 1413.73 532.41 1413.73 531.791C1413.73 531.173 1414.27 530.673 1414.93 530.673C1415.58 530.662 1416.12 531.163 1416.13 531.791Z" fill="#4ECDC4"/>
<path d="M1370.1 663.341C1370.08 663.969 1369.55 664.469 1368.89 664.459C1368.23 664.459 1367.69 663.958 1367.69 663.341C1367.69 662.723 1368.23 662.222 1368.89 662.222C1369.55 662.211 1370.09 662.712 1370.1 663.341Z" fill="#4ECDC4"/>
<path d="M1354.25 616.169C1354.25 616.787 1353.71 617.288 1353.05 617.288C1352.39 617.299 1351.85 616.798 1351.84 616.169C1351.85 615.541 1352.39 615.04 1353.05 615.051C1353.71 615.051 1354.25 615.551 1354.25 616.169Z" fill="#4ECDC4"/>
<path d="M1434.01 121.406C1434 122.035 1433.46 122.536 1432.81 122.526C1432.16 122.536 1431.62 122.035 1431.6 121.406C1431.6 120.789 1432.14 120.288 1432.81 120.288C1433.47 120.288 1434.01 120.789 1434.01 121.406Z" fill="#4ECDC4"/>
<path d="M1403.76 270.986C1403.76 271.604 1403.22 272.105 1402.55 272.105C1401.9 272.116 1401.36 271.615 1401.35 270.986C1401.36 270.357 1401.9 269.856 1402.55 269.868C1403.22 269.868 1403.76 270.368 1403.76 270.986Z" fill="#4ECDC4"/>
<path d="M1288.24 676.257C1288.24 676.875 1287.7 677.375 1287.03 677.375C1286.38 677.386 1285.84 676.885 1285.83 676.257C1285.84 675.628 1286.38 675.127 1287.03 675.138C1287.7 675.138 1288.24 675.638 1288.24 676.257Z" fill="#4ECDC4"/>
<path d="M1413.38 700.227C1413.37 700.856 1412.83 701.358 1412.18 701.347C1411.53 701.358 1410.99 700.856 1410.98 700.227C1410.99 699.599 1411.53 699.098 1412.18 699.109C1412.83 699.098 1413.37 699.599 1413.38 700.227Z" fill="#4ECDC4"/>
<path d="M1212.77 703.304C1212.77 705.003 1211.29 706.381 1209.46 706.381C1207.64 706.381 1206.15 705.003 1206.15 703.304C1206.15 701.605 1207.64 700.228 1209.46 700.228C1211.29 700.228 1212.77 701.605 1212.77 703.304Z" fill="#4ECDC4"/>
<path fill-rule="evenodd" clip-rule="evenodd" d="M999.823 650.207L1006.99 663.046L1005.77 663.634L998.604 650.794L999.823 650.207Z" fill="#4ECDC4"/>
<path d="M974.689 738.902C974.689 739.518 974.15 740.02 973.485 740.02C972.832 740.03 972.294 739.53 972.282 738.902C972.293 738.273 972.831 737.772 973.485 737.783C974.15 737.783 974.689 738.283 974.689 738.902Z" fill="#4ECDC4"/>
<path d="M778.033 690.32C778.022 690.949 777.482 691.45 776.828 691.438C776.175 691.449 775.637 690.948 775.626 690.32C775.637 689.691 776.175 689.19 776.828 689.201C777.482 689.189 778.022 689.69 778.033 690.32Z" fill="#4ECDC4"/>
<path d="M936.87 683.54C936.859 684.169 936.32 684.669 935.667 684.658C935.014 684.669 934.475 684.169 934.464 683.54C934.464 682.921 935.002 682.42 935.667 682.42C936.332 682.42 936.87 682.921 936.87 683.54Z" fill="#4ECDC4"/>
<path d="M993.482 590.919C993.471 591.548 992.932 592.049 992.279 592.038C991.614 592.038 991.075 591.538 991.075 590.919C991.075 590.303 991.614 589.801 992.279 589.801C992.943 589.801 993.482 590.303 993.482 590.919Z" fill="#4ECDC4"/>
<path d="M1465.64 690.32C1465.63 690.948 1465.09 691.449 1464.44 691.438C1463.77 691.438 1463.23 690.938 1463.23 690.32C1463.23 689.701 1463.77 689.201 1464.44 689.201C1465.09 689.19 1465.63 689.691 1465.64 690.32Z" fill="#4ECDC4"/>
<path d="M875.673 713.865C875.673 715.564 874.192 716.942 872.363 716.942C870.536 716.942 869.055 715.564 869.055 713.865C869.055 712.166 870.536 710.789 872.363 710.789C874.192 710.789 875.673 712.166 875.673 713.865Z" fill="#4ECDC4"/>
<path d="M1288.24 37.0315C1288.23 37.6601 1287.69 38.1604 1287.03 38.1499C1286.38 38.1604 1285.84 37.6599 1285.83 37.0315C1285.83 36.4132 1286.37 35.9116 1287.03 35.9116C1287.7 35.9116 1288.24 36.4132 1288.24 37.0315Z" fill="#4ECDC4"/>
<path d="M1413.38 61.0024C1413.37 61.6311 1412.83 62.1321 1412.18 62.1206C1411.53 62.1321 1410.99 61.6311 1410.98 61.0024C1410.99 60.3737 1411.53 59.8727 1412.18 59.884C1412.83 59.8727 1413.37 60.3737 1413.38 61.0024Z" fill="#4ECDC4"/>
<path d="M1212.77 64.0789C1212.77 65.7776 1211.29 67.1555 1209.46 67.1555C1207.64 67.1555 1206.15 65.7776 1206.15 64.0789C1206.15 62.3788 1207.64 61.0024 1209.46 61.0024C1211.29 61.0024 1212.77 62.3788 1212.77 64.0789Z" fill="#4ECDC4"/>
<path fill-rule="evenodd" clip-rule="evenodd" d="M999.823 10.98L1006.99 23.8199L1005.77 24.4089L998.604 11.569L999.823 10.98Z" fill="#4ECDC4"/>
<path d="M974.689 99.675C974.677 100.304 974.138 100.804 973.485 100.793C972.832 100.804 972.293 100.303 972.282 99.675C972.282 99.0582 972.821 98.5566 973.485 98.5566C974.15 98.5566 974.689 99.0567 974.689 99.675Z" fill="#4ECDC4"/>
<path d="M1048.26 144.768C1048.25 145.396 1047.71 145.896 1047.06 145.886C1046.41 145.896 1045.87 145.396 1045.86 144.768C1045.87 144.139 1046.41 143.638 1047.06 143.649C1047.72 143.649 1048.26 144.149 1048.26 144.768Z" fill="#4ECDC4"/>
<path d="M1130.78 189.924C1130.78 190.542 1130.24 191.042 1129.57 191.042C1128.92 191.054 1128.38 190.553 1128.37 189.924C1128.38 189.295 1128.92 188.794 1129.57 188.806C1130.24 188.806 1130.78 189.306 1130.78 189.924Z" fill="#4ECDC4"/>
<path d="M995.889 285.688C995.889 286.306 995.35 286.806 994.685 286.806C994.032 286.818 993.493 286.317 993.482 285.688C993.482 285.071 994.021 284.57 994.685 284.57C995.35 284.57 995.889 285.071 995.889 285.688Z" fill="#4ECDC4"/>
<path d="M778.033 51.0943C778.021 51.7234 777.482 52.2242 776.828 52.2127C776.176 52.2233 775.637 51.7228 775.626 51.0943C775.626 50.4762 776.165 49.9746 776.828 49.9746C777.494 49.9746 778.033 50.4762 778.033 51.0943Z" fill="#4ECDC4"/>
<path d="M1465.64 51.0943C1465.63 51.7228 1465.09 52.2233 1464.44 52.2127C1463.79 52.2233 1463.25 51.7231 1463.23 51.0943C1463.23 50.4762 1463.77 49.9746 1464.44 49.9746C1465.1 49.9746 1465.64 50.4762 1465.64 51.0943Z" fill="#4ECDC4"/>
<path d="M875.673 74.6395C875.673 76.3381 874.192 77.716 872.363 77.716C870.536 77.716 869.055 76.3381 869.055 74.6395C869.055 72.9394 870.536 71.563 872.363 71.563C874.192 71.563 875.673 72.9394 875.673 74.6395Z" fill="#4ECDC4"/>
</g>
<g opacity="0.28">
<path d="M1684.67 590.158C1684.67 590.775 1684.13 591.276 1683.47 591.276C1682.82 591.286 1682.28 590.786 1682.27 590.158C1682.27 589.54 1682.81 589.038 1683.47 589.038C1684.13 589.038 1684.67 589.54 1684.67 590.158Z" fill="#4ECDC4"/>
<path d="M1717.75 582.417C1717.73 583.045 1717.2 583.546 1716.54 583.537C1715.89 583.547 1715.35 583.046 1715.34 582.417C1715.34 581.8 1715.88 581.298 1716.54 581.298C1717.21 581.298 1717.75 581.8 1717.75 582.417Z" fill="#4ECDC4"/>
<path d="M1646.17 453.362C1646.16 453.991 1645.62 454.492 1644.96 454.48C1644.31 454.492 1643.77 453.991 1643.76 453.362C1643.77 452.733 1644.31 452.232 1644.96 452.244C1645.62 452.232 1646.16 452.733 1646.17 453.362Z" fill="#4ECDC4"/>
<path d="M1698.77 502.582C1698.76 503.211 1698.22 503.712 1697.57 503.702C1696.91 503.713 1696.37 503.211 1696.36 502.582C1696.36 501.965 1696.9 501.464 1697.57 501.464C1698.23 501.464 1698.77 501.965 1698.77 502.582Z" fill="#4ECDC4"/>
<path d="M1623.13 551.803C1623.12 552.432 1622.58 552.933 1621.93 552.923C1621.28 552.933 1620.74 552.432 1620.73 551.803C1620.74 551.174 1621.28 550.673 1621.93 550.685C1622.58 550.673 1623.12 551.174 1623.13 551.803Z" fill="#4ECDC4"/>
<path d="M1584.63 574.256C1584.61 574.885 1584.08 575.386 1583.42 575.376C1582.77 575.386 1582.23 574.885 1582.22 574.256C1582.22 573.639 1582.76 573.138 1583.42 573.138C1584.09 573.138 1584.63 573.639 1584.63 574.256Z" fill="#4ECDC4"/>
<path d="M1625.54 107.819C1625.53 108.448 1624.99 108.95 1624.34 108.939C1623.68 108.95 1623.14 108.449 1623.13 107.819C1623.13 107.202 1623.67 106.701 1624.34 106.701C1625 106.701 1625.54 107.202 1625.54 107.819Z" fill="#4ECDC4"/>
<path d="M1712.18 144.004C1712.17 144.633 1711.63 145.134 1710.97 145.123C1710.32 145.134 1709.78 144.633 1709.77 144.004C1709.78 143.375 1710.32 142.874 1710.97 142.886C1711.63 142.874 1712.17 143.375 1712.18 144.004Z" fill="#4ECDC4"/>
<path d="M1720.15 213.174C1720.14 213.803 1719.6 214.304 1718.95 214.294C1718.3 214.304 1717.76 213.803 1717.75 213.174C1717.75 212.557 1718.29 212.056 1718.95 212.056C1719.61 212.056 1720.15 212.557 1720.15 213.174Z" fill="#4ECDC4"/>
<path d="M1627.95 275.401C1627.93 276.03 1627.4 276.531 1626.74 276.519C1626.09 276.531 1625.55 276.03 1625.54 275.401C1625.55 274.772 1626.09 274.271 1626.74 274.282C1627.4 274.27 1627.93 274.771 1627.95 275.401Z" fill="#4ECDC4"/>
<path d="M1606.28 181.331C1606.27 181.96 1605.74 182.461 1605.08 182.449C1604.43 182.461 1603.89 181.96 1603.88 181.331C1603.89 180.702 1604.43 180.201 1605.08 180.213C1605.74 180.201 1606.27 180.702 1606.28 181.331Z" fill="#4ECDC4"/>
<path d="M1665.42 353.284C1665.41 353.912 1664.87 354.413 1664.22 354.402C1663.56 354.414 1663.02 353.913 1663.01 353.284C1663.01 352.666 1663.55 352.164 1664.22 352.164C1664.88 352.164 1665.42 352.666 1665.42 353.284Z" fill="#4ECDC4"/>
<path d="M1652.78 188.881C1652.78 190.581 1651.3 191.958 1649.48 191.958C1647.65 191.958 1646.17 190.581 1646.17 188.881C1646.17 187.183 1647.65 185.806 1649.48 185.806C1651.3 185.806 1652.78 187.183 1652.78 188.881Z" fill="#4ECDC4"/>
<path d="M1630.05 625.274C1630.05 626.975 1628.57 628.351 1626.74 628.351C1624.91 628.351 1623.43 626.975 1623.43 625.274C1623.43 623.576 1624.91 622.199 1626.74 622.199C1628.57 622.199 1630.05 623.576 1630.05 625.274Z" fill="#4ECDC4"/>
<path fill-rule="evenodd" clip-rule="evenodd" d="M1717.12 276.965L1706.25 266.611L1707.24 265.719L1718.1 276.073L1717.12 276.965Z" fill="#4ECDC4"/>
<path d="M1696.36 613.169C1696.35 613.798 1695.81 614.299 1695.16 614.288C1694.51 614.299 1693.97 613.798 1693.96 613.169C1693.97 612.541 1694.51 612.04 1695.16 612.051C1695.81 612.04 1696.35 612.541 1696.36 613.169Z" fill="#4ECDC4"/>
<path d="M1702.98 428.753C1702.98 430.452 1701.5 431.828 1699.67 431.828C1697.84 431.828 1696.36 430.452 1696.36 428.753C1696.36 427.053 1697.84 425.676 1699.67 425.676C1701.5 425.676 1702.98 427.053 1702.98 428.753Z" fill="#4ECDC4"/>
<path d="M1593.65 345.292C1593.65 346.992 1592.17 348.368 1590.34 348.368C1588.51 348.368 1587.03 346.992 1587.03 345.292C1587.03 343.593 1588.51 342.217 1590.34 342.217C1592.17 342.217 1593.65 343.593 1593.65 345.292Z" fill="#4ECDC4"/>
<path fill-rule="evenodd" clip-rule="evenodd" d="M1585.11 442.469L1574.11 452.696L1573.14 451.792L1584.14 441.565L1585.11 442.469Z" fill="#4ECDC4"/>
<path d="M1553 631.427C1553 633.126 1551.51 634.504 1549.69 634.504C1547.86 634.504 1546.38 633.126 1546.38 631.427C1546.38 629.728 1547.86 628.351 1549.69 628.351C1551.51 628.351 1553 629.728 1553 631.427Z" fill="#4ECDC4"/>
<path d="M1537.52 528.791C1537.51 529.421 1536.97 529.922 1536.32 529.91C1535.67 529.921 1535.13 529.42 1535.12 528.791C1535.13 528.163 1535.67 527.662 1536.32 527.673C1536.97 527.661 1537.51 528.162 1537.52 528.791Z" fill="#4ECDC4"/>
<path d="M1555.4 118.406C1555.39 119.035 1554.85 119.536 1554.2 119.526C1553.55 119.536 1553.01 119.035 1553 118.406C1553.01 117.777 1553.55 117.276 1554.2 117.288C1554.85 117.276 1555.39 117.777 1555.4 118.406Z" fill="#4ECDC4"/>
<path d="M1525.15 267.986C1525.14 268.615 1524.6 269.116 1523.94 269.105C1523.29 269.117 1522.75 268.615 1522.74 267.986C1522.75 267.357 1523.29 266.856 1523.94 266.868C1524.6 266.856 1525.14 267.357 1525.15 267.986Z" fill="#4ECDC4"/>
<path d="M1587.03 687.32C1587.02 687.949 1586.48 688.45 1585.83 688.438C1585.18 688.449 1584.64 687.948 1584.63 687.32C1584.64 686.691 1585.18 686.19 1585.83 686.201C1586.48 686.189 1587.02 686.69 1587.03 687.32Z" fill="#4ECDC4"/>
<path d="M1684.67 710.865C1684.67 712.564 1683.19 713.942 1681.36 713.942C1679.54 713.942 1678.05 712.564 1678.05 710.865C1678.05 709.166 1679.54 707.789 1681.36 707.789C1683.19 707.789 1684.67 709.166 1684.67 710.865Z" fill="#4ECDC4"/>
<path d="M1587.03 48.0943C1587.02 48.7234 1586.48 49.2242 1585.83 49.2127C1585.18 49.2233 1584.64 48.7228 1584.63 48.0943C1584.63 47.4762 1585.16 46.9746 1585.83 46.9746C1586.49 46.9746 1587.03 47.4762 1587.03 48.0943Z" fill="#4ECDC4"/>
<path d="M1684.67 71.6395C1684.67 73.3381 1683.19 74.716 1681.36 74.716C1679.54 74.716 1678.05 73.3381 1678.05 71.6395C1678.05 69.9394 1679.54 68.563 1681.36 68.563C1683.19 68.563 1684.67 69.9394 1684.67 71.6395Z" fill="#4ECDC4"/>
</g>
</svg>
