<svg width="1728" height="1371" viewBox="0 0 1728 1371" fill="none" xmlns="http://www.w3.org/2000/svg">
<g opacity="0.28">
<path d="M66.6732 596.158C66.6732 596.775 66.1339 597.276 65.4688 597.276C64.8164 597.286 64.2785 596.786 64.2661 596.158C64.2661 595.54 64.8054 595.038 65.4688 595.038C66.1339 595.038 66.6732 595.54 66.6732 596.158Z" fill="#4ECDC4"/>
<path d="M99.7465 588.417C99.7347 589.045 99.1968 589.546 98.5436 589.537C97.89 589.547 97.3509 589.046 97.3394 588.417C97.3394 587.8 97.8787 587.298 98.5436 587.298C99.2072 587.298 99.7465 587.8 99.7465 588.417Z" fill="#4ECDC4"/>
<path d="M282.915 684.302C282.915 684.92 282.375 685.42 281.71 685.42C281.057 685.431 280.518 684.93 280.508 684.302C280.518 683.673 281.057 683.172 281.71 683.183C282.375 683.183 282.915 683.683 282.915 684.302Z" fill="#4ECDC4"/>
<path d="M402.57 616.932C402.559 617.561 402.021 618.062 401.367 618.051C400.702 618.051 400.163 617.551 400.163 616.932C400.163 616.314 400.702 615.814 401.367 615.814C402.021 615.803 402.559 616.304 402.57 616.932Z" fill="#4ECDC4"/>
<path d="M360.798 664.103C360.787 664.732 360.248 665.233 359.594 665.223C358.941 665.233 358.402 664.732 358.391 664.103C358.402 663.474 358.941 662.973 359.594 662.985C360.259 662.985 360.798 663.486 360.798 664.103Z" fill="#4ECDC4"/>
<path d="M276.542 560.041C276.531 560.67 275.992 561.171 275.339 561.16C274.686 561.171 274.147 560.67 274.136 560.041C274.147 559.413 274.686 558.912 275.339 558.923C275.992 558.912 276.531 559.413 276.542 560.041Z" fill="#4ECDC4"/>
<path d="M148.326 337.07C148.315 337.699 147.776 338.2 147.123 338.188C146.47 338.2 145.931 337.699 145.92 337.07C145.931 336.441 146.47 335.94 147.123 335.952C147.776 335.94 148.315 336.441 148.326 337.07Z" fill="#4ECDC4"/>
<path d="M221.212 424.524C221.201 425.153 220.663 425.654 220.01 425.643C219.356 425.654 218.817 425.153 218.807 424.524C218.817 423.896 219.356 423.395 220.01 423.406C220.663 423.395 221.201 423.896 221.212 424.524Z" fill="#4ECDC4"/>
<path d="M258.171 371.148C258.16 371.777 257.622 372.279 256.969 372.268C256.315 372.279 255.776 371.777 255.766 371.148C255.776 370.52 256.315 370.019 256.969 370.03C257.622 370.019 258.16 370.52 258.171 371.148Z" fill="#4ECDC4"/>
<path d="M28.1661 459.362C28.1553 459.991 27.6164 460.492 26.9632 460.48C26.31 460.492 25.7713 459.991 25.7605 459.362C25.7713 458.733 26.31 458.232 26.9632 458.244C27.6164 458.232 28.1553 458.733 28.1661 459.362Z" fill="#4ECDC4"/>
<path d="M80.7685 508.582C80.7569 509.211 80.2189 509.712 79.5658 509.702C78.9122 509.713 78.3732 509.211 78.3616 508.582C78.3616 507.965 78.9007 507.464 79.5658 507.464C80.2294 507.464 80.7685 507.965 80.7685 508.582Z" fill="#4ECDC4"/>
<path d="M5.13141 557.803C5.11982 558.432 4.58173 558.933 3.92854 558.923C3.27551 558.933 2.73742 558.432 2.72583 557.803C2.73664 557.174 3.27536 556.673 3.92854 556.685C4.58173 556.673 5.1206 557.174 5.13141 557.803Z" fill="#4ECDC4"/>
<path d="M389.848 538.068C389.838 538.696 389.299 539.197 388.646 539.186C387.993 539.197 387.454 538.696 387.443 538.068C387.443 537.449 387.981 536.948 388.646 536.948C389.311 536.948 389.848 537.449 389.848 538.068Z" fill="#4ECDC4"/>
<path d="M543.014 521.447C543.003 522.076 542.464 522.577 541.811 522.565C541.158 522.577 540.619 522.076 540.608 521.447C540.619 520.818 541.158 520.317 541.811 520.329C542.464 520.317 543.003 520.818 543.014 521.447Z" fill="#4ECDC4"/>
<path d="M370.596 529.678C370.596 530.295 370.057 530.796 369.392 530.796C368.74 530.806 368.202 530.306 368.189 529.678C368.189 529.06 368.729 528.558 369.392 528.558C370.057 528.558 370.596 529.06 370.596 529.678Z" fill="#4ECDC4"/>
<path d="M231.7 208.785C231.7 209.402 231.16 209.903 230.495 209.903C229.843 209.913 229.305 209.413 229.292 208.785C229.303 208.156 229.842 207.655 230.495 207.667C231.16 207.667 231.7 208.167 231.7 208.785Z" fill="#4ECDC4"/>
<path d="M359.594 262.48C359.583 263.109 359.045 263.61 358.391 263.599C357.726 263.599 357.187 263.097 357.187 262.48C357.187 261.862 357.726 261.362 358.391 261.362C359.045 261.351 359.583 261.852 359.594 262.48Z" fill="#4ECDC4"/>
<path d="M387.443 315.177C387.443 315.794 386.904 316.295 386.239 316.295C385.586 316.305 385.048 315.805 385.036 315.177C385.036 314.559 385.575 314.057 386.239 314.057C386.904 314.057 387.443 314.559 387.443 315.177Z" fill="#4ECDC4"/>
<path d="M7.53832 113.819C7.52766 114.448 6.98911 114.95 6.33561 114.939C5.68165 114.95 5.14216 114.449 5.13135 113.819C5.13135 113.202 5.67052 112.701 6.33561 112.701C6.99915 112.701 7.53832 113.202 7.53832 113.819Z" fill="#4ECDC4"/>
<path d="M94.1764 150.004C94.1658 150.633 93.6269 151.134 92.9737 151.123C92.3205 151.134 91.7817 150.633 91.771 150.004C91.7817 149.375 92.3205 148.874 92.9737 148.886C93.6269 148.874 94.1658 149.375 94.1764 150.004Z" fill="#4ECDC4"/>
<path d="M118.93 398.369C118.92 398.998 118.381 399.499 117.728 399.487C117.074 399.499 116.536 398.998 116.525 398.369C116.536 397.74 117.074 397.239 117.728 397.251C118.381 397.239 118.92 397.74 118.93 398.369Z" fill="#4ECDC4"/>
<path d="M260.579 481.096C260.568 481.725 260.029 482.226 259.376 482.214C258.711 482.214 258.171 481.714 258.171 481.096C258.171 480.478 258.711 479.978 259.376 479.978C260.029 479.966 260.568 480.467 260.579 481.096Z" fill="#4ECDC4"/>
<path d="M102.154 219.174C102.142 219.803 101.603 220.304 100.949 220.294C100.296 220.304 99.7582 219.803 99.7466 219.174C99.7466 218.557 100.286 218.056 100.949 218.056C101.614 218.056 102.154 218.557 102.154 219.174Z" fill="#4ECDC4"/>
<path d="M9.94545 281.401C9.93463 282.03 9.395 282.531 8.7412 282.519C8.08801 282.531 7.54914 282.03 7.53833 281.401C7.54914 280.772 8.08801 280.271 8.7412 280.282C9.395 280.27 9.93463 280.771 9.94545 281.401Z" fill="#4ECDC4"/>
<path d="M47.4196 359.284C47.4078 359.912 46.8696 360.413 46.2167 360.402C45.5634 360.414 45.024 359.913 45.0125 359.284C45.0125 358.666 45.5518 358.164 46.2167 358.164C46.8818 358.164 47.4196 358.666 47.4196 359.284Z" fill="#4ECDC4"/>
<path d="M205.226 226.683C205.215 227.312 204.677 227.813 204.023 227.801C203.358 227.801 202.819 227.301 202.819 226.683C202.819 226.065 203.358 225.565 204.023 225.565C204.677 225.553 205.215 226.054 205.226 226.683Z" fill="#4ECDC4"/>
<path d="M404.977 196.001C404.977 196.617 404.438 197.119 403.773 197.119C403.12 197.129 402.583 196.629 402.57 196.001C402.57 195.382 403.11 194.881 403.773 194.881C404.438 194.881 404.977 195.382 404.977 196.001Z" fill="#4ECDC4"/>
<path d="M319.369 348.096C319.357 348.724 318.819 349.225 318.166 349.216C317.513 349.226 316.974 348.725 316.962 348.096C316.962 347.479 317.501 346.978 318.166 346.978C318.83 346.978 319.369 347.479 319.369 348.096Z" fill="#4ECDC4"/>
<path d="M502.961 399.488C502.95 400.117 502.411 400.618 501.757 400.607C501.104 400.617 500.566 400.116 500.554 399.488C500.554 398.871 501.094 398.369 501.757 398.369C502.422 398.369 502.961 398.871 502.961 399.488Z" fill="#4ECDC4"/>
<path d="M368.189 221.412C368.177 222.04 367.639 222.54 366.986 222.53C366.322 222.53 365.782 222.029 365.782 221.412C365.782 220.794 366.322 220.294 366.986 220.294C367.64 220.282 368.179 220.783 368.189 221.412Z" fill="#4ECDC4"/>
<path d="M350.311 126.318C350.301 126.947 349.762 127.449 349.109 127.438C348.455 127.449 347.916 126.947 347.906 126.318C347.917 125.689 348.455 125.188 349.109 125.199C349.762 125.188 350.301 125.689 350.311 126.318Z" fill="#4ECDC4"/>
<path d="M309.571 89.2431C309.56 89.8721 309.021 90.3728 308.367 90.3615C307.714 90.372 307.176 89.8715 307.164 89.2431C307.175 88.6144 307.714 88.1134 308.367 88.1247C309.032 88.1247 309.571 88.6248 309.571 89.2431Z" fill="#4ECDC4"/>
<path d="M484.955 175.147C484.955 175.765 484.415 176.265 483.75 176.265C483.097 176.277 482.558 175.776 482.548 175.147C482.548 174.53 483.087 174.029 483.75 174.029C484.415 174.029 484.955 174.53 484.955 175.147Z" fill="#4ECDC4"/>
<path d="M463.08 126.317C463.069 126.947 462.53 127.448 461.876 127.437C461.223 127.448 460.684 126.946 460.673 126.317C460.673 125.701 461.213 125.199 461.876 125.199C462.541 125.199 463.08 125.701 463.08 126.317Z" fill="#4ECDC4"/>
<path d="M592.35 189.567C592.34 190.196 591.801 190.697 591.148 190.686C590.483 190.686 589.943 190.186 589.943 189.567C589.943 188.951 590.483 188.449 591.148 188.449C591.811 188.449 592.35 188.951 592.35 189.567Z" fill="#4ECDC4"/>
<path d="M525.684 317.414C525.673 318.042 525.134 318.543 524.481 318.532C523.828 318.543 523.289 318.042 523.279 317.414C523.289 316.785 523.828 316.284 524.481 316.295C525.134 316.284 525.673 316.785 525.684 317.414Z" fill="#4ECDC4"/>
<path d="M378.536 429.638C378.524 430.266 377.986 430.767 377.333 430.758C376.679 430.768 376.14 430.267 376.129 429.638C376.129 429.021 376.668 428.52 377.333 428.52C377.996 428.52 378.536 429.021 378.536 429.638Z" fill="#4ECDC4"/>
<path d="M558.689 196.839C558.679 197.468 558.14 197.969 557.487 197.958C556.833 197.969 556.294 197.468 556.284 196.839C556.294 196.211 556.833 195.71 557.487 195.721C558.14 195.71 558.679 196.211 558.689 196.839Z" fill="#4ECDC4"/>
<path d="M546.624 348.096C546.613 348.725 546.074 349.226 545.421 349.216C544.767 349.226 544.229 348.725 544.218 348.096C544.229 347.467 544.768 346.966 545.421 346.978C546.074 346.966 546.613 347.467 546.624 348.096Z" fill="#4ECDC4"/>
<path d="M423.113 472.706C423.113 473.325 422.573 473.825 421.909 473.825C421.255 473.836 420.717 473.335 420.706 472.706C420.717 472.078 421.255 471.577 421.909 471.588C422.573 471.588 423.113 472.088 423.113 472.706Z" fill="#4ECDC4"/>
<path d="M544.218 101.355C544.205 101.984 543.667 102.484 543.014 102.474C542.361 102.484 541.823 101.984 541.811 101.355C541.811 100.737 542.35 100.235 543.014 100.235C543.679 100.235 544.218 100.737 544.218 101.355Z" fill="#4ECDC4"/>
<path d="M438.755 286.451C438.744 287.08 438.205 287.581 437.552 287.57C436.899 287.581 436.36 287.08 436.349 286.451C436.36 285.823 436.899 285.322 437.552 285.333C438.205 285.322 438.744 285.823 438.755 286.451Z" fill="#4ECDC4"/>
<path d="M579.027 434.753C579.017 435.381 578.478 435.882 577.825 435.871C577.172 435.882 576.633 435.381 576.622 434.753C576.622 434.134 577.16 433.633 577.825 433.633C578.49 433.633 579.027 434.134 579.027 434.753Z" fill="#4ECDC4"/>
<path d="M34.7842 194.881C34.7842 196.581 33.3028 197.958 31.4758 197.958C29.6474 197.958 28.166 196.581 28.166 194.881C28.166 193.183 29.6474 191.806 31.4758 191.806C33.3028 191.806 34.7842 193.183 34.7842 194.881Z" fill="#4ECDC4"/>
<path d="M267.197 298.437C267.197 300.135 265.715 301.513 263.888 301.513C262.06 301.513 260.578 300.135 260.578 298.437C260.578 296.738 262.06 295.36 263.888 295.36C265.715 295.36 267.197 296.738 267.197 298.437Z" fill="#4ECDC4"/>
<path d="M200.414 533.873C200.414 535.572 198.93 536.948 197.104 536.948C195.277 536.948 193.795 535.572 193.795 533.873C193.795 532.173 195.277 530.796 197.104 530.796C198.93 530.796 200.414 532.173 200.414 533.873Z" fill="#4ECDC4"/>
<path d="M12.0513 631.274C12.0513 632.975 10.5697 634.351 8.74129 634.351C6.91444 634.351 5.43286 632.975 5.43286 631.274C5.43286 629.576 6.91444 628.199 8.74129 628.199C10.5697 628.199 12.0513 629.576 12.0513 631.274Z" fill="#4ECDC4"/>
<path d="M429.731 393.056C429.731 394.755 428.25 396.133 426.421 396.133C424.594 396.133 423.113 394.755 423.113 393.056C423.113 391.357 424.594 389.979 426.421 389.979C428.25 389.979 429.731 391.357 429.731 393.056Z" fill="#4ECDC4"/>
<path d="M482.548 623.364C482.548 625.063 481.066 626.441 479.239 626.441C477.411 626.441 475.929 625.063 475.929 623.364C475.929 621.666 477.411 620.288 479.239 620.288C481.066 620.288 482.548 621.665 482.548 623.364Z" fill="#4ECDC4"/>
<path d="M513.618 476.901C513.618 478.6 512.137 479.978 510.31 479.978C508.483 479.978 507 478.6 507 476.901C507 475.203 508.483 473.825 510.31 473.825C512.137 473.825 513.618 475.203 513.618 476.901Z" fill="#4ECDC4"/>
<path d="M316.19 633.593C316.19 635.291 314.708 636.669 312.88 636.669C311.053 636.669 309.571 635.291 309.571 633.593C309.571 631.893 311.053 630.516 312.88 630.516C314.708 630.516 316.19 631.893 316.19 633.593Z" fill="#4ECDC4"/>
<path fill-rule="evenodd" clip-rule="evenodd" d="M317.448 423.858L306.448 434.085L305.475 433.181L316.476 422.954L317.448 423.858Z" fill="#4ECDC4"/>
<path fill-rule="evenodd" clip-rule="evenodd" d="M99.1164 282.965L88.2534 272.611L89.2381 271.719L100.101 282.073L99.1164 282.965Z" fill="#4ECDC4"/>
<path fill-rule="evenodd" clip-rule="evenodd" d="M493.468 586.047L480.724 577.75L481.513 576.703L494.256 585.001L493.468 586.047Z" fill="#4ECDC4"/>
<path fill-rule="evenodd" clip-rule="evenodd" d="M287.689 132.109L274.945 123.813L275.734 122.765L288.477 131.061L287.689 132.109Z" fill="#4ECDC4"/>
<path fill-rule="evenodd" clip-rule="evenodd" d="M520.402 144.191L517.106 158.327L515.762 158.056L519.057 143.919L520.402 144.191Z" fill="#4ECDC4"/>
<path d="M147.123 461.919C147.112 462.548 146.574 463.049 145.92 463.038C145.255 463.038 144.716 462.538 144.716 461.919C144.716 461.301 145.255 460.801 145.92 460.801C146.574 460.79 147.112 461.291 147.123 461.919Z" fill="#4ECDC4"/>
<path d="M78.3616 619.169C78.3508 619.798 77.812 620.299 77.1588 620.288C76.5056 620.299 75.9669 619.798 75.9561 619.169C75.9669 618.541 76.5056 618.04 77.1588 618.051C77.812 618.04 78.3508 618.541 78.3616 619.169Z" fill="#4ECDC4"/>
<path d="M495.913 225.607C495.913 227.306 494.432 228.684 492.604 228.684C490.776 228.684 489.295 227.306 489.295 225.607C489.295 223.909 490.776 222.531 492.604 222.531C494.431 222.531 495.913 223.909 495.913 225.607Z" fill="#4ECDC4"/>
<path d="M84.9798 434.753C84.9798 436.452 83.4984 437.828 81.6714 437.828C79.843 437.828 78.3616 436.452 78.3616 434.753C78.3616 433.053 79.843 431.676 81.6714 431.676C83.4982 431.676 84.9798 433.053 84.9798 434.753Z" fill="#4ECDC4"/>
<path d="M171.103 173.19C171.103 174.889 169.621 176.265 167.794 176.265C165.966 176.265 164.485 174.889 164.485 173.19C164.485 171.49 165.966 170.114 167.794 170.114C169.621 170.114 171.103 171.49 171.103 173.19Z" fill="#4ECDC4"/>
<path fill-rule="evenodd" clip-rule="evenodd" d="M195.971 371.6L184.968 381.829L183.996 380.925L194.998 370.696L195.971 371.6Z" fill="#4ECDC4"/>
<path d="M663.26 351.292C663.26 352.992 661.778 354.368 659.952 354.368C658.123 354.368 656.642 352.992 656.642 351.292C656.642 349.593 658.123 348.217 659.952 348.217C661.778 348.217 663.26 349.593 663.26 351.292Z" fill="#4ECDC4"/>
<path fill-rule="evenodd" clip-rule="evenodd" d="M654.721 448.469L643.72 458.696L642.748 457.792L653.748 447.565L654.721 448.469Z" fill="#4ECDC4"/>
<path d="M622.605 637.427C622.605 639.126 621.123 640.504 619.296 640.504C617.468 640.504 615.987 639.126 615.987 637.427C615.987 635.728 617.468 634.351 619.296 634.351C621.123 634.351 622.605 635.728 622.605 637.427Z" fill="#4ECDC4"/>
<path d="M607.134 534.791C607.123 535.42 606.584 535.921 605.931 535.91C605.266 535.91 604.727 535.41 604.727 534.791C604.727 534.173 605.266 533.673 605.931 533.673C606.584 533.662 607.123 534.163 607.134 534.791Z" fill="#4ECDC4"/>
<path d="M561.096 666.341C561.084 666.969 560.546 667.469 559.894 667.459C559.229 667.459 558.689 666.958 558.689 666.341C558.689 665.723 559.229 665.222 559.894 665.222C560.547 665.211 561.086 665.712 561.096 666.341Z" fill="#4ECDC4"/>
<path d="M545.25 619.169C545.25 619.787 544.71 620.288 544.045 620.288C543.392 620.299 542.853 619.798 542.843 619.169C542.853 618.541 543.392 618.04 544.045 618.051C544.71 618.051 545.25 618.551 545.25 619.169Z" fill="#4ECDC4"/>
<path d="M625.012 124.406C625.001 125.035 624.462 125.536 623.809 125.526C623.155 125.536 622.616 125.035 622.605 124.406C622.605 123.789 623.144 123.288 623.809 123.288C624.473 123.288 625.012 123.789 625.012 124.406Z" fill="#4ECDC4"/>
<path d="M594.758 273.986C594.758 274.604 594.218 275.105 593.553 275.105C592.9 275.116 592.361 274.615 592.35 273.986C592.361 273.357 592.9 272.856 593.553 272.868C594.218 272.868 594.758 273.368 594.758 273.986Z" fill="#4ECDC4"/>
<path d="M479.239 679.257C479.239 679.875 478.7 680.375 478.035 680.375C477.382 680.386 476.843 679.885 476.832 679.257C476.843 678.628 477.382 678.127 478.035 678.138C478.7 678.138 479.239 678.638 479.239 679.257Z" fill="#4ECDC4"/>
<path d="M604.383 703.227C604.372 703.856 603.834 704.358 603.18 704.347C602.527 704.358 601.988 703.856 601.977 703.227C601.988 702.599 602.527 702.098 603.18 702.109C603.833 702.098 604.372 702.599 604.383 703.227Z" fill="#4ECDC4"/>
<path d="M403.773 706.304C403.773 708.003 402.291 709.381 400.464 709.381C398.636 709.381 397.155 708.003 397.155 706.304C397.155 704.605 398.636 703.228 400.464 703.228C402.291 703.228 403.773 704.605 403.773 706.304Z" fill="#4ECDC4"/>
<path fill-rule="evenodd" clip-rule="evenodd" d="M190.823 653.207L197.987 666.046L196.766 666.634L189.604 653.794L190.823 653.207Z" fill="#4ECDC4"/>
<path d="M165.689 741.902C165.689 742.518 165.15 743.02 164.485 743.02C163.832 743.03 163.294 742.53 163.282 741.902C163.293 741.273 163.831 740.772 164.485 740.783C165.15 740.783 165.689 741.283 165.689 741.902Z" fill="#4ECDC4"/>
<path d="M127.869 686.54C127.859 687.169 127.32 687.669 126.667 687.658C126.013 687.669 125.475 687.169 125.464 686.54C125.464 685.921 126.002 685.42 126.667 685.42C127.332 685.42 127.869 685.921 127.869 686.54Z" fill="#4ECDC4"/>
<path d="M184.482 593.919C184.471 594.548 183.933 595.049 183.279 595.038C182.614 595.038 182.075 594.538 182.075 593.919C182.075 593.303 182.614 592.801 183.279 592.801C183.943 592.801 184.482 593.303 184.482 593.919Z" fill="#4ECDC4"/>
<path d="M656.642 693.32C656.631 693.948 656.092 694.449 655.439 694.438C654.774 694.438 654.235 693.938 654.235 693.32C654.235 692.701 654.774 692.201 655.439 692.201C656.092 692.19 656.631 692.691 656.642 693.32Z" fill="#4ECDC4"/>
<path d="M66.6731 716.865C66.6731 718.564 65.1915 719.942 63.3631 719.942C61.5363 719.942 60.0547 718.564 60.0547 716.865C60.0547 715.166 61.5363 713.789 63.3631 713.789C65.1915 713.789 66.6731 715.166 66.6731 716.865Z" fill="#4ECDC4"/>
<path d="M479.239 40.0315C479.227 40.6601 478.688 41.1604 478.035 41.1499C477.382 41.1604 476.844 40.6599 476.832 40.0315C476.832 39.4132 477.371 38.9116 478.035 38.9116C478.7 38.9116 479.239 39.4132 479.239 40.0315Z" fill="#4ECDC4"/>
<path d="M604.383 64.0024C604.372 64.6311 603.833 65.1321 603.18 65.1206C602.527 65.1321 601.988 64.6311 601.977 64.0024C601.988 63.3737 602.527 62.8727 603.18 62.884C603.833 62.8727 604.372 63.3737 604.383 64.0024Z" fill="#4ECDC4"/>
<path d="M403.773 67.0789C403.773 68.7776 402.291 70.1555 400.464 70.1555C398.636 70.1555 397.155 68.7776 397.155 67.0789C397.155 65.3788 398.636 64.0024 400.464 64.0024C402.291 64.0024 403.773 65.3788 403.773 67.0789Z" fill="#4ECDC4"/>
<path fill-rule="evenodd" clip-rule="evenodd" d="M190.823 13.98L197.987 26.8199L196.766 27.4089L189.604 14.569L190.823 13.98Z" fill="#4ECDC4"/>
<path d="M165.689 102.675C165.677 103.304 165.138 103.804 164.485 103.793C163.832 103.804 163.293 103.303 163.282 102.675C163.282 102.058 163.821 101.557 164.485 101.557C165.15 101.557 165.689 102.057 165.689 102.675Z" fill="#4ECDC4"/>
<path d="M239.263 147.768C239.251 148.396 238.712 148.896 238.059 148.886C237.406 148.896 236.868 148.396 236.856 147.768C236.867 147.139 237.406 146.638 238.059 146.649C238.724 146.649 239.263 147.149 239.263 147.768Z" fill="#4ECDC4"/>
<path d="M321.776 192.924C321.776 193.542 321.237 194.042 320.572 194.042C319.919 194.054 319.38 193.553 319.369 192.924C319.38 192.295 319.919 191.794 320.572 191.806C321.237 191.806 321.776 192.306 321.776 192.924Z" fill="#4ECDC4"/>
<path d="M186.889 288.688C186.889 289.306 186.35 289.806 185.685 289.806C185.032 289.818 184.493 289.317 184.482 288.688C184.482 288.071 185.021 287.57 185.685 287.57C186.35 287.57 186.889 288.071 186.889 288.688Z" fill="#4ECDC4"/>
<path d="M656.642 54.0943C656.63 54.7228 656.092 55.2233 655.439 55.2127C654.786 55.2233 654.247 54.7231 654.235 54.0943C654.235 53.4762 654.774 52.9746 655.439 52.9746C656.102 52.9746 656.642 53.4762 656.642 54.0943Z" fill="#4ECDC4"/>
<path d="M66.6731 77.6395C66.6731 79.3381 65.1915 80.716 63.3631 80.716C61.5363 80.716 60.0547 79.3381 60.0547 77.6395C60.0547 75.9394 61.5363 74.563 63.3631 74.563C65.1915 74.563 66.6731 75.9394 66.6731 77.6395Z" fill="#4ECDC4"/>
</g>
<g opacity="0.28">
<path d="M875.673 593.158C875.673 593.775 875.134 594.276 874.469 594.276C873.816 594.286 873.278 593.786 873.266 593.158C873.266 592.54 873.805 592.038 874.469 592.038C875.134 592.038 875.673 592.54 875.673 593.158Z" fill="#4ECDC4"/>
<path d="M908.747 585.417C908.735 586.045 908.197 586.546 907.544 586.537C906.89 586.547 906.351 586.046 906.339 585.417C906.339 584.8 906.879 584.298 907.544 584.298C908.207 584.298 908.747 584.8 908.747 585.417Z" fill="#4ECDC4"/>
<path d="M1091.91 681.302C1091.91 681.92 1091.38 682.42 1090.71 682.42C1090.06 682.431 1089.52 681.93 1089.51 681.302C1089.52 680.673 1090.06 680.172 1090.71 680.183C1091.38 680.183 1091.91 680.683 1091.91 681.302Z" fill="#4ECDC4"/>
<path d="M1211.57 613.932C1211.56 614.561 1211.02 615.062 1210.37 615.051C1209.7 615.051 1209.16 614.551 1209.16 613.932C1209.16 613.314 1209.7 612.814 1210.37 612.814C1211.02 612.803 1211.56 613.304 1211.57 613.932Z" fill="#4ECDC4"/>
<path d="M1169.8 661.103C1169.79 661.732 1169.25 662.233 1168.59 662.223C1167.94 662.233 1167.4 661.732 1167.39 661.103C1167.4 660.474 1167.94 659.973 1168.59 659.985C1169.26 659.985 1169.8 660.486 1169.8 661.103Z" fill="#4ECDC4"/>
<path d="M1085.54 557.041C1085.53 557.67 1084.99 558.171 1084.34 558.16C1083.69 558.171 1083.15 557.67 1083.14 557.041C1083.15 556.413 1083.69 555.912 1084.34 555.923C1084.99 555.912 1085.53 556.413 1085.54 557.041Z" fill="#4ECDC4"/>
<path d="M957.326 334.07C957.315 334.699 956.776 335.2 956.123 335.188C955.47 335.2 954.931 334.699 954.92 334.07C954.931 333.441 955.47 332.94 956.123 332.952C956.776 332.94 957.315 333.441 957.326 334.07Z" fill="#4ECDC4"/>
<path d="M1030.21 421.524C1030.2 422.153 1029.66 422.654 1029.01 422.643C1028.36 422.654 1027.82 422.153 1027.81 421.524C1027.82 420.896 1028.36 420.395 1029.01 420.406C1029.66 420.395 1030.2 420.896 1030.21 421.524Z" fill="#4ECDC4"/>
<path d="M1067.17 368.148C1067.16 368.777 1066.62 369.279 1065.97 369.268C1065.32 369.279 1064.78 368.777 1064.77 368.148C1064.78 367.52 1065.32 367.019 1065.97 367.03C1066.62 367.019 1067.16 367.52 1067.17 368.148Z" fill="#4ECDC4"/>
<path d="M837.166 456.362C837.155 456.991 836.616 457.492 835.963 457.48C835.31 457.492 834.771 456.991 834.76 456.362C834.771 455.733 835.31 455.232 835.963 455.244C836.616 455.232 837.155 455.733 837.166 456.362Z" fill="#4ECDC4"/>
<path d="M889.769 505.582C889.757 506.211 889.219 506.712 888.566 506.702C887.912 506.713 887.373 506.211 887.362 505.582C887.362 504.965 887.901 504.464 888.566 504.464C889.229 504.464 889.769 504.965 889.769 505.582Z" fill="#4ECDC4"/>
<path d="M814.131 554.803C814.12 555.432 813.582 555.933 812.929 555.923C812.276 555.933 811.737 555.432 811.726 554.803C811.737 554.174 812.275 553.673 812.929 553.685C813.582 553.673 814.121 554.174 814.131 554.803Z" fill="#4ECDC4"/>
<path d="M775.626 577.256C775.614 577.885 775.076 578.386 774.423 578.376C773.769 578.386 773.23 577.885 773.219 577.256C773.219 576.639 773.758 576.138 774.423 576.138C775.086 576.138 775.626 576.639 775.626 577.256Z" fill="#4ECDC4"/>
<path d="M1198.85 535.068C1198.84 535.696 1198.3 536.197 1197.65 536.186C1196.99 536.197 1196.45 535.696 1196.44 535.068C1196.44 534.449 1196.98 533.948 1197.65 533.948C1198.31 533.948 1198.85 534.449 1198.85 535.068Z" fill="#4ECDC4"/>
<path d="M1352.01 518.447C1352 519.076 1351.46 519.577 1350.81 519.565C1350.16 519.577 1349.62 519.076 1349.61 518.447C1349.62 517.818 1350.16 517.317 1350.81 517.329C1351.46 517.317 1352 517.818 1352.01 518.447Z" fill="#4ECDC4"/>
<path d="M1179.6 526.678C1179.6 527.295 1179.06 527.796 1178.39 527.796C1177.74 527.806 1177.2 527.306 1177.19 526.678C1177.19 526.06 1177.73 525.558 1178.39 525.558C1179.06 525.558 1179.6 526.06 1179.6 526.678Z" fill="#4ECDC4"/>
<path d="M1040.7 205.785C1040.7 206.402 1040.16 206.903 1039.5 206.903C1038.84 206.913 1038.3 206.413 1038.29 205.785C1038.3 205.156 1038.84 204.655 1039.5 204.667C1040.16 204.667 1040.7 205.167 1040.7 205.785Z" fill="#4ECDC4"/>
<path d="M1168.59 259.48C1168.58 260.109 1168.04 260.61 1167.39 260.599C1166.73 260.599 1166.19 260.097 1166.19 259.48C1166.19 258.862 1166.73 258.362 1167.39 258.362C1168.04 258.351 1168.58 258.852 1168.59 259.48Z" fill="#4ECDC4"/>
<path d="M1196.44 312.177C1196.44 312.794 1195.9 313.295 1195.24 313.295C1194.59 313.305 1194.05 312.805 1194.04 312.177C1194.04 311.559 1194.58 311.057 1195.24 311.057C1195.9 311.057 1196.44 311.559 1196.44 312.177Z" fill="#4ECDC4"/>
<path d="M816.538 110.819C816.528 111.448 815.989 111.95 815.336 111.939C814.682 111.95 814.142 111.449 814.131 110.819C814.131 110.202 814.671 109.701 815.336 109.701C815.999 109.701 816.538 110.202 816.538 110.819Z" fill="#4ECDC4"/>
<path d="M903.176 147.004C903.166 147.633 902.627 148.134 901.974 148.123C901.321 148.134 900.782 147.633 900.771 147.004C900.782 146.375 901.321 145.874 901.974 145.886C902.627 145.874 903.166 146.375 903.176 147.004Z" fill="#4ECDC4"/>
<path d="M927.93 395.369C927.92 395.998 927.381 396.499 926.728 396.487C926.074 396.499 925.536 395.998 925.525 395.369C925.536 394.74 926.074 394.239 926.728 394.251C927.381 394.239 927.92 394.74 927.93 395.369Z" fill="#4ECDC4"/>
<path d="M1069.58 478.096C1069.57 478.725 1069.03 479.226 1068.38 479.214C1067.71 479.214 1067.17 478.714 1067.17 478.096C1067.17 477.478 1067.71 476.978 1068.38 476.978C1069.03 476.966 1069.57 477.467 1069.58 478.096Z" fill="#4ECDC4"/>
<path d="M911.154 216.174C911.142 216.803 910.603 217.304 909.949 217.294C909.296 217.304 908.758 216.803 908.747 216.174C908.747 215.557 909.286 215.056 909.949 215.056C910.614 215.056 911.154 215.557 911.154 216.174Z" fill="#4ECDC4"/>
<path d="M818.945 278.401C818.935 279.03 818.395 279.531 817.741 279.519C817.088 279.531 816.549 279.03 816.538 278.401C816.549 277.772 817.088 277.271 817.741 277.282C818.395 277.27 818.935 277.771 818.945 278.401Z" fill="#4ECDC4"/>
<path d="M797.285 184.331C797.274 184.96 796.735 185.461 796.082 185.449C795.429 185.461 794.89 184.96 794.879 184.331C794.89 183.702 795.429 183.201 796.082 183.213C796.735 183.201 797.274 183.702 797.285 184.331Z" fill="#4ECDC4"/>
<path d="M856.42 356.284C856.408 356.912 855.87 357.413 855.217 357.402C854.563 357.414 854.024 356.913 854.012 356.284C854.012 355.666 854.552 355.164 855.217 355.164C855.882 355.164 856.42 355.666 856.42 356.284Z" fill="#4ECDC4"/>
<path d="M1014.23 223.683C1014.22 224.312 1013.68 224.813 1013.02 224.801C1012.36 224.801 1011.82 224.301 1011.82 223.683C1011.82 223.065 1012.36 222.565 1013.02 222.565C1013.68 222.553 1014.22 223.054 1014.23 223.683Z" fill="#4ECDC4"/>
<path d="M1213.98 193.001C1213.98 193.617 1213.44 194.119 1212.77 194.119C1212.12 194.129 1211.58 193.629 1211.57 193.001C1211.57 192.382 1212.11 191.881 1212.77 191.881C1213.44 191.881 1213.98 192.382 1213.98 193.001Z" fill="#4ECDC4"/>
<path d="M1128.37 345.096C1128.36 345.724 1127.82 346.225 1127.17 346.216C1126.51 346.226 1125.97 345.725 1125.96 345.096C1125.96 344.479 1126.5 343.978 1127.17 343.978C1127.83 343.978 1128.37 344.479 1128.37 345.096Z" fill="#4ECDC4"/>
<path d="M1311.96 396.488C1311.95 397.117 1311.41 397.618 1310.76 397.607C1310.1 397.617 1309.57 397.116 1309.55 396.488C1309.55 395.871 1310.09 395.369 1310.76 395.369C1311.42 395.369 1311.96 395.871 1311.96 396.488Z" fill="#4ECDC4"/>
<path d="M1177.19 218.412C1177.18 219.04 1176.64 219.54 1175.99 219.53C1175.32 219.53 1174.78 219.029 1174.78 218.412C1174.78 217.794 1175.32 217.294 1175.99 217.294C1176.64 217.282 1177.18 217.783 1177.19 218.412Z" fill="#4ECDC4"/>
<path d="M1159.31 123.318C1159.3 123.947 1158.76 124.449 1158.11 124.438C1157.45 124.449 1156.92 123.947 1156.91 123.318C1156.92 122.689 1157.46 122.188 1158.11 122.199C1158.76 122.188 1159.3 122.689 1159.31 123.318Z" fill="#4ECDC4"/>
<path d="M1118.57 86.2431C1118.56 86.8721 1118.02 87.3728 1117.37 87.3615C1116.71 87.372 1116.18 86.8715 1116.16 86.2431C1116.17 85.6144 1116.71 85.1134 1117.37 85.1247C1118.03 85.1247 1118.57 85.6248 1118.57 86.2431Z" fill="#4ECDC4"/>
<path d="M1293.95 172.147C1293.95 172.765 1293.42 173.265 1292.75 173.265C1292.1 173.277 1291.56 172.776 1291.55 172.147C1291.55 171.53 1292.09 171.029 1292.75 171.029C1293.42 171.029 1293.95 171.53 1293.95 172.147Z" fill="#4ECDC4"/>
<path d="M1272.08 123.317C1272.07 123.947 1271.53 124.448 1270.88 124.437C1270.22 124.448 1269.68 123.946 1269.67 123.317C1269.67 122.701 1270.21 122.199 1270.88 122.199C1271.54 122.199 1272.08 122.701 1272.08 123.317Z" fill="#4ECDC4"/>
<path d="M1401.35 186.567C1401.34 187.196 1400.8 187.697 1400.15 187.686C1399.48 187.686 1398.94 187.186 1398.94 186.567C1398.94 185.951 1399.48 185.449 1400.15 185.449C1400.81 185.449 1401.35 185.951 1401.35 186.567Z" fill="#4ECDC4"/>
<path d="M1334.68 314.414C1334.67 315.042 1334.13 315.543 1333.48 315.532C1332.83 315.543 1332.29 315.042 1332.28 314.414C1332.29 313.785 1332.83 313.284 1333.48 313.295C1334.13 313.284 1334.67 313.785 1334.68 314.414Z" fill="#4ECDC4"/>
<path d="M1187.54 426.638C1187.52 427.266 1186.99 427.767 1186.33 427.758C1185.68 427.768 1185.14 427.267 1185.13 426.638C1185.13 426.021 1185.67 425.52 1186.33 425.52C1187 425.52 1187.54 426.021 1187.54 426.638Z" fill="#4ECDC4"/>
<path d="M1367.69 193.839C1367.68 194.468 1367.14 194.969 1366.49 194.958C1365.83 194.969 1365.29 194.468 1365.28 193.839C1365.29 193.211 1365.83 192.71 1366.49 192.721C1367.14 192.71 1367.68 193.211 1367.69 193.839Z" fill="#4ECDC4"/>
<path d="M1355.62 345.096C1355.61 345.725 1355.07 346.226 1354.42 346.216C1353.77 346.226 1353.23 345.725 1353.22 345.096C1353.23 344.467 1353.77 343.966 1354.42 343.978C1355.07 343.966 1355.61 344.467 1355.62 345.096Z" fill="#4ECDC4"/>
<path d="M1232.11 469.706C1232.11 470.325 1231.57 470.825 1230.91 470.825C1230.26 470.836 1229.72 470.335 1229.71 469.706C1229.72 469.078 1230.26 468.577 1230.91 468.588C1231.57 468.588 1232.11 469.088 1232.11 469.706Z" fill="#4ECDC4"/>
<path d="M1353.22 98.3552C1353.21 98.9838 1352.67 99.4842 1352.01 99.4736C1351.36 99.4842 1350.82 98.9837 1350.81 98.3552C1350.81 97.7369 1351.35 97.2354 1352.01 97.2354C1352.68 97.2354 1353.22 97.7369 1353.22 98.3552Z" fill="#4ECDC4"/>
<path d="M1247.75 283.451C1247.74 284.08 1247.21 284.581 1246.55 284.57C1245.9 284.581 1245.36 284.08 1245.35 283.451C1245.36 282.823 1245.9 282.322 1246.55 282.333C1247.21 282.322 1247.74 282.823 1247.75 283.451Z" fill="#4ECDC4"/>
<path d="M1388.03 431.753C1388.02 432.381 1387.48 432.882 1386.82 432.871C1386.17 432.882 1385.63 432.381 1385.62 431.753C1385.62 431.134 1386.16 430.633 1386.82 430.633C1387.49 430.633 1388.03 431.134 1388.03 431.753Z" fill="#4ECDC4"/>
<path d="M843.784 191.881C843.784 193.581 842.303 194.958 840.476 194.958C838.647 194.958 837.166 193.581 837.166 191.881C837.166 190.183 838.647 188.806 840.476 188.806C842.303 188.806 843.784 190.183 843.784 191.881Z" fill="#4ECDC4"/>
<path d="M1076.2 295.437C1076.2 297.135 1074.72 298.513 1072.89 298.513C1071.06 298.513 1069.58 297.135 1069.58 295.437C1069.58 293.738 1071.06 292.36 1072.89 292.36C1074.72 292.36 1076.2 293.738 1076.2 295.437Z" fill="#4ECDC4"/>
<path d="M1009.41 530.873C1009.41 532.572 1007.93 533.948 1006.1 533.948C1004.28 533.948 1002.8 532.572 1002.8 530.873C1002.8 529.173 1004.28 527.796 1006.1 527.796C1007.93 527.796 1009.41 529.173 1009.41 530.873Z" fill="#4ECDC4"/>
<path d="M821.051 628.274C821.051 629.975 819.57 631.351 817.741 631.351C815.914 631.351 814.433 629.975 814.433 628.274C814.433 626.576 815.914 625.199 817.741 625.199C819.57 625.199 821.051 626.576 821.051 628.274Z" fill="#4ECDC4"/>
<path d="M1238.73 390.056C1238.73 391.755 1237.25 393.133 1235.42 393.133C1233.59 393.133 1232.11 391.755 1232.11 390.056C1232.11 388.357 1233.59 386.979 1235.42 386.979C1237.25 386.979 1238.73 388.357 1238.73 390.056Z" fill="#4ECDC4"/>
<path d="M1291.55 620.364C1291.55 622.063 1290.07 623.441 1288.24 623.441C1286.41 623.441 1284.93 622.063 1284.93 620.364C1284.93 618.666 1286.41 617.288 1288.24 617.288C1290.07 617.288 1291.55 618.665 1291.55 620.364Z" fill="#4ECDC4"/>
<path d="M1322.62 473.901C1322.62 475.6 1321.14 476.978 1319.31 476.978C1317.48 476.978 1316 475.6 1316 473.901C1316 472.203 1317.48 470.825 1319.31 470.825C1321.14 470.825 1322.62 472.203 1322.62 473.901Z" fill="#4ECDC4"/>
<path d="M1125.19 630.593C1125.19 632.291 1123.71 633.669 1121.88 633.669C1120.05 633.669 1118.57 632.291 1118.57 630.593C1118.57 628.893 1120.05 627.516 1121.88 627.516C1123.71 627.516 1125.19 628.893 1125.19 630.593Z" fill="#4ECDC4"/>
<path fill-rule="evenodd" clip-rule="evenodd" d="M1126.45 420.858L1115.45 431.085L1114.47 430.181L1125.48 419.954L1126.45 420.858Z" fill="#4ECDC4"/>
<path fill-rule="evenodd" clip-rule="evenodd" d="M908.116 279.965L897.253 269.611L898.238 268.719L909.101 279.073L908.116 279.965Z" fill="#4ECDC4"/>
<path fill-rule="evenodd" clip-rule="evenodd" d="M1302.47 583.047L1289.72 574.75L1290.51 573.703L1303.26 582.001L1302.47 583.047Z" fill="#4ECDC4"/>
<path fill-rule="evenodd" clip-rule="evenodd" d="M1096.69 129.109L1083.95 120.813L1084.73 119.765L1097.48 128.061L1096.69 129.109Z" fill="#4ECDC4"/>
<path fill-rule="evenodd" clip-rule="evenodd" d="M1329.4 141.191L1326.11 155.327L1324.76 155.056L1328.06 140.919L1329.4 141.191Z" fill="#4ECDC4"/>
<path d="M956.123 458.919C956.112 459.548 955.574 460.049 954.92 460.038C954.255 460.038 953.716 459.538 953.716 458.919C953.716 458.301 954.255 457.801 954.92 457.801C955.574 457.79 956.112 458.291 956.123 458.919Z" fill="#4ECDC4"/>
<path d="M887.362 616.169C887.351 616.798 886.812 617.299 886.159 617.288C885.506 617.299 884.967 616.798 884.956 616.169C884.967 615.541 885.506 615.04 886.159 615.051C886.812 615.04 887.351 615.541 887.362 616.169Z" fill="#4ECDC4"/>
<path d="M1304.91 222.607C1304.91 224.306 1303.43 225.684 1301.6 225.684C1299.78 225.684 1298.29 224.306 1298.29 222.607C1298.29 220.909 1299.78 219.531 1301.6 219.531C1303.43 219.531 1304.91 220.909 1304.91 222.607Z" fill="#4ECDC4"/>
<path d="M893.98 431.753C893.98 433.452 892.499 434.828 890.672 434.828C888.843 434.828 887.362 433.452 887.362 431.753C887.362 430.053 888.843 428.676 890.672 428.676C892.498 428.676 893.98 430.053 893.98 431.753Z" fill="#4ECDC4"/>
<path d="M980.103 170.19C980.103 171.889 978.621 173.265 976.794 173.265C974.966 173.265 973.485 171.889 973.485 170.19C973.485 168.49 974.966 167.114 976.794 167.114C978.621 167.114 980.103 168.49 980.103 170.19Z" fill="#4ECDC4"/>
<path d="M784.651 348.292C784.651 349.992 783.168 351.368 781.341 351.368C779.514 351.368 778.033 349.992 778.033 348.292C778.033 346.593 779.514 345.217 781.341 345.217C783.168 345.217 784.651 346.593 784.651 348.292Z" fill="#4ECDC4"/>
<path fill-rule="evenodd" clip-rule="evenodd" d="M776.112 445.469L765.11 455.696L764.137 454.792L775.139 444.565L776.112 445.469Z" fill="#4ECDC4"/>
<path fill-rule="evenodd" clip-rule="evenodd" d="M1004.97 368.6L993.968 378.829L992.996 377.925L1004 367.696L1004.97 368.6Z" fill="#4ECDC4"/>
<path d="M743.996 634.427C743.996 636.126 742.514 637.504 740.686 637.504C738.859 637.504 737.378 636.126 737.378 634.427C737.378 632.728 738.859 631.351 740.686 631.351C742.514 631.351 743.996 632.728 743.996 634.427Z" fill="#4ECDC4"/>
<path d="M728.525 531.791C728.514 532.421 727.974 532.922 727.321 532.91C726.667 532.921 726.128 532.42 726.118 531.791C726.128 531.163 726.667 530.662 727.321 530.673C727.974 530.661 728.514 531.162 728.525 531.791Z" fill="#4ECDC4"/>
<path d="M746.401 121.406C746.391 122.035 745.852 122.536 745.199 122.526C744.545 122.536 744.007 122.035 743.996 121.406C744.007 120.777 744.546 120.276 745.199 120.288C745.852 120.276 746.391 120.777 746.401 121.406Z" fill="#4ECDC4"/>
<path d="M716.147 270.986C716.136 271.615 715.597 272.116 714.944 272.105C714.29 272.117 713.751 271.615 713.74 270.986C713.751 270.357 714.29 269.856 714.944 269.868C715.597 269.856 716.136 270.357 716.147 270.986Z" fill="#4ECDC4"/>
<path d="M1472.26 348.292C1472.26 349.992 1470.78 351.368 1468.95 351.368C1467.12 351.368 1465.64 349.992 1465.64 348.292C1465.64 346.593 1467.12 345.217 1468.95 345.217C1470.78 345.217 1472.26 346.593 1472.26 348.292Z" fill="#4ECDC4"/>
<path fill-rule="evenodd" clip-rule="evenodd" d="M1463.72 445.469L1452.72 455.696L1451.75 454.792L1462.75 444.565L1463.72 445.469Z" fill="#4ECDC4"/>
<path d="M1431.6 634.427C1431.6 636.126 1430.12 637.504 1428.3 637.504C1426.47 637.504 1424.99 636.126 1424.99 634.427C1424.99 632.728 1426.47 631.351 1428.3 631.351C1430.12 631.351 1431.6 632.728 1431.6 634.427Z" fill="#4ECDC4"/>
<path d="M1416.13 531.791C1416.12 532.42 1415.58 532.921 1414.93 532.91C1414.27 532.91 1413.73 532.41 1413.73 531.791C1413.73 531.173 1414.27 530.673 1414.93 530.673C1415.58 530.662 1416.12 531.163 1416.13 531.791Z" fill="#4ECDC4"/>
<path d="M1370.1 663.341C1370.08 663.969 1369.55 664.469 1368.89 664.459C1368.23 664.459 1367.69 663.958 1367.69 663.341C1367.69 662.723 1368.23 662.222 1368.89 662.222C1369.55 662.211 1370.09 662.712 1370.1 663.341Z" fill="#4ECDC4"/>
<path d="M1354.25 616.169C1354.25 616.787 1353.71 617.288 1353.05 617.288C1352.39 617.299 1351.85 616.798 1351.84 616.169C1351.85 615.541 1352.39 615.04 1353.05 615.051C1353.71 615.051 1354.25 615.551 1354.25 616.169Z" fill="#4ECDC4"/>
<path d="M1434.01 121.406C1434 122.035 1433.46 122.536 1432.81 122.526C1432.16 122.536 1431.62 122.035 1431.6 121.406C1431.6 120.789 1432.14 120.288 1432.81 120.288C1433.47 120.288 1434.01 120.789 1434.01 121.406Z" fill="#4ECDC4"/>
<path d="M1403.76 270.986C1403.76 271.604 1403.22 272.105 1402.55 272.105C1401.9 272.116 1401.36 271.615 1401.35 270.986C1401.36 270.357 1401.9 269.856 1402.55 269.868C1403.22 269.868 1403.76 270.368 1403.76 270.986Z" fill="#4ECDC4"/>
<path d="M1288.24 676.257C1288.24 676.875 1287.7 677.375 1287.03 677.375C1286.38 677.386 1285.84 676.885 1285.83 676.257C1285.84 675.628 1286.38 675.127 1287.03 675.138C1287.7 675.138 1288.24 675.638 1288.24 676.257Z" fill="#4ECDC4"/>
<path d="M1413.38 700.227C1413.37 700.856 1412.83 701.358 1412.18 701.347C1411.53 701.358 1410.99 700.856 1410.98 700.227C1410.99 699.599 1411.53 699.098 1412.18 699.109C1412.83 699.098 1413.37 699.599 1413.38 700.227Z" fill="#4ECDC4"/>
<path d="M1212.77 703.304C1212.77 705.003 1211.29 706.381 1209.46 706.381C1207.64 706.381 1206.15 705.003 1206.15 703.304C1206.15 701.605 1207.64 700.228 1209.46 700.228C1211.29 700.228 1212.77 701.605 1212.77 703.304Z" fill="#4ECDC4"/>
<path fill-rule="evenodd" clip-rule="evenodd" d="M999.823 650.207L1006.99 663.046L1005.77 663.634L998.604 650.794L999.823 650.207Z" fill="#4ECDC4"/>
<path d="M974.689 738.902C974.689 739.518 974.15 740.02 973.485 740.02C972.832 740.03 972.294 739.53 972.282 738.902C972.293 738.273 972.831 737.772 973.485 737.783C974.15 737.783 974.689 738.283 974.689 738.902Z" fill="#4ECDC4"/>
<path d="M778.033 690.32C778.022 690.949 777.482 691.45 776.828 691.438C776.175 691.449 775.637 690.948 775.626 690.32C775.637 689.691 776.175 689.19 776.828 689.201C777.482 689.189 778.022 689.69 778.033 690.32Z" fill="#4ECDC4"/>
<path d="M936.87 683.54C936.859 684.169 936.32 684.669 935.667 684.658C935.014 684.669 934.475 684.169 934.464 683.54C934.464 682.921 935.002 682.42 935.667 682.42C936.332 682.42 936.87 682.921 936.87 683.54Z" fill="#4ECDC4"/>
<path d="M993.482 590.919C993.471 591.548 992.932 592.049 992.279 592.038C991.614 592.038 991.075 591.538 991.075 590.919C991.075 590.303 991.614 589.801 992.279 589.801C992.943 589.801 993.482 590.303 993.482 590.919Z" fill="#4ECDC4"/>
<path d="M1465.64 690.32C1465.63 690.948 1465.09 691.449 1464.44 691.438C1463.77 691.438 1463.23 690.938 1463.23 690.32C1463.23 689.701 1463.77 689.201 1464.44 689.201C1465.09 689.19 1465.63 689.691 1465.64 690.32Z" fill="#4ECDC4"/>
<path d="M875.673 713.865C875.673 715.564 874.192 716.942 872.363 716.942C870.536 716.942 869.055 715.564 869.055 713.865C869.055 712.166 870.536 710.789 872.363 710.789C874.192 710.789 875.673 712.166 875.673 713.865Z" fill="#4ECDC4"/>
<path d="M1288.24 37.0315C1288.23 37.6601 1287.69 38.1604 1287.03 38.1499C1286.38 38.1604 1285.84 37.6599 1285.83 37.0315C1285.83 36.4132 1286.37 35.9116 1287.03 35.9116C1287.7 35.9116 1288.24 36.4132 1288.24 37.0315Z" fill="#4ECDC4"/>
<path d="M1413.38 61.0024C1413.37 61.6311 1412.83 62.1321 1412.18 62.1206C1411.53 62.1321 1410.99 61.6311 1410.98 61.0024C1410.99 60.3737 1411.53 59.8727 1412.18 59.884C1412.83 59.8727 1413.37 60.3737 1413.38 61.0024Z" fill="#4ECDC4"/>
<path d="M1212.77 64.0789C1212.77 65.7776 1211.29 67.1555 1209.46 67.1555C1207.64 67.1555 1206.15 65.7776 1206.15 64.0789C1206.15 62.3788 1207.64 61.0024 1209.46 61.0024C1211.29 61.0024 1212.77 62.3788 1212.77 64.0789Z" fill="#4ECDC4"/>
<path fill-rule="evenodd" clip-rule="evenodd" d="M999.823 10.98L1006.99 23.8199L1005.77 24.4089L998.604 11.569L999.823 10.98Z" fill="#4ECDC4"/>
<path d="M974.689 99.675C974.677 100.304 974.138 100.804 973.485 100.793C972.832 100.804 972.293 100.303 972.282 99.675C972.282 99.0582 972.821 98.5566 973.485 98.5566C974.15 98.5566 974.689 99.0567 974.689 99.675Z" fill="#4ECDC4"/>
<path d="M1048.26 144.768C1048.25 145.396 1047.71 145.896 1047.06 145.886C1046.41 145.896 1045.87 145.396 1045.86 144.768C1045.87 144.139 1046.41 143.638 1047.06 143.649C1047.72 143.649 1048.26 144.149 1048.26 144.768Z" fill="#4ECDC4"/>
<path d="M1130.78 189.924C1130.78 190.542 1130.24 191.042 1129.57 191.042C1128.92 191.054 1128.38 190.553 1128.37 189.924C1128.38 189.295 1128.92 188.794 1129.57 188.806C1130.24 188.806 1130.78 189.306 1130.78 189.924Z" fill="#4ECDC4"/>
<path d="M995.889 285.688C995.889 286.306 995.35 286.806 994.685 286.806C994.032 286.818 993.493 286.317 993.482 285.688C993.482 285.071 994.021 284.57 994.685 284.57C995.35 284.57 995.889 285.071 995.889 285.688Z" fill="#4ECDC4"/>
<path d="M778.033 51.0943C778.021 51.7234 777.482 52.2242 776.828 52.2127C776.176 52.2233 775.637 51.7228 775.626 51.0943C775.626 50.4762 776.165 49.9746 776.828 49.9746C777.494 49.9746 778.033 50.4762 778.033 51.0943Z" fill="#4ECDC4"/>
<path d="M1465.64 51.0943C1465.63 51.7228 1465.09 52.2233 1464.44 52.2127C1463.79 52.2233 1463.25 51.7231 1463.23 51.0943C1463.23 50.4762 1463.77 49.9746 1464.44 49.9746C1465.1 49.9746 1465.64 50.4762 1465.64 51.0943Z" fill="#4ECDC4"/>
<path d="M875.673 74.6395C875.673 76.3381 874.192 77.716 872.363 77.716C870.536 77.716 869.055 76.3381 869.055 74.6395C869.055 72.9394 870.536 71.563 872.363 71.563C874.192 71.563 875.673 72.9394 875.673 74.6395Z" fill="#4ECDC4"/>
</g>
<g opacity="0.28">
<path d="M1684.67 590.158C1684.67 590.775 1684.13 591.276 1683.47 591.276C1682.82 591.286 1682.28 590.786 1682.27 590.158C1682.27 589.54 1682.81 589.038 1683.47 589.038C1684.13 589.038 1684.67 589.54 1684.67 590.158Z" fill="#4ECDC4"/>
<path d="M1717.75 582.417C1717.73 583.045 1717.2 583.546 1716.54 583.537C1715.89 583.547 1715.35 583.046 1715.34 582.417C1715.34 581.8 1715.88 581.298 1716.54 581.298C1717.21 581.298 1717.75 581.8 1717.75 582.417Z" fill="#4ECDC4"/>
<path d="M1646.17 453.362C1646.16 453.991 1645.62 454.492 1644.96 454.48C1644.31 454.492 1643.77 453.991 1643.76 453.362C1643.77 452.733 1644.31 452.232 1644.96 452.244C1645.62 452.232 1646.16 452.733 1646.17 453.362Z" fill="#4ECDC4"/>
<path d="M1698.77 502.582C1698.76 503.211 1698.22 503.712 1697.57 503.702C1696.91 503.713 1696.37 503.211 1696.36 502.582C1696.36 501.965 1696.9 501.464 1697.57 501.464C1698.23 501.464 1698.77 501.965 1698.77 502.582Z" fill="#4ECDC4"/>
<path d="M1623.13 551.803C1623.12 552.432 1622.58 552.933 1621.93 552.923C1621.28 552.933 1620.74 552.432 1620.73 551.803C1620.74 551.174 1621.28 550.673 1621.93 550.685C1622.58 550.673 1623.12 551.174 1623.13 551.803Z" fill="#4ECDC4"/>
<path d="M1584.63 574.256C1584.61 574.885 1584.08 575.386 1583.42 575.376C1582.77 575.386 1582.23 574.885 1582.22 574.256C1582.22 573.639 1582.76 573.138 1583.42 573.138C1584.09 573.138 1584.63 573.639 1584.63 574.256Z" fill="#4ECDC4"/>
<path d="M1625.54 107.819C1625.53 108.448 1624.99 108.95 1624.34 108.939C1623.68 108.95 1623.14 108.449 1623.13 107.819C1623.13 107.202 1623.67 106.701 1624.34 106.701C1625 106.701 1625.54 107.202 1625.54 107.819Z" fill="#4ECDC4"/>
<path d="M1712.18 144.004C1712.17 144.633 1711.63 145.134 1710.97 145.123C1710.32 145.134 1709.78 144.633 1709.77 144.004C1709.78 143.375 1710.32 142.874 1710.97 142.886C1711.63 142.874 1712.17 143.375 1712.18 144.004Z" fill="#4ECDC4"/>
<path d="M1720.15 213.174C1720.14 213.803 1719.6 214.304 1718.95 214.294C1718.3 214.304 1717.76 213.803 1717.75 213.174C1717.75 212.557 1718.29 212.056 1718.95 212.056C1719.61 212.056 1720.15 212.557 1720.15 213.174Z" fill="#4ECDC4"/>
<path d="M1627.95 275.401C1627.93 276.03 1627.4 276.531 1626.74 276.519C1626.09 276.531 1625.55 276.03 1625.54 275.401C1625.55 274.772 1626.09 274.271 1626.74 274.282C1627.4 274.27 1627.93 274.771 1627.95 275.401Z" fill="#4ECDC4"/>
<path d="M1606.28 181.331C1606.27 181.96 1605.74 182.461 1605.08 182.449C1604.43 182.461 1603.89 181.96 1603.88 181.331C1603.89 180.702 1604.43 180.201 1605.08 180.213C1605.74 180.201 1606.27 180.702 1606.28 181.331Z" fill="#4ECDC4"/>
<path d="M1665.42 353.284C1665.41 353.912 1664.87 354.413 1664.22 354.402C1663.56 354.414 1663.02 353.913 1663.01 353.284C1663.01 352.666 1663.55 352.164 1664.22 352.164C1664.88 352.164 1665.42 352.666 1665.42 353.284Z" fill="#4ECDC4"/>
<path d="M1652.78 188.881C1652.78 190.581 1651.3 191.958 1649.48 191.958C1647.65 191.958 1646.17 190.581 1646.17 188.881C1646.17 187.183 1647.65 185.806 1649.48 185.806C1651.3 185.806 1652.78 187.183 1652.78 188.881Z" fill="#4ECDC4"/>
<path d="M1630.05 625.274C1630.05 626.975 1628.57 628.351 1626.74 628.351C1624.91 628.351 1623.43 626.975 1623.43 625.274C1623.43 623.576 1624.91 622.199 1626.74 622.199C1628.57 622.199 1630.05 623.576 1630.05 625.274Z" fill="#4ECDC4"/>
<path fill-rule="evenodd" clip-rule="evenodd" d="M1717.12 276.965L1706.25 266.611L1707.24 265.719L1718.1 276.073L1717.12 276.965Z" fill="#4ECDC4"/>
<path d="M1696.36 613.169C1696.35 613.798 1695.81 614.299 1695.16 614.288C1694.51 614.299 1693.97 613.798 1693.96 613.169C1693.97 612.541 1694.51 612.04 1695.16 612.051C1695.81 612.04 1696.35 612.541 1696.36 613.169Z" fill="#4ECDC4"/>
<path d="M1702.98 428.753C1702.98 430.452 1701.5 431.828 1699.67 431.828C1697.84 431.828 1696.36 430.452 1696.36 428.753C1696.36 427.053 1697.84 425.676 1699.67 425.676C1701.5 425.676 1702.98 427.053 1702.98 428.753Z" fill="#4ECDC4"/>
<path d="M1593.65 345.292C1593.65 346.992 1592.17 348.368 1590.34 348.368C1588.51 348.368 1587.03 346.992 1587.03 345.292C1587.03 343.593 1588.51 342.217 1590.34 342.217C1592.17 342.217 1593.65 343.593 1593.65 345.292Z" fill="#4ECDC4"/>
<path fill-rule="evenodd" clip-rule="evenodd" d="M1585.11 442.469L1574.11 452.696L1573.14 451.792L1584.14 441.565L1585.11 442.469Z" fill="#4ECDC4"/>
<path d="M1553 631.427C1553 633.126 1551.51 634.504 1549.69 634.504C1547.86 634.504 1546.38 633.126 1546.38 631.427C1546.38 629.728 1547.86 628.351 1549.69 628.351C1551.51 628.351 1553 629.728 1553 631.427Z" fill="#4ECDC4"/>
<path d="M1537.52 528.791C1537.51 529.421 1536.97 529.922 1536.32 529.91C1535.67 529.921 1535.13 529.42 1535.12 528.791C1535.13 528.163 1535.67 527.662 1536.32 527.673C1536.97 527.661 1537.51 528.162 1537.52 528.791Z" fill="#4ECDC4"/>
<path d="M1555.4 118.406C1555.39 119.035 1554.85 119.536 1554.2 119.526C1553.55 119.536 1553.01 119.035 1553 118.406C1553.01 117.777 1553.55 117.276 1554.2 117.288C1554.85 117.276 1555.39 117.777 1555.4 118.406Z" fill="#4ECDC4"/>
<path d="M1525.15 267.986C1525.14 268.615 1524.6 269.116 1523.94 269.105C1523.29 269.117 1522.75 268.615 1522.74 267.986C1522.75 267.357 1523.29 266.856 1523.94 266.868C1524.6 266.856 1525.14 267.357 1525.15 267.986Z" fill="#4ECDC4"/>
<path d="M1587.03 687.32C1587.02 687.949 1586.48 688.45 1585.83 688.438C1585.18 688.449 1584.64 687.948 1584.63 687.32C1584.64 686.691 1585.18 686.19 1585.83 686.201C1586.48 686.189 1587.02 686.69 1587.03 687.32Z" fill="#4ECDC4"/>
<path d="M1684.67 710.865C1684.67 712.564 1683.19 713.942 1681.36 713.942C1679.54 713.942 1678.05 712.564 1678.05 710.865C1678.05 709.166 1679.54 707.789 1681.36 707.789C1683.19 707.789 1684.67 709.166 1684.67 710.865Z" fill="#4ECDC4"/>
<path d="M1587.03 48.0943C1587.02 48.7234 1586.48 49.2242 1585.83 49.2127C1585.18 49.2233 1584.64 48.7228 1584.63 48.0943C1584.63 47.4762 1585.16 46.9746 1585.83 46.9746C1586.49 46.9746 1587.03 47.4762 1587.03 48.0943Z" fill="#4ECDC4"/>
<path d="M1684.67 71.6395C1684.67 73.3381 1683.19 74.716 1681.36 74.716C1679.54 74.716 1678.05 73.3381 1678.05 71.6395C1678.05 69.9394 1679.54 68.563 1681.36 68.563C1683.19 68.563 1684.67 69.9394 1684.67 71.6395Z" fill="#4ECDC4"/>
</g>
<g opacity="0.28">
<path d="M63.6732 1347.16C63.6732 1347.77 63.1339 1348.28 62.4688 1348.28C61.8164 1348.29 61.2785 1347.79 61.2661 1347.16C61.2661 1346.54 61.8054 1346.04 62.4688 1346.04C63.1339 1346.04 63.6732 1346.54 63.6732 1347.16Z" fill="#4ECDC4"/>
<path d="M96.7465 1339.42C96.7347 1340.05 96.1968 1340.55 95.5436 1340.54C94.89 1340.55 94.3509 1340.05 94.3394 1339.42C94.3394 1338.8 94.8787 1338.3 95.5436 1338.3C96.2072 1338.3 96.7465 1338.8 96.7465 1339.42Z" fill="#4ECDC4"/>
<path d="M399.57 1367.93C399.559 1368.56 399.021 1369.06 398.367 1369.05C397.702 1369.05 397.163 1368.55 397.163 1367.93C397.163 1367.31 397.702 1366.81 398.367 1366.81C399.021 1366.8 399.559 1367.3 399.57 1367.93Z" fill="#4ECDC4"/>
<path d="M273.542 1311.04C273.531 1311.67 272.992 1312.17 272.339 1312.16C271.686 1312.17 271.147 1311.67 271.136 1311.04C271.147 1310.41 271.686 1309.91 272.339 1309.92C272.992 1309.91 273.531 1310.41 273.542 1311.04Z" fill="#4ECDC4"/>
<path d="M145.326 1088.07C145.315 1088.7 144.776 1089.2 144.123 1089.19C143.47 1089.2 142.931 1088.7 142.92 1088.07C142.931 1087.44 143.47 1086.94 144.123 1086.95C144.776 1086.94 145.315 1087.44 145.326 1088.07Z" fill="#4ECDC4"/>
<path d="M218.212 1175.52C218.201 1176.15 217.663 1176.65 217.01 1176.64C216.356 1176.65 215.817 1176.15 215.807 1175.52C215.817 1174.9 216.356 1174.39 217.01 1174.41C217.663 1174.39 218.201 1174.9 218.212 1175.52Z" fill="#4ECDC4"/>
<path d="M255.171 1122.15C255.16 1122.78 254.622 1123.28 253.969 1123.27C253.315 1123.28 252.776 1122.78 252.766 1122.15C252.776 1121.52 253.315 1121.02 253.969 1121.03C254.622 1121.02 255.16 1121.52 255.171 1122.15Z" fill="#4ECDC4"/>
<path d="M25.1661 1210.36C25.1553 1210.99 24.6164 1211.49 23.9632 1211.48C23.31 1211.49 22.7713 1210.99 22.7605 1210.36C22.7713 1209.73 23.31 1209.23 23.9632 1209.24C24.6164 1209.23 25.1553 1209.73 25.1661 1210.36Z" fill="#4ECDC4"/>
<path d="M77.7685 1259.58C77.7569 1260.21 77.2189 1260.71 76.5658 1260.7C75.9122 1260.71 75.3732 1260.21 75.3616 1259.58C75.3616 1258.97 75.9007 1258.46 76.5658 1258.46C77.2294 1258.46 77.7685 1258.97 77.7685 1259.58Z" fill="#4ECDC4"/>
<path d="M2.13141 1308.8C2.11982 1309.43 1.58173 1309.93 0.928544 1309.92C0.275511 1309.93 -0.262583 1309.43 -0.27417 1308.8C-0.263356 1308.17 0.275356 1307.67 0.928544 1307.68C1.58173 1307.67 2.1206 1308.17 2.13141 1308.8Z" fill="#4ECDC4"/>
<path d="M386.848 1289.07C386.838 1289.7 386.299 1290.2 385.646 1290.19C384.993 1290.2 384.454 1289.7 384.443 1289.07C384.443 1288.45 384.981 1287.95 385.646 1287.95C386.311 1287.95 386.848 1288.45 386.848 1289.07Z" fill="#4ECDC4"/>
<path d="M540.014 1272.45C540.003 1273.08 539.464 1273.58 538.811 1273.57C538.158 1273.58 537.619 1273.08 537.608 1272.45C537.619 1271.82 538.158 1271.32 538.811 1271.33C539.464 1271.32 540.003 1271.82 540.014 1272.45Z" fill="#4ECDC4"/>
<path d="M367.596 1280.68C367.596 1281.29 367.057 1281.8 366.392 1281.8C365.74 1281.81 365.202 1281.31 365.189 1280.68C365.189 1280.06 365.729 1279.56 366.392 1279.56C367.057 1279.56 367.596 1280.06 367.596 1280.68Z" fill="#4ECDC4"/>
<path d="M228.7 959.785C228.7 960.402 228.16 960.903 227.495 960.903C226.843 960.913 226.305 960.413 226.292 959.785C226.303 959.156 226.842 958.655 227.495 958.667C228.16 958.667 228.7 959.167 228.7 959.785Z" fill="#4ECDC4"/>
<path d="M356.594 1013.48C356.583 1014.11 356.045 1014.61 355.391 1014.6C354.726 1014.6 354.187 1014.1 354.187 1013.48C354.187 1012.86 354.726 1012.36 355.391 1012.36C356.045 1012.35 356.583 1012.85 356.594 1013.48Z" fill="#4ECDC4"/>
<path d="M384.443 1066.18C384.443 1066.79 383.904 1067.3 383.239 1067.3C382.586 1067.31 382.048 1066.8 382.036 1066.18C382.036 1065.56 382.575 1065.06 383.239 1065.06C383.904 1065.06 384.443 1065.56 384.443 1066.18Z" fill="#4ECDC4"/>
<path d="M4.53832 864.819C4.52766 865.448 3.98911 865.95 3.33561 865.939C2.68165 865.95 2.14216 865.449 2.13135 864.819C2.13135 864.202 2.67052 863.701 3.33561 863.701C3.99915 863.701 4.53832 864.202 4.53832 864.819Z" fill="#4ECDC4"/>
<path d="M91.1764 901.004C91.1658 901.633 90.6269 902.134 89.9737 902.123C89.3205 902.134 88.7817 901.633 88.771 901.004C88.7817 900.375 89.3205 899.874 89.9737 899.886C90.6269 899.874 91.1658 900.375 91.1764 901.004Z" fill="#4ECDC4"/>
<path d="M115.93 1149.37C115.92 1150 115.381 1150.5 114.728 1150.49C114.074 1150.5 113.536 1150 113.525 1149.37C113.536 1148.74 114.074 1148.24 114.728 1148.25C115.381 1148.24 115.92 1148.74 115.93 1149.37Z" fill="#4ECDC4"/>
<path d="M257.579 1232.1C257.568 1232.72 257.029 1233.23 256.376 1233.21C255.711 1233.21 255.171 1232.71 255.171 1232.1C255.171 1231.48 255.711 1230.98 256.376 1230.98C257.029 1230.97 257.568 1231.47 257.579 1232.1Z" fill="#4ECDC4"/>
<path d="M99.1535 970.174C99.142 970.803 98.6029 971.304 97.9493 971.294C97.2963 971.304 96.7582 970.803 96.7466 970.174C96.7466 969.557 97.2858 969.056 97.9493 969.056C98.6144 969.056 99.1535 969.557 99.1535 970.174Z" fill="#4ECDC4"/>
<path d="M6.94545 1032.4C6.93463 1033.03 6.395 1033.53 5.7412 1033.52C5.08801 1033.53 4.54914 1033.03 4.53833 1032.4C4.54914 1031.77 5.08801 1031.27 5.7412 1031.28C6.395 1031.27 6.93463 1031.77 6.94545 1032.4Z" fill="#4ECDC4"/>
<path d="M44.4196 1110.28C44.4078 1110.91 43.8696 1111.41 43.2167 1111.4C42.5634 1111.41 42.024 1110.91 42.0125 1110.28C42.0125 1109.67 42.5518 1109.16 43.2167 1109.16C43.8818 1109.16 44.4196 1109.67 44.4196 1110.28Z" fill="#4ECDC4"/>
<path d="M202.226 977.683C202.215 978.312 201.677 978.813 201.023 978.801C200.358 978.801 199.819 978.301 199.819 977.683C199.819 977.065 200.358 976.565 201.023 976.565C201.677 976.553 202.215 977.054 202.226 977.683Z" fill="#4ECDC4"/>
<path d="M401.977 947.001C401.977 947.617 401.438 948.119 400.773 948.119C400.12 948.129 399.583 947.629 399.57 947.001C399.57 946.382 400.11 945.881 400.773 945.881C401.438 945.881 401.977 946.382 401.977 947.001Z" fill="#4ECDC4"/>
<path d="M316.369 1099.1C316.357 1099.72 315.819 1100.23 315.166 1100.22C314.513 1100.23 313.974 1099.73 313.962 1099.1C313.962 1098.48 314.501 1097.98 315.166 1097.98C315.83 1097.98 316.369 1098.48 316.369 1099.1Z" fill="#4ECDC4"/>
<path d="M499.961 1150.49C499.95 1151.12 499.411 1151.62 498.757 1151.61C498.104 1151.62 497.566 1151.12 497.554 1150.49C497.554 1149.87 498.094 1149.37 498.757 1149.37C499.422 1149.37 499.961 1149.87 499.961 1150.49Z" fill="#4ECDC4"/>
<path d="M365.189 972.412C365.177 973.04 364.639 973.54 363.986 973.53C363.322 973.53 362.782 973.029 362.782 972.412C362.782 971.794 363.322 971.294 363.986 971.294C364.64 971.282 365.179 971.783 365.189 972.412Z" fill="#4ECDC4"/>
<path d="M347.311 877.318C347.301 877.947 346.762 878.449 346.109 878.438C345.455 878.449 344.916 877.947 344.906 877.318C344.917 876.689 345.455 876.188 346.109 876.199C346.762 876.188 347.301 876.689 347.311 877.318Z" fill="#4ECDC4"/>
<path d="M306.571 840.243C306.56 840.872 306.021 841.373 305.367 841.361C304.714 841.372 304.176 840.872 304.164 840.243C304.175 839.614 304.714 839.113 305.367 839.125C306.032 839.125 306.571 839.625 306.571 840.243Z" fill="#4ECDC4"/>
<path d="M481.955 926.147C481.955 926.765 481.415 927.265 480.75 927.265C480.097 927.277 479.558 926.776 479.548 926.147C479.548 925.53 480.087 925.029 480.75 925.029C481.415 925.029 481.955 925.53 481.955 926.147Z" fill="#4ECDC4"/>
<path d="M460.08 877.317C460.069 877.947 459.53 878.448 458.876 878.437C458.223 878.448 457.684 877.946 457.673 877.317C457.673 876.701 458.213 876.199 458.876 876.199C459.541 876.199 460.08 876.701 460.08 877.317Z" fill="#4ECDC4"/>
<path d="M589.35 940.567C589.34 941.196 588.801 941.697 588.148 941.686C587.483 941.686 586.943 941.186 586.943 940.567C586.943 939.951 587.483 939.449 588.148 939.449C588.811 939.449 589.35 939.951 589.35 940.567Z" fill="#4ECDC4"/>
<path d="M522.684 1068.41C522.673 1069.04 522.134 1069.54 521.481 1069.53C520.828 1069.54 520.289 1069.04 520.279 1068.41C520.289 1067.78 520.828 1067.28 521.481 1067.3C522.134 1067.28 522.673 1067.78 522.684 1068.41Z" fill="#4ECDC4"/>
<path d="M375.536 1180.64C375.524 1181.27 374.986 1181.77 374.333 1181.76C373.679 1181.77 373.14 1181.27 373.129 1180.64C373.129 1180.02 373.668 1179.52 374.333 1179.52C374.996 1179.52 375.536 1180.02 375.536 1180.64Z" fill="#4ECDC4"/>
<path d="M555.689 947.839C555.679 948.468 555.14 948.969 554.487 948.958C553.833 948.969 553.294 948.468 553.284 947.839C553.294 947.211 553.833 946.71 554.487 946.721C555.14 946.71 555.679 947.211 555.689 947.839Z" fill="#4ECDC4"/>
<path d="M543.624 1099.1C543.613 1099.72 543.074 1100.23 542.421 1100.22C541.767 1100.23 541.229 1099.72 541.218 1099.1C541.229 1098.47 541.768 1097.97 542.421 1097.98C543.074 1097.97 543.613 1098.47 543.624 1099.1Z" fill="#4ECDC4"/>
<path d="M420.113 1223.71C420.113 1224.32 419.573 1224.82 418.909 1224.82C418.255 1224.84 417.717 1224.34 417.706 1223.71C417.717 1223.08 418.255 1222.58 418.909 1222.59C419.573 1222.59 420.113 1223.09 420.113 1223.71Z" fill="#4ECDC4"/>
<path d="M541.218 852.355C541.205 852.984 540.667 853.484 540.014 853.474C539.361 853.484 538.823 852.984 538.811 852.355C538.811 851.737 539.35 851.235 540.014 851.235C540.679 851.235 541.218 851.737 541.218 852.355Z" fill="#4ECDC4"/>
<path d="M435.755 1037.45C435.744 1038.08 435.205 1038.58 434.552 1038.57C433.899 1038.58 433.36 1038.08 433.349 1037.45C433.36 1036.82 433.899 1036.32 434.552 1036.33C435.205 1036.32 435.744 1036.82 435.755 1037.45Z" fill="#4ECDC4"/>
<path d="M576.027 1185.75C576.017 1186.38 575.478 1186.88 574.825 1186.87C574.172 1186.88 573.633 1186.38 573.622 1185.75C573.622 1185.13 574.16 1184.63 574.825 1184.63C575.49 1184.63 576.027 1185.13 576.027 1185.75Z" fill="#4ECDC4"/>
<path d="M31.7842 945.881C31.7842 947.581 30.3028 948.958 28.4758 948.958C26.6474 948.958 25.166 947.581 25.166 945.881C25.166 944.183 26.6474 942.806 28.4758 942.806C30.3028 942.806 31.7842 944.183 31.7842 945.881Z" fill="#4ECDC4"/>
<path d="M264.197 1049.44C264.197 1051.14 262.715 1052.51 260.888 1052.51C259.06 1052.51 257.578 1051.14 257.578 1049.44C257.578 1047.74 259.06 1046.36 260.888 1046.36C262.715 1046.36 264.197 1047.74 264.197 1049.44Z" fill="#4ECDC4"/>
<path d="M197.414 1284.87C197.414 1286.57 195.93 1287.95 194.104 1287.95C192.277 1287.95 190.795 1286.57 190.795 1284.87C190.795 1283.17 192.277 1281.8 194.104 1281.8C195.93 1281.8 197.414 1283.17 197.414 1284.87Z" fill="#4ECDC4"/>
<path d="M426.731 1144.06C426.731 1145.75 425.25 1147.13 423.421 1147.13C421.594 1147.13 420.113 1145.75 420.113 1144.06C420.113 1142.36 421.594 1140.98 423.421 1140.98C425.25 1140.98 426.731 1142.36 426.731 1144.06Z" fill="#4ECDC4"/>
<path d="M510.618 1227.9C510.618 1229.6 509.137 1230.98 507.31 1230.98C505.483 1230.98 504 1229.6 504 1227.9C504 1226.2 505.483 1224.82 507.31 1224.82C509.137 1224.82 510.618 1226.2 510.618 1227.9Z" fill="#4ECDC4"/>
<path fill-rule="evenodd" clip-rule="evenodd" d="M314.448 1174.86L303.448 1185.09L302.475 1184.18L313.476 1173.95L314.448 1174.86Z" fill="#4ECDC4"/>
<path fill-rule="evenodd" clip-rule="evenodd" d="M96.1164 1033.96L85.2534 1023.61L86.2381 1022.72L97.101 1033.07L96.1164 1033.96Z" fill="#4ECDC4"/>
<path fill-rule="evenodd" clip-rule="evenodd" d="M490.468 1337.05L477.724 1328.75L478.513 1327.7L491.256 1336L490.468 1337.05Z" fill="#4ECDC4"/>
<path fill-rule="evenodd" clip-rule="evenodd" d="M284.689 883.109L271.945 874.813L272.734 873.765L285.477 882.061L284.689 883.109Z" fill="#4ECDC4"/>
<path fill-rule="evenodd" clip-rule="evenodd" d="M517.402 895.191L514.106 909.327L512.762 909.056L516.057 894.919L517.402 895.191Z" fill="#4ECDC4"/>
<path d="M144.123 1212.92C144.112 1213.55 143.574 1214.05 142.92 1214.04C142.255 1214.04 141.716 1213.54 141.716 1212.92C141.716 1212.3 142.255 1211.8 142.92 1211.8C143.574 1211.79 144.112 1212.29 144.123 1212.92Z" fill="#4ECDC4"/>
<path d="M75.3616 1370.17C75.3508 1370.8 74.812 1371.3 74.1588 1371.29C73.5056 1371.3 72.9669 1370.8 72.9561 1370.17C72.9669 1369.54 73.5056 1369.04 74.1588 1369.05C74.812 1369.04 75.3508 1369.54 75.3616 1370.17Z" fill="#4ECDC4"/>
<path d="M492.913 976.607C492.913 978.306 491.432 979.684 489.604 979.684C487.776 979.684 486.295 978.306 486.295 976.607C486.295 974.909 487.776 973.531 489.604 973.531C491.431 973.531 492.913 974.909 492.913 976.607Z" fill="#4ECDC4"/>
<path d="M81.9798 1185.75C81.9798 1187.45 80.4984 1188.83 78.6714 1188.83C76.843 1188.83 75.3616 1187.45 75.3616 1185.75C75.3616 1184.05 76.843 1182.68 78.6714 1182.68C80.4982 1182.68 81.9798 1184.05 81.9798 1185.75Z" fill="#4ECDC4"/>
<path d="M168.103 924.19C168.103 925.889 166.621 927.265 164.794 927.265C162.966 927.265 161.485 925.889 161.485 924.19C161.485 922.49 162.966 921.114 164.794 921.114C166.621 921.114 168.103 922.49 168.103 924.19Z" fill="#4ECDC4"/>
<path fill-rule="evenodd" clip-rule="evenodd" d="M192.971 1122.6L181.968 1132.83L180.996 1131.92L191.998 1121.7L192.971 1122.6Z" fill="#4ECDC4"/>
<path d="M660.26 1102.29C660.26 1103.99 658.778 1105.37 656.952 1105.37C655.123 1105.37 653.642 1103.99 653.642 1102.29C653.642 1100.59 655.123 1099.22 656.952 1099.22C658.778 1099.22 660.26 1100.59 660.26 1102.29Z" fill="#4ECDC4"/>
<path fill-rule="evenodd" clip-rule="evenodd" d="M651.721 1199.47L640.72 1209.7L639.748 1208.79L650.748 1198.56L651.721 1199.47Z" fill="#4ECDC4"/>
<path d="M604.134 1285.79C604.123 1286.42 603.584 1286.92 602.931 1286.91C602.266 1286.91 601.727 1286.41 601.727 1285.79C601.727 1285.17 602.266 1284.67 602.931 1284.67C603.584 1284.66 604.123 1285.16 604.134 1285.79Z" fill="#4ECDC4"/>
<path d="M542.25 1370.17C542.25 1370.79 541.71 1371.29 541.045 1371.29C540.392 1371.3 539.853 1370.8 539.843 1370.17C539.853 1369.54 540.392 1369.04 541.045 1369.05C541.71 1369.05 542.25 1369.55 542.25 1370.17Z" fill="#4ECDC4"/>
<path d="M622.012 875.406C622.001 876.035 621.462 876.536 620.809 876.526C620.155 876.536 619.616 876.035 619.605 875.406C619.605 874.789 620.144 874.288 620.809 874.288C621.473 874.288 622.012 874.789 622.012 875.406Z" fill="#4ECDC4"/>
<path d="M591.758 1024.99C591.758 1025.6 591.218 1026.1 590.553 1026.1C589.9 1026.12 589.361 1025.61 589.35 1024.99C589.361 1024.36 589.9 1023.86 590.553 1023.87C591.218 1023.87 591.758 1024.37 591.758 1024.99Z" fill="#4ECDC4"/>
<path d="M181.482 1344.92C181.471 1345.55 180.933 1346.05 180.279 1346.04C179.614 1346.04 179.075 1345.54 179.075 1344.92C179.075 1344.3 179.614 1343.8 180.279 1343.8C180.943 1343.8 181.482 1344.3 181.482 1344.92Z" fill="#4ECDC4"/>
<path d="M476.239 791.031C476.227 791.66 475.688 792.16 475.035 792.15C474.382 792.16 473.844 791.66 473.832 791.031C473.832 790.413 474.371 789.912 475.035 789.912C475.7 789.912 476.239 790.413 476.239 791.031Z" fill="#4ECDC4"/>
<path d="M601.383 815.002C601.372 815.631 600.833 816.132 600.18 816.121C599.527 816.132 598.988 815.631 598.977 815.002C598.988 814.374 599.527 813.873 600.18 813.884C600.833 813.873 601.372 814.374 601.383 815.002Z" fill="#4ECDC4"/>
<path d="M400.773 818.079C400.773 819.778 399.291 821.155 397.464 821.155C395.636 821.155 394.155 819.778 394.155 818.079C394.155 816.379 395.636 815.002 397.464 815.002C399.291 815.002 400.773 816.379 400.773 818.079Z" fill="#4ECDC4"/>
<path fill-rule="evenodd" clip-rule="evenodd" d="M187.823 764.98L194.987 777.82L193.766 778.409L186.604 765.569L187.823 764.98Z" fill="#4ECDC4"/>
<path d="M162.689 853.675C162.677 854.304 162.138 854.804 161.485 854.793C160.832 854.804 160.293 854.303 160.282 853.675C160.282 853.058 160.821 852.557 161.485 852.557C162.15 852.557 162.689 853.057 162.689 853.675Z" fill="#4ECDC4"/>
<path d="M236.263 898.768C236.251 899.396 235.712 899.896 235.059 899.886C234.406 899.896 233.868 899.396 233.856 898.768C233.867 898.139 234.406 897.638 235.059 897.649C235.724 897.649 236.263 898.149 236.263 898.768Z" fill="#4ECDC4"/>
<path d="M318.776 943.924C318.776 944.542 318.237 945.042 317.572 945.042C316.919 945.054 316.38 944.553 316.369 943.924C316.38 943.295 316.919 942.794 317.572 942.806C318.237 942.806 318.776 943.306 318.776 943.924Z" fill="#4ECDC4"/>
<path d="M183.889 1039.69C183.889 1040.31 183.35 1040.81 182.685 1040.81C182.032 1040.82 181.493 1040.32 181.482 1039.69C181.482 1039.07 182.021 1038.57 182.685 1038.57C183.35 1038.57 183.889 1039.07 183.889 1039.69Z" fill="#4ECDC4"/>
<path d="M653.642 805.094C653.63 805.723 653.092 806.223 652.439 806.213C651.786 806.223 651.247 805.723 651.235 805.094C651.235 804.476 651.774 803.975 652.439 803.975C653.102 803.975 653.642 804.476 653.642 805.094Z" fill="#4ECDC4"/>
<path d="M63.6731 828.639C63.6731 830.338 62.1915 831.716 60.3631 831.716C58.5363 831.716 57.0547 830.338 57.0547 828.639C57.0547 826.939 58.5363 825.563 60.3631 825.563C62.1915 825.563 63.6731 826.939 63.6731 828.639Z" fill="#4ECDC4"/>
</g>
<g opacity="0.28">
<path d="M872.673 1344.16C872.673 1344.77 872.134 1345.28 871.469 1345.28C870.816 1345.29 870.278 1344.79 870.266 1344.16C870.266 1343.54 870.805 1343.04 871.469 1343.04C872.134 1343.04 872.673 1343.54 872.673 1344.16Z" fill="#4ECDC4"/>
<path d="M905.747 1336.42C905.735 1337.05 905.197 1337.55 904.544 1337.54C903.89 1337.55 903.351 1337.05 903.339 1336.42C903.339 1335.8 903.879 1335.3 904.544 1335.3C905.207 1335.3 905.747 1335.8 905.747 1336.42Z" fill="#4ECDC4"/>
<path d="M1208.57 1364.93C1208.56 1365.56 1208.02 1366.06 1207.37 1366.05C1206.7 1366.05 1206.16 1365.55 1206.16 1364.93C1206.16 1364.31 1206.7 1363.81 1207.37 1363.81C1208.02 1363.8 1208.56 1364.3 1208.57 1364.93Z" fill="#4ECDC4"/>
<path d="M1082.54 1308.04C1082.53 1308.67 1081.99 1309.17 1081.34 1309.16C1080.69 1309.17 1080.15 1308.67 1080.14 1308.04C1080.15 1307.41 1080.69 1306.91 1081.34 1306.92C1081.99 1306.91 1082.53 1307.41 1082.54 1308.04Z" fill="#4ECDC4"/>
<path d="M954.326 1085.07C954.315 1085.7 953.776 1086.2 953.123 1086.19C952.47 1086.2 951.931 1085.7 951.92 1085.07C951.931 1084.44 952.47 1083.94 953.123 1083.95C953.776 1083.94 954.315 1084.44 954.326 1085.07Z" fill="#4ECDC4"/>
<path d="M1027.21 1172.52C1027.2 1173.15 1026.66 1173.65 1026.01 1173.64C1025.36 1173.65 1024.82 1173.15 1024.81 1172.52C1024.82 1171.9 1025.36 1171.39 1026.01 1171.41C1026.66 1171.39 1027.2 1171.9 1027.21 1172.52Z" fill="#4ECDC4"/>
<path d="M1064.17 1119.15C1064.16 1119.78 1063.62 1120.28 1062.97 1120.27C1062.32 1120.28 1061.78 1119.78 1061.77 1119.15C1061.78 1118.52 1062.32 1118.02 1062.97 1118.03C1063.62 1118.02 1064.16 1118.52 1064.17 1119.15Z" fill="#4ECDC4"/>
<path d="M834.166 1207.36C834.155 1207.99 833.616 1208.49 832.963 1208.48C832.31 1208.49 831.771 1207.99 831.76 1207.36C831.771 1206.73 832.31 1206.23 832.963 1206.24C833.616 1206.23 834.155 1206.73 834.166 1207.36Z" fill="#4ECDC4"/>
<path d="M886.769 1256.58C886.757 1257.21 886.219 1257.71 885.566 1257.7C884.912 1257.71 884.373 1257.21 884.362 1256.58C884.362 1255.97 884.901 1255.46 885.566 1255.46C886.229 1255.46 886.769 1255.97 886.769 1256.58Z" fill="#4ECDC4"/>
<path d="M811.131 1305.8C811.12 1306.43 810.582 1306.93 809.929 1306.92C809.276 1306.93 808.737 1306.43 808.726 1305.8C808.737 1305.17 809.275 1304.67 809.929 1304.68C810.582 1304.67 811.121 1305.17 811.131 1305.8Z" fill="#4ECDC4"/>
<path d="M772.626 1328.26C772.614 1328.88 772.076 1329.39 771.423 1329.38C770.769 1329.39 770.23 1328.89 770.219 1328.26C770.219 1327.64 770.758 1327.14 771.423 1327.14C772.086 1327.14 772.626 1327.64 772.626 1328.26Z" fill="#4ECDC4"/>
<path d="M1195.85 1286.07C1195.84 1286.7 1195.3 1287.2 1194.65 1287.19C1193.99 1287.2 1193.45 1286.7 1193.44 1286.07C1193.44 1285.45 1193.98 1284.95 1194.65 1284.95C1195.31 1284.95 1195.85 1285.45 1195.85 1286.07Z" fill="#4ECDC4"/>
<path d="M1349.01 1269.45C1349 1270.08 1348.46 1270.58 1347.81 1270.57C1347.16 1270.58 1346.62 1270.08 1346.61 1269.45C1346.62 1268.82 1347.16 1268.32 1347.81 1268.33C1348.46 1268.32 1349 1268.82 1349.01 1269.45Z" fill="#4ECDC4"/>
<path d="M1176.6 1277.68C1176.6 1278.29 1176.06 1278.8 1175.39 1278.8C1174.74 1278.81 1174.2 1278.31 1174.19 1277.68C1174.19 1277.06 1174.73 1276.56 1175.39 1276.56C1176.06 1276.56 1176.6 1277.06 1176.6 1277.68Z" fill="#4ECDC4"/>
<path d="M1037.7 956.785C1037.7 957.402 1037.16 957.903 1036.5 957.903C1035.84 957.913 1035.3 957.413 1035.29 956.785C1035.3 956.156 1035.84 955.655 1036.5 955.667C1037.16 955.667 1037.7 956.167 1037.7 956.785Z" fill="#4ECDC4"/>
<path d="M1165.59 1010.48C1165.58 1011.11 1165.04 1011.61 1164.39 1011.6C1163.73 1011.6 1163.19 1011.1 1163.19 1010.48C1163.19 1009.86 1163.73 1009.36 1164.39 1009.36C1165.04 1009.35 1165.58 1009.85 1165.59 1010.48Z" fill="#4ECDC4"/>
<path d="M1193.44 1063.18C1193.44 1063.79 1192.9 1064.3 1192.24 1064.3C1191.59 1064.31 1191.05 1063.8 1191.04 1063.18C1191.04 1062.56 1191.58 1062.06 1192.24 1062.06C1192.9 1062.06 1193.44 1062.56 1193.44 1063.18Z" fill="#4ECDC4"/>
<path d="M813.538 861.819C813.528 862.448 812.989 862.95 812.336 862.939C811.682 862.95 811.142 862.449 811.131 861.819C811.131 861.202 811.671 860.701 812.336 860.701C812.999 860.701 813.538 861.202 813.538 861.819Z" fill="#4ECDC4"/>
<path d="M900.176 898.004C900.166 898.633 899.627 899.134 898.974 899.123C898.321 899.134 897.782 898.633 897.771 898.004C897.782 897.375 898.321 896.874 898.974 896.886C899.627 896.874 900.166 897.375 900.176 898.004Z" fill="#4ECDC4"/>
<path d="M924.93 1146.37C924.92 1147 924.381 1147.5 923.728 1147.49C923.074 1147.5 922.536 1147 922.525 1146.37C922.536 1145.74 923.074 1145.24 923.728 1145.25C924.381 1145.24 924.92 1145.74 924.93 1146.37Z" fill="#4ECDC4"/>
<path d="M1066.58 1229.1C1066.57 1229.72 1066.03 1230.23 1065.38 1230.21C1064.71 1230.21 1064.17 1229.71 1064.17 1229.1C1064.17 1228.48 1064.71 1227.98 1065.38 1227.98C1066.03 1227.97 1066.57 1228.47 1066.58 1229.1Z" fill="#4ECDC4"/>
<path d="M908.154 967.174C908.142 967.803 907.603 968.304 906.949 968.294C906.296 968.304 905.758 967.803 905.747 967.174C905.747 966.557 906.286 966.056 906.949 966.056C907.614 966.056 908.154 966.557 908.154 967.174Z" fill="#4ECDC4"/>
<path d="M815.945 1029.4C815.935 1030.03 815.395 1030.53 814.741 1030.52C814.088 1030.53 813.549 1030.03 813.538 1029.4C813.549 1028.77 814.088 1028.27 814.741 1028.28C815.395 1028.27 815.935 1028.77 815.945 1029.4Z" fill="#4ECDC4"/>
<path d="M794.285 935.331C794.274 935.96 793.735 936.461 793.082 936.449C792.429 936.461 791.89 935.96 791.879 935.331C791.89 934.702 792.429 934.201 793.082 934.213C793.735 934.201 794.274 934.702 794.285 935.331Z" fill="#4ECDC4"/>
<path d="M853.42 1107.28C853.408 1107.91 852.87 1108.41 852.217 1108.4C851.563 1108.41 851.024 1107.91 851.012 1107.28C851.012 1106.67 851.552 1106.16 852.217 1106.16C852.882 1106.16 853.42 1106.67 853.42 1107.28Z" fill="#4ECDC4"/>
<path d="M1011.23 974.683C1011.22 975.312 1010.68 975.813 1010.02 975.801C1009.36 975.801 1008.82 975.301 1008.82 974.683C1008.82 974.065 1009.36 973.565 1010.02 973.565C1010.68 973.553 1011.22 974.054 1011.23 974.683Z" fill="#4ECDC4"/>
<path d="M1210.98 944.001C1210.98 944.617 1210.44 945.119 1209.77 945.119C1209.12 945.129 1208.58 944.629 1208.57 944.001C1208.57 943.382 1209.11 942.881 1209.77 942.881C1210.44 942.881 1210.98 943.382 1210.98 944.001Z" fill="#4ECDC4"/>
<path d="M1125.37 1096.1C1125.36 1096.72 1124.82 1097.23 1124.17 1097.22C1123.51 1097.23 1122.97 1096.73 1122.96 1096.1C1122.96 1095.48 1123.5 1094.98 1124.17 1094.98C1124.83 1094.98 1125.37 1095.48 1125.37 1096.1Z" fill="#4ECDC4"/>
<path d="M1308.96 1147.49C1308.95 1148.12 1308.41 1148.62 1307.76 1148.61C1307.1 1148.62 1306.57 1148.12 1306.55 1147.49C1306.55 1146.87 1307.09 1146.37 1307.76 1146.37C1308.42 1146.37 1308.96 1146.87 1308.96 1147.49Z" fill="#4ECDC4"/>
<path d="M1174.19 969.412C1174.18 970.04 1173.64 970.54 1172.99 970.53C1172.32 970.53 1171.78 970.029 1171.78 969.412C1171.78 968.794 1172.32 968.294 1172.99 968.294C1173.64 968.282 1174.18 968.783 1174.19 969.412Z" fill="#4ECDC4"/>
<path d="M1156.31 874.318C1156.3 874.947 1155.76 875.449 1155.11 875.438C1154.45 875.449 1153.92 874.947 1153.91 874.318C1153.92 873.689 1154.46 873.188 1155.11 873.199C1155.76 873.188 1156.3 873.689 1156.31 874.318Z" fill="#4ECDC4"/>
<path d="M1115.57 837.243C1115.56 837.872 1115.02 838.373 1114.37 838.361C1113.71 838.372 1113.18 837.872 1113.16 837.243C1113.17 836.614 1113.71 836.113 1114.37 836.125C1115.03 836.125 1115.57 836.625 1115.57 837.243Z" fill="#4ECDC4"/>
<path d="M1290.95 923.147C1290.95 923.765 1290.42 924.265 1289.75 924.265C1289.1 924.277 1288.56 923.776 1288.55 923.147C1288.55 922.53 1289.09 922.029 1289.75 922.029C1290.42 922.029 1290.95 922.53 1290.95 923.147Z" fill="#4ECDC4"/>
<path d="M1269.08 874.317C1269.07 874.947 1268.53 875.448 1267.88 875.437C1267.22 875.448 1266.68 874.946 1266.67 874.317C1266.67 873.701 1267.21 873.199 1267.88 873.199C1268.54 873.199 1269.08 873.701 1269.08 874.317Z" fill="#4ECDC4"/>
<path d="M1398.35 937.567C1398.34 938.196 1397.8 938.697 1397.15 938.686C1396.48 938.686 1395.94 938.186 1395.94 937.567C1395.94 936.951 1396.48 936.449 1397.15 936.449C1397.81 936.449 1398.35 936.951 1398.35 937.567Z" fill="#4ECDC4"/>
<path d="M1331.68 1065.41C1331.67 1066.04 1331.13 1066.54 1330.48 1066.53C1329.83 1066.54 1329.29 1066.04 1329.28 1065.41C1329.29 1064.78 1329.83 1064.28 1330.48 1064.3C1331.13 1064.28 1331.67 1064.78 1331.68 1065.41Z" fill="#4ECDC4"/>
<path d="M1184.54 1177.64C1184.52 1178.27 1183.99 1178.77 1183.33 1178.76C1182.68 1178.77 1182.14 1178.27 1182.13 1177.64C1182.13 1177.02 1182.67 1176.52 1183.33 1176.52C1184 1176.52 1184.54 1177.02 1184.54 1177.64Z" fill="#4ECDC4"/>
<path d="M1364.69 944.839C1364.68 945.468 1364.14 945.969 1363.49 945.958C1362.83 945.969 1362.29 945.468 1362.28 944.839C1362.29 944.211 1362.83 943.71 1363.49 943.721C1364.14 943.71 1364.68 944.211 1364.69 944.839Z" fill="#4ECDC4"/>
<path d="M1352.62 1096.1C1352.61 1096.72 1352.07 1097.23 1351.42 1097.22C1350.77 1097.23 1350.23 1096.72 1350.22 1096.1C1350.23 1095.47 1350.77 1094.97 1351.42 1094.98C1352.07 1094.97 1352.61 1095.47 1352.62 1096.1Z" fill="#4ECDC4"/>
<path d="M1229.11 1220.71C1229.11 1221.32 1228.57 1221.82 1227.91 1221.82C1227.26 1221.84 1226.72 1221.34 1226.71 1220.71C1226.72 1220.08 1227.26 1219.58 1227.91 1219.59C1228.57 1219.59 1229.11 1220.09 1229.11 1220.71Z" fill="#4ECDC4"/>
<path d="M1350.22 849.355C1350.21 849.984 1349.67 850.484 1349.01 850.474C1348.36 850.484 1347.82 849.984 1347.81 849.355C1347.81 848.737 1348.35 848.235 1349.01 848.235C1349.68 848.235 1350.22 848.737 1350.22 849.355Z" fill="#4ECDC4"/>
<path d="M1244.75 1034.45C1244.74 1035.08 1244.21 1035.58 1243.55 1035.57C1242.9 1035.58 1242.36 1035.08 1242.35 1034.45C1242.36 1033.82 1242.9 1033.32 1243.55 1033.33C1244.21 1033.32 1244.74 1033.82 1244.75 1034.45Z" fill="#4ECDC4"/>
<path d="M1385.03 1182.75C1385.02 1183.38 1384.48 1183.88 1383.82 1183.87C1383.17 1183.88 1382.63 1183.38 1382.62 1182.75C1382.62 1182.13 1383.16 1181.63 1383.82 1181.63C1384.49 1181.63 1385.03 1182.13 1385.03 1182.75Z" fill="#4ECDC4"/>
<path d="M840.784 942.881C840.784 944.581 839.303 945.958 837.476 945.958C835.647 945.958 834.166 944.581 834.166 942.881C834.166 941.183 835.647 939.806 837.476 939.806C839.303 939.806 840.784 941.183 840.784 942.881Z" fill="#4ECDC4"/>
<path d="M1073.2 1046.44C1073.2 1048.14 1071.72 1049.51 1069.89 1049.51C1068.06 1049.51 1066.58 1048.14 1066.58 1046.44C1066.58 1044.74 1068.06 1043.36 1069.89 1043.36C1071.72 1043.36 1073.2 1044.74 1073.2 1046.44Z" fill="#4ECDC4"/>
<path d="M1006.41 1281.87C1006.41 1283.57 1004.93 1284.95 1003.1 1284.95C1001.28 1284.95 999.795 1283.57 999.795 1281.87C999.795 1280.17 1001.28 1278.8 1003.1 1278.8C1004.93 1278.8 1006.41 1280.17 1006.41 1281.87Z" fill="#4ECDC4"/>
<path d="M1235.73 1141.06C1235.73 1142.75 1234.25 1144.13 1232.42 1144.13C1230.59 1144.13 1229.11 1142.75 1229.11 1141.06C1229.11 1139.36 1230.59 1137.98 1232.42 1137.98C1234.25 1137.98 1235.73 1139.36 1235.73 1141.06Z" fill="#4ECDC4"/>
<path d="M1288.55 1371.36C1288.55 1373.06 1287.07 1374.44 1285.24 1374.44C1283.41 1374.44 1281.93 1373.06 1281.93 1371.36C1281.93 1369.67 1283.41 1368.29 1285.24 1368.29C1287.07 1368.29 1288.55 1369.67 1288.55 1371.36Z" fill="#4ECDC4"/>
<path d="M1319.62 1224.9C1319.62 1226.6 1318.14 1227.98 1316.31 1227.98C1314.48 1227.98 1313 1226.6 1313 1224.9C1313 1223.2 1314.48 1221.82 1316.31 1221.82C1318.14 1221.82 1319.62 1223.2 1319.62 1224.9Z" fill="#4ECDC4"/>
<path fill-rule="evenodd" clip-rule="evenodd" d="M1123.45 1171.86L1112.45 1182.09L1111.47 1181.18L1122.48 1170.95L1123.45 1171.86Z" fill="#4ECDC4"/>
<path fill-rule="evenodd" clip-rule="evenodd" d="M905.116 1030.96L894.253 1020.61L895.238 1019.72L906.101 1030.07L905.116 1030.96Z" fill="#4ECDC4"/>
<path fill-rule="evenodd" clip-rule="evenodd" d="M1299.47 1334.05L1286.72 1325.75L1287.51 1324.7L1300.26 1333L1299.47 1334.05Z" fill="#4ECDC4"/>
<path fill-rule="evenodd" clip-rule="evenodd" d="M1093.69 880.109L1080.95 871.813L1081.73 870.765L1094.48 879.061L1093.69 880.109Z" fill="#4ECDC4"/>
<path fill-rule="evenodd" clip-rule="evenodd" d="M1326.4 892.191L1323.11 906.327L1321.76 906.056L1325.06 891.919L1326.4 892.191Z" fill="#4ECDC4"/>
<path d="M953.123 1209.92C953.112 1210.55 952.574 1211.05 951.92 1211.04C951.255 1211.04 950.716 1210.54 950.716 1209.92C950.716 1209.3 951.255 1208.8 951.92 1208.8C952.574 1208.79 953.112 1209.29 953.123 1209.92Z" fill="#4ECDC4"/>
<path d="M884.362 1367.17C884.351 1367.8 883.812 1368.3 883.159 1368.29C882.506 1368.3 881.967 1367.8 881.956 1367.17C881.967 1366.54 882.506 1366.04 883.159 1366.05C883.812 1366.04 884.351 1366.54 884.362 1367.17Z" fill="#4ECDC4"/>
<path d="M1301.91 973.607C1301.91 975.306 1300.43 976.684 1298.6 976.684C1296.78 976.684 1295.29 975.306 1295.29 973.607C1295.29 971.909 1296.78 970.531 1298.6 970.531C1300.43 970.531 1301.91 971.909 1301.91 973.607Z" fill="#4ECDC4"/>
<path d="M890.98 1182.75C890.98 1184.45 889.499 1185.83 887.672 1185.83C885.843 1185.83 884.362 1184.45 884.362 1182.75C884.362 1181.05 885.843 1179.68 887.672 1179.68C889.498 1179.68 890.98 1181.05 890.98 1182.75Z" fill="#4ECDC4"/>
<path d="M977.103 921.19C977.103 922.889 975.621 924.265 973.794 924.265C971.966 924.265 970.485 922.889 970.485 921.19C970.485 919.49 971.966 918.114 973.794 918.114C975.621 918.114 977.103 919.49 977.103 921.19Z" fill="#4ECDC4"/>
<path d="M781.651 1099.29C781.651 1100.99 780.168 1102.37 778.341 1102.37C776.514 1102.37 775.033 1100.99 775.033 1099.29C775.033 1097.59 776.514 1096.22 778.341 1096.22C780.168 1096.22 781.651 1097.59 781.651 1099.29Z" fill="#4ECDC4"/>
<path fill-rule="evenodd" clip-rule="evenodd" d="M773.112 1196.47L762.11 1206.7L761.137 1205.79L772.139 1195.56L773.112 1196.47Z" fill="#4ECDC4"/>
<path fill-rule="evenodd" clip-rule="evenodd" d="M1001.97 1119.6L990.968 1129.83L989.996 1128.92L1001 1118.7L1001.97 1119.6Z" fill="#4ECDC4"/>
<path d="M725.525 1282.79C725.514 1283.42 724.974 1283.92 724.321 1283.91C723.667 1283.92 723.128 1283.42 723.118 1282.79C723.128 1282.16 723.667 1281.66 724.321 1281.67C724.974 1281.66 725.514 1282.16 725.525 1282.79Z" fill="#4ECDC4"/>
<path d="M743.401 872.406C743.391 873.035 742.852 873.536 742.199 873.526C741.545 873.536 741.007 873.035 740.996 872.406C741.007 871.777 741.546 871.276 742.199 871.288C742.852 871.276 743.391 871.777 743.401 872.406Z" fill="#4ECDC4"/>
<path d="M713.147 1021.99C713.136 1022.61 712.597 1023.12 711.944 1023.1C711.29 1023.12 710.751 1022.62 710.74 1021.99C710.751 1021.36 711.29 1020.86 711.944 1020.87C712.597 1020.86 713.136 1021.36 713.147 1021.99Z" fill="#4ECDC4"/>
<path d="M1469.26 1099.29C1469.26 1100.99 1467.78 1102.37 1465.95 1102.37C1464.12 1102.37 1462.64 1100.99 1462.64 1099.29C1462.64 1097.59 1464.12 1096.22 1465.95 1096.22C1467.78 1096.22 1469.26 1097.59 1469.26 1099.29Z" fill="#4ECDC4"/>
<path fill-rule="evenodd" clip-rule="evenodd" d="M1460.72 1196.47L1449.72 1206.7L1448.75 1205.79L1459.75 1195.56L1460.72 1196.47Z" fill="#4ECDC4"/>
<path d="M1413.13 1282.79C1413.12 1283.42 1412.58 1283.92 1411.93 1283.91C1411.27 1283.91 1410.73 1283.41 1410.73 1282.79C1410.73 1282.17 1411.27 1281.67 1411.93 1281.67C1412.58 1281.66 1413.12 1282.16 1413.13 1282.79Z" fill="#4ECDC4"/>
<path d="M1351.25 1367.17C1351.25 1367.79 1350.71 1368.29 1350.05 1368.29C1349.39 1368.3 1348.85 1367.8 1348.84 1367.17C1348.85 1366.54 1349.39 1366.04 1350.05 1366.05C1350.71 1366.05 1351.25 1366.55 1351.25 1367.17Z" fill="#4ECDC4"/>
<path d="M1431.01 872.406C1431 873.035 1430.46 873.536 1429.81 873.526C1429.16 873.536 1428.62 873.035 1428.6 872.406C1428.6 871.789 1429.14 871.288 1429.81 871.288C1430.47 871.288 1431.01 871.789 1431.01 872.406Z" fill="#4ECDC4"/>
<path d="M1400.76 1021.99C1400.76 1022.6 1400.22 1023.1 1399.55 1023.1C1398.9 1023.12 1398.36 1022.61 1398.35 1021.99C1398.36 1021.36 1398.9 1020.86 1399.55 1020.87C1400.22 1020.87 1400.76 1021.37 1400.76 1021.99Z" fill="#4ECDC4"/>
<path d="M990.482 1341.92C990.471 1342.55 989.932 1343.05 989.279 1343.04C988.614 1343.04 988.075 1342.54 988.075 1341.92C988.075 1341.3 988.614 1340.8 989.279 1340.8C989.943 1340.8 990.482 1341.3 990.482 1341.92Z" fill="#4ECDC4"/>
<path d="M1285.24 788.031C1285.23 788.66 1284.69 789.16 1284.03 789.15C1283.38 789.16 1282.84 788.66 1282.83 788.031C1282.83 787.413 1283.37 786.912 1284.03 786.912C1284.7 786.912 1285.24 787.413 1285.24 788.031Z" fill="#4ECDC4"/>
<path d="M1410.38 812.002C1410.37 812.631 1409.83 813.132 1409.18 813.121C1408.53 813.132 1407.99 812.631 1407.98 812.002C1407.99 811.374 1408.53 810.873 1409.18 810.884C1409.83 810.873 1410.37 811.374 1410.38 812.002Z" fill="#4ECDC4"/>
<path d="M1209.77 815.079C1209.77 816.778 1208.29 818.155 1206.46 818.155C1204.64 818.155 1203.15 816.778 1203.15 815.079C1203.15 813.379 1204.64 812.002 1206.46 812.002C1208.29 812.002 1209.77 813.379 1209.77 815.079Z" fill="#4ECDC4"/>
<path fill-rule="evenodd" clip-rule="evenodd" d="M996.823 761.98L1003.99 774.82L1002.77 775.409L995.604 762.569L996.823 761.98Z" fill="#4ECDC4"/>
<path d="M971.689 850.675C971.677 851.304 971.138 851.804 970.485 851.793C969.832 851.804 969.293 851.303 969.282 850.675C969.282 850.058 969.821 849.557 970.485 849.557C971.15 849.557 971.689 850.057 971.689 850.675Z" fill="#4ECDC4"/>
<path d="M1045.26 895.768C1045.25 896.396 1044.71 896.896 1044.06 896.886C1043.41 896.896 1042.87 896.396 1042.86 895.768C1042.87 895.139 1043.41 894.638 1044.06 894.649C1044.72 894.649 1045.26 895.149 1045.26 895.768Z" fill="#4ECDC4"/>
<path d="M1127.78 940.924C1127.78 941.542 1127.24 942.042 1126.57 942.042C1125.92 942.054 1125.38 941.553 1125.37 940.924C1125.38 940.295 1125.92 939.794 1126.57 939.806C1127.24 939.806 1127.78 940.306 1127.78 940.924Z" fill="#4ECDC4"/>
<path d="M992.889 1036.69C992.889 1037.31 992.35 1037.81 991.685 1037.81C991.032 1037.82 990.493 1037.32 990.482 1036.69C990.482 1036.07 991.021 1035.57 991.685 1035.57C992.35 1035.57 992.889 1036.07 992.889 1036.69Z" fill="#4ECDC4"/>
<path d="M775.033 802.094C775.021 802.723 774.482 803.224 773.828 803.213C773.176 803.223 772.637 802.723 772.626 802.094C772.626 801.476 773.165 800.975 773.828 800.975C774.494 800.975 775.033 801.476 775.033 802.094Z" fill="#4ECDC4"/>
<path d="M1462.64 802.094C1462.63 802.723 1462.09 803.223 1461.44 803.213C1460.79 803.223 1460.25 802.723 1460.23 802.094C1460.23 801.476 1460.77 800.975 1461.44 800.975C1462.1 800.975 1462.64 801.476 1462.64 802.094Z" fill="#4ECDC4"/>
<path d="M872.673 825.639C872.673 827.338 871.192 828.716 869.363 828.716C867.536 828.716 866.055 827.338 866.055 825.639C866.055 823.939 867.536 822.563 869.363 822.563C871.192 822.563 872.673 823.939 872.673 825.639Z" fill="#4ECDC4"/>
</g>
<g opacity="0.28">
<path d="M1681.67 1341.16C1681.67 1341.77 1681.13 1342.28 1680.47 1342.28C1679.82 1342.29 1679.28 1341.79 1679.27 1341.16C1679.27 1340.54 1679.81 1340.04 1680.47 1340.04C1681.13 1340.04 1681.67 1340.54 1681.67 1341.16Z" fill="#4ECDC4"/>
<path d="M1714.75 1333.42C1714.73 1334.05 1714.2 1334.55 1713.54 1334.54C1712.89 1334.55 1712.35 1334.05 1712.34 1333.42C1712.34 1332.8 1712.88 1332.3 1713.54 1332.3C1714.21 1332.3 1714.75 1332.8 1714.75 1333.42Z" fill="#4ECDC4"/>
<path d="M1643.17 1204.36C1643.16 1204.99 1642.62 1205.49 1641.96 1205.48C1641.31 1205.49 1640.77 1204.99 1640.76 1204.36C1640.77 1203.73 1641.31 1203.23 1641.96 1203.24C1642.62 1203.23 1643.16 1203.73 1643.17 1204.36Z" fill="#4ECDC4"/>
<path d="M1695.77 1253.58C1695.76 1254.21 1695.22 1254.71 1694.57 1254.7C1693.91 1254.71 1693.37 1254.21 1693.36 1253.58C1693.36 1252.97 1693.9 1252.46 1694.57 1252.46C1695.23 1252.46 1695.77 1252.97 1695.77 1253.58Z" fill="#4ECDC4"/>
<path d="M1620.13 1302.8C1620.12 1303.43 1619.58 1303.93 1618.93 1303.92C1618.28 1303.93 1617.74 1303.43 1617.73 1302.8C1617.74 1302.17 1618.28 1301.67 1618.93 1301.68C1619.58 1301.67 1620.12 1302.17 1620.13 1302.8Z" fill="#4ECDC4"/>
<path d="M1581.63 1325.26C1581.61 1325.88 1581.08 1326.39 1580.42 1326.38C1579.77 1326.39 1579.23 1325.89 1579.22 1325.26C1579.22 1324.64 1579.76 1324.14 1580.42 1324.14C1581.09 1324.14 1581.63 1324.64 1581.63 1325.26Z" fill="#4ECDC4"/>
<path d="M1622.54 858.819C1622.53 859.448 1621.99 859.95 1621.34 859.939C1620.68 859.95 1620.14 859.449 1620.13 858.819C1620.13 858.202 1620.67 857.701 1621.34 857.701C1622 857.701 1622.54 858.202 1622.54 858.819Z" fill="#4ECDC4"/>
<path d="M1709.18 895.004C1709.17 895.633 1708.63 896.134 1707.97 896.123C1707.32 896.134 1706.78 895.633 1706.77 895.004C1706.78 894.375 1707.32 893.874 1707.97 893.886C1708.63 893.874 1709.17 894.375 1709.18 895.004Z" fill="#4ECDC4"/>
<path d="M1717.15 964.174C1717.14 964.803 1716.6 965.304 1715.95 965.294C1715.3 965.304 1714.76 964.803 1714.75 964.174C1714.75 963.557 1715.29 963.056 1715.95 963.056C1716.61 963.056 1717.15 963.557 1717.15 964.174Z" fill="#4ECDC4"/>
<path d="M1624.95 1026.4C1624.93 1027.03 1624.4 1027.53 1623.74 1027.52C1623.09 1027.53 1622.55 1027.03 1622.54 1026.4C1622.55 1025.77 1623.09 1025.27 1623.74 1025.28C1624.4 1025.27 1624.93 1025.77 1624.95 1026.4Z" fill="#4ECDC4"/>
<path d="M1603.28 932.331C1603.27 932.96 1602.74 933.461 1602.08 933.449C1601.43 933.461 1600.89 932.96 1600.88 932.331C1600.89 931.702 1601.43 931.201 1602.08 931.213C1602.74 931.201 1603.27 931.702 1603.28 932.331Z" fill="#4ECDC4"/>
<path d="M1662.42 1104.28C1662.41 1104.91 1661.87 1105.41 1661.22 1105.4C1660.56 1105.41 1660.02 1104.91 1660.01 1104.28C1660.01 1103.67 1660.55 1103.16 1661.22 1103.16C1661.88 1103.16 1662.42 1103.67 1662.42 1104.28Z" fill="#4ECDC4"/>
<path d="M1649.78 939.881C1649.78 941.581 1648.3 942.958 1646.48 942.958C1644.65 942.958 1643.17 941.581 1643.17 939.881C1643.17 938.183 1644.65 936.806 1646.48 936.806C1648.3 936.806 1649.78 938.183 1649.78 939.881Z" fill="#4ECDC4"/>
<path fill-rule="evenodd" clip-rule="evenodd" d="M1714.12 1027.96L1703.25 1017.61L1704.24 1016.72L1715.1 1027.07L1714.12 1027.96Z" fill="#4ECDC4"/>
<path d="M1693.36 1364.17C1693.35 1364.8 1692.81 1365.3 1692.16 1365.29C1691.51 1365.3 1690.97 1364.8 1690.96 1364.17C1690.97 1363.54 1691.51 1363.04 1692.16 1363.05C1692.81 1363.04 1693.35 1363.54 1693.36 1364.17Z" fill="#4ECDC4"/>
<path d="M1699.98 1179.75C1699.98 1181.45 1698.5 1182.83 1696.67 1182.83C1694.84 1182.83 1693.36 1181.45 1693.36 1179.75C1693.36 1178.05 1694.84 1176.68 1696.67 1176.68C1698.5 1176.68 1699.98 1178.05 1699.98 1179.75Z" fill="#4ECDC4"/>
<path d="M1590.65 1096.29C1590.65 1097.99 1589.17 1099.37 1587.34 1099.37C1585.51 1099.37 1584.03 1097.99 1584.03 1096.29C1584.03 1094.59 1585.51 1093.22 1587.34 1093.22C1589.17 1093.22 1590.65 1094.59 1590.65 1096.29Z" fill="#4ECDC4"/>
<path fill-rule="evenodd" clip-rule="evenodd" d="M1582.11 1193.47L1571.11 1203.7L1570.14 1202.79L1581.14 1192.56L1582.11 1193.47Z" fill="#4ECDC4"/>
<path d="M1534.52 1279.79C1534.51 1280.42 1533.97 1280.92 1533.32 1280.91C1532.67 1280.92 1532.13 1280.42 1532.12 1279.79C1532.13 1279.16 1532.67 1278.66 1533.32 1278.67C1533.97 1278.66 1534.51 1279.16 1534.52 1279.79Z" fill="#4ECDC4"/>
<path d="M1552.4 869.406C1552.39 870.035 1551.85 870.536 1551.2 870.526C1550.55 870.536 1550.01 870.035 1550 869.406C1550.01 868.777 1550.55 868.276 1551.2 868.288C1551.85 868.276 1552.39 868.777 1552.4 869.406Z" fill="#4ECDC4"/>
<path d="M1522.15 1018.99C1522.14 1019.61 1521.6 1020.12 1520.94 1020.1C1520.29 1020.12 1519.75 1019.62 1519.74 1018.99C1519.75 1018.36 1520.29 1017.86 1520.94 1017.87C1521.6 1017.86 1522.14 1018.36 1522.15 1018.99Z" fill="#4ECDC4"/>
<path d="M1584.03 799.094C1584.02 799.723 1583.48 800.224 1582.83 800.213C1582.18 800.223 1581.64 799.723 1581.63 799.094C1581.63 798.476 1582.16 797.975 1582.83 797.975C1583.49 797.975 1584.03 798.476 1584.03 799.094Z" fill="#4ECDC4"/>
<path d="M1681.67 822.639C1681.67 824.338 1680.19 825.716 1678.36 825.716C1676.54 825.716 1675.05 824.338 1675.05 822.639C1675.05 820.939 1676.54 819.563 1678.36 819.563C1680.19 819.563 1681.67 820.939 1681.67 822.639Z" fill="#4ECDC4"/>
</g>
</svg>
