<svg width="26" height="27" viewBox="0 0 26 27" fill="none" xmlns="http://www.w3.org/2000/svg">
<g id="eye-off (1) 1" clip-path="url(#clip0_121_63)">
<path id="Vector" d="M19.2716 19.9022C17.4437 21.2956 15.2179 22.0675 12.9198 22.1051C5.43454 22.1051 1.15723 13.5504 1.15723 13.5504C2.48735 11.0716 4.33221 8.90593 6.56802 7.19863M10.6742 5.25245C11.4103 5.08016 12.1639 4.99404 12.9198 4.99582C20.4051 4.99582 24.6824 13.5504 24.6824 13.5504C24.0333 14.7648 23.2592 15.908 22.3727 16.9616M15.1868 15.8174C14.8931 16.1326 14.539 16.3854 14.1454 16.5607C13.7519 16.7361 13.3271 16.8303 12.8964 16.8379C12.4657 16.8455 12.0378 16.7663 11.6384 16.605C11.2389 16.4436 10.876 16.2035 10.5714 15.8988C10.2668 15.5942 10.0267 15.2314 9.86531 14.8319C9.70396 14.4325 9.62473 14.0046 9.63233 13.5739C9.63993 13.1431 9.73421 12.7183 9.90954 12.3248C10.0849 11.9313 10.3377 11.5772 10.6529 11.2835" stroke="black" stroke-width="2.13866" stroke-linecap="round" stroke-linejoin="round"/>
<path id="Vector_2" d="M2.22656 1.78784L25.7518 25.3131" stroke="black" stroke-width="2.13866" stroke-linecap="round" stroke-linejoin="round"/>
</g>
<defs>
<clipPath id="clip0_121_63">
<rect width="25.6639" height="25.6639" fill="white" transform="translate(0.0881348 0.718506)"/>
</clipPath>
</defs>
</svg>
