<svg width="43" height="43" viewBox="0 0 43 43" fill="none" xmlns="http://www.w3.org/2000/svg">
<path d="M21.4928 2.3008C16.8158 2.29686 12.2901 3.95849 8.72684 6.98796C5.16352 10.0174 2.7954 14.2168 2.04679 18.8335C1.29817 23.4503 2.21798 28.1827 4.64141 32.183C7.06484 36.1832 10.8335 39.1898 15.2722 40.664C16.254 40.8342 16.5658 40.2573 16.5658 39.7377C16.5658 39.2665 16.5765 37.9621 16.5658 36.3156C11.0886 37.5017 9.95809 33.7213 9.95809 33.7213C9.59658 32.5313 8.82123 31.51 7.77225 30.842C5.98596 29.6201 7.90663 29.6434 7.90663 29.6434C8.53038 29.7292 9.12629 29.9564 9.64888 30.3076C10.1715 30.6587 10.6069 31.1247 10.922 31.6698C11.1886 32.1554 11.5488 32.5833 11.9818 32.9288C12.4148 33.2744 12.9119 33.5307 13.4445 33.6829C13.9771 33.8352 14.5346 33.8804 15.0848 33.816C15.635 33.7515 16.167 33.5786 16.65 33.3074C16.7403 32.3122 17.1832 31.3819 17.8988 30.6844C13.5289 30.1845 8.93325 28.4985 8.93325 20.952C8.90548 18.9962 9.63177 17.1048 10.9614 15.6702C10.359 13.9731 10.4276 12.11 11.1531 10.4618C11.1531 10.4618 12.8086 9.9333 16.564 12.4828C19.7909 11.5977 23.1966 11.5977 26.4235 12.4828C30.1896 9.93509 31.8308 10.4618 31.8308 10.4618C32.5564 12.1102 32.6262 13.9735 32.026 15.6702C33.356 17.1058 34.0812 18.9989 34.0506 20.9556C34.0506 28.5218 29.4478 30.1827 25.0636 30.6665C25.535 31.1398 25.8992 31.7088 26.1316 32.3351C26.3641 32.9613 26.4593 33.6301 26.411 34.2964V39.7448C26.411 40.2716 26.7281 40.8539 27.7278 40.6622C32.1663 39.1866 35.9343 36.1787 38.3566 32.1774C40.7788 28.1761 41.6971 23.443 40.9467 18.8263C40.1963 14.2095 37.8264 10.0109 34.2616 6.98268C30.6968 3.9545 26.1702 2.29473 21.4928 2.3008Z" fill="white"/>
</svg>
