<svg width="43" height="43" viewBox="0 0 43 43" fill="none" xmlns="http://www.w3.org/2000/svg">
<path fill-rule="evenodd" clip-rule="evenodd" d="M8.95835 1.7915C7.05764 1.7915 5.23477 2.54656 3.89076 3.89057C2.54674 5.23458 1.79169 7.05745 1.79169 8.95817V34.0415C1.79169 35.9422 2.54674 37.7651 3.89076 39.1091C5.23477 40.4531 7.05764 41.2082 8.95835 41.2082H34.0417C35.9424 41.2082 37.7653 40.4531 39.1093 39.1091C40.4533 37.7651 41.2084 35.9422 41.2084 34.0415V8.95817C41.2084 7.05745 40.4533 5.23458 39.1093 3.89057C37.7653 2.54656 35.9424 1.7915 34.0417 1.7915H8.95835ZM11.1173 14.1719C11.9275 14.1719 12.7045 13.8501 13.2774 13.2772C13.8503 12.7043 14.1721 11.9273 14.1721 11.1171C14.1721 10.3069 13.8503 9.52995 13.2774 8.95707C12.7045 8.38418 11.9275 8.06234 11.1173 8.06234C10.3071 8.06234 9.53013 8.38418 8.95725 8.95707C8.38436 9.52995 8.06252 10.3069 8.06252 11.1171C8.06252 11.9273 8.38436 12.7043 8.95725 13.2772C9.53013 13.8501 10.3071 14.1719 11.1173 14.1719ZM14.1703 34.9373V16.614H8.06252V34.9373H14.1703ZM22.111 16.614H16.6141V34.9373H22.111V23.8828C22.8187 22.7325 24.0406 21.4998 25.7749 21.4998C28.2188 21.4998 28.8297 23.9437 28.8297 25.1656V34.9373H34.9375V25.1656C34.9375 21.8904 33.5096 16.614 28.2188 16.614C24.854 16.614 22.9871 17.8413 22.1092 18.9915L22.111 16.614Z" fill="white"/>
</svg>
