<svg width="132" height="39" viewBox="0 0 132 39" fill="none" xmlns="http://www.w3.org/2000/svg">
<path d="M1.49698 0.289361C1.30753 0.478806 1.24438 2.98368 1.24438 10.2668C1.24438 19.0865 1.28648 20.0337 1.60222 20.3494C1.91796 20.6652 2.50735 20.7073 7.11716 20.6231L12.2953 20.5599L13.6214 19.9495C17.9155 17.9708 18.5259 12.3507 14.716 9.90892L14.1897 9.57213L14.9475 8.73016C15.9579 7.61454 16.2736 6.62522 16.1263 4.96232C15.9579 2.66794 14.4634 0.878744 12.1901 0.247263C11.0744 -0.0684779 1.81272 -0.0263791 1.49698 0.289361ZM11.2428 4.77288C11.6217 5.13072 11.7691 5.50961 11.7691 6.09899C11.7691 7.78294 10.6535 8.28812 7.45395 8.07763L5.87525 7.97238V6.24633C5.87525 5.29911 5.93839 4.45714 6.02259 4.39399C6.08574 4.30979 7.18031 4.24664 8.44327 4.24664C10.5903 4.24664 10.7587 4.26769 11.2428 4.77288ZM12.0006 12.8348C12.8215 13.761 12.8426 14.7924 12.0217 15.6133C11.2849 16.329 9.81148 16.5816 7.45395 16.35L5.87525 16.2027V14.2661C5.87525 13.1926 5.93839 12.2454 6.02259 12.1612C6.12784 12.077 7.3487 12.0349 8.78006 12.077L11.3902 12.1402L12.0006 12.8348Z" fill="#41A8D3"/>
<path d="M21.7675 0.247244C21.6833 0.39459 21.5991 4.89916 21.5991 10.2878C21.557 21.7387 21.3255 20.7493 24.0408 20.602C25.1565 20.5599 25.7669 20.4336 25.8932 20.2231C25.9984 20.0547 26.0826 18.6023 26.0826 16.9815C26.0826 15.3607 26.1668 13.9293 26.251 13.782C26.5247 13.361 27.935 13.2137 28.4612 13.5504C28.7138 13.7399 29.8505 15.2554 30.9871 16.9604C32.1238 18.6444 33.1973 20.181 33.3657 20.3494C33.5973 20.5809 34.1445 20.6651 35.3023 20.6651C37.3861 20.6651 37.8703 20.5178 37.8703 19.9495C37.8703 19.4022 37.5545 18.897 35.2602 15.6133C34.2708 14.203 33.4499 12.9821 33.4499 12.8979C33.471 12.8348 33.913 12.4559 34.4603 12.0559C35.7864 11.1087 36.5442 10.0352 36.9441 8.43545C37.744 5.34119 36.2916 2.16274 33.3868 0.626133C32.5448 0.163047 32.229 0.141997 27.1982 0.0788492C23.3462 0.0367505 21.8728 0.0788492 21.7675 0.247244ZM30.7556 4.45712C32.4606 4.94125 33.0079 7.13039 31.787 8.4986L31.1766 9.19323L28.7348 9.25638L26.2931 9.34057V6.9199V4.47817L27.514 4.39397C28.1665 4.35187 29.0085 4.30977 29.3453 4.28872C29.7031 4.26767 30.3346 4.35187 30.7556 4.45712Z" fill="#41A8D3"/>
<path d="M41.4908 0.289368C41.3014 0.478813 41.2382 2.98369 41.2382 10.2668C41.2382 18.8339 41.2803 20.0337 41.575 20.3284C41.8487 20.6231 42.7327 20.6652 47.8688 20.6652C53.0048 20.6652 53.8889 20.6231 54.1625 20.3284C54.5835 19.9284 54.6467 16.8973 54.2467 16.4974C54.0573 16.3079 52.8154 16.2448 49.9316 16.2448H45.8691V14.3714V12.498L49.4264 12.3507C52.8154 12.2033 53.0048 12.1823 53.1101 11.7402C53.2785 11.0877 53.2574 8.81436 53.068 8.51967C52.9417 8.33023 51.8892 8.24603 49.4475 8.20393L45.9743 8.14078L45.9112 6.28844L45.848 4.45714H49.8474C54.6046 4.45714 54.4993 4.49924 54.4993 2.39431C54.4993 -0.0895205 54.8782 0.0367757 47.7846 0.0367757C43.3642 0.0367757 41.6803 0.0999239 41.4908 0.289368Z" fill="#41A8D3"/>
<path d="M65.066 0.310418C64.9398 0.457763 64.0767 2.45745 63.1295 4.77288C62.1823 7.08832 60.5615 11.0666 59.509 13.6136C56.6884 20.4757 56.8357 20.0126 57.3409 20.3915C57.6567 20.6231 58.1829 20.6862 59.5301 20.6231C61.5719 20.5178 61.635 20.4757 62.3296 18.3287C62.7506 16.9815 62.8138 16.9184 63.5294 16.7921C64.4977 16.6447 70.2442 16.6237 70.8336 16.7921C71.1493 16.8763 71.444 17.3394 71.865 18.3918C72.707 20.5178 72.8964 20.6652 74.833 20.6652C76.4748 20.6652 77.2326 20.4336 77.2326 19.9495C77.2326 19.7811 76.7484 18.5181 76.1591 17.1499C75.5697 15.7817 73.9068 11.7823 72.4544 8.24603C71.023 4.70974 69.6338 1.42603 69.4022 0.920849L68.9812 0.0367757H67.1289C65.887 0.0367757 65.2134 0.120973 65.066 0.310418ZM68.2024 9.74054C68.7707 10.9404 69.2128 12.0981 69.2128 12.2875C69.2338 12.6243 68.9812 12.6664 66.8973 12.6664C64.182 12.6664 64.3083 13.0032 65.8238 9.55109C66.329 8.35128 66.8552 7.42511 66.9815 7.4672C67.1078 7.5093 67.6551 8.51967 68.2024 9.74054Z" fill="#41A8D3"/>
<path d="M77.6536 0.247268C77.2536 0.49986 77.0852 3.36257 77.422 4.01511C77.6536 4.43609 77.822 4.45714 80.2848 4.45714H82.9159V12.3507C82.9159 19.9284 82.937 20.2442 83.3159 20.4547C83.8421 20.7283 86.0733 20.7283 86.789 20.4547L87.3363 20.2442V12.3507V4.45714H89.8412C91.2304 4.45714 92.4092 4.37294 92.4934 4.2677C92.5565 4.1414 92.6618 3.32048 92.746 2.41535C92.9354 -0.131621 93.4827 0.0367738 85.063 0.0367738C81.0215 0.0367738 77.843 0.120971 77.6536 0.247268Z" fill="#41A8D3"/>
<path d="M96.2191 0.394613C96.1139 0.605107 96.0297 4.94128 96.0507 10.5194C96.0718 18.9391 96.1139 20.2863 96.3875 20.4547C96.8085 20.7283 99.3765 20.7283 100.05 20.4547L100.597 20.2442V16.35V12.4559H104.386H108.175V16.2237C108.175 19.9074 108.196 20.0126 108.638 20.3284C109.186 20.7073 111.396 20.7915 112.259 20.4547L112.806 20.2442V10.3931C112.806 3.00473 112.743 0.478811 112.553 0.289366C112.406 0.142021 111.627 0.0367738 110.491 0.0367738C109.354 0.0367738 108.575 0.142021 108.428 0.289366C108.259 0.457761 108.175 1.65758 108.175 4.28875V8.03553H104.386H100.597L100.555 4.07825L100.492 0.142021L98.4504 0.0788725C96.6612 0.0367738 96.3875 0.0788725 96.2191 0.394613Z" fill="#41A8D3"/>
<path d="M118.279 0.331465C117.942 0.752453 117.963 19.9705 118.321 20.3915C118.489 20.602 119.837 20.6652 124.51 20.6652C129.646 20.6652 130.509 20.6231 130.782 20.3284C131.266 19.8442 131.266 16.5605 130.782 16.3711C130.593 16.3079 128.656 16.2448 126.467 16.2448H122.489V14.3924V12.5191L126.004 12.3928C128.446 12.2875 129.561 12.1612 129.688 11.9718C129.961 11.5297 129.877 8.75122 129.582 8.47757C129.414 8.35128 127.983 8.22498 125.941 8.20393L122.594 8.14078L122.531 6.30949L122.468 4.45714L126.741 4.41504L131.014 4.3519L131.077 2.49955C131.119 1.29974 131.056 0.52091 130.887 0.331465C130.53 -0.110572 118.658 -0.110572 118.279 0.331465Z" fill="#41A8D3"/>
<path d="M27.6192 26.0959C26.1879 26.601 25.2407 27.3588 24.4408 28.6007C22.3569 31.8634 23.4725 36.1996 26.8615 37.9256C27.7245 38.3676 28.1665 38.4518 29.7663 38.4518C31.8712 38.4518 32.9237 38.0519 34.2498 36.7889C36.0179 35.1471 36.6494 32.2212 35.7653 29.8847C35.2181 28.4113 33.8288 26.9168 32.4395 26.3064C31.0713 25.6959 29.0085 25.5907 27.6192 26.0959ZM30.9871 29.1691C33.0921 30.0321 33.6604 32.7896 32.1238 34.4946C31.5765 35.0839 31.2397 35.2523 30.4609 35.3365C29.1558 35.4839 28.5454 35.3155 27.6613 34.5367C24.967 32.1581 27.6613 27.7798 30.9871 29.1691Z" fill="#41A8D3"/>
<path d="M46.1847 25.8433C44.5639 26.2432 42.9642 27.2957 42.1854 28.4745C41.596 29.4006 41.0276 31.3161 41.0276 32.4528C41.0276 34.5367 42.5643 36.9784 44.4797 37.9677C45.5112 38.494 47.9108 38.7045 49.1527 38.3677C50.142 38.094 51.9733 36.9363 51.9733 36.5785C51.9733 36.4522 51.5734 35.926 51.0682 35.4418L50.1841 34.5577L49.1527 35.084C47.8897 35.7155 47.3214 35.7365 46.2058 35.1892C44.9639 34.5998 44.3955 33.6526 44.3955 32.2213C44.3955 30.411 45.3428 29.2112 47.0057 28.9376C47.574 28.8534 48.0371 28.9586 48.9212 29.4006L50.0999 29.969L51.0051 29.1481C51.5102 28.706 51.9523 28.2429 51.9523 28.1166C51.9944 27.7377 50.8577 26.8116 49.8052 26.3485C48.7949 25.8854 46.9846 25.6539 46.1847 25.8433Z" fill="#41A8D3"/>
<path d="M59.4038 26.0748C58.646 26.1169 58.0777 26.2643 58.0356 26.4116C58.0145 26.559 57.9935 29.2954 58.0356 32.4949L58.0987 38.3466H62.498H66.9184L67.0447 37.8625C67.1078 37.5888 67.1289 36.9995 67.0868 36.5364L67.0236 35.7154L64.1609 35.6523L61.2982 35.5892L61.1719 34.8735C60.9193 33.379 61.0456 33.2948 63.2558 33.2948C65.5291 33.2948 65.8028 33.0843 65.5502 31.5898L65.4028 30.7688H63.319H61.2351V29.8216V28.8744H64.0557H66.8763L67.0026 28.2219C67.4236 26.0748 67.171 25.9275 63.5926 25.9696C62.0139 25.9906 60.1195 26.0327 59.4038 26.0748Z" fill="#41A8D3"/>
<path d="M77.822 26.1801C77.6536 26.3274 77.3378 26.8747 77.1484 27.4009C76.9379 27.9272 75.8854 30.39 74.8119 32.8738C73.7384 35.3576 72.8122 37.5888 72.7701 37.8204C72.707 38.1993 72.8333 38.2414 74.1804 38.2414H75.6539L76.2433 37.0205L76.8326 35.8207H79.106H81.3793L81.9897 37.0205L82.6002 38.2414L84.1368 38.3045C85.3155 38.3466 85.6523 38.3045 85.6523 38.073C85.6523 37.7151 80.8741 26.559 80.5584 26.1801C80.4321 26.0327 79.8637 25.9275 79.2533 25.9275C78.6429 25.9275 78.0114 26.0538 77.822 26.1801ZM79.7585 31.5266C80.1163 32.2844 80.39 33.0001 80.39 33.1053C80.39 33.2106 79.8216 33.2948 79.127 33.2948C78.4324 33.2948 77.8641 33.2527 77.8641 33.1895C77.8641 33.0001 79.0007 30.1374 79.0849 30.1374C79.106 30.1374 79.4217 30.7688 79.7585 31.5266Z" fill="#41A8D3"/>
<path d="M92.2197 26.1379L91.7567 26.3274L91.7988 32.2844L91.8619 38.2413L93.167 38.3045C94.7667 38.3887 94.6825 38.5571 94.7667 34.5577L94.8088 31.716L97.1663 34.7892C98.4504 36.4732 99.6502 37.9677 99.8186 38.115C100.008 38.2624 100.576 38.3466 101.166 38.3045L102.176 38.2413L102.239 32.3054C102.281 26.4116 102.281 26.3695 101.839 26.1169C101.397 25.8854 99.8607 25.9696 99.587 26.2432C99.5028 26.3274 99.3976 27.7377 99.3344 29.4006L99.2292 32.4317L97.2295 29.8637C94.5352 26.4116 94.03 25.9275 93.3143 25.9485C92.9775 25.9485 92.4934 26.0327 92.2197 26.1379Z" fill="#41A8D3"/>
<path d="M0.318189 30.8952C-0.144898 31.3583 -0.102799 31.9476 0.444485 32.3265C0.844423 32.6212 2.00214 32.6633 8.67479 32.6633C13.6214 32.6633 16.5683 32.5791 16.8419 32.4528C17.305 32.2002 17.3892 31.2109 16.9893 30.811C16.7998 30.6215 14.6739 30.5584 8.69584 30.5584C1.66535 30.5584 0.591831 30.6005 0.318189 30.8952Z" fill="#41A8D3"/>
<path d="M107.796 30.811C107.396 31.2109 107.481 32.2002 107.944 32.4528C108.217 32.5791 112.217 32.6633 119.521 32.6633C129.372 32.6633 130.698 32.6212 130.993 32.3265C131.393 31.9476 131.435 31.1688 131.077 30.811C130.719 30.4531 108.154 30.4531 107.796 30.811Z" fill="#41A8D3"/>
</svg>
