<svg width="610" height="403" viewBox="0 0 610 403" fill="none" xmlns="http://www.w3.org/2000/svg">
<path d="M0 195.457L76.1955 195.233L152.391 195.148L304.773 194.989L457.154 195.148L533.35 195.233L609.545 195.457L533.35 195.682L457.154 195.766L304.773 195.926L152.391 195.766L76.1955 195.682L0 195.457Z" fill="#263238"/>
<path d="M328.099 183.939C333.483 197.611 346.508 223.156 352.998 230.245C358.738 236.5 382.963 231.874 394.331 228.971C397.44 228.175 386.352 204.568 383 205.28C377.625 206.423 365.545 209.213 364.515 208.501C361.65 206.516 346.255 188.987 338.081 180.962C327.34 170.418 325.58 177.562 328.099 183.939Z" fill="#D3766A"/>
<path opacity="0.1" d="M371.754 233.045C363.485 233.803 355.891 233.41 353.026 230.235C346.536 223.147 333.511 197.602 328.127 183.93C326.9 180.812 326.685 177.516 328.061 176.186L371.754 233.045Z" fill="black"/>
<path d="M398.413 230.292C393.273 232.23 381.202 232.09 378.309 230.938C375.415 229.786 374.966 209.26 377.457 207.247C379.947 205.233 397.758 200.046 403.086 201.778C408.414 203.51 403.76 228.278 398.413 230.292Z" fill="#D3766A"/>
<path d="M394.378 200.757C392.58 203.051 396.307 203.857 396.307 203.857C396.307 203.857 390.688 203.988 389.752 207.059C388.815 210.131 393.385 210.852 393.713 210.908C393.413 210.908 388.235 211.17 387.607 214.363C386.98 217.556 391.653 217.716 391.952 217.716C391.671 217.819 388.001 219.167 388.075 221.695C388.207 226.05 397.683 222.856 400.773 224.551C400.773 224.551 398.498 230.114 398.47 230.292C398.47 230.292 407.543 227.436 409.604 223.137C409.916 222.514 410.006 221.802 409.857 221.121C409.709 220.439 409.332 219.829 408.789 219.392C408.789 219.392 411.813 218.792 412.385 216.302C412.684 215.019 410.886 213.408 410.886 213.408C411.568 213.244 412.191 212.895 412.687 212.4C413.183 211.904 413.532 211.281 413.696 210.599C413.995 208.801 412.151 207.471 412.151 207.471C412.151 207.471 414.201 205.842 413.911 203.913C413.284 200.017 398.236 195.86 394.378 200.757Z" fill="#D3766A"/>
<path d="M410.943 213.427C410.999 213.427 411.036 213.361 410.943 213.324C405.632 210.41 399.456 209.487 393.525 210.721C393.319 210.777 393.179 211.03 393.422 210.983C397.524 210.337 406.214 211.676 410.943 213.427Z" fill="#263238"/>
<path d="M391.54 217.969C397.346 216.807 402.946 217.632 408.573 219.298C408.639 219.298 408.667 219.214 408.573 219.177C406.045 217.613 402.346 216.92 399.425 216.63C396.718 216.306 393.974 216.696 391.465 217.763C391.4 217.8 391.418 217.987 391.54 217.969Z" fill="#263238"/>
<path d="M396.307 203.857C395.228 203.984 394.162 204.206 393.123 204.522C392.1 204.788 391.169 205.325 390.426 206.076C390.102 206.436 389.925 206.903 389.93 207.387C389.934 207.878 390.066 208.359 390.314 208.782C390.593 209.182 390.953 209.519 391.371 209.77C391.789 210.022 392.255 210.183 392.739 210.243L395.099 210.637L392.748 211.086C391.703 211.275 390.697 211.636 389.77 212.154C389.321 212.363 388.921 212.666 388.598 213.042C388.275 213.418 388.036 213.859 387.898 214.335C387.778 214.777 387.813 215.247 387.997 215.666C388.181 216.085 388.503 216.428 388.909 216.639C389.828 217.09 390.846 217.299 391.868 217.248L394.677 217.201L392.037 218.137C391.298 218.404 390.597 218.763 389.948 219.205C389.322 219.605 388.825 220.177 388.516 220.853C388.399 221.167 388.369 221.506 388.429 221.835C388.488 222.165 388.634 222.472 388.853 222.726C389.436 223.237 390.155 223.568 390.922 223.681C392.545 223.905 394.182 224.003 395.82 223.971C396.644 223.971 397.477 223.971 398.31 224.055C399.145 224.06 399.97 224.245 400.726 224.598C399.946 224.337 399.122 224.232 398.301 224.289C397.477 224.289 396.653 224.346 395.829 224.392C394.16 224.551 392.479 224.551 390.81 224.392C389.905 224.312 389.043 223.971 388.328 223.409C387.972 223.062 387.726 222.618 387.619 222.132C387.513 221.646 387.551 221.139 387.729 220.675C388.085 219.824 388.685 219.098 389.452 218.587C390.163 218.08 390.938 217.667 391.756 217.36L391.933 218.296C390.725 218.377 389.517 218.138 388.431 217.603C387.834 217.292 387.364 216.782 387.102 216.161C386.866 215.546 386.824 214.873 386.98 214.232C387.148 213.633 387.442 213.076 387.842 212.6C388.243 212.123 388.74 211.738 389.302 211.47C390.332 210.917 391.445 210.538 392.598 210.346V211.189C391.999 211.092 391.429 210.866 390.926 210.526C390.423 210.187 390 209.742 389.686 209.223C389.41 208.681 389.278 208.078 389.302 207.471C389.327 206.857 389.577 206.274 390.004 205.833C390.852 205.066 391.896 204.551 393.02 204.344C394.094 204.059 395.196 203.896 396.307 203.857Z" fill="#263238"/>
<path d="M380.359 205.833C380.359 205.833 397.168 189.68 400.286 199.334C401.223 202.199 401.55 215.094 398.966 215.206C395.623 215.365 394.471 210.009 394.284 206.535C394.284 206.535 389.34 212.837 383.927 210.702C382.942 210.297 382.088 209.629 381.458 208.769C380.829 207.91 380.448 206.894 380.359 205.833Z" fill="#D3766A"/>
<path d="M399.959 198.557C400.451 199.639 400.782 200.787 400.942 201.965C401.138 203.139 401.251 204.325 401.279 205.514C401.383 207.901 401.276 210.292 400.96 212.659C400.878 213.29 400.705 213.905 400.445 214.485C400.297 214.817 400.077 215.112 399.799 215.347C399.648 215.476 399.478 215.58 399.294 215.656C399.107 215.726 398.912 215.767 398.713 215.777C397.996 215.798 397.296 215.562 396.737 215.113C396.235 214.694 395.81 214.19 395.482 213.624C394.878 212.545 394.466 211.37 394.265 210.15C394.04 208.969 393.903 207.773 393.853 206.573L394.593 206.797C394.004 207.481 393.352 208.108 392.645 208.67C391.944 209.247 391.185 209.749 390.379 210.168C389.576 210.586 388.714 210.879 387.823 211.039C386.938 211.212 386.029 211.212 385.145 211.039C386.024 211.098 386.907 211.01 387.757 210.777C388.591 210.542 389.388 210.192 390.126 209.738C390.867 209.287 391.564 208.767 392.205 208.183C392.837 207.611 393.417 206.985 393.937 206.31L394.565 205.458L394.677 206.535C394.771 207.687 394.937 208.831 395.173 209.962C395.39 211.071 395.779 212.139 396.325 213.127C396.539 213.582 396.865 213.975 397.273 214.268C397.681 214.562 398.158 214.746 398.657 214.804C399.453 214.804 399.846 213.586 400.043 212.5C400.239 211.414 400.361 210.206 400.464 209.045C400.567 207.884 400.642 206.704 400.661 205.533C400.79 203.185 400.553 200.832 399.959 198.557Z" fill="#263238"/>
<path d="M357.211 198.66L339.916 213.53C339.916 213.53 328.539 193.378 327.125 182.628C325.711 171.879 331.928 171.85 338.483 178.593C343.165 183.321 357.211 198.66 357.211 198.66Z" fill="#73A2C7"/>
<path d="M339.813 209.157C341.77 207.087 344.008 205.243 346.143 203.361C348.278 201.478 350.657 199.615 352.885 197.742C352.941 197.686 353.044 197.798 352.979 197.854C350.872 199.793 348.849 201.815 346.667 203.67C344.501 205.625 342.228 207.46 339.86 209.166C339.86 209.166 339.785 209.185 339.813 209.157Z" fill="#263238"/>
<path opacity="0.1" d="M351.368 203.735L339.953 213.53C339.953 213.53 328.576 193.379 327.153 182.629C326.45 177.254 327.649 174.557 329.85 174.042L351.368 203.735Z" fill="black"/>
<path d="M426.281 325.393C428.472 324.663 426.524 318.342 424.09 316.385C421.757 314.96 419.336 313.683 416.842 312.565C408.901 308.753 397.477 303.65 397.477 303.65L407.197 262.448L367.596 262.663C367.596 262.663 356.799 301.403 356.865 303.772C356.865 303.922 356.865 304.071 356.865 304.212C357.202 315.13 357.745 324.064 358.644 324.625C361.051 326.142 424.08 326.133 426.281 325.393Z" fill="#D3766A"/>
<path d="M426.281 325.393C424.08 326.133 361.051 326.142 358.654 324.625C357.717 324.064 357.211 315.13 356.874 304.221C356.874 304.071 356.874 303.912 356.874 303.772C357.164 301.819 357.577 299.886 358.11 297.985H398.844L397.477 303.659C397.477 303.659 408.892 308.753 416.823 312.564C419.319 313.681 421.74 314.957 424.071 316.385C426.506 318.342 428.472 324.663 426.281 325.393Z" fill="#EBEBEB"/>
<path d="M426.993 325.749C424.755 326.498 360.573 326.423 358.139 324.869C357.202 324.298 356.659 314.943 356.341 303.622C356.341 303.509 356.341 303.388 356.341 303.266L397.749 302.854V303.556C397.749 303.556 422.301 314.568 424.811 316.563C427.32 318.557 429.24 325 426.993 325.749Z" fill="#A6A6A6"/>
<path d="M426.272 323.258C415.447 322.977 371.791 322.874 361.079 323.427C360.995 323.427 360.995 323.492 361.079 323.492C371.791 324.007 415.456 323.755 426.272 323.436C426.506 323.427 426.506 323.268 426.272 323.258Z" fill="#263238"/>
<path d="M402.346 302.976C398.095 302.18 392.879 302.826 389.63 305.86C389.499 305.972 389.63 306.15 389.808 306.103C393.877 304.799 398.074 303.933 402.328 303.519C402.4 303.521 402.47 303.495 402.522 303.446C402.575 303.397 402.606 303.329 402.609 303.257C402.611 303.185 402.585 303.115 402.536 303.062C402.486 303.009 402.418 302.978 402.346 302.976Z" fill="#263238"/>
<path d="M405.418 304.83C401.157 304.034 395.951 304.68 392.701 307.714C392.57 307.826 392.701 308.004 392.879 307.967C396.947 306.655 401.145 305.785 405.399 305.373C405.471 305.375 405.541 305.349 405.594 305.3C405.647 305.251 405.678 305.183 405.68 305.111C405.682 305.039 405.656 304.969 405.607 304.916C405.558 304.863 405.49 304.832 405.418 304.83Z" fill="#263238"/>
<path d="M408.489 306.693C404.229 305.888 399.022 306.534 395.773 309.568C395.642 309.68 395.773 309.858 395.951 309.821C400.02 308.513 404.217 307.643 408.47 307.227C408.533 307.218 408.591 307.187 408.633 307.139C408.675 307.092 408.7 307.031 408.702 306.968C408.704 306.904 408.684 306.842 408.645 306.792C408.606 306.742 408.551 306.707 408.489 306.693Z" fill="#263238"/>
<path d="M407.89 293.696C406.223 291.392 403.105 292.422 401.335 293.921C398.336 296.538 396.076 299.896 394.78 303.659C394.78 303.753 394.78 303.8 394.883 303.818C394.88 303.901 394.897 303.983 394.931 304.058C394.966 304.133 395.018 304.198 395.082 304.249C395.147 304.301 395.223 304.336 395.304 304.352C395.385 304.368 395.469 304.365 395.548 304.343C399.06 303.051 402.983 302.095 405.998 299.764C407.778 298.397 409.472 295.878 407.89 293.696ZM400.455 301.29C398.741 301.974 397.009 302.564 395.314 303.303C396.606 301.431 397.805 299.464 399.275 297.685C399.976 296.825 400.733 296.011 401.541 295.25C402.805 294.108 407.824 291.654 407.066 296.327C406.654 298.912 402.496 300.466 400.455 301.29Z" fill="#263238"/>
<path d="M383.946 302.535C387.448 304.034 391.484 303.968 395.183 304.333C395.266 304.334 395.348 304.315 395.422 304.278C395.497 304.241 395.562 304.187 395.612 304.121C395.662 304.054 395.696 303.977 395.711 303.895C395.726 303.814 395.721 303.73 395.698 303.65C395.714 303.643 395.729 303.633 395.741 303.62C395.753 303.606 395.762 303.591 395.767 303.574C395.773 303.557 395.774 303.539 395.772 303.521C395.77 303.504 395.764 303.487 395.754 303.472C393.546 300.155 390.504 297.478 386.933 295.709C384.835 294.716 381.558 294.501 380.528 297.16C379.582 299.67 381.895 301.665 383.946 302.535ZM382.026 299.53C380.107 295.203 385.585 296.299 387.102 297.095C388.079 297.621 389.017 298.216 389.911 298.874C391.784 300.213 393.441 301.786 395.164 303.294C393.338 303.004 391.512 302.873 389.677 302.648C387.486 302.339 383.075 301.889 382.026 299.53Z" fill="#263238"/>
<path opacity="0.1" d="M423.79 325.974C410.409 326.461 360.283 326.245 358.129 324.869C357.193 324.288 356.659 314.943 356.341 303.622C356.341 303.509 356.341 303.388 356.341 303.275L394.05 302.891L423.79 325.974Z" fill="black"/>
<path d="M308.865 236.79C308.865 236.79 305.325 260.716 317.714 268.319C325.992 273.395 362.558 266.371 364.113 261.858C367.053 253.318 367.062 250.19 367.062 250.19L357.698 295.456L403.76 295.999C403.76 295.999 412.413 258.543 410.184 218.793C409.369 204.1 389.583 199.652 375.865 206.966C362.54 214.045 335.122 235.507 335.122 235.507L308.865 236.79Z" fill="#37474F"/>
<path d="M363.027 268.347C365.967 262.485 365.958 260.088 373.58 241.763C374.601 239.319 375.453 236.809 376.389 234.328C377.326 231.846 378.468 229.205 379.255 226.565C379.255 226.434 379.498 226.509 379.451 226.63C378.515 228.896 377.906 231.312 377.11 233.569C376.314 235.826 375.546 238.073 374.722 240.321L373.645 243.214C373.786 243.018 373.926 242.83 374.057 242.634C374.682 241.747 375.306 240.867 375.93 239.993C377.232 238.204 378.739 236.538 379.938 234.655C380.013 234.543 380.191 234.655 380.116 234.768C378.805 236.556 377.812 238.579 376.567 240.386C375.968 241.276 375.34 242.147 374.694 243.018C374.134 243.836 373.508 244.606 372.821 245.321C371.754 248.13 369.404 255.013 368.28 257.831C364.74 266.699 365.892 263.815 363.401 268.535C363.336 268.816 362.895 268.628 363.027 268.347Z" fill="#263238"/>
<path d="M382.541 288.003C375.602 287.928 368.682 287.534 361.753 287.403C361.622 287.403 361.594 287.197 361.753 287.197C368.664 287.197 375.565 286.888 382.476 286.973C389.386 287.057 396.335 287.394 403.264 287.628C403.442 287.628 403.47 287.909 403.264 287.909C396.353 287.918 389.452 288.078 382.541 288.003Z" fill="#263238"/>
<path d="M365.546 285.69C366.173 282.628 367.063 279.612 367.868 276.597C368.673 273.582 369.497 270.557 370.331 267.542C371.997 261.502 373.739 255.49 375.471 249.479C376.464 246.061 377.522 242.671 378.571 239.272C378.571 239.178 378.749 239.206 378.721 239.272C375.599 251.401 372.281 263.469 368.767 275.473C367.765 278.882 366.894 282.328 365.649 285.68C365.645 285.691 365.639 285.7 365.63 285.707C365.622 285.714 365.611 285.718 365.6 285.719C365.589 285.72 365.578 285.718 365.568 285.712C365.559 285.707 365.551 285.699 365.546 285.69Z" fill="#263238"/>
<path d="M410.587 326.068C412.778 325.337 410.84 319.016 408.396 317.069C406.068 315.635 403.646 314.359 401.148 313.248C393.216 309.428 381.811 304.334 381.811 304.334L391.531 263.132L351.921 263.347C351.921 263.347 341.105 302.021 341.171 304.418C341.171 304.568 341.171 304.717 341.171 304.867C341.517 315.776 342.051 324.71 342.95 325.272C345.319 326.826 408.349 326.807 410.587 326.068Z" fill="#D3766A"/>
<path d="M410.587 326.068C408.377 326.807 345.347 326.826 342.95 325.3C342.014 324.738 341.508 315.804 341.171 304.895C341.171 304.746 341.171 304.596 341.171 304.446C341.46 302.496 341.873 300.566 342.407 298.668H383.141L381.802 304.333C381.802 304.333 393.216 309.437 401.148 313.239C403.649 314.354 406.073 315.633 408.405 317.069C410.802 319.016 412.74 325.337 410.587 326.068Z" fill="#EBEBEB"/>
<path d="M411.261 326.423C409.023 327.172 344.842 327.107 342.407 325.543C341.47 324.972 340.937 315.617 340.609 304.305V303.949L382.008 303.528V304.23C382.008 304.23 406.56 315.252 409.07 317.246C411.579 319.241 413.508 325.683 411.261 326.423Z" fill="#A6A6A6"/>
<path d="M410.587 323.932C399.771 323.661 356.107 323.558 345.394 324.101C345.31 324.101 345.31 324.167 345.394 324.176C356.116 324.682 399.771 324.429 410.587 324.11C410.765 324.101 410.765 323.942 410.587 323.932Z" fill="#263238"/>
<path d="M386.615 303.659C382.363 302.854 377.157 303.5 373.898 306.534C373.777 306.646 373.898 306.824 374.076 306.787C378.146 305.486 382.343 304.623 386.596 304.212C386.632 304.213 386.668 304.207 386.702 304.194C386.736 304.182 386.768 304.162 386.794 304.137C386.821 304.113 386.842 304.083 386.857 304.05C386.872 304.017 386.88 303.981 386.882 303.945C386.883 303.909 386.877 303.872 386.864 303.838C386.851 303.804 386.832 303.773 386.807 303.747C386.783 303.72 386.753 303.699 386.72 303.684C386.687 303.669 386.651 303.66 386.615 303.659Z" fill="#263238"/>
<path d="M389.686 305.513C385.435 304.708 380.228 305.363 376.97 308.388C376.839 308.51 376.97 308.688 377.148 308.641C381.218 307.346 385.415 306.489 389.667 306.085C389.743 306.087 389.817 306.059 389.872 306.007C389.927 305.956 389.96 305.884 389.962 305.808C389.965 305.733 389.937 305.659 389.885 305.604C389.834 305.548 389.762 305.516 389.686 305.513Z" fill="#263238"/>
<path d="M392.795 307.367C388.544 306.572 383.337 307.218 380.079 310.242C379.947 310.364 380.079 310.542 380.256 310.495C384.326 309.188 388.523 308.318 392.776 307.901C392.839 307.892 392.897 307.861 392.939 307.814C392.981 307.766 393.005 307.706 393.008 307.642C393.01 307.579 392.99 307.517 392.951 307.466C392.912 307.416 392.857 307.381 392.795 307.367Z" fill="#263238"/>
<path d="M392.168 294.379C390.491 292.067 387.382 293.106 385.613 294.595C382.61 297.212 380.349 300.574 379.058 304.343C379.052 304.36 379.05 304.377 379.052 304.395C379.055 304.413 379.061 304.429 379.071 304.444C379.081 304.459 379.095 304.471 379.11 304.479C379.126 304.488 379.143 304.492 379.161 304.493C379.156 304.576 379.172 304.659 379.206 304.735C379.24 304.811 379.291 304.878 379.356 304.93C379.421 304.983 379.498 305.018 379.579 305.035C379.661 305.052 379.745 305.049 379.826 305.026C383.347 303.725 387.261 302.779 390.276 300.438C392.008 299.071 393.731 296.561 392.168 294.379ZM384.732 301.964C383.019 302.648 381.277 303.238 379.592 303.987C380.812 302.046 382.134 300.17 383.553 298.369C384.248 297.506 385.002 296.693 385.809 295.934C387.073 294.782 392.093 292.338 391.334 297.001C390.922 299.586 386.774 301.159 384.732 301.964Z" fill="#263238"/>
<path d="M368.214 303.219C371.716 304.717 375.752 304.642 379.451 305.008C379.534 305.009 379.616 304.99 379.691 304.953C379.765 304.916 379.829 304.862 379.879 304.795C379.928 304.728 379.961 304.651 379.975 304.569C379.988 304.487 379.982 304.403 379.957 304.324C380.022 304.324 380.069 304.23 380.013 304.155C377.805 300.836 374.763 298.155 371.192 296.383C369.095 295.391 365.826 295.185 364.787 297.835C363.748 300.485 366.164 302.339 368.214 303.219ZM366.295 300.176C364.422 295.849 369.853 296.945 371.37 297.741C372.347 298.27 373.286 298.868 374.179 299.53C376.006 300.911 377.759 302.386 379.432 303.949C377.616 303.659 375.78 303.519 373.954 303.294C371.763 303.032 367.353 302.564 366.295 300.176Z" fill="#263238"/>
<path d="M293.142 239.291C293.142 239.291 290.333 259.433 302.759 267.036C311.028 272.112 347.089 270.857 348.643 266.343C351.584 257.803 351.331 252.691 351.331 252.691L341.967 295.494L388.038 296.037C388.038 296.037 398.807 259.358 397.177 220.534C396.597 206.741 374.217 198.388 362.099 208.782C350.647 218.605 330.327 241.341 330.327 241.341L293.142 239.291Z" fill="#37474F"/>
<path d="M347.295 270.819C350.235 264.958 350.226 262.56 357.858 244.235C358.869 241.791 359.73 239.291 360.667 236.8C361.603 234.309 362.746 231.678 363.532 229.037C363.532 228.906 363.776 228.981 363.729 229.103C362.839 231.369 362.184 233.738 361.388 236.041C360.592 238.345 359.824 240.545 359.009 242.793C358.654 243.729 358.288 244.722 357.923 245.686C358.064 245.49 358.204 245.302 358.335 245.106C358.953 244.226 359.562 243.336 360.208 242.465C361.51 240.677 363.017 239.01 364.216 237.128C364.281 237.015 364.469 237.128 364.384 237.24C363.073 239.028 362.081 241.051 360.845 242.858C360.236 243.795 359.609 244.619 358.972 245.49C358.412 246.308 357.786 247.078 357.099 247.793C356.032 250.602 353.681 257.485 352.558 260.304C349.018 269.171 350.179 266.287 347.679 271.007C347.604 271.288 347.164 271.072 347.295 270.819Z" fill="#263238"/>
<path d="M366.81 288.012C359.871 287.937 352.951 287.544 346.021 287.413C345.89 287.413 345.872 287.207 346.021 287.207C352.932 287.207 359.833 286.898 366.744 286.982C373.655 287.066 380.603 287.403 387.532 287.637C387.71 287.637 387.738 287.918 387.532 287.918C380.622 287.928 373.72 288.087 366.81 288.012Z" fill="#263238"/>
<path d="M349.814 285.699C350.451 282.637 351.331 282.084 352.146 279.069C352.96 276.054 353.766 273.029 354.599 270.014C356.266 263.974 358.007 257.962 359.749 251.951C360.732 248.533 361.8 245.143 362.839 241.744C362.845 241.727 362.856 241.713 362.87 241.703C362.884 241.693 362.901 241.687 362.919 241.687C362.936 241.687 362.954 241.693 362.968 241.703C362.982 241.713 362.993 241.727 362.999 241.744C359.908 253.873 356.587 265.941 353.035 277.945C352.033 281.354 351.116 282.346 349.926 285.689C349.898 285.792 349.795 285.764 349.814 285.699Z" fill="#263238"/>
<path d="M388.01 296.037C389.04 292.057 389.883 288.049 390.697 284.023C391.512 279.996 392.224 275.96 392.851 271.906C394.143 263.79 395.167 255.656 395.923 247.503C396.325 243.43 396.662 239.337 396.859 235.255C397.092 231.173 397.113 227.081 396.925 222.997C396.845 220.974 396.55 218.965 396.044 217.004C395.909 216.529 395.737 216.066 395.529 215.618C395.323 215.159 395.089 214.682 394.846 214.27C394.352 213.393 393.788 212.557 393.16 211.77C392.513 210.994 391.805 210.271 391.044 209.606C390.26 208.955 389.431 208.36 388.562 207.827C386.793 206.798 384.927 205.945 382.991 205.28C384.981 205.826 386.905 206.585 388.731 207.546C389.639 208.047 390.509 208.614 391.334 209.241C392.153 209.889 392.918 210.603 393.619 211.376C394.3 212.171 394.911 213.023 395.445 213.923C395.717 214.373 395.96 214.86 396.194 215.3C396.435 215.775 396.635 216.27 396.793 216.779C397.364 218.787 397.724 220.849 397.87 222.932C398.16 227.049 398.198 231.18 397.983 235.302C397.814 239.422 397.514 243.523 397.14 247.625C396.288 255.799 395.267 263.974 393.769 272.065C393.029 276.11 392.214 280.146 391.278 284.145C390.791 286.148 390.295 288.143 389.752 290.128C389.209 292.113 388.656 294.089 388.01 296.037Z" fill="#263238"/>
<path d="M291.775 251.951C291.925 252.11 346.349 235.049 346.92 234.393C347.707 233.457 338.699 182.778 332.153 174.416C330.749 172.628 321.656 169.313 317.049 174.416C299.089 194.484 291.251 251.361 291.775 251.951Z" fill="#3E5C76"/>
<path d="M346.368 219.205C346.69 217.759 346.721 216.263 346.459 214.804C346.197 213.346 345.647 211.955 344.842 210.711C345.731 204.943 343.175 202.359 343.175 202.359C340.646 190.626 337.294 178.949 333.071 174.21C330.383 171.186 319.371 169.865 314.979 175.746C308.069 184.998 302.806 198.454 298.705 210.871C298.705 210.871 295.137 215.768 295.549 221.33C294.306 222.477 293.371 223.917 292.829 225.518C292.288 227.12 292.157 228.832 292.45 230.498C292.45 230.498 288.816 237.408 289.856 242.531C290.194 244.052 291.093 245.389 292.375 246.276C292.599 246.276 346.733 232.689 347.201 231.968C347.981 230.974 348.421 229.756 348.456 228.494C348.971 223.971 346.368 219.205 346.368 219.205ZM323.501 191.843C322.19 196.609 316.122 201.263 313.135 201.375C310.148 201.488 308.378 199.428 308.275 195.298C308.172 191.169 312.02 181.458 315.495 179.595C320.692 176.795 324.756 187.105 323.501 191.843Z" fill="#73A2C7"/>
<path d="M348.278 224.786L290.043 237.249C290.304 236.034 290.652 234.838 291.082 233.672L347.407 221.602C347.787 222.637 348.078 223.702 348.278 224.786Z" fill="white"/>
<path d="M346.611 216.283L292.346 227.894C292.434 226.651 292.752 225.435 293.283 224.308L345.946 213.071C346.324 214.103 346.548 215.186 346.611 216.283Z" fill="white"/>
<path d="M345.038 208.202L295.615 218.774C295.776 217.559 296.071 216.366 296.495 215.216L344.532 204.915C344.86 205.98 345.031 207.087 345.038 208.202Z" fill="white"/>
<path d="M313.088 201.394C313.088 204.793 313.088 208.183 313.004 211.582C312.919 214.981 312.816 218.362 312.732 221.761L312.264 231.93C312.086 235.32 311.899 238.71 311.636 242.09C311.636 238.701 311.636 235.301 311.721 231.912L311.992 221.733C312.142 218.343 312.255 214.953 312.432 211.563C312.61 208.174 312.826 204.784 313.088 201.394Z" fill="#263238"/>
<path d="M328.183 181.842C329.597 186.178 330.898 190.551 332.163 194.952C333.427 199.353 334.597 203.735 335.749 208.136C336.901 212.537 337.94 216.995 338.811 221.471C339.274 223.714 339.586 225.985 339.748 228.269C339.748 230.554 339.654 232.829 339.495 235.105C339.495 232.829 339.495 230.545 339.401 228.278C339.172 226.024 338.793 223.787 338.268 221.583C337.332 217.145 336.217 212.715 335.065 208.314C333.914 203.913 332.781 199.503 331.629 195.092L328.183 181.842Z" fill="#263238"/>
<path d="M292.871 229.58C297.263 228.569 301.664 227.613 306.065 226.668L319.287 223.858L332.518 221.143L339.129 219.766C341.339 219.326 343.53 218.83 345.731 218.343C341.405 219.626 337.013 220.647 332.621 221.667C328.23 222.688 323.819 223.606 319.418 224.542C315.017 225.478 310.588 226.331 306.168 227.173C301.748 228.016 297.281 228.85 292.871 229.58Z" fill="#263238"/>
<path d="M295.549 221.34C299.566 220.403 303.583 219.57 307.61 218.718L319.699 216.189L331.788 213.755C335.824 212.931 339.85 212.125 343.868 211.217C339.925 212.444 335.908 213.38 331.928 214.317C327.949 215.253 323.894 216.068 319.868 216.92C315.841 217.772 311.796 218.521 307.741 219.261C303.686 220.001 299.613 220.703 295.549 221.34Z" fill="#263238"/>
<path d="M338.525 199.823L328.115 202.541L328.999 205.929L339.41 203.212L338.525 199.823Z" fill="#263238"/>
<path d="M340.226 206.326L329.816 209.044L330.7 212.433L341.111 209.715L340.226 206.326Z" fill="#263238"/>
<path d="M343.7 223.463L333.289 226.18L334.174 229.569L344.584 226.851L343.7 223.463Z" fill="#263238"/>
<path d="M320.542 159.63C320.542 159.63 309.839 166.41 310.812 168.376C311.786 170.343 324.69 171.186 327.93 169.725C331.17 168.264 338.333 160.866 338.333 160.866L320.542 159.63Z" fill="#3E5C76"/>
<path opacity="0.1" d="M320.542 159.63C320.542 159.63 309.839 166.41 310.812 168.376C311.786 170.343 324.69 171.186 327.93 169.725C331.17 168.264 338.333 160.866 338.333 160.866L320.542 159.63Z" fill="#3E5C76"/>
<path d="M331.676 183.247C328.679 183.63 321.263 179.707 319.624 175.296C319.512 174.997 320.364 172.103 321.244 168.545C321.768 166.382 322.302 163.966 322.621 161.718C322.686 161.26 336.199 167.178 336.199 167.178C334.986 169.869 334.109 172.7 333.586 175.605C333.563 175.917 333.563 176.23 333.586 176.542C333.591 176.592 333.591 176.642 333.586 176.692C333.586 178.471 334.888 182.834 331.676 183.247Z" fill="#D3766A"/>
<path d="M333.558 176.533C333.558 176.533 333.558 176.626 333.558 176.682C333.071 176.677 332.586 176.633 332.106 176.551C323.857 175.165 323.173 164.481 323.126 161.793C325.58 162.514 336.236 167.178 336.236 167.178C335.024 169.87 334.146 172.7 333.623 175.605C333.574 175.912 333.552 176.222 333.558 176.533Z" fill="#263238"/>
<path d="M321.235 147.12C319.718 152.167 322.461 166.709 326.057 169.94C331.282 174.622 339.794 175.034 343.765 168.76C347.604 162.683 343.709 143.786 339.682 140.855C333.801 136.538 323.501 139.657 321.235 147.12Z" fill="#D3766A"/>
<path d="M335.777 155.913C335.777 155.913 335.712 155.969 335.721 156.016C335.927 156.952 336.002 158.141 335.178 158.628C335.178 158.628 335.178 158.694 335.178 158.684C336.255 158.329 336.133 156.802 335.777 155.913Z" fill="#263238"/>
<path d="M334.738 155.051C333.146 155.22 333.595 158.404 335.075 158.244C336.554 158.085 336.058 154.901 334.738 155.051Z" fill="#263238"/>
<path d="M341.227 155.107C341.227 155.107 341.302 155.107 341.311 155.182C341.424 156.175 341.714 157.289 342.65 157.486V157.542C341.545 157.551 341.171 156.063 341.227 155.107Z" fill="#263238"/>
<path d="M341.957 153.946C343.531 153.6 344.102 156.755 342.65 157.093C341.199 157.43 340.637 154.236 341.957 153.946Z" fill="#263238"/>
<path d="M333.249 153.768C333.651 153.59 334.042 153.386 334.419 153.16C334.861 153 335.239 152.701 335.496 152.307C335.552 152.169 335.561 152.015 335.52 151.871C335.479 151.727 335.392 151.6 335.271 151.512C335.006 151.368 334.707 151.299 334.406 151.31C334.104 151.322 333.811 151.414 333.558 151.577C332.996 151.827 332.549 152.278 332.303 152.841C332.252 152.973 332.241 153.116 332.271 153.254C332.301 153.391 332.37 153.517 332.471 153.616C332.571 153.714 332.699 153.781 332.837 153.809C332.975 153.836 333.118 153.822 333.249 153.768Z" fill="#263238"/>
<path d="M342.959 152.167C342.52 152.141 342.082 152.091 341.648 152.017C341.181 152.019 340.726 151.864 340.356 151.577C340.252 151.469 340.188 151.329 340.173 151.18C340.157 151.03 340.192 150.88 340.272 150.753C340.467 150.524 340.721 150.352 341.006 150.255C341.291 150.157 341.597 150.139 341.892 150.201C342.51 150.225 343.095 150.483 343.531 150.922C343.636 151.027 343.707 151.162 343.734 151.309C343.76 151.456 343.741 151.608 343.679 151.743C343.616 151.879 343.514 151.992 343.385 152.068C343.257 152.144 343.108 152.178 342.959 152.167Z" fill="#263238"/>
<path d="M336.498 161.953C336.805 162.306 337.181 162.592 337.603 162.794C338.025 162.995 338.484 163.107 338.951 163.123C339.361 163.147 339.771 163.109 340.169 163.011L340.403 162.945L340.609 162.88C340.66 162.863 340.704 162.831 340.734 162.787C340.765 162.742 340.78 162.69 340.778 162.636C340.782 162.602 340.782 162.567 340.778 162.533V162.44C340.684 161.681 340.45 160.567 340.45 160.567C340.74 160.66 342.248 161.101 342.173 160.698C341.605 157.259 340.682 153.889 339.42 150.641C339.416 150.63 339.41 150.62 339.403 150.611C339.395 150.602 339.386 150.595 339.375 150.589C339.365 150.584 339.353 150.581 339.342 150.58C339.33 150.579 339.318 150.581 339.307 150.585C339.296 150.588 339.286 150.594 339.277 150.602C339.268 150.609 339.261 150.619 339.256 150.629C339.251 150.64 339.248 150.651 339.247 150.663C339.246 150.674 339.247 150.686 339.251 150.697C339.766 153.853 340.834 156.896 341.405 160.061C340.868 159.896 340.309 159.811 339.747 159.808C339.644 159.808 340.244 162.009 340.262 162.355C339.653 162.523 339.015 162.568 338.388 162.486C337.761 162.404 337.157 162.197 336.61 161.878C336.498 161.803 336.423 161.878 336.498 161.953Z" fill="#263238"/>
<path d="M339.663 162.683C339.326 163.286 338.839 163.793 338.249 164.153C337.921 164.334 337.546 164.413 337.172 164.378C336.348 164.284 336.236 163.563 336.236 162.917C336.27 162.579 336.342 162.246 336.451 161.925C337.412 162.516 338.539 162.782 339.663 162.683Z" fill="#263238"/>
<path d="M338.249 164.153C337.921 164.334 337.546 164.413 337.172 164.378C336.348 164.284 336.236 163.563 336.236 162.917C336.662 162.861 337.095 162.953 337.462 163.178C337.829 163.403 338.107 163.747 338.249 164.153Z" fill="#FF9BBC"/>
<path d="M321.16 160.145C323.903 159.265 324.99 149.901 324.99 149.901C324.99 149.901 325.102 153.853 325.842 153.731C326.582 153.609 329.419 148.112 329.587 144.283C331.824 145.649 334.229 146.719 336.742 147.466C340.291 148.403 343.643 149.058 343.615 148.468C343.559 146.689 341.742 141.736 339.214 140.172C336.404 138.374 332.771 136.744 327.106 139.142C321.441 141.539 320.242 144.535 319.493 147.429C318.744 150.322 320.148 160.473 321.16 160.145Z" fill="#263238"/>
<path d="M338.071 138.786C333.202 136.126 322.452 136.969 319.971 145.462C319 149.132 318.872 152.973 319.596 156.699C319.596 156.699 326.151 150.781 328.726 149.667C335.187 146.858 343.774 147.794 343.774 147.794C343.774 147.794 342.444 141.174 338.071 138.786ZM329.812 147.401C329.812 145.94 330.355 143.796 333.558 143.234C334.522 143.018 335.533 143.192 336.37 143.718C337.206 144.245 337.801 145.08 338.024 146.043C335.231 146.039 332.456 146.498 329.812 147.401Z" fill="#73A2C7"/>
<path d="M324.98 159.134C324.98 159.134 321.572 154.508 319.465 155.735C317.358 156.962 319.999 163.722 322.536 164.593C322.853 164.727 323.194 164.796 323.538 164.794C323.883 164.793 324.223 164.722 324.539 164.585C324.855 164.449 325.14 164.25 325.377 164C325.613 163.75 325.797 163.455 325.917 163.132L324.98 159.134Z" fill="#D3766A"/>
<path d="M320.27 157.655V157.72C322.04 158.385 323.014 159.996 323.697 161.672C323.591 161.499 323.448 161.351 323.278 161.238C323.109 161.125 322.918 161.05 322.717 161.018C322.516 160.986 322.31 160.998 322.114 161.052C321.918 161.107 321.737 161.203 321.581 161.335C321.572 161.343 321.566 161.355 321.565 161.368C321.563 161.38 321.566 161.393 321.572 161.404C321.579 161.414 321.589 161.423 321.601 161.427C321.612 161.432 321.625 161.432 321.637 161.428C321.945 161.324 322.276 161.316 322.588 161.407C322.899 161.497 323.176 161.681 323.379 161.934C323.711 162.363 323.999 162.825 324.241 163.31C324.325 163.47 324.606 163.376 324.54 163.198C324.503 160.941 322.686 157.814 320.27 157.655Z" fill="#263238"/>
<path d="M353.147 249.376L350.123 245.798C352.726 243.598 414.154 191.777 449.185 176.982C467.52 169.228 491.52 164.172 508.423 161.288C526.692 158.179 540.86 156.858 541 156.849V158.516C540.448 158.572 485.359 166.775 451.002 181.289C416.645 195.804 353.784 248.842 353.147 249.376Z" fill="#FFC727"/>
<path opacity="0.4" d="M353.147 249.376L350.123 245.798C352.726 243.598 414.154 191.777 449.185 176.982C467.52 169.228 491.52 164.172 508.423 161.288C526.692 158.179 540.86 156.858 541 156.849V158.516C540.448 158.572 485.359 166.775 451.002 181.289C416.645 195.804 353.784 248.842 353.147 249.376Z" fill="black"/>
<path d="M540.616 158.539L539.083 353.765L540.019 353.772L541.552 158.547L540.616 158.539Z" fill="#263238"/>
<path d="M541.384 363.514C540.781 363.514 540.202 363.275 539.775 362.848C539.348 362.421 539.109 361.842 539.109 361.239V353.364H540.045V361.239C540.045 361.594 540.186 361.935 540.437 362.186C540.688 362.437 541.029 362.578 541.384 362.578C541.739 362.578 542.08 362.437 542.331 362.186C542.582 361.935 542.723 361.594 542.723 361.239V358.224H543.66V361.239C543.66 361.842 543.42 362.421 542.993 362.848C542.566 363.275 541.988 363.514 541.384 363.514Z" fill="#DBDBDB"/>
<path d="M314.399 191.431C317.957 207.612 333.127 237.268 342.163 239.937C349.421 242.091 376.604 232.717 383.365 228.756C386.362 226.996 380.556 203.333 377.026 204.41C365.236 208.024 350.657 214.635 349.158 214.317C345.759 213.483 333.586 196.16 325.43 186.056C315.185 173.302 312.807 184.164 314.399 191.431Z" fill="#D3766A"/>
<path d="M415.325 209.569C415.403 210.353 415.239 211.142 414.856 211.83C414.473 212.518 413.888 213.072 413.181 213.418C414.038 214.445 414.505 215.741 414.501 217.079C414.389 219.429 410.643 220.291 410.643 220.291C411.309 221.542 411.58 222.965 411.42 224.374C411.083 226.621 407.431 228.026 407.431 228.026C407.403 229.511 406.841 230.937 405.849 232.043C403.039 234.899 397.14 233.616 393.366 232.848C389.592 232.08 379.573 226.293 377.56 225.432L375.181 205.177C375.181 205.177 393.619 197.686 398.029 198.903C401.794 199.971 414.922 206.582 415.325 209.569Z" fill="#D3766A"/>
<path d="M413.087 212.987C409.557 210.683 405.53 209.541 401.569 208.183C401.552 208.183 401.535 208.19 401.523 208.202C401.51 208.215 401.504 208.231 401.504 208.249C401.504 208.266 401.51 208.283 401.523 208.295C401.535 208.307 401.552 208.314 401.569 208.314C405.511 209.625 409.154 211.704 413.04 213.174C413.106 213.212 413.181 213.052 413.087 212.987Z" fill="#263238"/>
<path d="M410.587 219.935C409.732 219.507 408.826 219.192 407.89 218.999C406.907 218.708 405.923 218.446 404.931 218.193C402.952 217.688 400.96 217.232 398.956 216.826C398.942 216.831 398.93 216.841 398.921 216.854C398.912 216.866 398.908 216.881 398.908 216.896C398.908 216.912 398.912 216.927 398.921 216.939C398.93 216.952 398.942 216.961 398.956 216.967C400.923 217.472 402.889 218.006 404.837 218.596C405.774 218.886 406.785 219.195 407.759 219.532C408.664 219.883 409.607 220.132 410.568 220.272C410.613 220.275 410.657 220.259 410.69 220.229C410.723 220.2 410.743 220.158 410.746 220.113C410.748 220.068 410.733 220.024 410.703 219.991C410.673 219.958 410.631 219.938 410.587 219.935Z" fill="#263238"/>
<path d="M407.347 227.997C406.568 227.608 405.729 227.351 404.865 227.239L402.15 226.593C400.342 226.143 398.535 225.703 396.747 225.198C396.653 225.198 396.606 225.31 396.7 225.338C398.516 225.862 400.324 226.405 402.15 226.911C403.039 227.164 403.938 227.407 404.837 227.642C405.634 227.939 406.478 228.091 407.328 228.091C407.337 228.088 407.345 228.082 407.351 228.075C407.357 228.068 407.362 228.059 407.363 228.049C407.365 228.04 407.365 228.03 407.362 228.021C407.359 228.012 407.354 228.004 407.347 227.997Z" fill="#263238"/>
<path d="M342.501 205.655L324.437 219.616C324.437 219.616 314.137 198.903 313.275 188.097C312.414 177.291 318.575 177.534 324.812 184.604C329.194 189.614 342.501 205.655 342.501 205.655Z" fill="#73A2C7"/>
<path d="M324.55 215.253C326.61 213.286 328.941 211.554 331.17 209.794C333.399 208.033 335.852 206.329 338.184 204.559C338.249 204.559 338.343 204.625 338.277 204.671C336.067 206.497 333.951 208.417 331.722 210.168C329.453 212.003 327.09 213.719 324.643 215.309C324.643 215.309 324.521 215.253 324.55 215.253Z" fill="#263238"/>
<path d="M313.893 192.039C314.455 193.397 314.876 194.792 315.298 196.188C315.719 197.583 316.066 198.997 316.422 200.42C316.074 199.773 315.776 199.1 315.532 198.407C315.27 197.723 315.054 197.021 314.848 196.319C314.432 194.916 314.113 193.486 313.893 192.039Z" fill="#263238"/>
<path d="M313.875 195.073C314.212 195.588 314.493 196.085 314.811 196.572L315.242 197.321C315.401 197.572 315.548 197.832 315.682 198.098C315.15 197.792 314.71 197.349 314.408 196.815C314.078 196.292 313.894 195.691 313.875 195.073Z" fill="#263238"/>
<path d="M150.087 326.545C152.26 327.285 214.512 327.481 216.891 326.011C217.827 325.449 218.361 316.385 218.764 305.41C218.839 303.041 218.913 300.597 218.96 298.106L219.56 264.883L177.936 264.62L178.479 297.825L178.639 305.139C178.639 305.139 154.77 315.711 152.335 317.63C149.9 319.55 147.915 325.815 150.087 326.545Z" fill="#AD6359"/>
<path d="M150.087 326.545C152.26 327.285 214.512 327.482 216.891 326.011C217.996 325.318 218.595 312.078 218.923 298.106L178.432 297.844L178.592 305.158C178.592 305.158 154.723 315.73 152.288 317.649C149.853 319.569 147.915 325.815 150.087 326.545Z" fill="white"/>
<path d="M150.087 326.545C152.26 327.285 214.512 327.481 216.891 326.011C217.827 325.449 218.361 316.385 218.764 305.41L178.592 305.148C178.592 305.148 154.723 315.72 152.288 317.64C149.853 319.559 147.915 325.814 150.087 326.545Z" fill="#FFC727"/>
<path d="M150.996 324.054C161.427 323.839 203.538 323.942 213.875 324.513C213.96 324.513 213.96 324.579 213.875 324.579C203.575 325.019 161.437 324.579 150.986 324.232C150.771 324.223 150.771 324.064 150.996 324.054Z" fill="#263238"/>
<path d="M174.537 306.178C178.713 306.131 183.555 307.62 186.139 311.047C186.233 311.178 186.046 311.319 185.924 311.253C182.277 309.328 178.435 307.799 174.462 306.693C174.4 306.676 174.347 306.637 174.312 306.584C174.277 306.53 174.263 306.466 174.272 306.402C174.281 306.339 174.313 306.281 174.362 306.24C174.411 306.199 174.473 306.177 174.537 306.178Z" fill="#263238"/>
<path d="M171.306 307.424C175.483 307.377 180.324 308.866 182.909 312.293C183.012 312.424 182.815 312.565 182.693 312.508C179.051 310.583 175.211 309.057 171.241 307.957C171.17 307.949 171.106 307.912 171.062 307.856C171.018 307.8 170.998 307.729 171.007 307.658C171.015 307.587 171.052 307.523 171.108 307.479C171.164 307.435 171.236 307.415 171.306 307.424Z" fill="#263238"/>
<path d="M168.057 308.669C172.233 308.622 177.065 310.12 179.65 313.538C179.753 313.669 179.556 313.81 179.434 313.754C175.817 311.827 172.003 310.295 168.057 309.184C167.997 309.173 167.943 309.141 167.904 309.094C167.865 309.047 167.844 308.988 167.844 308.927C167.844 308.866 167.865 308.806 167.904 308.759C167.943 308.712 167.997 308.681 168.057 308.669Z" fill="#263238"/>
<path d="M279.733 124.421C279.733 124.421 225.122 206.638 223.83 212.444C221.835 221.312 221.273 304.268 221.273 304.268L175.708 303.331C175.708 303.331 175.97 230.741 184.135 205.299C190.053 186.973 232.697 126.191 232.697 126.191L279.733 124.421Z" fill="#455A64"/>
<path d="M177.065 295.494C184.285 295.438 209.84 295.157 219.485 296.046C219.499 296.052 219.511 296.061 219.52 296.074C219.529 296.086 219.533 296.101 219.533 296.117C219.533 296.132 219.529 296.147 219.52 296.159C219.511 296.172 219.499 296.181 219.485 296.187C216.179 296.664 184.276 295.925 177.065 295.69C177.05 295.695 177.034 295.696 177.018 295.694C177.002 295.691 176.987 295.685 176.974 295.675C176.961 295.666 176.95 295.653 176.943 295.639C176.935 295.624 176.932 295.608 176.932 295.592C176.932 295.576 176.935 295.56 176.943 295.546C176.95 295.531 176.961 295.519 176.974 295.509C176.987 295.5 177.002 295.493 177.018 295.491C177.034 295.488 177.05 295.489 177.065 295.494Z" fill="#263238"/>
<path d="M227.051 327.716C229.345 327.865 291.11 311.581 293.03 309.54C293.118 309.416 293.17 309.27 293.18 309.118C293.423 307.096 290.258 299.511 288.048 289.8C287.908 289.182 286.747 286.233 285.117 282.253C280.641 271.325 272.645 252.55 272.645 252.55L232.313 262.897L247.165 292.741L249.178 299.764C249.178 299.764 228.783 316.076 226.92 318.548C225.056 321.02 224.738 327.556 227.051 327.716Z" fill="#AD6359"/>
<path d="M227.051 327.716C229.345 327.865 291.11 311.581 293.03 309.54C293.118 309.416 293.17 309.27 293.18 309.118C293.423 307.096 290.258 299.511 288.048 289.8C287.908 289.182 286.747 286.233 285.117 282.253L247.165 292.741L249.178 299.764C249.178 299.764 228.783 316.076 226.92 318.548C225.056 321.02 224.738 327.556 227.051 327.716Z" fill="white"/>
<path d="M227.051 327.716C229.336 327.875 291.101 311.581 293.021 309.531C293.751 308.763 292.159 300.41 288.048 289.801L249.169 299.773C249.169 299.773 228.774 316.076 226.91 318.548C225.047 321.02 224.738 327.557 227.051 327.716Z" fill="#FFC727"/>
<path d="M227.257 325.075C237.295 322.209 278.048 311.581 288.189 309.512C288.273 309.512 288.282 309.512 288.189 309.577C278.3 312.639 237.464 322.93 227.322 325.243C227.051 325.29 227.051 325.14 227.257 325.075Z" fill="#263238"/>
<path d="M245.479 301.786C249.506 300.681 254.562 300.85 257.934 303.547C258.065 303.65 257.934 303.837 257.784 303.809C253.768 302.885 249.665 302.392 245.545 302.339C245.472 302.348 245.398 302.327 245.34 302.281C245.282 302.236 245.245 302.169 245.236 302.095C245.227 302.022 245.248 301.948 245.294 301.891C245.339 301.833 245.406 301.795 245.479 301.786Z" fill="#263238"/>
<path d="M242.68 303.818C246.706 302.713 251.763 302.882 255.134 305.579C255.265 305.682 255.134 305.86 254.975 305.832C250.96 304.897 246.857 304.395 242.736 304.333C242.673 304.331 242.614 304.305 242.568 304.263C242.523 304.22 242.494 304.162 242.487 304.1C242.48 304.038 242.496 303.975 242.531 303.924C242.567 303.872 242.619 303.835 242.68 303.818Z" fill="#263238"/>
<path d="M239.87 305.841C243.897 304.736 248.953 304.951 252.324 307.601C252.455 307.704 252.324 307.892 252.175 307.864C248.157 306.927 244.051 306.421 239.926 306.356C239.864 306.353 239.805 306.328 239.759 306.285C239.713 306.242 239.685 306.185 239.678 306.123C239.671 306.06 239.687 305.998 239.722 305.946C239.757 305.895 239.81 305.857 239.87 305.841Z" fill="#263238"/>
<path d="M246.36 299.857L291.541 288.002C291.541 288.002 256.286 212.556 256.632 206.675C256.941 201.469 288.32 155.791 290.052 147.232C292.862 133.242 286.073 120.732 279.471 112.988L232.735 126.163C232.735 126.163 236.48 134.244 243.298 139.348C243.298 139.348 213.932 188.387 213.173 204.522C212.415 220.656 246.36 299.857 246.36 299.857Z" fill="#455A64"/>
<path d="M245.629 291.729C252.184 289.856 250.311 290.297 256.866 288.499C260.087 287.562 281.213 281.831 284.378 281.532C284.443 281.532 284.471 281.644 284.378 281.672C281.494 282.964 260.246 288.377 257.016 289.163C250.405 290.84 252.334 290.287 245.657 291.898C245.642 291.891 245.628 291.88 245.618 291.867C245.608 291.853 245.601 291.838 245.598 291.821C245.596 291.804 245.597 291.787 245.602 291.771C245.608 291.755 245.617 291.741 245.629 291.729Z" fill="#263238"/>
<path d="M236.125 137.465C240.602 139.128 244.928 141.17 249.056 143.571C249.074 143.578 249.09 143.589 249.103 143.603C249.116 143.617 249.126 143.633 249.133 143.651C249.14 143.668 249.143 143.687 249.142 143.706C249.141 143.725 249.136 143.744 249.128 143.761C249.12 143.778 249.108 143.793 249.094 143.806C249.079 143.818 249.063 143.828 249.045 143.834C249.027 143.84 249.008 143.842 248.989 143.84C248.97 143.838 248.951 143.833 248.935 143.824C244.571 141.951 240.123 140.078 235.872 137.971C235.839 137.954 235.809 137.931 235.785 137.903C235.76 137.875 235.742 137.843 235.73 137.808C235.718 137.772 235.714 137.735 235.716 137.698C235.719 137.661 235.729 137.625 235.745 137.592C235.762 137.559 235.785 137.529 235.813 137.505C235.841 137.48 235.874 137.462 235.909 137.45C235.944 137.438 235.981 137.434 236.018 137.436C236.055 137.439 236.091 137.449 236.125 137.465Z" fill="#263238"/>
<path d="M241.612 136.314C241.944 137.134 242.223 137.976 242.445 138.833C242.687 139.495 242.799 140.198 242.773 140.902C242.773 141.033 242.576 141.043 242.501 140.949C242.107 140.328 241.814 139.648 241.631 138.936C241.34 138.149 241.041 137.381 240.778 136.595C240.747 136.486 240.758 136.368 240.811 136.268C240.863 136.167 240.953 136.091 241.06 136.054C241.168 136.018 241.286 136.025 241.388 136.073C241.491 136.121 241.571 136.208 241.612 136.314Z" fill="#263238"/>
<path d="M241.603 132.081C241.425 131.36 241.237 130.648 241.031 129.937C240.825 129.225 240.572 128.467 240.423 127.717C240.423 127.596 240.207 127.652 240.235 127.717C240.423 128.439 240.507 129.188 240.638 129.918C240.769 130.648 240.9 131.388 241.05 132.119C241.324 133.484 241.668 134.834 242.08 136.164C241.348 136.111 240.637 135.894 240.001 135.527C239.377 135.013 238.932 134.315 238.728 133.533C238.437 132.718 238.175 131.894 237.866 131.079C237.474 130.2 237.161 129.288 236.93 128.354C236.93 128.233 236.724 128.289 236.752 128.41C237.109 130.384 237.664 132.317 238.409 134.179C238.594 134.939 239.05 135.605 239.692 136.052C240.487 136.383 241.341 136.548 242.202 136.538C242.295 136.585 242.436 136.538 242.417 136.407C242.221 134.952 241.949 133.508 241.603 132.081Z" fill="#263238"/>
<path d="M242.389 140.958C240.61 144.161 238.578 147.241 236.677 150.378C234.776 153.515 233.053 156.568 231.321 159.742C227.825 166.079 224.597 172.562 221.638 179.192C220.165 182.463 218.782 185.768 217.49 189.108C216.115 192.431 214.982 195.848 214.1 199.334C213.265 202.82 213.109 206.435 213.641 209.981C214.292 213.59 215.212 217.146 216.394 220.618C218.821 228.606 221.768 236.426 225.215 244.029C225.337 244.281 225.749 244.085 225.665 243.823C223.193 236.865 220.636 229.926 218.417 222.875C216.263 216.039 213.735 208.951 214.906 201.684C215.562 198.197 216.556 194.782 217.874 191.487C219.122 188.109 220.474 184.76 221.929 181.439C224.738 174.884 227.95 168.563 231.208 162.233C233.025 158.694 234.954 155.192 236.827 151.661C238.7 148.131 240.498 144.46 242.586 141.033C242.591 141.02 242.593 141.006 242.593 140.993C242.592 140.979 242.589 140.965 242.583 140.953C242.578 140.94 242.57 140.929 242.56 140.919C242.55 140.91 242.538 140.902 242.525 140.897C242.512 140.892 242.498 140.89 242.484 140.89C242.471 140.891 242.457 140.894 242.444 140.9C242.432 140.905 242.42 140.913 242.411 140.923C242.401 140.933 242.394 140.945 242.389 140.958Z" fill="#263238"/>
<path d="M276.418 134.094C275.575 133.954 274.33 134.244 270.669 133.991C269.655 133.908 268.65 133.746 267.663 133.505C266.651 133.351 265.689 132.963 264.854 132.371C263.531 131.12 262.452 129.634 261.67 127.989C260.699 126.279 259.953 124.45 259.451 122.549C259.451 122.436 259.263 122.492 259.282 122.605C259.479 123.672 259.582 124.749 259.863 125.807C260.146 126.801 260.506 127.772 260.939 128.71C261.606 130.57 262.73 132.231 264.207 133.542C265.856 134.787 268.168 135.022 270.163 135.162C271.324 135.237 275.866 135.115 276.474 134.469C276.587 134.375 276.577 134.123 276.418 134.094Z" fill="#263238"/>
<path d="M282.364 280.287C277.458 267.458 260.921 229.393 255.724 217.547C254.488 214.738 252.999 211.845 252.353 208.792C251.65 205.477 252.671 202.49 254.076 199.512C256.683 194.073 259.597 188.787 262.803 183.677C265.977 178.537 269.358 173.508 272.645 168.451C275.931 163.395 279.387 158.432 282.074 153.066C284.649 147.935 286.082 142.466 285.342 136.707C284.602 130.948 282.14 125.648 279.49 120.601C278.787 119.271 278.076 117.951 277.364 116.621C277.317 116.528 277.158 116.621 277.214 116.715C280.173 122.006 283.011 127.559 284.378 133.486C285.091 136.416 285.312 139.445 285.033 142.447C284.665 145.484 283.808 148.44 282.496 151.203C280.042 156.606 276.615 161.578 273.384 166.522C270.154 171.467 266.708 176.608 263.496 181.73C260.217 186.857 257.214 192.156 254.497 197.602C253.308 200.027 251.997 202.565 251.688 205.299C251.369 208.296 252.446 211.161 253.607 213.867C258.626 225.647 281.362 279.004 282.074 280.455C282.187 280.633 282.43 280.474 282.364 280.287Z" fill="#263238"/>
<path d="M232.454 70.2034C229.251 78.322 213.22 108.437 201.833 110.319C188.04 112.604 177.14 109.813 169.93 109.383C168.123 109.289 170.173 85.1859 174.462 85.8882C181.139 86.9838 196.14 89.0439 197.573 88.8379C200.073 88.5008 213.904 73.5557 223.24 65.6899C231.649 58.6388 234.355 65.4277 232.454 70.2034Z" fill="#AD6359"/>
<path d="M156.633 107.781C161.315 109.804 172.674 110.16 175.427 109.195C178.18 108.231 179.434 89.0346 177.187 87.0494C174.94 85.0642 158.459 79.4739 153.402 80.8879C148.346 82.3018 151.726 105.693 156.633 107.781Z" fill="#AD6359"/>
<path d="M79.1135 0.590086L36.5093 355.771L37.439 355.882L80.0432 0.701609L79.1135 0.590086Z" fill="#263238"/>
<path d="M189.117 157.43C188.855 156.69 162.532 82.8074 137.015 42.4389C111.732 2.51046 78.9579 1.33995 78.6676 1.36804L78.5646 0.0570699C80.0066 -0.0646631 114.232 -2.35886 140.976 39.9387C166.774 80.7473 193.265 155.117 193.527 155.866L189.117 157.43Z" fill="#FFC727"/>
<path opacity="0.4" d="M189.117 157.43C188.855 156.69 162.532 82.8074 137.015 42.4389C111.732 2.51046 78.9579 1.33995 78.6676 1.36804L78.5646 0.0570699C80.0066 -0.0646631 114.232 -2.35886 140.976 39.9387C166.774 80.7473 193.265 155.117 193.527 155.866L189.117 157.43Z" fill="black"/>
<path d="M161.624 80.2886C163.216 82.4985 159.695 83.0978 159.695 83.0978C159.695 83.0978 164.976 83.4443 165.735 86.3658C166.493 89.2874 162.167 89.765 161.867 89.8118C162.148 89.8118 166.99 90.28 167.486 93.2953C167.982 96.3105 163.562 96.273 163.272 96.2637C163.534 96.3667 166.915 97.7807 166.746 100.15C166.446 104.214 157.7 100.843 154.732 102.304C154.732 102.304 156.605 107.604 156.67 107.772C156.67 107.772 148.243 104.729 146.529 100.627C146.259 100.032 146.205 99.3619 146.376 98.7312C146.546 98.1005 146.932 97.5491 147.465 97.172C147.465 97.172 144.656 96.4884 144.216 94.1287C144.001 92.9207 145.742 91.488 145.742 91.488C145.108 91.2966 144.539 90.9325 144.099 90.4364C143.659 89.9404 143.366 89.3319 143.252 88.6788C143.046 86.9839 144.825 85.8134 144.825 85.8134C144.825 85.8134 142.952 84.2027 143.317 82.4048C143.945 78.8278 158.215 75.541 161.624 80.2886Z" fill="#AD6359"/>
<path d="M145.583 91.488C145.573 91.4836 145.565 91.4764 145.559 91.4673C145.553 91.4581 145.55 91.4474 145.55 91.4365C145.55 91.4255 145.553 91.4148 145.559 91.4057C145.565 91.3965 145.573 91.3893 145.583 91.385C150.672 88.8649 156.496 88.2503 161.999 89.6526C162.186 89.7088 162.308 89.9523 162.083 89.9055C158.29 89.1282 150.106 90.0365 145.583 91.488Z" fill="#263238"/>
<path d="M163.59 96.5165C158.197 95.1962 152.925 95.7393 147.587 97.0784C147.512 97.0784 147.494 96.9941 147.587 96.966C150.022 95.5988 153.515 95.0932 156.258 94.9434C158.809 94.7501 161.366 95.2279 163.675 96.3292C163.722 96.3761 163.703 96.5446 163.59 96.5165Z" fill="#263238"/>
<path d="M159.695 83.1071C160.699 83.2691 161.687 83.523 162.645 83.8656C163.59 84.1533 164.441 84.6902 165.107 85.42C165.396 85.773 165.546 86.2192 165.529 86.6748C165.5 87.1314 165.355 87.573 165.107 87.9576C164.832 88.3235 164.481 88.6264 164.079 88.846C163.677 89.0656 163.233 89.1969 162.776 89.2312L160.556 89.5027L162.738 90.0271C163.708 90.2463 164.634 90.6227 165.482 91.1414C165.888 91.3595 166.244 91.6606 166.526 92.0252C166.809 92.3898 167.011 92.8098 167.121 93.2577C167.216 93.6762 167.165 94.1147 166.976 94.5C166.787 94.8852 166.471 95.1938 166.081 95.374C165.2 95.7655 164.232 95.9236 163.272 95.8328L160.622 95.6737L163.066 96.685C163.734 96.9666 164.363 97.3316 164.939 97.7712C165.51 98.17 165.952 98.7264 166.212 99.3725C166.313 99.6693 166.33 99.9885 166.261 100.294C166.191 100.6 166.038 100.881 165.819 101.105C165.254 101.533 164.578 101.79 163.871 101.845C162.343 101.995 160.806 102.023 159.274 101.929C158.506 101.929 157.719 101.929 156.942 101.929C156.157 101.904 155.375 102.045 154.648 102.341C155.392 102.126 156.172 102.059 156.942 102.144C157.71 102.144 158.478 102.266 159.255 102.35C160.807 102.553 162.375 102.606 163.937 102.509C164.786 102.476 165.607 102.192 166.297 101.695C166.643 101.382 166.891 100.976 167.01 100.526C167.13 100.075 167.116 99.5999 166.971 99.1571C166.671 98.3452 166.141 97.6388 165.444 97.1251C164.812 96.617 164.116 96.1921 163.375 95.8609L163.169 96.7131C164.296 96.8379 165.436 96.6635 166.475 96.2074C167.047 95.9389 167.508 95.4784 167.776 94.9058C168.021 94.34 168.09 93.7133 167.973 93.1079C167.837 92.5392 167.583 92.0056 167.226 91.5424C166.869 91.0792 166.419 90.6968 165.903 90.4204C164.961 89.8612 163.933 89.4625 162.86 89.2405V90.0271C163.426 89.9633 163.971 89.7759 164.456 89.4782C164.942 89.1804 165.356 88.7796 165.669 88.3041C165.952 87.8108 166.104 87.2529 166.109 86.6841C166.106 86.1045 165.893 85.5457 165.51 85.111C164.746 84.3633 163.79 83.8415 162.748 83.6034C161.752 83.3254 160.728 83.1589 159.695 83.1071Z" fill="#263238"/>
<path d="M174.546 85.6072C174.546 85.6072 159.461 69.7913 156.174 78.7153C155.191 81.3653 154.348 93.4262 156.764 93.6416C159.882 93.9225 161.175 88.9596 161.493 85.7102C161.493 85.7102 165.866 91.8156 171.026 90.0364C171.963 89.693 172.787 89.0979 173.408 88.3165C174.029 87.5352 174.423 86.5978 174.546 85.6072Z" fill="#AD6359"/>
<path d="M156.492 77.9944C155.983 78.9878 155.623 80.0513 155.425 81.1501C155.201 82.2441 155.048 83.3513 154.966 84.465C154.769 86.6924 154.769 88.9328 154.966 91.1603C155.016 91.7551 155.155 92.339 155.378 92.8926C155.504 93.2124 155.699 93.5002 155.949 93.7354C156.089 93.8613 156.247 93.9655 156.417 94.0444C156.587 94.1177 156.767 94.162 156.951 94.1755C157.62 94.2239 158.285 94.0312 158.824 93.6324C159.314 93.2644 159.732 92.8107 160.06 92.2933C160.666 91.3063 161.1 90.2233 161.343 89.0908C161.606 87.9921 161.781 86.8743 161.867 85.7478L161.165 85.9351C161.69 86.6147 162.28 87.2419 162.926 87.8079C163.554 88.3793 164.241 88.8816 164.976 89.3062C165.714 89.7366 166.513 90.0523 167.345 90.2426C168.165 90.4371 169.014 90.469 169.846 90.3362C169.021 90.354 168.198 90.2369 167.411 89.9898C166.642 89.7281 165.912 89.366 165.238 88.9129C164.561 88.4655 163.934 87.9476 163.366 87.3678C162.791 86.7931 162.27 86.1661 161.811 85.495L161.259 84.671L161.109 85.6729C160.977 86.7489 160.777 87.8154 160.51 88.8661C160.264 89.8948 159.856 90.8779 159.302 91.7783C159.085 92.1966 158.764 92.5523 158.371 92.8113C157.978 93.0704 157.524 93.2241 157.054 93.2578C156.305 93.2578 155.987 92.0686 155.846 91.0479C155.705 89.9668 155.621 88.8791 155.593 87.7892C155.593 86.6842 155.519 85.5887 155.547 84.4931C155.523 82.2909 155.842 80.0984 156.492 77.9944Z" fill="#263238"/>
<path d="M177.281 84.5772L169.377 111.312C169.377 111.312 194.342 115.057 204.025 110.74C213.707 106.424 225.609 86.2346 231.124 74.5108C236.64 62.787 233.755 55.3051 218.586 68.8924C203.416 82.4796 198.827 87.8172 197.722 88.1075C196.618 88.3977 177.281 84.5772 177.281 84.5772Z" fill="#C7C7C7"/>
<path d="M174.977 110.965C175.352 108.868 176.016 106.798 176.588 104.747C177.159 102.697 177.73 100.702 178.329 98.6889C179.519 94.6155 180.624 90.4859 182.075 86.5156C182.075 86.4957 182.083 86.4767 182.097 86.4626C182.111 86.4486 182.13 86.4407 182.15 86.4407C182.17 86.4407 182.189 86.4486 182.203 86.4626C182.217 86.4767 182.225 86.4957 182.225 86.5156C181.429 90.7201 180.193 94.859 179.013 98.9604C178.423 101.021 177.805 103.081 177.14 105.122C176.567 107.117 175.889 109.08 175.108 111.003C175.089 111.115 174.968 111.059 174.977 110.965Z" fill="#263238"/>
<path d="M227.987 75.4846C230.459 74.6887 233.849 68.2743 234.411 63.714C234.411 63.3956 232.978 60.8486 231.339 57.6648C230.356 55.7264 229.298 53.5446 228.483 51.4845L216.75 59.753C218.506 62.0348 219.978 64.5222 221.133 67.16C221.24 67.4462 221.325 67.7405 221.385 68.0402C221.382 68.0901 221.382 68.1401 221.385 68.19C221.826 69.8943 224.073 76.7113 227.987 75.4846Z" fill="#AD6359"/>
<path d="M222.799 67.7407C222.358 67.9434 221.901 68.1093 221.432 68.237C221.439 68.1873 221.439 68.1369 221.432 68.0872C221.385 67.7854 221.303 67.4901 221.189 67.2069C220.024 64.5449 218.533 62.0379 216.75 59.7438L227.584 52.0746C228.399 55.6142 229.71 64.8097 222.799 67.7407Z" fill="#263238"/>
<path d="M224.944 34.0955C227.894 38.3187 229.804 52.6644 227.453 56.7565C224.036 62.7027 216.263 65.6899 210.654 61.0828C205.223 56.6161 203.06 37.8786 205.897 33.9269C210.074 28.1118 220.59 27.8496 224.944 34.0955Z" fill="#AD6359"/>
<path d="M213.501 46.4467C213.501 46.4467 213.576 46.4466 213.576 46.5216C213.641 47.458 213.876 48.6004 214.784 48.8439V48.9C213.698 48.8439 213.398 47.3737 213.501 46.4467Z" fill="#263238"/>
<path d="M214.269 45.3511C215.814 45.0889 216.235 48.1603 214.803 48.4506C213.37 48.7409 213.005 45.5758 214.269 45.3511Z" fill="#263238"/>
<path d="M208.323 46.9617C208.323 46.9617 208.257 47.0179 208.257 47.0553C208.416 47.9917 208.444 49.1529 207.611 49.5836C207.611 49.5836 207.611 49.6492 207.611 49.6398C208.678 49.3495 208.641 47.8513 208.323 46.9617Z" fill="#263238"/>
<path d="M207.386 46.072C205.813 46.1563 206.113 49.2932 207.564 49.209C209.016 49.1247 208.65 45.9971 207.386 46.072Z" fill="#263238"/>
<path d="M215.308 43.7593C214.882 43.6953 214.46 43.6078 214.044 43.4971C213.586 43.4693 213.15 43.2878 212.808 42.9821C212.719 42.8649 212.671 42.7218 212.671 42.5747C212.671 42.4277 212.719 42.2846 212.808 42.1674C213.02 41.9629 213.283 41.8193 213.57 41.7517C213.857 41.6841 214.156 41.6951 214.437 41.7835C215.035 41.8653 215.58 42.1696 215.964 42.6356C216.044 42.7473 216.091 42.8799 216.097 43.0175C216.104 43.155 216.071 43.2916 216.001 43.4105C215.932 43.5295 215.829 43.6257 215.706 43.6877C215.583 43.7496 215.445 43.7744 215.308 43.7593Z" fill="#263238"/>
<path d="M206.085 45.0046C206.506 44.8735 206.881 44.6862 207.283 44.5176C207.728 44.4036 208.122 44.147 208.407 43.7872C208.475 43.6562 208.498 43.5064 208.473 43.3609C208.447 43.2154 208.375 43.0822 208.266 42.9819C208.02 42.819 207.735 42.7253 207.44 42.7105C207.145 42.6956 206.852 42.7603 206.59 42.8977C206.021 43.0896 205.543 43.4869 205.251 44.012C205.192 44.1353 205.17 44.273 205.187 44.4086C205.204 44.5443 205.26 44.6721 205.348 44.7767C205.436 44.8814 205.552 44.9586 205.683 44.999C205.813 45.0394 205.953 45.0413 206.085 45.0046Z" fill="#263238"/>
<path d="M216.17 55.2488C215.964 55.5016 215.776 55.8481 215.43 55.923C215.071 55.9643 214.707 55.9292 214.363 55.82C214.363 55.82 214.297 55.82 214.363 55.8668C214.525 56.0386 214.731 56.1632 214.958 56.2275C215.186 56.2918 215.426 56.2933 215.655 56.232C215.843 56.1577 216.005 56.029 216.12 55.8622C216.235 55.6955 216.298 55.4982 216.301 55.2956C216.273 55.2207 216.198 55.2114 216.17 55.2488Z" fill="#263238"/>
<path d="M214.765 52.4866C214.571 52.9025 214.292 53.2736 213.947 53.5766C213.603 53.8796 213.199 54.1078 212.761 54.247C212.384 54.3759 211.989 54.4454 211.591 54.453C211.513 54.4622 211.434 54.4622 211.357 54.453H211.132C211.079 54.4458 211.03 54.4233 210.99 54.3884C210.95 54.3534 210.921 54.3075 210.907 54.2564C210.902 54.2253 210.902 54.1938 210.907 54.1627V54.0785C210.785 53.3387 210.701 52.2056 210.701 52.2056C210.448 52.3742 209.147 53.1421 209.119 52.7956C208.758 49.4288 208.739 46.0342 209.062 42.6636C209.069 42.6449 209.08 42.6286 209.096 42.617C209.112 42.6055 209.132 42.5992 209.151 42.5992C209.171 42.5992 209.19 42.6055 209.206 42.617C209.222 42.6286 209.234 42.6449 209.24 42.6636C209.596 45.7632 209.399 48.9189 209.699 52.0277C210.161 51.7306 210.662 51.5005 211.188 51.3441C211.3 51.3441 211.31 53.5541 211.385 53.8818C212.003 53.8604 212.611 53.7151 213.172 53.4546C213.734 53.194 214.237 52.8234 214.653 52.3648C214.728 52.318 214.812 52.4023 214.765 52.4866Z" fill="#263238"/>
<path d="M211.975 54.0223C212.452 54.5 213.046 54.8453 213.698 55.0243C214.056 55.112 214.432 55.0858 214.774 54.9493C215.524 54.6403 215.449 53.9287 215.224 53.3481C215.1 53.0356 214.943 52.7374 214.756 52.4585C214.018 53.2615 213.044 53.8092 211.975 54.0223Z" fill="#263238"/>
<path d="M213.698 55.0242C214.056 55.112 214.432 55.0858 214.775 54.9493C215.524 54.6403 215.449 53.9286 215.224 53.348C214.821 53.4222 214.454 53.6262 214.178 53.9289C213.903 54.2317 213.734 54.6164 213.698 55.0242Z" fill="#FF99BA"/>
<path d="M228.081 45.192C224.551 46.1284 221.844 42.2423 222.013 38.6371C222.013 38.6371 212.742 41.7741 210.776 34.2173C210.218 35.4178 209.399 36.4782 208.378 37.3208C207.358 38.1633 206.161 38.7667 204.877 39.0866L204.755 41.8958C203.725 41.8022 202.142 39.2364 204.099 36.5864C203.811 34.2163 204.445 31.826 205.869 29.9098C206.499 29.1069 207.348 28.5031 208.313 28.1709C209.278 27.8386 210.319 27.7921 211.31 28.037C212.727 26.5181 214.676 25.6055 216.75 25.49C217.839 25.4539 218.922 25.678 219.907 26.1437C220.892 26.6095 221.752 27.3035 222.416 28.1681C222.416 28.1681 227.313 28.1681 228.774 31.3238C229.207 32.2206 229.446 33.1989 229.475 34.1946C229.504 35.1903 229.323 36.1809 228.942 37.1014C228.942 37.1014 230.384 38.1877 230.347 41.1654C230.347 43.0757 229.139 44.9017 228.081 45.192Z" fill="#263238"/>
<path d="M210.86 33.5148C210.914 34.149 211.03 34.7763 211.207 35.3876C211.368 35.9949 211.604 36.5799 211.909 37.1293C212.499 38.2167 213.48 39.0399 214.653 39.4329C215.847 39.7847 217.108 39.8521 218.333 39.6295C218.941 39.4891 219.569 39.386 220.206 39.2081L222.078 38.6557C221.498 38.9272 220.899 39.1613 220.309 39.4235C219.719 39.6857 219.082 39.7793 218.436 39.9666C217.152 40.2556 215.816 40.2202 214.55 39.8636C213.286 39.4114 212.246 38.4889 211.647 37.2885C211.071 36.1169 210.801 34.8188 210.86 33.5148Z" fill="#263238"/>
<path d="M206.824 38.89C207.799 38.3314 208.673 37.6128 209.409 36.7644C209.763 36.3475 210.059 35.8845 210.289 35.3879C210.525 34.8769 210.698 34.3392 210.804 33.7866C210.863 34.3708 210.8 34.9609 210.617 35.519C210.428 36.082 210.132 36.6034 209.746 37.0547C209.366 37.506 208.917 37.8947 208.416 38.2065C207.929 38.5252 207.391 38.7565 206.824 38.89Z" fill="#263238"/>
<path d="M225.627 46.0628C225.627 46.0628 227.379 40.7253 229.71 41.2215C232.042 41.7178 231.649 48.8065 229.57 50.389C229.317 50.6107 229.021 50.7788 228.701 50.8831C228.381 50.9875 228.044 51.0259 227.708 50.9962C227.373 50.9664 227.048 50.8691 226.751 50.71C226.455 50.5509 226.193 50.3334 225.983 50.0706L225.627 46.0628Z" fill="#AD6359"/>
<path d="M229.551 43.2535C229.551 43.2535 229.607 43.2535 229.551 43.3097C228.109 44.4802 227.678 46.2594 227.575 47.9918C227.623 47.7986 227.712 47.6181 227.837 47.4627C227.961 47.3073 228.118 47.1807 228.296 47.0917C228.474 47.0027 228.669 46.9534 228.868 46.9471C229.067 46.9408 229.265 46.9777 229.448 47.0554C229.495 47.0554 229.448 47.149 229.448 47.1584C229.128 47.1526 228.814 47.2483 228.552 47.4316C228.29 47.6149 228.092 47.8766 227.987 48.179C227.803 48.6754 227.675 49.1903 227.603 49.7148C227.603 49.8833 227.285 49.8927 227.285 49.7148C226.611 47.5704 227.36 44.1431 229.551 43.2535Z" fill="#263238"/>
<path d="M232.004 40.2946L231.583 30.069C231.583 30.069 224.513 25.0124 222.771 24.1977C221.03 23.383 213.613 21.9222 213.613 21.9222L207.386 28.6082L232.004 40.2946Z" fill="#73A2C7"/>
<path d="M199.324 30.9303C199.324 30.9303 216.179 34.676 234.224 48.3007L232.004 40.2944C232.004 40.2944 220.14 30.2093 207.386 28.608L199.324 30.9303Z" fill="#6F97B6"/>
<path opacity="0.1" d="M199.324 30.9303C199.324 30.9303 216.179 34.676 234.224 48.3007L232.004 40.2944C232.004 40.2944 220.14 30.2093 207.386 28.608L199.324 30.9303Z" fill="black"/>
<path d="M285.501 121.687C285.417 121.884 227.744 134.066 226.985 133.645C225.936 133.046 219.41 75.3255 222.762 65.2872C223.483 63.1334 230.927 56.9532 237.005 60.2493C260.649 73.0313 285.801 120.957 285.501 121.687Z" fill="#C7C7C7"/>
<path d="M284.387 119.561C284.181 119.627 226.732 131.913 226.039 131.388C224.927 130.546 224.047 129.434 223.483 128.158C221.432 124.056 222.369 118.69 222.369 118.69C221.579 117.437 221.046 116.039 220.802 114.578C220.558 113.116 220.606 111.621 220.945 110.179C218.136 105.047 219.7 101.751 219.7 101.751C218.136 89.8491 219.485 71.2427 221.863 65.3714C223.38 61.6258 233.315 56.6722 239.43 60.6894C249.047 67.0851 258.505 77.9848 266.586 88.2947C266.586 88.2947 271.596 91.7126 273.075 97.0876C274.632 97.7485 275.998 98.7904 277.047 100.117C278.096 101.445 278.794 103.014 279.078 104.682C279.078 104.682 284.818 109.963 285.567 115.142C285.761 116.712 285.338 118.297 284.387 119.561Z" fill="#3E5C76"/>
<path d="M242.033 83.0415C239.224 83.9779 231.901 81.5994 229.064 77.5541C226.227 73.5088 226.611 62.4311 232.482 63.3301C236.349 63.92 243.269 71.7578 244.562 75.6813C245.854 79.6049 244.843 82.1519 242.033 83.0415Z" fill="#C7C7C7"/>
<path d="M283.32 109.898L222.369 124.421C222.189 123.257 222.117 122.078 222.153 120.9L281.053 106.854C281.877 107.816 282.635 108.833 283.32 109.898Z" fill="white"/>
<path d="M278.019 101.779L220.899 115.394C220.615 114.253 220.51 113.075 220.59 111.902L275.622 98.792C276.606 99.6241 277.42 100.638 278.019 101.779Z" fill="white"/>
<path d="M271.867 94.3346L219.56 106.808C219.256 105.66 219.164 104.467 219.288 103.287L269.723 91.2726C270.546 92.2129 271.265 93.2396 271.867 94.3346Z" fill="white"/>
<path d="M243.288 83.2195C245.208 86.3845 247.034 89.5871 248.907 92.7989L254.356 102.481L259.666 112.248C261.417 115.507 263.149 118.803 264.816 122.09C262.887 118.925 261.07 115.713 259.198 112.51L253.748 102.884L248.438 93.1267C246.715 89.7743 244.955 86.5437 243.288 83.2195Z" fill="#263238"/>
<path d="M221.432 68.2371C221.863 70.7841 222.313 73.3249 222.781 75.8594L224.176 83.4818C225.112 88.5477 226.049 93.6231 227.191 98.661C228.334 103.699 229.42 108.727 230.871 113.643C231.576 116.117 232.459 118.536 233.512 120.882L236.49 128.036L233.184 121.032C232.085 118.689 231.146 116.273 230.375 113.803C228.811 108.868 227.641 103.821 226.526 98.8201C225.412 93.8197 224.513 88.6882 223.67 83.5848C223.258 81.0378 222.856 78.4907 222.481 75.9343C222.107 73.3779 221.769 70.756 221.432 68.2371Z" fill="#263238"/>
<path d="M279.012 104.757C274.33 106.058 269.648 107.285 264.9 108.502L250.751 112.07L236.565 115.488C231.827 116.602 227.088 117.698 222.322 118.719C227.004 117.417 231.686 116.181 236.434 114.973L250.583 111.405L264.779 107.987C269.517 106.836 274.255 105.74 279.012 104.757Z" fill="#263238"/>
<path d="M273.019 97.1251C268.712 98.3518 264.376 99.513 260.05 100.655L247.043 103.998L233.99 107.182C229.635 108.212 225.281 109.233 220.88 110.179C225.187 108.952 229.514 107.8 233.84 106.658L246.856 103.315L259.9 100.131C264.273 99.1384 268.637 98.0709 273.019 97.1251Z" fill="#263238"/>
<path d="M221.769 92.0539L233.539 90.1075L232.905 86.2735L221.135 88.2199L221.769 92.0539Z" fill="#263238"/>
<path d="M222.975 99.4115L234.745 97.4651L234.111 93.6311L222.341 95.5775L222.975 99.4115Z" fill="#263238"/>
<path d="M230.138 128.528L241.908 126.582L241.274 122.748L229.504 124.694L230.138 128.528Z" fill="#263238"/>
<path d="M237.286 70.4655C239.318 78.9588 243.494 112.819 235.254 120.9C225.272 130.686 208.688 138.411 202.564 142.222C201.028 143.159 190.241 118.934 194.136 117.033C200.223 114.102 214.222 107.388 215.289 106.405C217.162 104.691 222.172 82.901 225.3 71.0929C228.137 60.4647 236.087 65.4277 237.286 70.4655Z" fill="#AD6359"/>
<path d="M168.993 130.555C169.083 131.336 169.41 132.072 169.931 132.661C170.452 133.251 171.141 133.666 171.906 133.851C171.292 135.042 171.114 136.41 171.4 137.718C172.018 139.994 175.857 140.031 175.857 140.031C175.477 141.397 175.516 142.846 175.97 144.189C176.775 146.305 180.652 146.895 180.652 146.895C180.998 148.343 181.852 149.619 183.058 150.491C186.373 152.691 191.898 150.172 195.428 148.618C198.959 147.064 207.508 139.319 209.287 138.009L199.445 115.263C199.445 115.263 181.654 117.773 177.73 120.198C174.481 122.23 168.787 127.549 168.993 130.555Z" fill="#AD6359"/>
<path d="M171.943 133.42C174.912 130.414 178.601 128.439 182.169 126.266C182.253 126.219 182.328 126.341 182.244 126.388C178.667 128.514 175.558 131.313 172.074 133.579C172.053 133.597 172.026 133.605 171.999 133.603C171.972 133.6 171.947 133.587 171.929 133.565C171.912 133.544 171.903 133.517 171.906 133.49C171.909 133.463 171.922 133.438 171.943 133.42Z" fill="#263238"/>
<path d="M175.839 139.704C176.574 139.082 177.39 138.563 178.264 138.159C179.2 137.672 180.071 137.222 180.979 136.745C182.802 135.827 184.65 134.959 186.523 134.141C186.607 134.141 186.682 134.216 186.598 134.263C184.781 135.199 182.974 136.136 181.195 137.072L178.535 138.58C177.735 139.114 176.878 139.556 175.979 139.9C175.955 139.902 175.93 139.898 175.908 139.888C175.886 139.878 175.867 139.862 175.853 139.842C175.839 139.822 175.83 139.799 175.827 139.775C175.825 139.75 175.829 139.726 175.839 139.704Z" fill="#263238"/>
<path d="M180.755 146.895C181.437 146.332 182.209 145.889 183.04 145.584L185.549 144.376C187.225 143.552 188.902 142.738 190.54 141.857C190.625 141.857 190.699 141.942 190.615 141.989C188.948 142.925 187.3 143.805 185.624 144.685L183.133 145.959C182.414 146.406 181.622 146.723 180.792 146.895C180.792 146.895 180.727 146.895 180.755 146.895Z" fill="#263238"/>
<path d="M200.363 113.924L209.259 140.34C209.259 140.34 231.836 129.103 237.286 119.983C242.736 110.862 240.882 87.5269 238.662 74.7636C236.443 62.0004 227.931 56.513 223.305 76.3649C218.679 96.2167 215.702 104.813 214.962 105.684C214.222 106.555 200.363 113.924 200.363 113.924Z" fill="#C7C7C7"/>
<path d="M213.641 136.847C212.705 134.918 212.096 132.84 211.385 130.826C210.673 128.813 209.999 126.865 209.325 124.871C207.967 120.854 206.515 116.836 205.41 112.697C205.403 112.679 205.403 112.658 205.411 112.64C205.419 112.621 205.434 112.607 205.453 112.599C205.471 112.592 205.492 112.592 205.51 112.6C205.529 112.608 205.543 112.623 205.551 112.641C207.321 116.546 208.678 120.638 210.074 124.684C210.776 126.706 211.441 128.748 212.087 130.789C212.77 132.75 213.342 134.747 213.801 136.773C213.819 136.904 213.679 136.922 213.641 136.847Z" fill="#263238"/>
<path d="M38.6174 363.964C38.524 363.973 38.4299 363.973 38.3365 363.964C38.0396 363.93 37.7524 363.838 37.4918 363.691C37.2313 363.545 37.0027 363.348 36.8195 363.112C36.6342 362.876 36.4974 362.605 36.417 362.316C36.3366 362.026 36.3143 361.724 36.3513 361.426L37.2878 353.607L38.2242 353.729L37.2878 361.548C37.2454 361.899 37.3437 362.253 37.5613 362.532C37.7788 362.811 38.0979 362.992 38.4489 363.037C38.6235 363.059 38.8009 363.047 38.9707 363C39.1406 362.954 39.2997 362.875 39.4388 362.767C39.578 362.659 39.6945 362.525 39.7817 362.372C39.869 362.219 39.9252 362.05 39.9472 361.876L40.3217 358.879L41.2581 358.992L40.8836 361.988C40.8107 362.537 40.5404 363.04 40.1233 363.404C39.7062 363.767 39.1708 363.966 38.6174 363.964Z" fill="#DBDBDB"/>
<path d="M154.357 328.072H429.661C462.745 328.072 525.1 246.379 525.1 246.379C524.641 242.016 421.234 243.682 415.54 245.153C387.364 252.485 335.534 267.289 273.206 267.289C146.407 267.289 92.7324 266.147 84.3235 266.147C84.4078 266.147 127.426 328.072 154.357 328.072Z" fill="#90CAF9"/>
<path opacity="0.2" d="M154.357 328.072H429.661C462.745 328.072 525.1 246.379 525.1 246.379C524.641 242.016 421.234 243.682 415.54 245.153C387.364 252.485 335.534 267.289 273.206 267.289C146.407 267.289 92.7324 266.147 84.3235 266.147C84.4078 266.147 127.426 328.072 154.357 328.072Z" fill="black"/>
<path opacity="0.1" d="M525.137 246.379C525.137 246.379 462.782 328.071 429.699 328.071H304.773C304.773 328.071 341.021 326.077 350.273 321.413C372.428 310.233 415.615 245.152 415.615 245.152H415.793C423.135 243.654 524.679 242.053 525.137 246.379Z" fill="black"/>
<path d="M84.4078 266.147C102.893 266.278 121.368 266.212 139.834 266.1C158.3 265.988 176.756 265.81 195.204 265.641L222.874 265.192C232.098 265.089 241.322 264.854 250.536 264.677L278.188 263.937L292 263.525C296.476 263.384 300.999 263.019 305.512 262.588C323.595 260.716 341.695 257.448 359.712 253.852C368.72 252.035 377.71 250.106 386.708 248.14C395.707 246.173 404.659 244.076 413.733 242.034C414.876 241.781 416.009 241.529 417.217 241.294C417.769 241.173 418.527 241.042 419.155 240.948L421.028 240.733C423.444 240.489 425.794 240.386 428.154 240.283C432.836 240.105 437.518 240.058 442.153 240.068C451.442 240.068 460.713 240.358 469.964 240.77C479.216 241.182 488.458 241.791 497.691 242.521C502.308 242.905 506.915 243.373 511.522 243.888C513.826 244.141 516.12 244.46 518.414 244.825C519.566 245.003 520.708 245.19 521.851 245.405C522.422 245.508 522.993 245.639 523.555 245.78C524.128 245.892 524.676 246.104 525.175 246.407C524.647 246.178 524.083 246.045 523.508 246.014C522.937 245.948 522.366 245.911 521.795 245.864C520.643 245.789 519.491 245.742 518.339 245.705C516.036 245.63 513.723 245.63 511.419 245.593C506.803 245.546 502.186 245.593 497.579 245.639C488.346 245.686 479.122 245.92 469.908 246.098C465.301 246.198 460.697 246.335 456.096 246.51C451.489 246.679 446.891 246.81 442.312 247.035C437.733 247.259 433.145 247.522 428.622 247.915C426.365 248.112 424.118 248.355 421.945 248.636L420.354 248.879C419.839 248.964 419.464 249.039 418.883 249.17C417.835 249.404 416.711 249.675 415.606 249.947C397.749 254.385 379.751 259.03 361.594 262.813C352.523 264.755 343.396 266.509 334.213 268.076C329.625 268.853 325.027 269.583 320.401 270.239C315.775 270.894 311.131 271.447 306.458 271.878C301.786 272.308 297.094 272.683 292.328 272.814L278.441 273.086C269.189 273.301 259.937 273.31 250.686 273.357C241.434 273.404 232.182 273.357 222.94 273.245C213.698 273.132 204.437 272.917 195.194 272.739C176.7 272.308 158.225 271.503 139.759 270.51C130.526 269.967 121.293 269.424 112.069 268.703C102.846 267.982 93.594 267.233 84.4078 266.147Z" fill="#EBEBEB"/>
<path d="M88.3968 378.684C87.4136 378.684 76.6542 359.881 65.7076 357.287C54.761 354.693 37.784 359.338 36.9037 359.459C36.0235 359.581 41.3517 364.02 41.0614 364.141C40.7711 364.263 37.5592 361.903 36.885 362.025C36.2108 362.147 44.7134 382.692 55.7442 385.95C69.2285 389.93 87.245 382.561 87.245 382.561C87.245 382.561 86.6551 393.414 90.4382 392.421C94.2213 391.428 90.5037 382.804 90.5037 382.804C90.5037 382.804 93.5845 384.977 96.5061 384.518C99.4277 384.059 105.777 378.806 104.569 377.364C101.572 373.796 88.3968 378.684 88.3968 378.684Z" fill="#C7C7C7"/>
<path d="M49.6764 363.252C52.7104 363.149 52.8602 367.868 49.8263 367.934C46.7923 367.999 46.6425 363.346 49.6764 363.252Z" fill="#263238"/>
<path opacity="0.2" d="M58.7877 370.856C59.9863 367.644 57.8512 361.557 55.735 357.746C55.7312 357.734 55.7316 357.721 55.7361 357.709C55.7406 357.698 55.7489 357.688 55.7597 357.681C55.7705 357.675 55.7832 357.672 55.7957 357.674C55.8082 357.675 55.8198 357.681 55.8286 357.69C57.355 359.815 61.9153 367.185 59.6585 371.839C57.8606 375.538 49.5079 377.86 46.7735 378.01C46.5863 378.01 46.5675 377.869 46.7735 377.823C48.9273 377.214 57.6171 374.077 58.8064 370.856" fill="black"/>
<path d="M569.317 375.762C569.317 375.762 554.016 363.439 542.461 363.767C530.906 364.095 518.761 375.556 518.433 376.315C518.105 377.073 524.885 378.141 524.885 378.141C524.885 378.141 520.034 377.57 519.435 378.216C518.835 378.862 532.142 388.863 540.41 390.389C548.679 391.915 568.662 378.609 568.662 378.609C568.662 378.609 572.951 386.98 576.368 384.227C578.531 382.495 570.553 377.57 570.553 377.57C570.553 377.57 584.759 375.444 582.071 372.157C580.002 369.648 572.052 370.893 569.317 375.762Z" fill="#C7C7C7"/>
<path d="M529.417 375.809C532.086 374.358 534.333 378.506 531.655 379.958C528.977 381.409 526.701 377.251 529.417 375.809Z" fill="#263238"/>
<path opacity="0.2" d="M535.85 388.367C537.498 386.85 543.866 380.164 543.491 376.746C543.117 373.328 538.519 368.833 534.876 366.445C534.82 366.398 534.876 366.314 534.932 366.352C537.255 367.56 544.634 372.111 544.699 377.28C544.755 381.39 538.332 387.215 535.953 388.573C535.785 388.619 535.7 388.488 535.85 388.367Z" fill="black"/>
<path d="M509.481 392.59C509.481 392.59 504.134 385.829 499.068 385.745C494.002 385.66 484.881 392.197 484.947 392.665C485.012 393.133 489.563 400.409 495.903 402.235C502.242 404.061 509.706 394.257 509.706 394.257C509.706 394.257 511.41 396.757 512.946 396.242C514.481 395.727 511.269 393.348 511.269 393.348C511.269 393.348 514.893 391.316 513.798 389.284C513.151 388.095 510.576 389.837 509.481 392.59Z" fill="#C7C7C7"/>
<path d="M490.743 395.184C491.088 395.371 491.494 395.414 491.871 395.302C492.247 395.191 492.564 394.934 492.752 394.589C492.939 394.244 492.982 393.838 492.871 393.462C492.759 393.085 492.502 392.768 492.157 392.58C491.812 392.393 491.406 392.35 491.03 392.462C490.653 392.573 490.336 392.83 490.149 393.175C489.961 393.52 489.918 393.926 490.03 394.303C490.141 394.679 490.398 394.996 490.743 395.184Z" fill="#263238"/>
<path opacity="0.2" d="M493.197 387.889C494.133 388.713 497.56 392.365 497.354 394.228C497.148 396.092 494.639 398.545 492.672 399.847C493.927 399.182 497.963 396.71 498 393.891C498 391.653 494.526 388.469 493.234 387.73C493.159 387.748 493.112 387.823 493.197 387.889Z" fill="black"/>
<path d="M172.524 372.963C172.524 372.963 177.88 366.202 182.946 366.127C188.012 366.052 197.132 372.569 197.086 373.047C197.039 373.524 192.469 380.791 186.13 382.617C179.79 384.443 172.327 374.639 172.327 374.639C172.327 374.639 170.613 377.139 169.078 376.624C167.542 376.109 170.763 373.73 170.763 373.73C170.763 373.73 167.139 371.699 168.235 369.657C168.853 368.477 171.437 370.219 172.524 372.963Z" fill="#C7C7C7"/>
<path d="M191.261 375.566C190.917 375.74 190.519 375.772 190.151 375.657C189.783 375.542 189.475 375.287 189.292 374.948C189.109 374.609 189.065 374.211 189.171 373.84C189.276 373.47 189.522 373.155 189.857 372.963C190.201 372.789 190.599 372.756 190.967 372.871C191.335 372.987 191.643 373.241 191.826 373.58C192.009 373.92 192.053 374.317 191.947 374.688C191.842 375.059 191.595 375.374 191.261 375.566Z" fill="#263238"/>
<path opacity="0.2" d="M188.817 368.271C187.881 369.095 184.444 372.747 184.66 374.611C184.875 376.474 187.366 378.928 189.342 380.229C189.342 380.229 189.342 380.304 189.342 380.285C188.077 379.621 184.051 377.148 184.013 374.33C184.013 372.083 187.488 368.908 188.78 368.168C188.845 368.131 188.892 368.196 188.817 368.271Z" fill="black"/>
<path d="M393.319 371.127C393.319 371.127 385.744 369.582 381.68 371.052C377.616 372.522 373.13 377.925 373.13 378.188C373.13 378.45 380.762 379.695 383.862 378.628C386.961 377.56 393.479 371.989 393.479 371.989C393.479 371.989 398.32 374.348 399.097 373.271C399.874 372.195 394.621 371.399 394.621 371.399C394.621 371.399 399.865 368.664 399.088 367.541C398.31 366.417 393.319 371.127 393.319 371.127Z" fill="#455A64"/>
<path d="M574.027 397.852C574.027 397.852 567.014 394.603 562.716 395.099C558.417 395.595 552.827 399.828 552.771 400.09C552.715 400.352 559.86 403.302 563.071 402.974C566.283 402.647 573.962 398.723 573.962 398.723C573.962 398.723 578.129 402.141 579.149 401.27C580.17 400.399 575.217 398.461 575.217 398.461C575.217 398.461 580.947 397.009 580.451 395.736C579.955 394.462 574.027 397.852 574.027 397.852Z" fill="#455A64"/>
<path d="M241.041 382.055C241.041 382.055 234.374 378.188 230.047 378.188C225.721 378.188 219.747 381.933 219.663 382.177C219.578 382.42 226.405 386.072 229.673 386.063C232.941 386.054 240.91 382.898 240.91 382.898C240.91 382.898 244.721 386.7 245.826 385.932C246.931 385.164 242.183 382.739 242.183 382.739C242.183 382.739 248.036 381.858 247.661 380.538C247.287 379.218 241.041 382.055 241.041 382.055Z" fill="#455A64"/>
<path d="M347.211 366.782C347.211 366.782 343.25 364.16 340.497 364.207C337.744 364.254 332.659 367.063 332.331 367.597C332.003 368.131 338.165 370.874 340.253 370.5C342.585 369.815 344.834 368.873 346.958 367.691C347.061 367.588 349.767 371.146 351.115 369.938C352.464 368.73 347.763 367.26 347.763 367.26C347.763 367.26 351.818 365.902 351.462 364.778C351.106 363.655 348.334 365.237 347.211 366.782Z" fill="#455A64"/>
<path d="M113.493 367.887C113.493 367.887 118.118 366.811 120.675 367.812C123.231 368.814 127.033 373.225 127.155 373.824C127.277 374.423 120.544 374.873 118.727 373.824C116.778 372.372 115 370.704 113.427 368.852C113.361 368.711 109.578 371.099 108.745 369.507C107.912 367.915 112.809 368.168 112.809 368.168C112.809 368.168 109.494 365.481 110.225 364.544C110.955 363.608 112.978 366.015 113.493 367.887Z" fill="#455A64"/>
<path d="M430.251 369.348C430.251 369.348 424.839 379.171 419.81 381.278C414.782 383.385 403.517 382.87 403.517 382.87C403.517 382.87 410.137 373.421 415.643 371.736C421.149 370.05 429.109 368.337 429.109 368.337C429.109 368.337 430.982 359.104 433.351 360.096C435.72 361.089 430.766 367.859 430.766 367.859C430.766 367.859 437.93 361.239 439.297 363.486C440.664 365.734 430.251 369.348 430.251 369.348Z" fill="#455A64"/>
<path d="M32.6151 397.403C32.6151 397.403 36.3607 394.762 38.8703 394.275C41.3798 393.788 46.5488 397.085 46.5488 397.085C46.5488 397.085 42.6908 400.418 39.5819 400.83C36.4731 401.242 32.9522 398.677 32.9522 398.677C32.9522 398.677 28.7945 401.598 28.214 400.662C27.6334 399.725 31.9596 398.311 31.9596 398.311C31.9596 398.311 27.0622 398.021 27.1652 396.504C27.2682 394.987 32.6151 397.403 32.6151 397.403Z" fill="#455A64"/>
<path d="M357.586 386.194C357.586 386.194 353.082 386.878 350.909 388.292C348.737 389.706 347.314 395.624 347.314 395.624C347.314 395.624 352.398 395.333 354.945 393.498C357.492 391.663 358.223 387.355 358.223 387.355C358.223 387.355 363.251 386.578 362.998 385.482C362.746 384.387 358.691 386.419 358.691 386.419C358.691 386.419 362.006 382.814 360.882 381.793C359.758 380.772 357.586 386.194 357.586 386.194Z" fill="#455A64"/>
<path d="M71.6914 232.549C78.883 232.352 86.0746 232.258 93.2288 232.184L114.766 232.081L136.304 232.184L147.091 232.315L157.878 232.549L147.091 232.773L136.304 232.905L114.766 233.017L93.2288 232.905C86.0746 232.83 78.883 232.736 71.6914 232.549Z" fill="#DBDBDB"/>
<path d="M48.8992 328.1L74.6223 327.875L100.336 327.744L151.764 327.631L203.2 327.744L228.914 327.865L254.628 328.1L228.914 328.324L203.2 328.455L151.764 328.568L100.336 328.455L74.6223 328.324L48.8992 328.1Z" fill="#DBDBDB"/>
<path d="M399.668 328.1L425.382 327.875L451.096 327.744L502.533 327.631L553.96 327.744L579.683 327.865L605.397 328.1L579.683 328.324L553.96 328.455L502.533 328.568L451.096 328.455L425.382 328.324L399.668 328.1Z" fill="#DBDBDB"/>
<path d="M331.797 334.973L353.138 334.748L374.479 334.617L417.16 334.505L459.851 334.608L481.192 334.739L502.533 334.973L481.192 335.198L459.851 335.329L417.16 335.441L374.479 335.329L353.138 335.198L331.797 334.973Z" fill="#DBDBDB"/>
<path d="M445.562 213.043C451.405 212.856 457.248 212.762 463.082 212.688C468.916 212.613 474.768 212.622 480.602 212.575C486.436 212.528 492.288 212.575 498.122 212.688L506.887 212.819C509.809 212.894 512.73 212.94 515.652 213.043C512.73 213.156 509.809 213.203 506.887 213.277L498.122 213.409C492.288 213.483 486.445 213.474 480.602 213.512C474.759 213.549 468.925 213.512 463.082 213.409C457.239 213.306 451.405 213.24 445.562 213.043Z" fill="#DBDBDB"/>
<path d="M488.468 204.681C491.905 204.485 495.341 204.391 498.768 204.316C502.196 204.241 505.632 204.222 509.069 204.213C512.505 204.204 515.933 204.213 519.369 204.316L524.52 204.447C526.233 204.531 527.947 204.569 529.67 204.681C527.947 204.784 526.233 204.831 524.52 204.906L519.369 205.037C515.933 205.121 512.505 205.14 509.069 205.149C505.632 205.159 502.205 205.149 498.768 205.037C495.332 204.925 491.905 204.868 488.468 204.681Z" fill="#DBDBDB"/>
<path d="M31.6412 222.005C35.0685 221.817 38.4864 221.724 41.9417 221.649C45.3971 221.574 48.7869 221.555 52.2422 221.536C55.6976 221.518 59.0873 221.536 62.5427 221.649L67.6742 221.78C69.3785 221.855 71.0921 221.902 72.8057 222.005C71.0921 222.117 69.3785 222.164 67.6742 222.239L62.5427 222.37C59.1248 222.454 55.6976 222.463 52.2422 222.473C48.7869 222.482 45.4064 222.473 41.9417 222.37C38.477 222.267 35.0872 222.201 31.6412 222.005Z" fill="#DBDBDB"/>
<path d="M0 357.587C1.62935 357.493 3.2587 357.503 4.87869 357.344C6.49867 357.184 8.12802 357.081 9.74801 356.866L14.5892 356.257L19.4305 355.555C25.8667 354.55 32.2842 353.439 38.683 352.221C51.4931 349.793 64.2532 347.146 76.9634 344.281H77.0664C88.9307 347.39 100.889 350.199 112.921 352.559C118.943 353.748 124.982 354.815 131.06 355.658C137.108 356.59 143.211 357.131 149.329 357.278C155.452 357.209 161.562 356.718 167.617 355.808C173.685 354.984 179.715 353.86 185.737 352.671C197.76 350.255 209.69 347.371 221.517 344.159H221.629H221.741C233.9 348.019 246.264 351.199 258.776 353.682C265.032 354.9 271.324 355.93 277.664 356.557C279.246 356.707 280.838 356.8 282.421 356.932C284.003 357.063 285.595 357.044 287.187 357.109C288.779 357.175 290.361 357.109 291.953 357.063L294.332 356.988L296.72 356.819C303.068 356.398 309.408 355.621 315.719 354.75C322.031 353.879 328.333 352.821 334.616 351.725C347.183 349.478 359.69 346.946 372.138 344.131H372.26L372.391 344.187C378.663 346.622 385.084 348.655 391.615 350.274C398.17 351.95 404.725 353.289 411.401 354.375C418.078 355.461 424.755 356.164 431.478 356.707C438.201 357.25 444.934 357.4 451.676 357.241C453.362 357.241 455.047 357.241 456.733 357.138L461.78 356.885L464.299 356.763L466.827 356.557L471.865 356.145C478.57 355.452 485.265 354.675 491.914 353.532C505.225 351.399 518.368 348.323 531.243 344.327H531.308H531.383C537.723 346.2 544.137 347.876 550.58 349.412C557.022 350.948 563.502 352.296 570.02 353.495C576.537 354.694 583.129 355.639 589.684 356.407C596.239 357.175 602.888 357.55 609.517 357.634C602.888 357.634 596.267 357.203 589.675 356.529C583.082 355.855 576.565 354.881 570.01 353.72C563.455 352.559 556.985 351.238 550.524 349.749C544.062 348.26 537.648 346.622 531.271 344.768H531.421C518.533 348.781 505.378 351.882 492.054 354.047C485.396 355.209 478.682 355.995 471.968 356.707L466.912 357.128L464.393 357.334L461.864 357.475L456.798 357.737C455.113 357.802 453.427 357.812 451.733 357.849C444.981 358.027 438.22 357.756 431.478 357.353C424.736 356.95 418.012 356.126 411.336 355.049C404.659 353.973 398.03 352.643 391.475 350.985C384.901 349.362 378.436 347.326 372.119 344.889H372.372C359.887 347.742 347.37 350.302 334.822 352.568C328.529 353.673 322.227 354.759 315.897 355.63C312.732 356.117 309.558 356.463 306.383 356.866C303.209 357.269 300.025 357.54 296.823 357.718L294.425 357.877L292.028 357.952C290.427 357.952 288.826 358.074 287.215 357.952C285.604 357.831 284.013 357.905 282.411 357.765C280.81 357.624 279.218 357.531 277.626 357.381C271.249 356.735 264.938 355.677 258.664 354.45C246.125 351.935 233.736 348.724 221.554 344.833H221.769C209.915 348.036 197.966 350.901 185.914 353.261C179.884 354.45 173.844 355.555 167.748 356.37C161.651 357.298 155.496 357.805 149.329 357.887C143.179 357.74 137.045 357.192 130.966 356.248C124.879 355.386 118.793 354.31 112.809 353.102C100.767 350.714 88.8089 347.895 76.9446 344.749H77.0476C64.3125 347.527 51.5368 350.099 38.7205 352.465C32.3154 353.639 25.8917 354.722 19.4492 355.714L14.608 356.388L9.74801 356.969C8.13738 357.175 6.50804 357.259 4.88805 357.418C3.26806 357.578 1.62935 357.521 0 357.587Z" fill="#DBDBDB"/>
</svg>
