<svg width="104" height="104" viewBox="0 0 104 104" fill="none" xmlns="http://www.w3.org/2000/svg">
<g id="Sunset--Streamline-Plump">
<g id="Group 28">
<g id="sunset--nature-sun-set-water-afternoon">
<path id="Ellipse 18" d="M76.7889 59.7812C77.6355 57.1561 78.0653 54.4145 78.0625 51.6562C78.0625 37.0719 66.2406 25.25 51.6562 25.25C37.0719 25.25 25.25 37.0719 25.25 51.6562C25.25 54.4919 25.6969 57.2219 26.5236 59.7812" stroke="#90CAF9" stroke-width="6.5" stroke-linecap="round" stroke-linejoin="round"/>
<path id="Vector 1080" d="M51.6562 9V15.0938" stroke="#90CAF9" stroke-width="6.5" stroke-linecap="round" stroke-linejoin="round"/>
<path id="Vector 1082" d="M94.3125 51.6562H88.2188" stroke="#90CAF9" stroke-width="6.5" stroke-linecap="round" stroke-linejoin="round"/>
<path id="Vector 1083" d="M15.0938 51.6562H9" stroke="#90CAF9" stroke-width="6.5" stroke-linecap="round" stroke-linejoin="round"/>
<path id="Vector 1085" d="M25.8028 25.8045L21.4945 21.4922" stroke="#90CAF9" stroke-width="6.5" stroke-linecap="round" stroke-linejoin="round"/>
<path id="Vector 1087" d="M77.5103 25.8059L81.8185 21.4956" stroke="#90CAF9" stroke-width="6.5" stroke-linecap="round" stroke-linejoin="round"/>
<path id="Vector" d="M9 94.3116C12.8391 94.3116 16.6781 93.1823 20.0094 90.9195C20.9607 90.2883 22.0771 89.9517 23.2188 89.9517C24.3604 89.9517 25.4768 90.2883 26.4281 90.9195C29.6749 93.1282 33.5106 94.3101 37.4375 94.3116C41.2766 94.3116 45.1156 93.1823 48.4469 90.9195C49.3982 90.2883 50.5146 89.9517 51.6562 89.9517C52.7979 89.9517 53.9143 90.2883 54.8656 90.9195C58.1124 93.1282 61.9481 94.3101 65.875 94.3116C69.7141 94.3116 73.5531 93.1823 76.8844 90.9195C77.8357 90.2883 78.9521 89.9517 80.0938 89.9517C81.2354 89.9517 82.3518 90.2883 83.3031 90.9195C86.5499 93.1282 90.3856 94.3101 94.3125 94.3116" stroke="#90CAF9" stroke-width="6.5" stroke-linecap="round" stroke-linejoin="round"/>
<path id="Vector_2" d="M9 78.0616C12.8391 78.0616 16.6781 76.9323 20.0094 74.6695C20.9607 74.0383 22.0771 73.7017 23.2188 73.7017C24.3604 73.7017 25.4768 74.0383 26.4281 74.6695C29.6749 76.8782 33.5106 78.0601 37.4375 78.0616C41.2766 78.0616 45.1156 76.9323 48.4469 74.6695C49.3982 74.0383 50.5146 73.7017 51.6562 73.7017C52.7979 73.7017 53.9143 74.0383 54.8656 74.6695C58.1124 76.8782 61.9481 78.0601 65.875 78.0616C69.7141 78.0616 73.5531 76.9323 76.8844 74.6695C77.8357 74.0383 78.9521 73.7017 80.0938 73.7017C81.2354 73.7017 82.3518 74.0383 83.3031 74.6695C86.5499 76.8782 90.3856 78.0601 94.3125 78.0616" stroke="#90CAF9" stroke-width="6.5" stroke-linecap="round" stroke-linejoin="round"/>
</g>
</g>
</g>
</svg>
