<svg width="230" height="217" viewBox="0 0 230 217" fill="none" xmlns="http://www.w3.org/2000/svg">
<g opacity="0.5">
<path d="M117.2 216.225C57.9895 216.225 5.60486 170.276 0.415823 113.841C-4.77322 57.4067 39.2101 11.4283 98.3899 11.4283C157.57 11.4283 209.985 57.3772 215.174 113.841C220.363 170.305 176.38 216.225 117.2 216.225Z" fill="#263238"/>
<path d="M122.358 213.751C63.1477 213.751 10.7631 167.831 5.57402 111.367C0.38498 54.903 44.3683 8.98352 103.579 8.98352C162.79 8.98352 215.143 54.903 220.332 111.367C225.521 167.831 181.569 213.751 122.358 213.751Z" fill="#3E5C76"/>
<g opacity="0.7">
<path d="M122.358 213.751C63.1477 213.751 10.7631 167.831 5.57402 111.367C0.38498 54.903 44.3683 8.98352 103.579 8.98352C162.79 8.98352 215.143 54.903 220.332 111.367C225.521 167.831 181.569 213.751 122.358 213.751Z" fill="white"/>
</g>
<path d="M122.358 213.751C63.1477 213.751 10.7631 167.831 5.57402 111.367C0.38498 54.903 44.3683 8.98352 103.579 8.98352C162.79 8.98352 215.143 54.903 220.332 111.367C225.521 167.831 181.569 213.751 122.358 213.751ZM105.37 28.6591C57.5571 28.6591 21.9751 65.7717 26.2375 111.367C30.5 156.963 72.7227 194.046 120.536 194.046C168.349 194.046 203.931 156.963 199.669 111.367C195.406 65.7717 153.245 28.6591 105.37 28.6591Z" fill="#3E5C76"/>
<path d="M118.899 176.226C100.404 175.883 82.6771 169.108 69.0537 157.174C55.4302 145.24 46.849 128.971 44.9243 111.426C43.9949 103.173 44.916 94.8269 47.6262 86.9397C50.3364 79.0525 54.774 71.8048 60.6446 65.6772C66.5153 59.5497 73.6849 54.6823 81.678 51.3979C89.6711 48.1134 98.3051 46.4869 107.007 46.6262C125.532 46.9267 143.299 53.684 156.957 65.6223C170.614 77.5606 179.215 93.8538 181.137 111.426C182.068 119.691 181.143 128.05 178.424 135.948C175.704 143.846 171.253 151.101 165.365 157.231C159.478 163.361 152.289 168.225 144.277 171.5C136.265 174.775 127.614 176.386 118.899 176.226ZM108.799 66.1839C102.732 66.0828 96.7116 67.2147 91.1387 69.5042C85.5658 71.7937 80.568 75.1884 76.4774 79.4626C72.3869 83.7368 69.2974 88.7924 67.4145 94.2934C65.5316 99.7944 64.8983 105.615 65.5569 111.367C66.8545 123.62 72.8176 134.995 82.3176 143.337C91.8175 151.68 104.195 156.412 117.108 156.638C123.172 156.739 129.189 155.608 134.76 153.32C140.33 151.032 145.326 147.64 149.416 143.369C153.506 139.099 156.597 134.047 158.482 128.549C160.367 123.052 161.003 117.235 160.35 111.485C159.059 99.2263 153.099 87.8447 143.598 79.4959C134.098 71.147 121.716 66.4106 108.799 66.1839Z" fill="#3E5C76"/>
<path d="M139.81 111.367C140.187 114.628 139.832 117.928 138.768 121.048C137.704 124.167 135.955 127.035 133.637 129.46C131.32 131.884 128.487 133.81 125.328 135.109C122.169 136.408 118.756 137.05 115.316 136.992C108.002 136.87 100.988 134.194 95.6033 129.471C90.2186 124.749 86.8363 118.308 86.0968 111.367C85.7237 108.105 86.083 104.804 87.151 101.684C88.219 98.5646 89.9712 95.6974 92.291 93.2735C94.6109 90.8495 97.4453 88.9242 100.606 87.6256C103.766 86.327 107.18 85.6848 110.621 85.7418C117.93 85.8717 124.936 88.5508 130.315 93.2726C135.693 97.9943 139.071 104.432 139.81 111.367Z" fill="#3E5C76"/>
<path d="M188.302 39.7635L183.052 20.2941L204.364 0L209.584 19.4693L188.302 39.7635Z" fill="#263238"/>
<path d="M188.302 39.7636L208.719 44.7709L230 24.4768L209.584 19.4695L188.302 39.7636Z" fill="#263238"/>
<path d="M199.466 33.0392L195.36 29.1237L107.954 112.475L112.06 116.391L199.466 33.0392Z" fill="#263238"/>
</g>
</svg>
