<svg width="535" height="619" viewBox="0 0 535 619" fill="none" xmlns="http://www.w3.org/2000/svg">
<path d="M267.5 618.158C415.236 618.158 535 545.357 535 455.551C535 365.746 415.236 292.945 267.5 292.945C119.764 292.945 0 365.746 0 455.551C0 545.357 119.764 618.158 267.5 618.158Z" fill="#F0F0F0"/>
<path d="M185.25 573.335C179.495 576.787 194.044 588.817 201.235 584.175L328.233 496.857L343.361 478.107C343.51 477.916 343.602 477.673 343.623 477.415C343.643 477.157 343.592 476.898 343.476 476.678C343.36 476.457 343.186 476.287 342.981 476.194C342.775 476.1 342.549 476.088 342.337 476.158L313.15 486.619L185.25 573.335Z" fill="#E0E0E0"/>
<path d="M76.9852 546.047L28.2962 513.018C25.5468 511.161 25.5468 508.141 28.2962 506.284L300.75 321.724C302.291 320.808 303.993 320.331 305.72 320.331C307.447 320.331 309.149 320.808 310.69 321.724L359.39 354.753C362.129 356.609 362.129 359.63 359.39 361.486L86.9256 546.047C85.3848 546.962 83.6822 547.439 81.9554 547.439C80.2286 547.439 78.526 546.962 76.9852 546.047Z" fill="#E0E0E0"/>
<path d="M241.241 494.726L283.095 466.287C287.414 463.371 289.574 459.526 289.574 455.695C289.574 451.864 289.574 448.857 289.574 448.857L246.161 420.091C244.947 419.161 243.936 417.908 243.211 416.434C242.485 414.959 242.066 413.305 241.987 411.605V350.987L168.875 400.674V461.305C168.952 463.002 169.369 464.655 170.092 466.127C170.816 467.6 171.825 468.851 173.038 469.778L210.017 494.726C218.622 500.57 232.614 500.57 241.241 494.726Z" fill="#90CAF9"/>
<g opacity="0.6">
<path d="M241.241 494.726L283.095 466.287C287.414 463.371 289.574 459.526 289.574 455.695C289.574 451.864 289.574 448.857 289.574 448.857L246.161 420.091C244.947 419.161 243.936 417.908 243.211 416.434C242.485 414.959 242.066 413.305 241.987 411.605V350.987L168.875 400.674V461.305C168.952 463.002 169.369 464.655 170.092 466.127C170.816 467.6 171.825 468.851 173.038 469.778L210.017 494.726C218.622 500.57 232.614 500.57 241.241 494.726Z" fill="black"/>
</g>
<path opacity="0.3" d="M186.43 471.974V478.852L173.072 469.778C171.862 468.847 170.855 467.595 170.131 466.124C169.408 464.652 168.99 463.001 168.909 461.305V400.622L182.801 391.247C183.079 395.392 183.402 399.693 183.691 403.877L173.918 410.52V457.879C173.989 459.578 174.404 461.233 175.128 462.707C175.852 464.18 176.864 465.43 178.081 466.352L186.43 471.974Z" fill="black"/>
<path d="M173.918 457.827C173.994 459.524 174.411 461.177 175.135 462.649C175.858 464.122 176.868 465.373 178.081 466.3L210.017 487.887C218.644 493.732 232.636 493.745 241.274 487.887L283.151 459.461C291.778 453.616 291.778 444.124 283.151 438.266L251.204 416.678C249.991 415.748 248.982 414.494 248.258 413.02C247.535 411.545 247.118 409.891 247.04 408.192V360.82L173.929 410.507L173.918 457.827Z" fill="#90CAF9"/>
<path opacity="0.3" d="M173.918 457.827C173.994 459.524 174.411 461.177 175.135 462.649C175.858 464.122 176.868 465.373 178.081 466.3L210.017 487.887C218.644 493.732 232.636 493.745 241.274 487.887L283.151 459.461C291.778 453.616 291.778 444.124 283.151 438.266L251.204 416.678C249.991 415.748 248.982 414.494 248.258 413.02C247.535 411.545 247.118 409.891 247.04 408.192V360.82L173.929 410.507L173.918 457.827Z" fill="black"/>
<path opacity="0.5" d="M259.686 422.431L251.204 416.678C249.991 415.748 248.982 414.494 248.258 413.02C247.535 411.545 247.118 409.891 247.04 408.192V360.82L173.929 410.507V457.879C174.005 459.577 174.422 461.229 175.146 462.702C175.869 464.174 176.879 465.425 178.092 466.352L186.441 472.014L259.686 422.431Z" fill="black"/>
<path d="M289.585 448.857V455.695C289.585 459.54 287.359 463.358 283.106 466.3L241.241 494.713C236.653 497.595 231.527 499.091 226.325 499.067V492.254C231.527 492.279 236.653 490.783 241.241 487.9L283.106 459.461C287.414 456.545 289.585 452.701 289.585 448.857Z" fill="#90CAF9"/>
<path opacity="0.5" d="M289.585 448.857V455.695C289.585 459.54 287.359 463.358 283.106 466.3L241.241 494.713C236.653 497.595 231.527 499.091 226.325 499.067V492.254C231.527 492.279 236.653 490.783 241.241 487.9L283.106 459.461C287.414 456.545 289.585 452.701 289.585 448.857Z" fill="black"/>
<path d="M56.5147 516.771C58.0934 517.671 59.8309 518.12 61.5855 518.082C63.3402 518.043 65.0621 517.518 66.611 516.549L349.35 324.784C350.864 323.622 352.123 322.058 353.026 320.218C353.93 318.378 354.451 316.314 354.548 314.193V11.6919C354.488 9.63141 354.014 7.61679 353.165 5.81251C352.316 4.00822 351.115 2.4654 349.662 1.30999C348.084 0.411733 346.349 -0.036325 344.596 0.00230153C342.844 0.040928 341.124 0.565147 339.577 1.53228L56.8487 193.297C55.3316 194.456 54.0689 196.019 53.1636 197.859C52.2583 199.7 51.736 201.766 51.6392 203.888V506.31C51.6875 508.383 52.1548 510.413 53.0026 512.232C53.8503 514.05 55.0542 515.606 56.5147 516.771Z" fill="#90CAF9"/>
<path d="M66.6106 516.483L349.35 324.718C350.866 323.556 352.128 321.99 353.034 320.148C353.939 318.305 354.461 316.238 354.559 314.114V11.6788C354.559 7.75618 352.222 6.2002 349.35 8.14845L66.6106 199.913C65.0935 201.072 63.8309 202.635 62.9256 204.476C62.0203 206.316 61.4979 208.382 61.4011 210.504V512.94C61.4011 516.849 63.7387 518.431 66.6106 516.483Z" fill="#90CAF9"/>
<path opacity="0.5" d="M66.6106 516.483L349.35 324.718C350.866 323.556 352.128 321.99 353.034 320.148C353.939 318.305 354.461 316.238 354.559 314.114V11.6788C354.559 7.75618 352.222 6.2002 349.35 8.14845L66.6106 199.913C65.0935 201.072 63.8309 202.635 62.9256 204.476C62.0203 206.316 61.4979 208.382 61.4011 210.504V512.94C61.4011 516.849 63.7387 518.431 66.6106 516.483Z" fill="black"/>
<path d="M65.8426 523.465C64.3642 524.213 62.7661 524.58 61.1567 524.539C59.5473 524.498 57.9641 524.052 56.5144 523.23C55.0607 522.074 53.8603 520.532 53.011 518.727C52.1617 516.923 51.6877 514.908 51.6277 512.848V488.371L61.4011 495.013V519.477C61.4011 523.034 63.3268 524.616 65.8426 523.465Z" fill="#90CAF9"/>
<path opacity="0.5" d="M65.8426 523.465C64.3642 524.213 62.7661 524.58 61.1567 524.539C59.5473 524.498 57.9641 524.052 56.5144 523.23C55.0607 522.074 53.8603 520.532 53.011 518.727C52.1617 516.923 51.6877 514.908 51.6277 512.848V488.371L61.4011 495.013V519.477C61.4011 523.034 63.3268 524.616 65.8426 523.465Z" fill="black"/>
<path d="M61.4011 495.013V519.464C61.4011 523.387 63.7387 524.956 66.6106 522.995L349.35 331.243C350.866 330.081 352.128 328.515 353.034 326.673C353.939 324.83 354.461 322.763 354.559 320.639V296.135L61.4011 495.013Z" fill="#90CAF9"/>
<path opacity="0.3" d="M61.4011 494.961V519.464C61.4011 523.387 63.7387 524.956 66.6106 522.995L349.35 331.243C350.866 330.081 352.128 328.515 353.034 326.673C353.939 324.83 354.461 322.763 354.559 320.639V296.135L61.4011 494.961Z" fill="black"/>
<path d="M71.1746 464.312V214.322C71.2345 213.047 71.5489 211.807 72.0922 210.701C72.6356 209.594 73.3927 208.654 74.3025 207.955L341.68 26.6243C343.405 25.4605 344.808 26.402 344.808 28.7425V278.798C344.748 280.071 344.434 281.31 343.89 282.414C343.347 283.518 342.59 284.456 341.68 285.152L74.3025 466.444C72.5771 467.607 71.1746 466.653 71.1746 464.312Z" fill="#90CAF9"/>
<path d="M71.1746 464.312V214.322C71.2345 213.047 71.5489 211.807 72.0922 210.701C72.6356 209.594 73.3927 208.654 74.3025 207.955L341.68 26.6243C343.405 25.4605 344.808 26.402 344.808 28.7425V278.798C344.748 280.071 344.434 281.31 343.89 282.414C343.347 283.518 342.59 284.456 341.68 285.152L74.3025 466.444C72.5771 467.607 71.1746 466.653 71.1746 464.312Z" fill="#263238"/>
<path opacity="0.7" d="M62.9372 204.45C62.0117 206.29 61.4842 208.369 61.4011 210.504V495.013L51.6277 488.371V203.888C51.6949 201.756 52.2194 199.678 53.1527 197.847L62.9372 204.45Z" fill="black"/>
<path opacity="0.3" d="M354.537 10.6717C354.17 7.52054 351.999 6.38298 349.372 8.14817L66.633 199.913C65.0933 201.034 63.8246 202.601 62.9485 204.463L53.175 197.834C54.0575 195.977 55.3249 194.412 56.8596 193.284L339.61 1.59736C341.159 0.628084 342.88 0.102694 344.635 0.064064C346.39 0.0254337 348.127 0.474657 349.706 1.37508C351.028 2.43203 352.142 3.80799 352.975 5.41113C353.808 7.01428 354.341 8.80771 354.537 10.6717Z" fill="black"/>
<path d="M98.0346 488.109C97.415 488.539 96.716 488.786 95.9975 488.829C94.973 488.986 93.9321 488.771 93.0143 488.214C92.2861 487.63 91.6863 486.852 91.2644 485.942C90.8425 485.033 90.6106 484.019 90.5876 482.984V249.456L95.4744 252.764V486.344C95.4744 487.73 96.0643 488.528 96.9103 488.528C97.3072 488.49 97.6915 488.347 98.0346 488.109Z" fill="#F0F0F0"/>
<path d="M366.781 302.333C366.727 303.383 366.465 304.403 366.014 305.311C365.564 306.219 364.938 306.991 364.188 307.564L98.0346 488.11C96.6098 489.077 95.4521 488.293 95.4521 486.344V233.033L102.587 228.196C104.012 227.228 106.339 212.505 107.775 211.472L169.666 169.5C171.102 168.532 174.474 179.45 175.899 178.47L366.781 49.0225V302.333Z" fill="#2B2B2B"/>
<path d="M365.579 51.4152V302.333C365.53 303.142 365.325 303.927 364.979 304.629C364.634 305.331 364.158 305.932 363.587 306.387L97.4335 486.893C97.2689 487.016 97.0821 487.092 96.8881 487.116C96.6432 487.116 96.6432 486.384 96.6432 486.344V233.831L103.189 229.385C104.224 228.679 104.869 226.313 106.328 220.232C106.848 217.627 107.563 215.08 108.465 212.623L169.799 171.03C170.527 172.186 171.178 173.405 171.747 174.678C173.417 178.129 174.352 179.908 175.71 179.908C175.989 179.908 176.262 179.817 176.5 179.646L365.579 51.4152ZM366.781 48.9832L175.899 178.43C175.842 178.471 175.777 178.494 175.71 178.496C174.263 178.496 171.257 169.343 169.855 169.343C169.793 169.323 169.728 169.323 169.666 169.343L107.775 211.315C106.339 212.296 104.012 227.006 102.587 228.039L95.4521 233.033V486.344C95.4521 487.73 96.031 488.528 96.8881 488.528C97.2843 488.507 97.6685 488.363 98.0013 488.109L364.188 307.563C364.938 306.991 365.564 306.219 366.014 305.311C366.465 304.402 366.727 303.383 366.781 302.333V48.9832Z" fill="#E0E0E0"/>
<path d="M93.0145 242.382C92.2842 241.8 91.6823 241.022 91.2584 240.112C90.8345 239.203 90.6008 238.188 90.5767 237.152V213.42C90.6278 212.374 90.8858 211.357 91.3302 210.449C91.7747 209.541 92.3933 208.767 93.1369 208.19L359.29 27.7482C360.039 27.1907 360.904 26.8848 361.79 26.8637C362.676 26.8427 363.551 27.1072 364.318 27.6287C365.086 28.1502 365.717 28.9087 366.143 29.8219C366.57 30.735 366.775 31.7679 366.737 32.8084V56.5142C366.685 57.564 366.423 58.5846 365.972 59.4933C365.521 60.402 364.895 61.1732 364.143 61.7444L98.0347 242.277C97.2634 242.756 96.4072 243.014 95.5352 243.032C94.6632 243.051 93.7997 242.828 93.0145 242.382Z" fill="#90CAF9"/>
<path opacity="0.4" d="M366.748 32.2073C366.57 30.6251 365.479 30.0498 364.188 30.8997L98.0346 211.446C97.275 212.024 96.6451 212.809 96.1979 213.734L91.3335 210.426C91.7694 209.518 92.3887 208.75 93.1368 208.19L359.29 27.7485C360.007 27.2117 360.831 26.9065 361.681 26.8638C362.53 26.8211 363.374 27.0424 364.127 27.5053C364.88 27.9683 365.516 28.6564 365.97 29.5004C366.425 30.3443 366.681 31.3141 366.715 32.3119L366.748 32.2073Z" fill="white"/>
<path opacity="0.1" d="M96.198 213.734C95.7351 214.64 95.4783 215.671 95.4522 216.728V252.829L90.5654 249.521V213.42C90.5599 213.298 90.5599 213.176 90.5654 213.054C90.5854 212.799 90.6188 212.546 90.6656 212.295C90.805 211.636 91.0223 211.002 91.3113 210.413L96.198 213.734Z" fill="black"/>
<path d="M366.77 32.691V48.983L175.888 178.43C174.463 179.411 173.306 178.613 173.306 176.678V170.506C173.306 168.571 172.192 167.774 170.701 168.754L107.764 211.433C107.014 212.006 106.389 212.778 105.938 213.686C105.488 214.594 105.225 215.614 105.17 216.663V222.821C105.113 223.87 104.849 224.888 104.399 225.796C103.949 226.704 103.325 227.476 102.576 228.051L95.4521 233.033V216.728C95.5075 215.681 95.7696 214.663 96.2179 213.755C96.6661 212.847 97.2881 212.074 98.0346 211.498L364.188 31.0565C365.613 29.9582 366.77 30.7558 366.77 32.691Z" fill="#90CAF9"/>
<path d="M354.615 42.9029C356.418 41.6869 357.876 42.6807 357.876 45.1258C357.815 46.4559 357.487 47.7504 356.921 48.9043C356.354 50.0583 355.564 51.0393 354.615 51.7681C352.811 52.9841 351.342 51.9904 351.342 49.5453C351.406 48.2142 351.735 46.9194 352.304 45.7655C352.872 44.6116 353.664 43.631 354.615 42.9029Z" fill="white"/>
<path d="M342.86 50.8656C344.663 49.6496 346.121 50.6302 346.121 53.0753C346.062 54.406 345.735 55.7012 345.168 56.8555C344.601 58.0098 343.81 58.9904 342.86 59.7177C341.057 60.9468 339.598 59.953 339.598 57.5079C339.66 56.1777 339.987 54.8833 340.554 53.7293C341.121 52.5754 341.911 51.5943 342.86 50.8656Z" fill="white"/>
<path d="M331.105 58.8288C332.908 57.5997 334.367 58.5935 334.367 61.0386C334.305 62.3688 333.978 63.6632 333.411 64.8171C332.844 65.9711 332.054 66.9522 331.105 67.6809C329.302 68.8969 327.844 67.9163 327.844 65.4712C327.903 64.1405 328.23 62.8453 328.797 61.691C329.364 60.5367 330.154 59.556 331.105 58.8288Z" fill="white"/>
<path d="M366.781 48.9832V68.7925L95.4521 252.83V233.033L100.784 229.411C102.209 228.444 102.688 226.966 103.367 224.181L105.181 216.807C105.749 214.192 106.294 212.505 107.775 211.577L169.666 169.604C171.102 168.637 172.226 168.532 173.317 170.65L175.543 175.384C176.356 177.031 176.767 177.999 178.192 177.031L366.781 48.9832Z" fill="black"/>
<path d="M95.4521 233.007V252.83L90.5654 249.522V229.725L95.4521 233.007Z" fill="#E0E0E0"/>
<path d="M107.352 234.445L103.277 237.204L104.825 233.7C104.887 233.568 104.92 233.42 104.92 233.269C104.92 233.118 104.887 232.969 104.825 232.837C104.702 232.667 104.502 232.837 104.357 233.099L102.131 238.08C102.131 238.08 102.131 238.198 102.075 238.263C102.07 238.346 102.07 238.429 102.075 238.512C102.068 238.586 102.068 238.66 102.075 238.734C102.091 238.771 102.11 238.806 102.131 238.839L104.357 240.826C104.389 240.856 104.428 240.872 104.469 240.872C104.509 240.872 104.548 240.856 104.58 240.826C104.694 240.739 104.78 240.611 104.825 240.46C104.947 240.133 104.925 239.767 104.825 239.649L103.277 238.237L107.352 235.478C107.455 235.382 107.538 235.258 107.594 235.117C107.65 234.977 107.677 234.823 107.674 234.668C107.674 234.485 107.53 234.341 107.352 234.445Z" fill="#455A64"/>
<path d="M110.747 232.131L114.821 229.372L113.263 227.973C113.196 227.85 113.161 227.707 113.161 227.561C113.161 227.416 113.196 227.273 113.263 227.149C113.374 226.823 113.585 226.666 113.719 226.783L115.945 228.784C115.975 228.811 115.999 228.847 116.012 228.888C116.024 228.962 116.024 229.037 116.012 229.111C116.023 229.197 116.023 229.286 116.012 229.372L115.945 229.568L113.719 234.563C113.676 234.683 113.602 234.784 113.507 234.851C113.474 234.888 113.431 234.908 113.385 234.908C113.339 234.908 113.296 234.888 113.263 234.851C113.199 234.722 113.166 234.575 113.166 234.426C113.166 234.277 113.199 234.13 113.263 234.001L114.821 230.497L110.747 233.256C110.569 233.373 110.424 233.256 110.424 232.89C110.429 232.744 110.461 232.6 110.516 232.47C110.572 232.339 110.65 232.224 110.747 232.131Z" fill="#455A64"/>
<path d="M124.104 218.363C124.104 218.075 123.871 218.101 123.759 218.363L123.203 219.971C122.246 219.853 121.099 220.938 120.32 222.874C119.307 225.384 119.307 228.352 120.32 229.49C120.564 229.757 120.879 229.917 121.213 229.941C121.546 229.965 121.876 229.851 122.145 229.621C122.96 228.976 123.598 228.068 123.982 227.005C124.043 226.878 124.076 226.734 124.076 226.587C124.076 226.44 124.043 226.296 123.982 226.169C123.848 226.025 123.648 226.169 123.515 226.482C122.758 228.352 121.533 229.189 120.787 228.339C120.041 227.489 120.03 225.266 120.787 223.397C121.322 222.089 122.09 221.278 122.758 221.226L122.346 222.442C122.234 222.756 122.346 223.044 122.502 222.913L124.16 221.605C124.228 221.546 124.282 221.466 124.315 221.374C124.348 221.282 124.36 221.181 124.349 221.082L124.104 218.363Z" fill="#455A64"/>
<path d="M167.873 178.522L169.365 174.835C169.449 174.659 169.493 174.461 169.493 174.259C169.493 174.058 169.449 173.86 169.365 173.684C169.187 173.488 168.898 173.684 168.731 174.115L167.239 177.803L165.758 176.129C165.58 175.933 165.302 176.129 165.124 176.56C165.035 176.734 164.987 176.933 164.987 177.136C164.987 177.339 165.035 177.538 165.124 177.711L166.604 179.424L165.124 183.111C165.035 183.285 164.987 183.484 164.987 183.687C164.987 183.889 165.035 184.088 165.124 184.262C165.167 184.307 165.222 184.332 165.28 184.332C165.337 184.332 165.393 184.307 165.436 184.262C165.581 184.152 165.694 183.992 165.758 183.804L167.239 180.117L168.731 181.791C168.773 181.836 168.829 181.861 168.886 181.861C168.944 181.861 168.999 181.836 169.042 181.791C169.188 181.681 169.3 181.521 169.365 181.333C169.449 181.157 169.493 180.959 169.493 180.758C169.493 180.556 169.449 180.358 169.365 180.182L167.873 178.522Z" fill="#455A64"/>
<path d="M129.514 222.9V216.728C129.568 215.679 129.831 214.659 130.282 213.751C130.732 212.843 131.358 212.071 132.108 211.498L349.583 64.02C351.019 63.0393 352.177 63.837 352.177 65.7721V71.9437C352.123 72.9931 351.86 74.0129 351.41 74.9212C350.959 75.8296 350.334 76.6011 349.583 77.1739L132.097 224.652C130.672 225.633 129.514 224.835 129.514 222.9Z" fill="#2B2B2B"/>
<path d="M346.055 77.6967C345.977 77.7116 345.898 77.7116 345.821 77.6967C345.675 77.6176 345.557 77.4823 345.486 77.3134C345.416 77.1445 345.396 76.9521 345.431 76.7684L345.687 74.271L344.685 73.4211C344.598 73.3406 344.529 73.237 344.482 73.1188C344.436 73.0006 344.414 72.8712 344.418 72.7411C344.414 72.5381 344.45 72.3367 344.523 72.1529C344.597 71.9691 344.706 71.8079 344.841 71.682L346.366 70.296C346.396 70.2537 346.419 70.2048 346.433 70.1522L347.112 67.5371C347.154 67.3219 347.249 67.1261 347.386 66.9747C347.523 66.8233 347.695 66.7232 347.88 66.6872C348.005 66.6705 348.132 66.7023 348.241 66.7779C348.349 66.8534 348.434 66.9685 348.481 67.1056L349.049 68.5308L350.34 67.9555C350.455 67.8953 350.583 67.8806 350.706 67.9136C350.828 67.9466 350.938 68.0256 351.019 68.1386C351.125 68.3194 351.182 68.5337 351.182 68.7531C351.182 68.9725 351.125 69.1868 351.019 69.3677L349.906 71.7997C349.901 71.8475 349.901 71.8958 349.906 71.9435L350.173 74.1402C350.194 74.3412 350.174 74.5449 350.116 74.7355C350.058 74.9261 349.964 75.0983 349.839 75.2386C349.766 75.3393 349.673 75.4171 349.568 75.465C349.463 75.513 349.35 75.5295 349.238 75.5131L348.047 75.2909L346.7 77.3045C346.629 77.4274 346.532 77.5275 346.419 77.596C346.307 77.6644 346.181 77.6991 346.055 77.6967ZM345.32 72.5973L346.322 73.4472C346.425 73.5466 346.504 73.6764 346.551 73.8233C346.598 73.9703 346.611 74.1293 346.589 74.284L346.411 75.9577L347.312 74.6502C347.39 74.5214 347.494 74.4178 347.614 74.3491C347.735 74.2805 347.869 74.2491 348.003 74.2579L349.249 74.4409C349.258 74.3847 349.258 74.3272 349.249 74.271L348.982 72.0743C348.961 71.8031 349.008 71.5307 349.116 71.2898L350.084 69.1585L349.16 69.59C349.014 69.6609 348.85 69.6624 348.702 69.5941C348.555 69.5258 348.436 69.3931 348.37 69.2238L347.925 68.0993L347.312 70.4399C347.249 70.7032 347.116 70.9364 346.934 71.1067L345.409 72.4143C345.365 72.4642 345.334 72.5276 345.32 72.5973Z" fill="#E0E0E0"/>
<path d="M355.238 63.2615C355.038 63.2683 354.843 63.1961 354.682 63.0565C354.522 62.9169 354.406 62.718 354.353 62.4917C354.3 62.2654 354.314 62.0249 354.392 61.8088C354.47 61.5927 354.607 61.4135 354.782 61.3002L362.084 56.3446C362.187 56.2655 362.302 56.2118 362.423 56.1869C362.543 56.1619 362.667 56.1662 362.787 56.1995C362.906 56.2327 363.018 56.2942 363.117 56.3802C363.215 56.4662 363.298 56.5749 363.359 56.6996C363.421 56.8243 363.46 56.9625 363.474 57.1056C363.489 57.2487 363.478 57.3937 363.443 57.5319C363.408 57.67 363.349 57.7983 363.271 57.9089C363.192 58.0195 363.095 58.1101 362.986 58.1751L355.683 63.1177C355.55 63.2152 355.395 63.2651 355.238 63.2615Z" fill="#455A64"/>
<path d="M355.238 68.2827C355.08 68.2843 354.925 68.2368 354.788 68.1449C354.651 68.053 354.538 67.9201 354.459 67.7597C354.34 67.5162 354.308 67.2279 354.368 66.9566C354.429 66.6853 354.577 66.4526 354.782 66.3083L362.084 61.3658C362.186 61.2951 362.299 61.2489 362.417 61.2298C362.534 61.2106 362.654 61.2189 362.769 61.2541C362.884 61.2893 362.991 61.3508 363.086 61.4351C363.18 61.5193 363.26 61.6246 363.32 61.745C363.379 61.8649 363.417 61.9975 363.433 62.135C363.448 62.2726 363.44 62.4124 363.409 62.5462C363.378 62.6801 363.324 62.8054 363.252 62.9147C363.179 63.0241 363.089 63.1154 362.986 63.1833L355.683 68.1389C355.55 68.2364 355.395 68.2863 355.238 68.2827Z" fill="#455A64"/>
<path d="M355.238 73.1725C355.04 73.1732 354.847 73.097 354.689 72.9557C354.531 72.8144 354.417 72.6159 354.365 72.3909C354.313 72.166 354.326 71.9272 354.401 71.7115C354.476 71.4958 354.61 71.3154 354.782 71.1981L362.084 66.2425C362.293 66.1045 362.539 66.0683 362.77 66.1416C363.001 66.215 363.199 66.3921 363.32 66.6348C363.379 66.7547 363.417 66.8873 363.433 67.0249C363.448 67.1624 363.44 67.3022 363.409 67.4361C363.378 67.5699 363.324 67.6952 363.252 67.8045C363.179 67.9139 363.089 68.0052 362.986 68.0731L355.683 73.0287C355.548 73.1201 355.395 73.1696 355.238 73.1725Z" fill="#455A64"/>
<path d="M103.456 258.374C103.256 258.381 103.06 258.308 102.9 258.169C102.739 258.029 102.623 257.83 102.571 257.604C102.518 257.378 102.532 257.137 102.61 256.921C102.687 256.705 102.825 256.526 102.999 256.412L110.302 251.457C110.507 251.335 110.745 251.31 110.966 251.387C111.186 251.464 111.374 251.637 111.489 251.871C111.604 252.106 111.639 252.383 111.586 252.646C111.533 252.909 111.396 253.139 111.203 253.287L103.901 258.23C103.767 258.325 103.613 258.375 103.456 258.374Z" fill="#455A64"/>
<path d="M103.456 263.329C103.298 263.331 103.143 263.283 103.006 263.191C102.869 263.099 102.755 262.967 102.677 262.806C102.616 262.686 102.577 262.553 102.561 262.415C102.544 262.277 102.552 262.137 102.582 262.002C102.612 261.867 102.664 261.74 102.736 261.629C102.807 261.518 102.897 261.425 102.999 261.355L110.302 256.412C110.403 256.342 110.515 256.296 110.632 256.277C110.749 256.258 110.867 256.266 110.981 256.302C111.095 256.337 111.202 256.398 111.295 256.482C111.389 256.567 111.467 256.672 111.526 256.791C111.586 256.912 111.626 257.044 111.642 257.183C111.658 257.321 111.651 257.461 111.621 257.596C111.591 257.731 111.539 257.857 111.467 257.968C111.395 258.079 111.306 258.173 111.203 258.243L103.901 263.185C103.767 263.281 103.613 263.331 103.456 263.329Z" fill="#455A64"/>
<path d="M103.456 268.337C103.257 268.338 103.064 268.261 102.907 268.12C102.749 267.979 102.635 267.78 102.583 267.555C102.531 267.33 102.544 267.092 102.619 266.876C102.694 266.66 102.828 266.48 103 266.363L110.302 261.42C110.403 261.348 110.515 261.3 110.632 261.28C110.749 261.261 110.868 261.269 110.983 261.304C111.097 261.339 111.204 261.401 111.297 261.487C111.391 261.572 111.469 261.678 111.526 261.799C111.586 261.918 111.625 262.05 111.641 262.187C111.658 262.324 111.65 262.464 111.62 262.597C111.59 262.731 111.538 262.857 111.466 262.967C111.395 263.076 111.305 263.168 111.203 263.237L103.901 268.193C103.765 268.283 103.612 268.332 103.456 268.337Z" fill="#455A64"/>
<path d="M168.219 214.727V222.324C168.219 223.88 169.154 224.508 170.3 223.736L257.048 164.818V151.56L170.311 210.478C169.702 210.942 169.195 211.569 168.831 212.308C168.468 213.046 168.258 213.875 168.219 214.727Z" fill="#E6E6E6"/>
<path d="M267.979 144.12C269.092 143.335 270.06 143.976 270.06 145.532V153.129C270.02 153.977 269.81 154.802 269.449 155.538C269.087 156.274 268.584 156.9 267.979 157.365L257.048 164.779V151.56L267.979 144.12Z" fill="#90CAF9"/>
<path d="M267.166 154.58L265.953 154.123C266.077 153.519 266.14 152.9 266.142 152.279C266.198 151.699 266.126 151.112 265.93 150.576C265.735 150.039 265.424 149.572 265.029 149.219C264.753 149.047 264.443 148.966 264.132 148.984C263.82 149.003 263.518 149.12 263.259 149.324C262.483 150.023 261.858 150.927 261.434 151.963C261.011 152.999 260.801 154.137 260.821 155.286C260.765 155.866 260.837 156.453 261.033 156.989C261.228 157.526 261.539 157.993 261.934 158.346C262.168 158.502 262.433 158.583 262.702 158.581C263.056 158.577 263.403 158.459 263.704 158.241C264.635 157.493 265.328 156.403 265.674 155.142L266.899 155.587C266.943 155.6 266.989 155.6 267.032 155.587C267.146 155.601 267.26 155.563 267.351 155.48C267.441 155.398 267.501 155.278 267.518 155.145C267.535 155.012 267.508 154.877 267.443 154.767C267.377 154.657 267.278 154.581 267.166 154.554V154.58ZM263.259 157.326C263.133 157.434 262.985 157.499 262.83 157.515C262.675 157.531 262.519 157.497 262.379 157.418C262.134 157.149 261.946 156.816 261.832 156.445C261.718 156.074 261.68 155.677 261.723 155.286C261.711 154.324 261.883 153.372 262.225 152.498C262.568 151.625 263.074 150.853 263.704 150.239C263.873 150.12 264.064 150.052 264.261 150.043C264.375 150.039 264.487 150.075 264.584 150.148C264.829 150.416 265.017 150.75 265.131 151.12C265.245 151.491 265.283 151.888 265.24 152.279C265.251 153.238 265.078 154.189 264.735 155.06C264.392 155.931 263.888 156.701 263.259 157.313V157.326Z" fill="#FAFAFA"/>
<path d="M132.164 236.341L119.641 244.801C119.036 245.26 118.532 245.881 118.17 246.612C117.808 247.344 117.599 248.166 117.559 249.011V256.582C117.559 258.138 118.494 258.765 119.641 257.994L132.164 249.482C132.768 249.019 133.27 248.396 133.63 247.662C133.99 246.928 134.197 246.104 134.234 245.259V237.74C134.234 236.197 133.31 235.557 132.164 236.341Z" fill="#90CAF9"/>
<path d="M349.951 88.6279C348.532 89.7167 347.351 91.1824 346.504 92.9065C345.657 94.6306 345.168 96.5646 345.075 98.5522C345.075 102.213 347.301 103.691 349.951 101.873C351.372 100.784 352.555 99.3167 353.404 97.5903C354.253 95.8638 354.744 93.9268 354.837 91.936C354.837 88.2749 352.644 86.7974 349.951 88.6279Z" fill="#90CAF9"/>
<path d="M349.383 94.4332C349.231 94.4363 349.081 94.3911 348.949 94.3025C348.794 94.1735 348.669 94 348.588 93.7986C348.506 93.5972 348.469 93.3746 348.481 93.1518C348.502 92.6277 348.629 92.117 348.852 91.6621C349.074 91.2073 349.386 90.8214 349.762 90.5367C349.914 90.3954 350.099 90.3111 350.292 90.2947C350.486 90.2783 350.679 90.3305 350.847 90.4447C351.015 90.5588 351.15 90.7296 351.234 90.9349C351.318 91.1401 351.348 91.3704 351.32 91.5959C351.296 92.1207 351.167 92.6314 350.942 93.086C350.718 93.5406 350.405 93.9262 350.029 94.211C349.833 94.347 349.611 94.4234 349.383 94.4332Z" fill="white"/>
<path d="M351.876 94.8387C351.605 94.6797 351.303 94.6104 351.001 94.638C350.699 94.6656 350.409 94.7893 350.162 94.9956L349.45 95.4794C348.803 95.9608 348.264 96.6166 347.877 97.3921C347.49 98.1676 347.266 99.0404 347.224 99.9381V100.54C347.659 100.761 348.136 100.846 348.609 100.786C349.081 100.727 349.531 100.525 349.917 100.2C351.041 99.3791 351.968 98.2362 352.611 96.8784V96.7346C352.641 96.3706 352.59 96.0036 352.461 95.6708C352.332 95.3379 352.13 95.0509 351.876 94.8387Z" fill="white"/>
<path d="M332.686 106.358V104.331C332.686 102.03 331.495 100.971 330.025 101.965C329.212 102.648 328.547 103.546 328.083 104.586C327.619 105.626 327.369 106.779 327.354 107.953V109.771C327.319 111.019 327.008 112.236 326.452 113.301C326.314 113.58 326.238 113.894 326.23 114.216C326.23 114.805 326.53 115.066 326.898 114.818L333.142 110.595C333.346 110.419 333.512 110.191 333.627 109.928C333.743 109.665 333.806 109.374 333.81 109.078C333.817 108.964 333.803 108.85 333.769 108.744C333.734 108.638 333.68 108.542 333.61 108.463C333.296 108.259 333.04 107.95 332.876 107.575C332.712 107.201 332.645 106.777 332.686 106.358Z" fill="#90CAF9"/>
<path d="M331.35 112.477C331.342 113.041 331.222 113.594 331 114.093C330.777 114.593 330.459 115.024 330.07 115.354C329.358 115.825 328.779 115.354 328.779 114.216L331.35 112.477Z" fill="#90CAF9"/>
<path d="M309.666 115.981C310.007 115.744 310.386 115.593 310.779 115.537C311.087 115.494 311.399 115.568 311.67 115.746C311.932 115.934 312.138 116.213 312.26 116.544C312.403 116.999 312.46 117.485 312.427 117.969C312.43 118.409 312.389 118.848 312.304 119.276C312.224 119.66 312.12 120.036 311.992 120.401C311.871 120.745 311.733 121.081 311.581 121.408L311.135 122.349C311.002 122.65 310.868 122.964 310.757 123.265C310.65 123.554 310.572 123.857 310.523 124.167C310.512 124.315 310.482 124.46 310.434 124.598C310.396 124.703 310.335 124.794 310.256 124.86L308.998 125.71C308.92 125.71 308.853 125.71 308.809 125.71C308.777 125.67 308.753 125.622 308.737 125.57C308.722 125.519 308.716 125.464 308.72 125.409C308.718 125.006 308.767 124.605 308.865 124.219C308.954 123.84 309.066 123.469 309.199 123.108C309.343 122.755 309.488 122.402 309.655 122.075C309.822 121.748 309.955 121.421 310.1 121.133C310.245 120.846 310.345 120.545 310.445 120.27C310.529 120.025 310.574 119.763 310.579 119.499C310.579 119.133 310.501 118.897 310.356 118.806C310.211 118.714 309.967 118.806 309.655 118.963C309.388 119.127 309.162 119.371 308.998 119.669C308.875 119.904 308.774 120.154 308.698 120.414L308.542 121.068C308.507 121.245 308.415 121.4 308.286 121.499L307.028 122.349C307.005 122.368 306.978 122.379 306.95 122.379C306.922 122.379 306.895 122.368 306.872 122.349C306.847 122.313 306.828 122.271 306.816 122.226C306.805 122.181 306.801 122.134 306.805 122.088C306.821 121.579 306.888 121.074 307.006 120.584C307.147 120.003 307.334 119.439 307.562 118.897C307.805 118.327 308.104 117.791 308.453 117.302C308.786 116.78 309.197 116.332 309.666 115.981ZM310.557 128.063C310.556 128.203 310.53 128.342 310.479 128.469C310.436 128.581 310.367 128.677 310.278 128.743L308.987 129.619C308.975 129.634 308.96 129.645 308.944 129.653C308.927 129.661 308.91 129.665 308.892 129.665C308.875 129.665 308.857 129.661 308.841 129.653C308.825 129.645 308.81 129.634 308.798 129.619C308.766 129.579 308.741 129.532 308.726 129.48C308.711 129.428 308.705 129.373 308.709 129.318V127.449C308.712 127.307 308.742 127.169 308.798 127.043C308.833 126.926 308.899 126.825 308.987 126.756L310.278 125.88C310.306 125.852 310.342 125.837 310.378 125.837C310.415 125.837 310.451 125.852 310.479 125.88C310.508 125.918 310.531 125.964 310.544 126.014C310.557 126.063 310.562 126.116 310.557 126.167V128.063Z" fill="#90CAF9"/>
<path d="M288.249 165.198V191.192C288.249 193.14 289.362 193.925 290.843 192.957L319.718 173.344C320.467 172.77 321.093 171.998 321.543 171.09C321.993 170.182 322.256 169.163 322.311 168.114V142.159C322.311 140.224 321.198 139.426 319.718 140.407L290.776 160.02C290.044 160.597 289.436 161.364 288.997 162.262C288.559 163.16 288.303 164.165 288.249 165.198Z" fill="#90CAF9"/>
<path opacity="0.5" d="M288.249 165.198V191.192C288.249 193.14 289.362 193.925 290.843 192.957L319.718 173.344C320.467 172.77 321.093 171.998 321.543 171.09C321.993 170.182 322.256 169.163 322.311 168.114V142.159C322.311 140.224 321.198 139.426 319.718 140.407L290.776 160.02C290.044 160.597 289.436 161.364 288.997 162.262C288.559 163.16 288.303 164.165 288.249 165.198Z" fill="#0D1B2A"/>
<path d="M300.594 176.103V164.74C300.602 164.174 300.792 163.632 301.127 163.224C301.462 162.816 301.915 162.573 302.397 162.543L311.224 162.086C312.215 162.086 312.471 162.7 311.814 163.563L301.796 176.639C301.139 177.502 300.594 177.266 300.594 176.103Z" fill="#FAFAFA"/>
<path d="M330.615 134.836L353.991 118.95C354.637 118.518 355.16 118.832 355.16 119.643C355.131 120.101 355.01 120.545 354.807 120.938C354.604 121.332 354.324 121.663 353.991 121.905L330.615 137.791C329.97 138.223 329.502 137.909 329.502 137.098C329.524 136.645 329.636 136.205 329.83 135.812C330.023 135.419 330.292 135.085 330.615 134.836Z" fill="#455A64"/>
<path d="M330.615 140.734L353.991 124.86C354.637 124.429 355.16 124.729 355.16 125.553C355.131 126.012 355.01 126.456 354.807 126.849C354.604 127.242 354.324 127.573 353.991 127.815L330.615 143.689C329.97 144.133 329.502 143.819 329.502 143.009C329.524 142.554 329.636 142.111 329.83 141.717C330.023 141.322 330.292 140.985 330.615 140.734Z" fill="#455A64"/>
<path d="M330.615 146.474L353.991 130.587C354.637 130.156 355.16 130.469 355.16 131.28C355.131 131.739 355.01 132.183 354.807 132.576C354.604 132.969 354.324 133.3 353.991 133.542L330.615 149.416C329.97 149.86 329.502 149.547 329.502 148.736C329.523 148.283 329.635 147.842 329.829 147.449C330.022 147.056 330.291 146.722 330.615 146.474Z" fill="#455A64"/>
<path d="M330.237 154.672L346.311 143.767C346.745 143.466 347.101 143.689 347.101 144.238C347.081 144.551 346.999 144.855 346.862 145.125C346.725 145.395 346.536 145.624 346.311 145.794L330.237 156.699C329.803 156.986 329.447 156.777 329.447 156.215C329.466 155.903 329.548 155.601 329.686 155.333C329.823 155.065 330.012 154.839 330.237 154.672Z" fill="#E0E0E0"/>
<path d="M330.237 158.725L346.311 147.82C346.745 147.519 347.101 147.742 347.101 148.291C347.081 148.604 346.999 148.908 346.862 149.178C346.725 149.448 346.536 149.677 346.311 149.847L330.237 160.752C329.803 161.039 329.447 160.83 329.447 160.268C329.466 159.956 329.548 159.654 329.686 159.386C329.823 159.118 330.012 158.892 330.237 158.725Z" fill="#E0E0E0"/>
<path d="M330.237 162.648L346.311 151.756C346.745 151.455 347.101 151.664 347.101 152.227C347.081 152.54 346.999 152.844 346.862 153.114C346.725 153.384 346.536 153.613 346.311 153.783L330.237 164.675C329.803 164.975 329.447 164.766 329.447 164.204C329.466 163.89 329.548 163.586 329.685 163.316C329.823 163.046 330.011 162.817 330.237 162.648Z" fill="#E0E0E0"/>
<path d="M288.249 211.42V237.388C288.249 239.336 289.362 240.12 290.843 239.153L319.718 219.54C320.467 218.966 321.093 218.194 321.543 217.286C321.993 216.378 322.256 215.358 322.311 214.309V188.355C322.311 186.406 321.198 185.622 319.718 186.589L290.776 206.203C290.039 206.783 289.428 207.556 288.989 208.461C288.551 209.367 288.297 210.38 288.249 211.42Z" fill="#90CAF9"/>
<path opacity="0.5" d="M288.249 211.42V237.388C288.249 239.336 289.362 240.12 290.843 239.153L319.718 219.54C320.467 218.966 321.093 218.194 321.543 217.286C321.993 216.378 322.256 215.358 322.311 214.309V188.355C322.311 186.406 321.198 185.622 319.718 186.589L290.776 206.203C290.039 206.783 289.428 207.556 288.989 208.461C288.551 209.367 288.297 210.38 288.249 211.42Z" fill="#4E7291"/>
<path d="M300.594 222.311V210.962C300.599 210.395 300.789 209.851 301.124 209.443C301.459 209.034 301.915 208.792 302.397 208.765L311.224 208.308C312.215 208.308 312.471 208.922 311.814 209.785L301.796 222.861C301.139 223.724 300.594 223.488 300.594 222.311Z" fill="#FAFAFA"/>
<path d="M330.615 181.045L353.991 165.171C354.637 164.74 355.16 165.041 355.16 165.864C355.131 166.323 355.01 166.767 354.807 167.16C354.604 167.553 354.324 167.884 353.991 168.126L330.615 184C329.97 184.445 329.502 184.131 329.502 183.32C329.524 182.865 329.636 182.423 329.83 182.028C330.023 181.633 330.292 181.296 330.615 181.045Z" fill="#455A64"/>
<path d="M330.615 186.955L353.991 171.081C354.637 170.65 355.16 170.951 355.16 171.774C355.129 172.233 355.007 172.676 354.804 173.069C354.601 173.461 354.323 173.793 353.991 174.037L330.615 189.91C329.97 190.342 329.502 190.041 329.502 189.217C329.524 188.764 329.636 188.323 329.83 187.931C330.023 187.538 330.292 187.204 330.615 186.955Z" fill="#455A64"/>
<path d="M330.615 192.682L353.991 176.808C354.637 176.377 355.16 176.678 355.16 177.501C355.131 177.96 355.01 178.404 354.807 178.797C354.604 179.19 354.324 179.521 353.991 179.764L330.615 195.637C329.97 196.069 329.502 195.768 329.502 194.944C329.526 194.492 329.639 194.052 329.832 193.659C330.025 193.267 330.293 192.932 330.615 192.682Z" fill="#455A64"/>
<path d="M330.237 200.881L346.311 189.989C346.745 189.688 347.101 189.897 347.101 190.459C347.081 190.773 346.999 191.077 346.862 191.347C346.725 191.617 346.536 191.846 346.311 192.015L330.237 202.96C329.803 203.26 329.447 203.051 329.447 202.489C329.46 202.166 329.538 201.852 329.676 201.572C329.813 201.292 330.006 201.055 330.237 200.881Z" fill="#E0E0E0"/>
<path d="M330.237 204.934L346.311 194.042C346.745 193.741 347.101 193.951 347.101 194.513C347.081 194.826 346.999 195.13 346.862 195.4C346.725 195.67 346.536 195.899 346.311 196.069L330.237 206.961C329.803 207.261 329.447 207.052 329.447 206.49C329.466 206.176 329.548 205.873 329.685 205.602C329.823 205.332 330.011 205.104 330.237 204.934Z" fill="#E0E0E0"/>
<path d="M330.237 208.87L346.311 197.978C346.745 197.677 347.101 197.886 347.101 198.448C347.081 198.762 346.999 199.066 346.862 199.336C346.725 199.606 346.536 199.835 346.311 200.004L330.237 210.896C329.803 211.197 329.447 210.988 329.447 210.426C329.466 210.112 329.548 209.808 329.685 209.538C329.823 209.268 330.011 209.039 330.237 208.87Z" fill="#E0E0E0"/>
<path d="M288.249 257.602V283.57C288.249 285.518 289.362 286.303 290.843 285.335L319.718 265.722C320.467 265.148 321.093 264.377 321.543 263.468C321.993 262.56 322.256 261.541 322.311 260.492V234.537C322.311 232.602 321.198 231.804 319.718 232.785L290.776 252.398C290.041 252.978 289.431 253.749 288.993 254.652C288.554 255.555 288.3 256.564 288.249 257.602Z" fill="#90CAF9"/>
<path opacity="0.5" d="M288.249 257.602V283.57C288.249 285.518 289.362 286.303 290.843 285.335L319.718 265.722C320.467 265.148 321.093 264.377 321.543 263.468C321.993 262.56 322.256 261.541 322.311 260.492V234.537C322.311 232.602 321.198 231.804 319.718 232.785L290.776 252.398C290.041 252.978 289.431 253.749 288.993 254.652C288.554 255.555 288.3 256.564 288.249 257.602Z" fill="#4E7291"/>
<path d="M300.594 268.507V257.144C300.602 256.578 300.792 256.036 301.127 255.628C301.462 255.221 301.915 254.977 302.397 254.948L311.224 254.49C312.215 254.49 312.471 255.105 311.814 255.968L301.796 269.043C301.139 269.906 300.594 269.644 300.594 268.507Z" fill="#FAFAFA"/>
<path d="M330.615 227.241L353.991 211.354C354.637 210.923 355.16 211.237 355.16 212.047C355.131 212.506 355.01 212.95 354.807 213.343C354.604 213.736 354.324 214.067 353.991 214.309L330.615 230.196C329.97 230.628 329.502 230.314 329.502 229.503C329.523 229.05 329.635 228.609 329.829 228.216C330.022 227.823 330.291 227.489 330.615 227.241Z" fill="#455A64"/>
<path d="M330.615 233.138L353.991 217.264C354.637 216.833 355.16 217.134 355.16 217.957C355.131 218.416 355.01 218.86 354.807 219.253C354.604 219.646 354.324 219.977 353.991 220.219L330.615 236.093C329.97 236.538 329.502 236.224 329.502 235.413C329.524 234.958 329.636 234.516 329.83 234.121C330.023 233.726 330.292 233.389 330.615 233.138Z" fill="#455A64"/>
<path d="M330.615 238.878L353.991 222.991C354.637 222.56 355.16 222.874 355.16 223.684C355.131 224.143 355.01 224.587 354.807 224.98C354.604 225.373 354.324 225.704 353.991 225.946L330.615 241.82C329.97 242.264 329.502 241.951 329.502 241.14C329.523 240.687 329.635 240.246 329.829 239.853C330.022 239.46 330.291 239.126 330.615 238.878Z" fill="#455A64"/>
<path d="M330.237 247.076L346.311 236.171C346.745 235.871 347.101 236.093 347.101 236.642C347.081 236.956 346.999 237.26 346.862 237.53C346.725 237.8 346.536 238.029 346.311 238.198L330.237 249.103C329.803 249.391 329.447 249.181 329.447 248.619C329.466 248.307 329.548 248.005 329.686 247.737C329.823 247.469 330.012 247.243 330.237 247.076Z" fill="#E0E0E0"/>
<path d="M330.237 251.13L346.311 240.225C346.745 239.924 347.101 240.146 347.101 240.695C347.081 241.009 346.999 241.313 346.862 241.583C346.725 241.853 346.536 242.082 346.311 242.251L330.237 253.156C329.803 253.444 329.447 253.235 329.447 252.672C329.466 252.361 329.548 252.059 329.686 251.791C329.823 251.523 330.012 251.296 330.237 251.13Z" fill="#E0E0E0"/>
<path d="M330.237 255.052L346.311 244.16C346.745 243.86 347.101 244.069 347.101 244.631C347.081 244.945 346.999 245.248 346.862 245.519C346.725 245.789 346.536 246.017 346.311 246.187L330.237 257.079C329.803 257.38 329.447 257.17 329.447 256.608C329.466 256.295 329.548 255.991 329.685 255.721C329.823 255.451 330.011 255.222 330.237 255.052Z" fill="#E0E0E0"/>
<path d="M288.249 303.824V329.791C288.249 331.727 289.362 332.511 290.843 331.544L319.718 311.93C320.468 311.358 321.094 310.586 321.544 309.678C321.995 308.769 322.257 307.749 322.311 306.7V280.745C322.311 278.81 321.198 278.026 319.718 278.993L290.776 298.606C290.039 299.187 289.428 299.96 288.989 300.865C288.551 301.771 288.297 302.783 288.249 303.824Z" fill="#90CAF9"/>
<path opacity="0.5" d="M288.249 303.824V329.791C288.249 331.727 289.362 332.511 290.843 331.544L319.718 311.93C320.468 311.358 321.094 310.586 321.544 309.678C321.995 308.769 322.257 307.749 322.311 306.7V280.745C322.311 278.81 321.198 278.026 319.718 278.993L290.776 298.606C290.039 299.187 289.428 299.96 288.989 300.865C288.551 301.771 288.297 302.783 288.249 303.824Z" fill="#4E7291"/>
<path d="M300.594 314.728V303.379C300.599 302.81 300.788 302.265 301.123 301.855C301.458 301.444 301.914 301.199 302.397 301.169L311.224 300.725C312.215 300.725 312.471 301.326 311.814 302.202L301.796 315.278C301.139 316.141 300.594 315.892 300.594 314.728Z" fill="#FAFAFA"/>
<path d="M330.615 273.463L353.991 257.589C354.637 257.145 355.16 257.458 355.16 258.269C355.132 258.728 355.011 259.172 354.808 259.566C354.605 259.959 354.325 260.29 353.991 260.531L330.615 276.418C329.97 276.849 329.502 276.548 329.502 275.725C329.524 275.272 329.636 274.831 329.83 274.438C330.023 274.045 330.292 273.711 330.615 273.463Z" fill="#455A64"/>
<path d="M330.615 279.373L353.991 263.486C354.637 263.054 355.16 263.368 355.16 264.179C355.131 264.637 355.01 265.081 354.807 265.475C354.604 265.868 354.324 266.199 353.991 266.441L330.615 282.328C329.97 282.759 329.502 282.445 329.502 281.635C329.524 281.182 329.636 280.741 329.83 280.348C330.023 279.955 330.292 279.621 330.615 279.373Z" fill="#455A64"/>
<path d="M330.615 285.1L353.991 269.213C354.637 268.781 355.16 269.095 355.16 269.906C355.132 270.365 355.011 270.809 354.808 271.202C354.605 271.596 354.325 271.927 353.991 272.168L330.615 288.055C329.97 288.486 329.502 288.172 329.502 287.362C329.524 286.909 329.636 286.468 329.83 286.075C330.023 285.682 330.292 285.348 330.615 285.1Z" fill="#455A64"/>
<path d="M330.237 293.298L346.311 282.393C346.745 282.106 347.101 282.315 347.101 282.877C347.081 283.189 346.999 283.491 346.862 283.759C346.725 284.027 346.536 284.253 346.311 284.42L330.237 295.325C329.803 295.626 329.447 295.403 329.447 294.854C329.466 294.541 329.548 294.237 329.685 293.967C329.823 293.697 330.011 293.468 330.237 293.298Z" fill="#E0E0E0"/>
<path d="M330.237 297.351L346.311 286.447C346.745 286.159 347.101 286.368 347.101 286.93C347.081 287.242 346.999 287.544 346.862 287.812C346.725 288.08 346.536 288.306 346.311 288.473L330.237 299.378C329.803 299.679 329.447 299.457 329.447 298.907C329.466 298.594 329.548 298.29 329.685 298.02C329.823 297.75 330.011 297.521 330.237 297.351Z" fill="#E0E0E0"/>
<path d="M330.237 301.274L346.311 290.382C346.745 290.082 347.101 290.304 347.101 290.853C347.081 291.167 346.999 291.47 346.862 291.741C346.725 292.011 346.536 292.239 346.311 292.409L330.237 303.301C329.803 303.602 329.447 303.392 329.447 302.83C329.466 302.517 329.548 302.213 329.685 301.943C329.823 301.673 330.011 301.444 330.237 301.274Z" fill="#E0E0E0"/>
<path d="M108.487 428.825L195.78 369.619C197.205 368.652 198.374 369.345 198.363 371.162C198.299 372.186 198.031 373.177 197.58 374.056C197.129 374.935 196.509 375.677 195.769 376.222L108.487 435.428C107.062 436.396 105.894 435.703 105.894 433.885C105.957 432.862 106.226 431.87 106.676 430.991C107.127 430.112 107.747 429.37 108.487 428.825Z" fill="#455A64"/>
<path d="M107.352 440.776L156.33 407.604C157.143 407.054 157.788 407.434 157.788 408.467C157.751 409.04 157.599 409.596 157.346 410.089C157.093 410.581 156.745 410.997 156.33 411.304L107.407 444.476C106.606 445.026 105.949 444.633 105.949 443.613C105.981 443.045 106.124 442.494 106.367 442.001C106.61 441.509 106.947 441.09 107.352 440.776Z" fill="#E0E0E0"/>
<path d="M126.409 439.455L188.934 397.065C190.359 396.084 191.528 396.777 191.528 398.608C191.464 399.631 191.196 400.622 190.745 401.501C190.295 402.38 189.674 403.123 188.934 403.668L126.409 446.058C124.973 447.026 123.815 446.346 123.815 444.515C123.879 443.492 124.147 442.501 124.598 441.622C125.048 440.743 125.669 440 126.409 439.455Z" fill="#455A64"/>
<path d="M125.262 451.393L149.429 435.01C150.241 434.46 150.887 434.853 150.887 435.873C150.852 436.447 150.701 437.004 150.448 437.497C150.194 437.99 149.845 438.406 149.429 438.71L125.262 455.094C124.461 455.63 123.815 455.25 123.815 454.231C123.849 453.657 123.998 453.101 124.249 452.608C124.501 452.115 124.848 451.699 125.262 451.393Z" fill="#E0E0E0"/>
<path d="M112.65 446.987C110.667 448.506 109.017 450.552 107.834 452.96C106.65 455.368 105.966 458.07 105.838 460.847C105.838 465.946 108.888 468.025 112.65 465.462C114.634 463.945 116.286 461.899 117.469 459.491C118.653 457.082 119.336 454.38 119.463 451.602C119.463 446.503 116.413 444.437 112.65 446.987Z" fill="#90CAF9"/>
<path d="M111.86 455.12C111.645 455.13 111.432 455.066 111.248 454.937C111.026 454.766 110.847 454.527 110.732 454.246C110.616 453.965 110.567 453.653 110.591 453.342C110.621 452.609 110.801 451.895 111.115 451.26C111.428 450.625 111.867 450.088 112.394 449.694C112.611 449.513 112.865 449.406 113.13 449.383C113.395 449.36 113.66 449.422 113.897 449.563C114.119 449.734 114.297 449.973 114.413 450.254C114.529 450.535 114.577 450.847 114.554 451.158C114.524 451.89 114.345 452.603 114.034 453.237C113.722 453.872 113.286 454.41 112.762 454.806C112.489 455 112.179 455.108 111.86 455.12Z" fill="white"/>
<path d="M115.4 455.656C115.019 455.434 114.595 455.338 114.172 455.377C113.748 455.416 113.342 455.589 112.995 455.878L112.016 456.545C111.117 457.22 110.369 458.139 109.834 459.225C109.3 460.31 108.994 461.53 108.944 462.782V463.606C109.551 463.918 110.218 464.039 110.878 463.956C111.538 463.874 112.168 463.591 112.706 463.135C114.274 461.992 115.569 460.399 116.468 458.506V458.31C116.506 457.796 116.427 457.28 116.239 456.813C116.052 456.347 115.762 455.948 115.4 455.656Z" fill="white"/>
<path d="M230.165 372.705L259.04 353.092C260.476 352.124 261.645 352.909 261.645 354.857V361.016C261.589 362.066 261.324 363.086 260.872 363.994C260.419 364.903 259.792 365.674 259.04 366.246L230.165 385.859C228.729 386.827 227.571 386.042 227.571 384.094V377.935C227.626 376.886 227.889 375.867 228.34 374.959C228.79 374.05 229.415 373.279 230.165 372.705Z" fill="#90CAF9"/>
<path opacity="0.7" d="M230.165 372.705L259.04 353.092C260.476 352.124 261.645 352.909 261.645 354.857V361.016C261.589 362.066 261.324 363.086 260.872 363.994C260.419 364.903 259.792 365.674 259.04 366.246L230.165 385.859C228.729 386.827 227.571 386.042 227.571 384.094V377.935C227.626 376.886 227.889 375.867 228.34 374.959C228.79 374.05 229.415 373.279 230.165 372.705Z" fill="white"/>
<path d="M272.197 350.425V348.398C272.197 346.097 271.006 345.025 269.526 346.031C268.713 346.715 268.049 347.613 267.585 348.653C267.121 349.693 266.871 350.846 266.854 352.02V353.837C266.823 355.085 266.516 356.302 265.964 357.368C265.831 357.653 265.758 357.971 265.752 358.296C265.752 358.884 266.053 359.146 266.42 358.898L272.654 354.661C272.86 354.491 273.029 354.267 273.147 354.005C273.265 353.744 273.329 353.453 273.333 353.157C273.342 353.044 273.328 352.929 273.294 352.823C273.259 352.716 273.204 352.62 273.132 352.543C272.817 352.336 272.561 352.025 272.395 351.648C272.229 351.272 272.16 350.846 272.197 350.425Z" fill="#455A64"/>
<path d="M270.806 356.531C270.801 357.095 270.683 357.65 270.46 358.15C270.238 358.65 269.918 359.081 269.526 359.407C268.825 359.891 268.246 359.407 268.246 358.27L270.806 356.531Z" fill="#455A64"/>
<path d="M219.824 360.349C219.767 360.821 219.56 361.251 219.245 361.552C219.307 361.735 219.338 361.93 219.334 362.127C219.309 362.412 219.227 362.685 219.096 362.926C218.964 363.167 218.787 363.368 218.577 363.513L215.182 365.828V360.597C215.182 360.506 216.117 358.1 216.195 357.734C216.24 357.116 216.24 356.495 216.195 355.877C216.279 355.692 216.414 355.545 216.577 355.46C216.74 355.374 216.923 355.356 217.097 355.406C217.19 355.46 217.262 355.554 217.297 355.668C217.396 355.931 217.467 356.208 217.509 356.492C217.552 356.99 217.526 357.494 217.431 357.982L219.49 356.583C219.547 356.534 219.613 356.502 219.683 356.491C219.753 356.479 219.825 356.489 219.891 356.518C219.961 356.577 220.017 356.656 220.054 356.748C220.091 356.839 220.107 356.94 220.102 357.041C220.087 357.422 219.97 357.788 219.768 358.087C219.768 358.087 220.18 357.943 220.18 358.584C220.169 358.811 220.119 359.034 220.033 359.239C219.947 359.443 219.826 359.625 219.679 359.774C219.679 359.774 219.824 359.865 219.824 360.349Z" fill="#90CAF9"/>
<path d="M214.692 365.487V366.599C214.688 366.677 214.669 366.753 214.637 366.821C214.604 366.889 214.558 366.947 214.503 366.991L213.39 367.736C213.328 367.756 213.263 367.756 213.201 367.736V361.748L214.091 361.146L214.626 360.78C214.64 360.858 214.64 360.938 214.626 361.016L214.692 365.487Z" fill="#90CAF9"/>
<path d="M243.912 339.938C243.914 339.859 243.898 339.78 243.866 339.71C243.834 339.64 243.787 339.581 243.73 339.539C243.673 339.497 243.607 339.473 243.539 339.469C243.472 339.466 243.405 339.483 243.345 339.52C243.4 339.294 243.43 339.061 243.434 338.827C243.434 338.382 243.122 338.16 242.677 338.461L239.282 340.762V345.992C239.653 346.455 239.995 346.949 240.306 347.47C240.35 348.092 240.35 348.717 240.306 349.339C240.306 349.536 240.851 349.248 241.207 348.581C241.287 348.414 241.354 348.239 241.408 348.058C241.499 347.694 241.566 347.323 241.608 346.947C241.661 346.479 241.638 346.005 241.541 345.548L243.59 344.162C243.76 344.049 243.899 343.881 243.99 343.678C244.117 343.437 244.19 343.163 244.202 342.88C244.202 342.396 243.979 342.292 243.868 342.279C243.993 342.146 244.093 341.984 244.164 341.805C244.235 341.625 244.274 341.431 244.28 341.233C244.28 340.867 244.09 340.592 243.779 340.723C243.873 340.476 243.919 340.208 243.912 339.938Z" fill="#90CAF9"/>
<path d="M238.792 341.756V340.657C238.792 340.514 238.703 340.448 238.592 340.527L237.478 341.259C237.406 341.32 237.338 341.39 237.278 341.468V347.457L238.18 346.855L238.703 346.489C238.734 346.393 238.753 346.291 238.759 346.188L238.792 341.756Z" fill="#90CAF9"/>
<path d="M270.127 323.123L266.387 321.815V324.143C264.907 324.883 263.631 326.091 262.702 327.634C260.643 331.243 262.135 333.309 262.825 333.453C262.825 333.453 261.712 332.577 262.936 329.988C263.769 328.556 264.983 327.49 266.387 326.954V329.569L270.127 323.123Z" fill="#90CAF9"/>
<path d="M225.301 352.137L229.842 349.065C231.278 348.084 232.436 348.777 232.436 350.608C232.372 351.631 232.104 352.622 231.653 353.501C231.203 354.38 230.582 355.123 229.842 355.668L225.301 358.74C223.865 359.721 222.707 359.028 222.707 357.198C222.771 356.174 223.039 355.183 223.49 354.304C223.94 353.425 224.561 352.683 225.301 352.137Z" fill="#E0E0E0"/>
<path d="M249.634 335.636L254.176 332.55C255.612 331.583 256.769 332.276 256.769 334.093C256.705 335.117 256.437 336.108 255.987 336.987C255.536 337.866 254.916 338.608 254.176 339.154L249.634 342.239C248.198 343.207 247.04 342.527 247.04 340.696C247.104 339.673 247.372 338.682 247.823 337.803C248.273 336.924 248.894 336.181 249.634 335.636Z" fill="#E0E0E0"/>
<path d="M113.006 269.645L275.893 159.183C277.329 158.202 278.487 159 278.487 160.935V297.273C278.433 298.322 278.17 299.342 277.72 300.251C277.269 301.159 276.643 301.93 275.893 302.503L113.006 413.017C111.582 413.998 110.413 413.2 110.413 411.265V274.875C110.469 273.826 110.733 272.808 111.183 271.9C111.634 270.992 112.258 270.22 113.006 269.645Z" fill="#455A64"/>
<path opacity="0.3" d="M131.83 391.364L251.382 310.623C252.15 310.1 252.784 310.479 252.784 311.46C252.748 312.012 252.602 312.547 252.358 313.021C252.115 313.496 251.78 313.897 251.382 314.193L131.83 394.934C131.051 395.457 130.427 395.077 130.427 394.097C130.461 393.544 130.606 393.008 130.85 392.533C131.093 392.058 131.429 391.657 131.83 391.364Z" fill="white"/>
<path d="M131.83 391.364L239.616 318.599C240.395 318.076 241.018 318.455 241.018 319.436C240.984 319.989 240.84 320.525 240.596 321C240.352 321.475 240.016 321.875 239.616 322.169L131.83 394.934C131.051 395.457 130.427 395.077 130.427 394.097C130.461 393.544 130.606 393.008 130.85 392.533C131.093 392.058 131.429 391.657 131.83 391.364Z" fill="white"/>
<path d="M117.203 401.484V404.989C117.2 405.075 117.179 405.16 117.143 405.235C117.106 405.31 117.054 405.374 116.992 405.42L116.413 405.812C116.392 405.83 116.367 405.841 116.341 405.842C116.315 405.844 116.289 405.837 116.267 405.821C116.245 405.806 116.227 405.784 116.215 405.757C116.203 405.729 116.198 405.699 116.201 405.669V402.164C116.207 402.078 116.229 401.995 116.265 401.92C116.302 401.846 116.352 401.782 116.413 401.733L116.992 401.341C117.114 401.262 117.203 401.328 117.203 401.484Z" fill="white"/>
<path d="M119.207 400.125V403.629C119.204 403.715 119.183 403.8 119.146 403.875C119.109 403.95 119.058 404.014 118.995 404.06L118.427 404.453C118.305 404.531 118.205 404.453 118.205 404.309V400.805C118.21 400.717 118.233 400.632 118.271 400.557C118.31 400.482 118.364 400.419 118.427 400.373L118.995 399.981C119.118 399.902 119.207 399.968 119.207 400.125Z" fill="white"/>
<path d="M127.177 394.829V398.333C127.171 398.419 127.149 398.503 127.113 398.577C127.076 398.652 127.026 398.716 126.965 398.765L126.709 398.948C126.587 399.026 126.498 398.948 126.498 398.804V395.3C126.501 395.213 126.521 395.129 126.558 395.053C126.595 394.978 126.647 394.915 126.709 394.868L126.965 394.685C126.986 394.667 127.011 394.657 127.037 394.655C127.063 394.654 127.089 394.661 127.111 394.676C127.133 394.691 127.152 394.714 127.163 394.741C127.175 394.768 127.18 394.799 127.177 394.829Z" fill="white"/>
<path d="M122.969 397.549V400.988C122.969 401.236 123.081 401.288 123.225 401.092L125.919 397.444C126.064 397.248 125.997 397.091 125.785 397.091H123.359C123.256 397.091 123.156 397.139 123.083 397.225C123.01 397.311 122.969 397.427 122.969 397.549Z" fill="white"/>
<path d="M266.788 300.804C266.696 300.804 266.608 300.761 266.544 300.685C266.479 300.609 266.443 300.506 266.443 300.398V299.248C266.442 299.179 266.458 299.111 266.487 299.051C266.517 298.992 266.559 298.942 266.609 298.908L268.201 297.836C268.239 297.808 268.281 297.79 268.325 297.782C268.369 297.774 268.413 297.777 268.456 297.791C268.499 297.804 268.539 297.828 268.574 297.86C268.608 297.893 268.637 297.933 268.658 297.979C268.699 298.07 268.71 298.176 268.687 298.276C268.664 298.375 268.61 298.461 268.535 298.515L267.122 299.47V300.398C267.122 300.504 267.087 300.605 267.024 300.68C266.962 300.756 266.877 300.8 266.788 300.804Z" fill="#FAFAFA"/>
<path d="M274.001 295.913C273.912 295.913 273.827 295.872 273.765 295.798C273.702 295.725 273.667 295.625 273.667 295.521V295.037L272.554 295.769C272.516 295.795 272.474 295.812 272.43 295.819C272.387 295.825 272.342 295.822 272.3 295.809C272.258 295.795 272.218 295.772 272.183 295.741C272.148 295.709 272.119 295.67 272.097 295.626C272.074 295.581 272.058 295.532 272.052 295.481C272.045 295.429 272.048 295.376 272.059 295.326C272.071 295.276 272.091 295.229 272.118 295.188C272.146 295.147 272.181 295.114 272.22 295.089L273.8 294.017C273.85 293.978 273.908 293.958 273.967 293.958C274.027 293.958 274.085 293.978 274.134 294.017C274.187 294.049 274.23 294.099 274.26 294.159C274.289 294.219 274.304 294.288 274.301 294.357V295.521C274.302 295.619 274.271 295.713 274.216 295.785C274.16 295.858 274.083 295.903 274.001 295.913Z" fill="#FAFAFA"/>
<path d="M266.788 306.073C266.733 306.088 266.676 306.088 266.621 306.073C266.568 306.039 266.525 305.99 266.493 305.93C266.462 305.871 266.445 305.803 266.443 305.733V304.569C266.457 304.476 266.499 304.391 266.561 304.33C266.623 304.27 266.701 304.236 266.782 304.236C266.863 304.236 266.941 304.27 267.003 304.33C267.065 304.391 267.107 304.476 267.122 304.569V304.948L268.235 304.216C268.312 304.167 268.402 304.155 268.487 304.182C268.572 304.209 268.645 304.272 268.691 304.36C268.733 304.453 268.744 304.561 268.721 304.663C268.699 304.764 268.644 304.852 268.569 304.909L266.988 305.981C266.928 306.03 266.86 306.061 266.788 306.073Z" fill="#FAFAFA"/>
<path d="M272.42 302.255C272.346 302.255 272.275 302.226 272.216 302.174C272.158 302.121 272.116 302.047 272.097 301.964C272.078 301.88 272.083 301.792 272.111 301.712C272.139 301.632 272.189 301.565 272.253 301.522L273.667 300.555V299.626C273.667 299.522 273.702 299.423 273.765 299.349C273.827 299.275 273.912 299.234 274.001 299.234C274.089 299.234 274.174 299.275 274.237 299.349C274.299 299.423 274.335 299.522 274.335 299.626V300.79C274.337 300.86 274.323 300.928 274.293 300.989C274.264 301.049 274.22 301.098 274.168 301.13L272.587 302.202C272.537 302.238 272.479 302.256 272.42 302.255Z" fill="#FAFAFA"/>
<path d="M263.159 305.053H263.103H262.457C262.443 305.055 262.429 305.053 262.416 305.048C262.402 305.043 262.39 305.035 262.379 305.023C262.369 305.012 262.36 304.999 262.355 304.983C262.349 304.968 262.346 304.952 262.346 304.935C262.352 304.818 262.352 304.7 262.346 304.582C262.346 304.451 262.346 304.321 262.346 304.203C262.344 304.122 262.368 304.042 262.413 303.981L263.125 302.961C263.14 302.929 263.147 302.893 263.147 302.856C263.147 302.82 263.14 302.784 263.125 302.752L262.791 301.862C262.791 301.862 262.724 301.862 262.691 301.862L261.923 302.686C261.897 302.708 261.866 302.719 261.834 302.719C261.802 302.719 261.771 302.708 261.745 302.686C261.65 302.589 261.54 302.514 261.422 302.464C261.396 302.452 261.374 302.43 261.359 302.402C261.345 302.373 261.34 302.34 261.344 302.307L261.578 300.999C261.578 300.999 261.578 300.934 261.578 300.908H261.511L260.754 300.999C260.721 301.005 260.69 301.02 260.663 301.043C260.636 301.066 260.614 301.096 260.598 301.13L260.187 302.438C260.155 302.526 260.095 302.597 260.02 302.634C259.859 302.722 259.707 302.827 259.563 302.948C259.496 302.948 259.43 302.948 259.396 302.948L259.018 302.268C259.018 302.268 258.929 302.268 258.873 302.268L258.049 303.288C258.003 303.349 257.979 303.428 257.982 303.51L258.216 304.425C258.236 304.493 258.236 304.567 258.216 304.634C258.083 304.896 257.949 305.144 257.838 305.419C257.796 305.494 257.733 305.55 257.66 305.576L256.958 305.772C256.922 305.781 256.888 305.799 256.859 305.827C256.83 305.854 256.807 305.889 256.791 305.929L256.435 307.328C256.432 307.344 256.431 307.36 256.434 307.376C256.437 307.392 256.443 307.407 256.452 307.42C256.461 307.432 256.472 307.442 256.484 307.449C256.497 307.456 256.51 307.459 256.524 307.459H257.17C257.199 307.459 257.228 307.473 257.249 307.497C257.269 307.522 257.281 307.555 257.281 307.59C257.259 307.829 257.259 308.07 257.281 308.309C257.281 308.39 257.258 308.468 257.214 308.531L256.491 309.564C256.476 309.596 256.469 309.632 256.469 309.669C256.469 309.705 256.476 309.741 256.491 309.773L256.836 310.662C256.836 310.662 256.892 310.662 256.925 310.662L257.693 309.839C257.717 309.816 257.746 309.804 257.777 309.804C257.807 309.804 257.836 309.816 257.86 309.839C257.958 309.934 258.067 310.013 258.183 310.074C258.211 310.083 258.234 310.105 258.249 310.134C258.263 310.163 258.268 310.198 258.261 310.231L258.027 311.538C258.027 311.538 258.027 311.604 258.027 311.63H258.094L258.851 311.538C258.886 311.536 258.92 311.522 258.949 311.499C258.978 311.476 259.002 311.445 259.018 311.408L259.418 310.1C259.457 310.02 259.515 309.956 259.585 309.917L259.819 309.76L260.053 309.603C260.053 309.603 260.187 309.538 260.209 309.603L260.598 310.296C260.617 310.309 260.638 310.315 260.66 310.315C260.681 310.315 260.702 310.309 260.721 310.296L261.545 309.276C261.569 309.25 261.588 309.217 261.599 309.181C261.611 309.145 261.615 309.106 261.611 309.067L261.378 308.152C261.358 308.079 261.358 308.002 261.378 307.929C261.519 307.683 261.645 307.425 261.756 307.158C261.797 307.082 261.86 307.026 261.934 307.001L262.647 306.805C262.713 306.805 262.791 306.713 262.802 306.648L263.159 305.236C263.179 305.236 263.199 305.226 263.214 305.209C263.228 305.192 263.237 305.169 263.237 305.144C263.237 305.12 263.228 305.097 263.214 305.08C263.199 305.063 263.179 305.053 263.159 305.053ZM259.385 308.479H259.107C258.954 308.477 258.805 308.423 258.679 308.323C258.552 308.223 258.453 308.082 258.394 307.916C258.339 307.772 258.305 307.617 258.294 307.459C258.289 307.372 258.289 307.284 258.294 307.197C258.336 306.257 258.664 305.366 259.218 304.687C259.384 304.477 259.576 304.297 259.786 304.151L259.975 304.033C260.143 303.944 260.325 303.899 260.509 303.902H260.598C260.73 303.923 260.854 303.985 260.958 304.081C261.062 304.178 261.141 304.306 261.188 304.451C261.307 305.024 261.294 305.623 261.152 306.189C261.009 306.754 260.741 307.264 260.376 307.668C260.12 308.046 259.776 308.328 259.385 308.479Z" fill="white"/>
<path d="M223.119 208.059C226.636 205.667 229.497 207.602 229.497 212.374C229.375 214.973 228.734 217.501 227.626 219.754C226.518 222.007 224.974 223.923 223.119 225.345C219.601 227.738 216.74 225.803 216.74 221.017C216.862 218.42 217.502 215.894 218.61 213.642C219.719 211.391 221.263 209.478 223.119 208.059Z" fill="#90CAF9"/>
<path d="M222.212 208.928V212.761L221.544 213.22V210.156L221.525 210.169L220.801 211.216V210.497L221.584 209.359L222.212 208.928Z" fill="#455A64"/>
<path d="M237.401 202.11L268.335 181.189C269.192 180.614 269.871 181.019 269.871 182.105C269.836 182.709 269.678 183.295 269.411 183.814C269.143 184.332 268.775 184.768 268.335 185.086L237.401 206.006C236.555 206.582 235.864 206.176 235.864 205.091C235.908 204.489 236.069 203.906 236.335 203.389C236.602 202.872 236.966 202.434 237.401 202.11Z" fill="#90CAF9"/>
<path d="M236.922 209.118L258.15 194.735C258.728 194.343 259.207 194.618 259.207 195.363C259.183 195.779 259.075 196.183 258.891 196.54C258.707 196.897 258.453 197.198 258.15 197.416L236.922 211.799C236.343 212.191 235.864 211.916 235.864 211.171C235.888 210.755 235.997 210.351 236.181 209.994C236.365 209.637 236.619 209.336 236.922 209.118Z" fill="#E0E0E0"/>
<path d="M223.119 234.014C226.636 231.634 229.497 233.569 229.497 238.342C229.375 240.94 228.734 243.468 227.626 245.722C226.518 247.975 224.974 249.89 223.119 251.313C219.601 253.692 216.74 251.757 216.74 246.985C216.862 244.386 217.503 241.858 218.612 239.605C219.72 237.352 221.264 235.436 223.119 234.014Z" fill="#90CAF9"/>
<path d="M220.837 239.673V239.089L221.962 237.053C222.057 236.875 222.138 236.719 222.202 236.585C222.268 236.45 222.318 236.327 222.352 236.218C222.386 236.107 222.403 236.001 222.403 235.9C222.403 235.788 222.382 235.706 222.34 235.654C222.297 235.6 222.24 235.577 222.167 235.583C222.094 235.589 222.011 235.623 221.918 235.687C221.822 235.753 221.737 235.835 221.665 235.931C221.593 236.028 221.538 236.134 221.499 236.25C221.46 236.365 221.44 236.484 221.44 236.606L220.806 237.042C220.806 236.791 220.853 236.541 220.946 236.292C221.04 236.043 221.171 235.81 221.34 235.594C221.509 235.377 221.703 235.193 221.923 235.041C222.149 234.886 222.346 234.799 222.514 234.782C222.683 234.762 222.814 234.805 222.907 234.912C223.001 235.019 223.048 235.182 223.048 235.403C223.048 235.548 223.024 235.707 222.977 235.881C222.931 236.053 222.848 236.267 222.728 236.521C222.609 236.774 222.441 237.095 222.224 237.483L221.763 238.348V238.375L223.089 237.463V238.126L220.837 239.673Z" fill="#455A64"/>
<path d="M237.401 228.064L268.335 207.144C269.192 206.568 269.871 206.974 269.871 208.046C269.836 208.652 269.678 209.24 269.411 209.761C269.143 210.282 268.775 210.72 268.335 211.04L237.401 231.974C236.555 232.549 235.864 232.144 235.864 231.059C235.906 230.454 236.066 229.869 236.333 229.35C236.599 228.83 236.965 228.39 237.401 228.064Z" fill="#90CAF9"/>
<path d="M236.922 235.086L258.15 220.703C258.728 220.298 259.207 220.585 259.207 221.318C259.183 221.734 259.075 222.138 258.891 222.495C258.707 222.852 258.453 223.152 258.15 223.371L236.922 237.754C236.343 238.146 235.864 237.858 235.864 237.126C235.89 236.712 235.999 236.311 236.183 235.956C236.367 235.601 236.62 235.303 236.922 235.086Z" fill="#E0E0E0"/>
<path d="M223.119 259.982C226.636 257.589 229.497 259.524 229.497 264.31C229.376 266.907 228.735 269.433 227.627 271.685C226.519 273.936 224.974 275.849 223.119 277.268C219.601 279.66 216.74 277.725 216.74 272.953C216.862 270.354 217.503 267.826 218.612 265.573C219.72 263.32 221.264 261.404 223.119 259.982Z" fill="#90CAF9"/>
<path d="M222.005 264.891C221.774 265.049 221.569 265.142 221.389 265.17C221.21 265.195 221.069 265.159 220.965 265.061C220.862 264.96 220.809 264.8 220.806 264.578L221.479 264.116C221.483 264.207 221.508 264.272 221.554 264.312C221.602 264.349 221.664 264.36 221.743 264.345C221.821 264.33 221.909 264.289 222.006 264.222C222.108 264.152 222.198 264.068 222.276 263.971C222.355 263.874 222.416 263.771 222.46 263.663C222.504 263.556 222.526 263.451 222.526 263.35C222.526 263.248 222.503 263.174 222.455 263.128C222.409 263.079 222.342 263.063 222.255 263.078C222.168 263.093 222.066 263.141 221.946 263.223L221.652 263.425V262.83L221.946 262.627C222.047 262.558 222.136 262.476 222.213 262.381C222.291 262.284 222.352 262.184 222.395 262.08C222.438 261.974 222.46 261.87 222.46 261.769C222.46 261.673 222.441 261.602 222.403 261.556C222.366 261.508 222.313 261.486 222.246 261.492C222.179 261.496 222.101 261.53 222.011 261.591C221.921 261.653 221.838 261.73 221.763 261.821C221.688 261.912 221.627 262.009 221.582 262.112C221.537 262.215 221.513 262.317 221.51 262.416L220.869 262.856C220.872 262.633 220.924 262.403 221.025 262.165C221.126 261.927 221.262 261.703 221.432 261.49C221.604 261.276 221.798 261.095 222.014 260.947C222.232 260.797 222.423 260.714 222.587 260.698C222.75 260.682 222.877 260.724 222.968 260.826C223.059 260.925 223.104 261.076 223.103 261.279C223.104 261.493 223.049 261.71 222.938 261.929C222.828 262.148 222.685 262.338 222.508 262.498V262.528C222.74 262.405 222.917 262.381 223.039 262.458C223.161 262.532 223.222 262.689 223.221 262.928C223.222 263.145 223.17 263.375 223.065 263.617C222.961 263.858 222.817 264.09 222.634 264.313C222.451 264.536 222.241 264.729 222.005 264.891Z" fill="#455A64"/>
<path d="M237.401 254.033L268.335 233.033C269.192 232.458 269.871 232.876 269.871 233.949C269.835 234.555 269.676 235.142 269.409 235.663C269.142 236.183 268.774 236.622 268.335 236.943L237.401 257.942C236.555 258.517 235.864 258.099 235.864 257.027C235.906 256.422 236.066 255.837 236.333 255.318C236.599 254.798 236.965 254.358 237.401 254.033Z" fill="#90CAF9"/>
<path d="M236.922 261.054L258.15 246.671C258.728 246.279 259.207 246.566 259.207 247.299C259.183 247.715 259.075 248.119 258.891 248.476C258.707 248.833 258.453 249.133 258.15 249.351L236.922 263.734C236.343 264.14 235.864 263.852 235.864 263.12C235.887 262.701 235.994 262.295 236.178 261.935C236.362 261.576 236.617 261.273 236.922 261.054Z" fill="#E0E0E0"/>
<path d="M314.308 473.439L341.168 467.254C341.338 467.218 341.514 467.244 341.67 467.33C341.827 467.416 341.957 467.557 342.043 467.734C342.128 467.91 342.165 468.114 342.148 468.316C342.131 468.518 342.061 468.709 341.947 468.862L323.725 493.091L314.308 473.439Z" fill="#FFA8A7"/>
<path d="M341.947 468.862C342.061 468.709 342.131 468.518 342.148 468.316C342.165 468.114 342.128 467.91 342.043 467.734C341.957 467.557 341.827 467.416 341.67 467.33C341.514 467.244 341.338 467.218 341.168 467.254L335.925 468.47C336.647 468.992 337.231 469.739 337.612 470.628C337.993 471.517 338.157 472.512 338.085 473.504V474.053L341.947 468.862Z" fill="#263238"/>
<path d="M222.64 561.227L224.866 559.75L227.527 557.972L323.758 493.157C324.64 489.684 324.374 485.948 323.013 482.696C321.109 477.688 317.447 473.74 314.352 473.543L218.165 538.319L213.067 541.614C216.451 539.653 226.013 559.122 222.64 561.227Z" fill="#90CAF9"/>
<path d="M231.022 555.566L235.92 552.258C237.367 551.356 236.532 547.171 234.807 542.857C232.581 537.116 228.128 531.546 226.247 532.749L222.629 535.181L221.349 536.083C223.264 534.88 227.683 540.438 229.92 546.191C231.534 550.323 232.358 554.363 231.134 555.448C231.107 555.5 231.068 555.541 231.022 555.566Z" fill="#EBEBEB"/>
<path d="M232.28 554.69C235.619 552.598 226.013 533.102 222.64 535.194L217.731 538.503C221.071 536.397 230.733 555.893 227.36 557.985L232.28 554.69Z" fill="#90CAF9"/>
<path d="M222.64 561.227L227.493 557.972C230.833 555.945 221.649 537.051 218.132 538.28L217.932 538.372L213.067 541.614C216.451 539.653 226.013 559.122 222.64 561.227Z" fill="#EBEBEB"/>
<path opacity="0.15" d="M342.07 467.803L341.168 467.254L321.677 479.78L219.969 548.309C219.78 547.956 219.624 547.93 219.501 548.178C222.362 553.408 224.521 560.025 222.64 561.175L224.867 559.698L227.527 557.919L323.758 493.104L341.981 468.875C342.087 468.729 342.153 468.548 342.169 468.356C342.185 468.164 342.15 467.971 342.07 467.803Z" fill="black"/>
<path d="M202.058 575.009L222.64 561.227C224.087 560.351 223.286 556.207 221.616 551.918C219.39 546.165 215.004 540.555 213.067 541.693L192.418 555.579C188.322 558.364 192.084 568.824 196.659 573.492C198.34 575.218 200.244 576.003 202.058 575.009Z" fill="#F28F8F"/>
<path opacity="0.1" d="M203.338 567.504C202.158 562.064 198.396 556.716 194.945 555.579C194.436 555.359 193.89 555.289 193.353 555.373C192.815 555.457 192.304 555.694 191.862 556.063C188.767 559.436 192.374 569.033 196.693 573.453C198.363 575.192 200.233 575.963 202.003 575.048C203.494 573.989 204.084 571.204 203.338 567.504Z" fill="black"/>
</svg>
